<svg width="759" height="423" viewBox="0 0 759 423" fill="none" xmlns="http://www.w3.org/2000/svg">
<g opacity="0.32" clip-path="url(#clip0)">
<path d="M641.209 116.243H579.18V162.741H641.209V116.243Z" fill="#652DAD"/>
<path d="M610.24 20.6118L656.739 100.803H563.65L610.24 20.6118Z" fill="#652DAD"/>
<path d="M567.646 224.77H594.892V178.272H625.861V224.77H649.383V379.703L707.234 489.772H-33.4796L162.143 162.107L238.612 226.223L336.696 15.5293L431.419 205.517L495.9 88.5456L567.646 224.77Z" fill="#652DAD"/>
<path d="M625.769 131.772H610.239V147.302H625.769V131.772Z" fill="#833AE0"/>
<path d="M330.157 104.798L299.188 328.479L182.486 216.593L256.322 260.639L330.157 104.798Z" fill="#8B4ADF"/>
<path d="M443.771 223.499L487.545 149.665L496.99 310.319L443.771 223.499Z" fill="#8B4ADF"/>
<path d="M476.101 9.07971C479.319 8.3088 482.604 7.85257 485.91 7.71747C503.075 7.71747 516.97 16.7991 516.97 28.4236C516.97 40.0481 503.256 49.1297 485.91 49.1297C468.564 49.1297 457.03 41.2287 455.122 30.9664C442.226 30.9664 431.782 24.0644 431.782 15.5277C431.782 6.99094 442.226 -0.0019233 455.122 -0.0019233C459.08 -0.188578 463.029 0.532747 466.665 2.10684C470.301 3.68094 473.529 6.06608 476.101 9.07971V9.07971Z" fill="#652DAD"/>
</g>
<defs>
<clipPath id="clip0">
<rect width="818" height="534" fill="white" transform="translate(-59)"/>
</clipPath>
</defs>
</svg>
