<svg display="none" width="0" height="0" version="1.1" xmlns="http://www.w3.org/2000/svg" xmlns:xlink="http://www.w3.org/1999/xlink">


<symbol id="logo" viewBox="0 0 159 37">
	<g clip-path="url(#clip0)">
	<path d="M155.534 0.182404H3.46594C1.55202 0.182404 0 1.75573 0 3.69297V25.8955C0 27.8346 1.55202 29.4079 3.46594 29.4079H15.0773C15.9964 29.4079 16.8778 29.7782 17.5286 30.4358L23.1705 36.1536C24.5244 37.5253 26.7192 37.5253 28.0714 36.1536L33.715 30.4358C34.365 29.7782 35.2463 29.4079 36.1655 29.4079H155.534C157.448 29.4079 159 27.8355 159 25.8955V3.69297C159 1.75573 157.448 0.182404 155.534 0.182404Z" fill="#FF8C31"/>
	<path d="M12.7987 9.06873C13.4757 9.06873 14.095 9.16723 14.6568 9.36424C15.2185 9.56124 15.7011 9.85311 16.1044 10.2398C16.5077 10.6265 16.821 11.1081 17.0442 11.6845C17.2675 12.261 17.3791 12.9359 17.3791 13.7093V20.1449H14.7216V19.0942C14.3471 19.5028 13.8826 19.8239 13.328 20.0574C12.7735 20.2909 12.1433 20.4076 11.4375 20.4076C10.8614 20.4076 10.3428 20.3237 9.8819 20.1559C9.42097 19.988 9.03207 19.7619 8.71518 19.4773C8.3983 19.1927 8.15703 18.8534 7.99139 18.4594C7.82574 18.0654 7.74292 17.6349 7.74292 17.1679C7.74292 16.1756 8.10662 15.4022 8.83401 14.8476C9.56141 14.2931 10.5517 14.0158 11.8048 14.0158H14.4839V13.5342C14.4839 12.9359 14.3183 12.4689 13.987 12.1333C13.6557 11.7976 13.1516 11.6298 12.4746 11.6298C11.9128 11.6298 11.4123 11.7612 10.973 12.0238C10.5337 12.2865 10.0908 12.6513 9.64423 13.1183L8.15343 11.3015C9.36336 9.81298 10.9118 9.06873 12.7987 9.06873ZM12.2153 18.2405C12.8491 18.2405 13.3856 18.0435 13.825 17.6495C14.2643 17.2555 14.4839 16.7374 14.4839 16.0953V15.964H12.1937C11.1999 15.964 10.7029 16.3288 10.7029 17.0585C10.7029 17.4379 10.8434 17.7298 11.1242 17.9341C11.4051 18.1393 11.7688 18.2405 12.2153 18.2405Z" fill="white"/>
	<path d="M30.7549 20.1449H27.8598V11.8049H25.1806V12.79C25.1806 14.1763 25.0438 15.3401 24.7701 16.2814C24.4964 17.2226 24.1183 17.9815 23.6358 18.5579C23.1533 19.1343 22.5843 19.5539 21.929 19.8166C21.2736 20.0792 20.5642 20.2325 19.8008 20.2763V17.6714C20.2329 17.613 20.6074 17.4671 20.9243 17.2336C21.2412 17.0001 21.5004 16.6426 21.7021 16.161C21.9037 15.6794 22.0514 15.0592 22.145 14.3004C22.2386 13.5415 22.2855 12.6003 22.2855 11.4766V9.30951H30.7549V20.1449Z" fill="white"/>
	<path d="M42.4284 11.8049H37.3942V20.1449H34.4774V9.30951H42.4284V11.8049Z" fill="white"/>
	<path d="M49.9598 9.06873C50.752 9.06873 51.4974 9.21466 52.196 9.50652C52.8946 9.79838 53.5032 10.196 54.0217 10.6995C54.5402 11.203 54.9507 11.7976 55.2532 12.4835C55.5557 13.1694 55.707 13.9137 55.707 14.7163C55.707 15.5189 55.5557 16.2668 55.2532 16.96C54.9507 17.6531 54.5402 18.2515 54.0217 18.7549C53.5032 19.2584 52.8946 19.6561 52.196 19.9479C51.4974 20.2398 50.752 20.3857 49.9598 20.3857C49.1676 20.3857 48.4222 20.2398 47.7236 19.9479C47.025 19.6561 46.4164 19.2584 45.8979 18.7549C45.3794 18.2515 44.9725 17.6531 44.6772 16.96C44.3819 16.2668 44.2343 15.5189 44.2343 14.7163C44.2343 13.9137 44.3819 13.1694 44.6772 12.4835C44.9725 11.7976 45.3794 11.203 45.8979 10.6995C46.4164 10.196 47.0214 9.79838 47.7128 9.50652C48.4042 9.21557 49.1532 9.06873 49.9598 9.06873ZM49.9598 11.7612C49.1388 11.7612 48.4726 12.0421 47.9613 12.6039C47.4499 13.1658 47.1943 13.8772 47.1943 14.7382C47.1943 15.5992 47.4499 16.3033 47.9613 16.8505C48.4726 17.3978 49.1388 17.6714 49.9598 17.6714C50.3487 17.6714 50.7124 17.5984 51.0509 17.4525C51.3894 17.3066 51.6811 17.1023 51.9259 16.8396C52.1708 16.5769 52.3653 16.2668 52.5093 15.9093C52.6533 15.5517 52.7253 15.1614 52.7253 14.7382C52.7253 14.315 52.6533 13.9209 52.5093 13.5561C52.3653 13.1913 52.1708 12.8775 51.9259 12.6149C51.6811 12.3522 51.3894 12.1442 51.0509 11.991C50.7124 11.8378 50.3487 11.7612 49.9598 11.7612Z" fill="white"/>
	<path d="M64.7833 9.06873C65.5323 9.06873 66.2273 9.21101 66.8682 9.49558C67.5092 9.78014 68.0566 10.1742 68.5103 10.6776C68.964 11.1811 69.3205 11.7758 69.5798 12.4616C69.839 13.1475 69.9687 13.8991 69.9687 14.7163C69.9687 15.5335 69.839 16.2887 69.5798 16.9819C69.3205 17.675 68.9604 18.277 68.4995 18.7878C68.0386 19.2985 67.4912 19.6962 66.8574 19.9807C66.2237 20.2653 65.5323 20.4076 64.7833 20.4076C63.4293 20.4076 62.3634 19.9771 61.5856 19.1161V24.0851H58.6688V9.30951H61.3479V10.6448C61.7224 10.134 62.2014 9.74366 62.7847 9.47369C63.3681 9.20462 64.0343 9.06873 64.7833 9.06873ZM64.2647 11.7393C63.919 11.7393 63.5841 11.7976 63.2601 11.9144C62.936 12.0311 62.6479 12.2099 62.3958 12.4507C62.1438 12.6915 61.9385 12.9979 61.7801 13.3701C61.6216 13.7422 61.5424 14.1909 61.5424 14.7163C61.5424 15.227 61.618 15.6721 61.7693 16.0515C61.9205 16.431 62.1258 16.7447 62.385 16.9928C62.6443 17.2409 62.936 17.4233 63.2601 17.54C63.5841 17.6568 63.919 17.7152 64.2647 17.7152C64.6392 17.7152 64.9921 17.6458 65.3234 17.5072C65.6547 17.3686 65.9464 17.1716 66.1985 16.9162C66.4505 16.6608 66.6486 16.3507 66.7926 15.9859C66.9367 15.621 67.0087 15.2051 67.0087 14.7382C67.0087 14.2858 66.9367 13.8735 66.7926 13.5014C66.6486 13.1293 66.4505 12.8119 66.1985 12.5492C65.9464 12.2865 65.6547 12.0859 65.3234 11.9472C64.9921 11.8095 64.6392 11.7393 64.2647 11.7393Z" fill="white"/>
	<path d="M83.0617 20.1449H80.1666V14.3879L73.9873 20.4076H73.015V9.30951H75.9318V15.0884L82.1111 9.06873H83.0617V20.1449Z" fill="white"/>
	<path d="M95.1519 11.7831H91.7598V20.1449H88.8646V11.7831H85.4941V9.28763H95.1519V11.7831Z" fill="white"/>
	<path d="M109.544 20.1449H106.649V14.9352L104.056 17.8903H103.084L100.513 14.9571V20.1449H97.5962V9.06873H98.5685L103.581 14.7382L108.615 9.06873H109.544V20.1449Z" fill="white"/>
	<path d="M123.3 20.1449H120.405V14.3879L114.225 20.4076H113.253V9.30951H116.17V15.0884L122.349 9.06873H123.3V20.1449Z" fill="white"/>
	<path d="M129.927 14.2347L133.945 9.30951H137.294L133.211 14.2347L137.618 20.1449H134.291L129.927 14.3004V20.1449H127.01V9.30951H129.927V14.2347Z" fill="white"/>
	<path d="M144.156 9.06873C144.833 9.06873 145.452 9.16723 146.014 9.36424C146.576 9.56124 147.058 9.85311 147.462 10.2398C147.865 10.6265 148.178 11.1081 148.401 11.6845C148.625 12.261 148.736 12.9359 148.736 13.7093V20.1449H146.079V19.0942C145.704 19.5028 145.24 19.8239 144.685 20.0574C144.131 20.2909 143.5 20.4076 142.795 20.4076C142.219 20.4076 141.7 20.3237 141.239 20.1559C140.778 19.988 140.389 19.7619 140.072 19.4773C139.755 19.1927 139.514 18.8534 139.349 18.4594C139.183 18.0654 139.1 17.6349 139.1 17.1679C139.1 16.1756 139.464 15.4022 140.191 14.8476C140.919 14.2931 141.909 14.0158 143.162 14.0158H145.841V13.5342C145.841 12.9359 145.675 12.4689 145.344 12.1333C145.013 11.7976 144.509 11.6298 143.832 11.6298C143.27 11.6298 142.769 11.7612 142.33 12.0238C141.891 12.2865 141.448 12.6513 141.001 13.1183L139.511 11.3015C140.721 9.81298 142.269 9.06873 144.156 9.06873ZM143.572 18.2405C144.206 18.2405 144.743 18.0435 145.182 17.6495C145.621 17.2555 145.841 16.7374 145.841 16.0953V15.964H143.551C142.557 15.964 142.06 16.3288 142.06 17.0585C142.06 17.4379 142.201 17.7298 142.481 17.9341C142.762 18.1393 143.126 18.2405 143.572 18.2405Z" fill="white"/>
	</g>
	<defs>
	<clipPath id="clip0">
	<rect width="159" height="37" fill="white"/>
	</clipPath>
	</defs>
</symbol>




<symbol id="logo2" viewBox="0 0 159 37">
	<path d="M155.534 0.182404H3.46594C1.55202 0.182404 0 1.75573 0 3.69297V25.8955C0 27.8346 1.55202 29.4079 3.46594 29.4079H15.0773C15.9964 29.4079 16.8778 29.7782 17.5286 30.4358L23.1705 36.1536C24.5244 37.5253 26.7192 37.5253 28.0714 36.1536L33.715 30.4358C34.365 29.7782 35.2463 29.4079 36.1655 29.4079H155.534C157.448 29.4079 159 27.8355 159 25.8955V3.69297C159 1.75573 157.448 0.182404 155.534 0.182404Z" fill="#833AE0"/>
	<path d="M12.7987 9.06873C13.4757 9.06873 14.0951 9.16723 14.6568 9.36424C15.2186 9.56124 15.7011 9.85311 16.1044 10.2398C16.5077 10.6265 16.821 11.1081 17.0443 11.6845C17.2675 12.261 17.3792 12.9359 17.3792 13.7093V20.1449H14.7217V19.0942C14.3472 19.5028 13.8826 19.8239 13.3281 20.0574C12.7735 20.2909 12.1434 20.4076 11.4376 20.4076C10.8614 20.4076 10.3429 20.3237 9.88195 20.1559C9.42102 19.988 9.03212 19.7619 8.71523 19.4773C8.39835 19.1927 8.15708 18.8534 7.99144 18.4594C7.8258 18.0654 7.74297 17.6349 7.74297 17.1679C7.74297 16.1756 8.10667 15.4022 8.83407 14.8476C9.56146 14.2931 10.5517 14.0158 11.8049 14.0158H14.484V13.5342C14.484 12.9359 14.3183 12.4689 13.9871 12.1333C13.6558 11.7976 13.1516 11.6298 12.4746 11.6298C11.9129 11.6298 11.4124 11.7612 10.973 12.0238C10.5337 12.2865 10.0908 12.6513 9.64429 13.1183L8.15348 11.3015C9.36341 9.81298 10.9118 9.06873 12.7987 9.06873ZM12.2154 18.2405C12.8491 18.2405 13.3857 18.0435 13.825 17.6495C14.2643 17.2555 14.484 16.7374 14.484 16.0953V15.964H12.1938C11.1999 15.964 10.703 16.3288 10.703 17.0585C10.703 17.4379 10.8434 17.7298 11.1243 17.9341C11.4052 18.1393 11.7689 18.2405 12.2154 18.2405Z" fill="white"/>
	<path d="M30.755 20.1449H27.8598V11.8049H25.1807V12.79C25.1807 14.1763 25.0438 15.3401 24.7702 16.2814C24.4965 17.2226 24.1184 17.9815 23.6359 18.5579C23.1533 19.1343 22.5844 19.5539 21.929 19.8166C21.2736 20.0792 20.5642 20.2325 19.8008 20.2763V17.6714C20.2329 17.613 20.6074 17.4671 20.9243 17.2336C21.2412 17.0001 21.5005 16.6426 21.7021 16.161C21.9038 15.6794 22.0514 15.0592 22.1451 14.3004C22.2387 13.5415 22.2855 12.6003 22.2855 11.4766V9.30951H30.755V20.1449Z" fill="white"/>
	<path d="M42.4285 11.8049H37.3943V20.1449H34.4775V9.30951H42.4285V11.8049Z" fill="white"/>
	<path d="M49.9599 9.06873C50.7521 9.06873 51.4975 9.21466 52.1961 9.50652C52.8947 9.79838 53.5032 10.196 54.0218 10.6995C54.5403 11.203 54.9508 11.7976 55.2533 12.4835C55.5558 13.1694 55.707 13.9137 55.707 14.7163C55.707 15.5189 55.5558 16.2668 55.2533 16.96C54.9508 17.6531 54.5403 18.2515 54.0218 18.7549C53.5032 19.2584 52.8947 19.6561 52.1961 19.9479C51.4975 20.2398 50.7521 20.3857 49.9599 20.3857C49.1676 20.3857 48.4222 20.2398 47.7237 19.9479C47.0251 19.6561 46.4165 19.2584 45.898 18.7549C45.3794 18.2515 44.9725 17.6531 44.6772 16.96C44.382 16.2668 44.2343 15.5189 44.2343 14.7163C44.2343 13.9137 44.382 13.1694 44.6772 12.4835C44.9725 11.7976 45.3794 11.203 45.898 10.6995C46.4165 10.196 47.0215 9.79838 47.7129 9.50652C48.4042 9.21557 49.1532 9.06873 49.9599 9.06873ZM49.9599 11.7612C49.1388 11.7612 48.4727 12.0421 47.9613 12.6039C47.45 13.1658 47.1943 13.8772 47.1943 14.7382C47.1943 15.5992 47.45 16.3033 47.9613 16.8505C48.4727 17.3978 49.1388 17.6714 49.9599 17.6714C50.3488 17.6714 50.7125 17.5984 51.051 17.4525C51.3894 17.3066 51.6811 17.1023 51.926 16.8396C52.1709 16.5769 52.3653 16.2668 52.5094 15.9093C52.6534 15.5517 52.7254 15.1614 52.7254 14.7382C52.7254 14.315 52.6534 13.9209 52.5094 13.5561C52.3653 13.1913 52.1709 12.8775 51.926 12.6149C51.6811 12.3522 51.3894 12.1442 51.051 11.991C50.7125 11.8378 50.3488 11.7612 49.9599 11.7612Z" fill="white"/>
	<path d="M64.7833 9.06873C65.5323 9.06873 66.2273 9.21101 66.8682 9.49558C67.5092 9.78014 68.0566 10.1742 68.5103 10.6776C68.964 11.1811 69.3205 11.7758 69.5798 12.4616C69.839 13.1475 69.9687 13.8991 69.9687 14.7163C69.9687 15.5335 69.839 16.2887 69.5798 16.9819C69.3205 17.675 68.9604 18.277 68.4995 18.7878C68.0386 19.2985 67.4912 19.6962 66.8574 19.9807C66.2237 20.2653 65.5323 20.4076 64.7833 20.4076C63.4293 20.4076 62.3634 19.9771 61.5856 19.1161V24.0851H58.6688V9.30951H61.3479V10.6448C61.7224 10.134 62.2014 9.74366 62.7847 9.47369C63.3681 9.20462 64.0343 9.06873 64.7833 9.06873ZM64.2647 11.7393C63.919 11.7393 63.5841 11.7976 63.2601 11.9144C62.936 12.0311 62.6479 12.2099 62.3958 12.4507C62.1438 12.6915 61.9385 12.9979 61.7801 13.3701C61.6216 13.7422 61.5424 14.1909 61.5424 14.7163C61.5424 15.227 61.618 15.6721 61.7693 16.0515C61.9205 16.431 62.1258 16.7447 62.385 16.9928C62.6443 17.2409 62.936 17.4233 63.2601 17.54C63.5841 17.6568 63.919 17.7152 64.2647 17.7152C64.6392 17.7152 64.9921 17.6458 65.3234 17.5072C65.6547 17.3686 65.9464 17.1716 66.1985 16.9162C66.4505 16.6608 66.6486 16.3507 66.7926 15.9859C66.9367 15.621 67.0087 15.2051 67.0087 14.7382C67.0087 14.2858 66.9367 13.8735 66.7926 13.5014C66.6486 13.1293 66.4505 12.8119 66.1985 12.5492C65.9464 12.2865 65.6547 12.0859 65.3234 11.9472C64.9921 11.8095 64.6392 11.7393 64.2647 11.7393Z" fill="white"/>
	<path d="M83.0618 20.1449H80.1666V14.3879L73.9873 20.4076H73.0151V9.30951H75.9319V15.0884L82.1111 9.06873H83.0618V20.1449Z" fill="white"/>
	<path d="M95.1521 11.7831H91.7599V20.1449H88.8648V11.7831H85.4943V9.28763H95.1521V11.7831Z" fill="white"/>
	<path d="M109.544 20.1449H106.649V14.9352L104.056 17.8903H103.084L100.513 14.9571V20.1449H97.5962V9.06873H98.5685L103.581 14.7382L108.615 9.06873H109.544V20.1449Z" fill="white"/>
	<path d="M123.3 20.1449H120.405V14.3879L114.226 20.4076H113.253V9.30951H116.17V15.0884L122.349 9.06873H123.3V20.1449Z" fill="white"/>
	<path d="M129.927 14.2347L133.945 9.30951H137.294L133.211 14.2347L137.618 20.1449H134.291L129.927 14.3004V20.1449H127.01V9.30951H129.927V14.2347Z" fill="white"/>
	<path d="M144.156 9.06873C144.833 9.06873 145.452 9.16723 146.014 9.36424C146.576 9.56124 147.058 9.85311 147.462 10.2398C147.865 10.6265 148.178 11.1081 148.401 11.6845C148.625 12.261 148.736 12.9359 148.736 13.7093V20.1449H146.079V19.0942C145.704 19.5028 145.24 19.8239 144.685 20.0574C144.131 20.2909 143.501 20.4076 142.795 20.4076C142.219 20.4076 141.7 20.3237 141.239 20.1559C140.778 19.988 140.389 19.7619 140.072 19.4773C139.755 19.1927 139.514 18.8534 139.349 18.4594C139.183 18.0654 139.1 17.6349 139.1 17.1679C139.1 16.1756 139.464 15.4022 140.191 14.8476C140.919 14.2931 141.909 14.0158 143.162 14.0158H145.841V13.5342C145.841 12.9359 145.675 12.4689 145.344 12.1333C145.013 11.7976 144.509 11.6298 143.832 11.6298C143.27 11.6298 142.77 11.7612 142.33 12.0238C141.891 12.2865 141.448 12.6513 141.001 13.1183L139.511 11.3015C140.721 9.81298 142.269 9.06873 144.156 9.06873ZM143.573 18.2405C144.206 18.2405 144.743 18.0435 145.182 17.6495C145.621 17.2555 145.841 16.7374 145.841 16.0953V15.964H143.551C142.557 15.964 142.06 16.3288 142.06 17.0585C142.06 17.4379 142.201 17.7298 142.481 17.9341C142.762 18.1393 143.126 18.2405 143.573 18.2405Z" fill="white"/>
</symbol>

<symbol id="logo--mobile" viewBox="0 0 24 24">
	<path d="M22.9578 0H1.1725C0.586249 0 0 0.39783 0 0.983725V20.5787C0 21.1646 0.586249 21.8372 1.1725 21.8372L3.93727 21.8228C4.21954 21.8228 4.48733 21.8372 4.68275 22.0325L6.40531 23.7034C6.81785 24.1157 7.49095 24.094 7.9035 23.6817L9.62606 22.047C9.82147 21.8517 10.0965 21.8228 10.3715 21.8228L22.9505 21.8372C23.5368 21.8372 24 21.1646 24 20.5787V0.983725C24 0.39783 23.5368 0 22.9578 0Z" fill="white"/>
	<path d="M11.0881 9.96018C9.79976 9.96018 8.77926 10.2061 8.02654 10.7703C7.27383 11.3345 6.90471 12.094 6.90471 13.1066C6.90471 13.584 6.99156 14.0108 7.15803 14.4086C7.33173 14.8065 7.57781 15.1537 7.9035 15.443C8.2292 15.7323 8.62726 15.9638 9.09771 16.1302C9.57539 16.3038 10.0965 16.3833 10.69 16.3833C11.4138 16.3833 11.9711 16.2604 12.5428 16.0289C13.1146 15.7902 13.8673 15.0524 13.8673 15.0524V16.1736H16.69V9.57681C16.69 8.78838 16.6466 8.10122 16.415 7.52256C16.1834 6.93667 15.9228 6.4448 15.503 6.05421C15.0905 5.66361 14.5983 5.36705 14.0193 5.16452C13.4403 4.96198 12.8034 4.86072 12.1086 4.86072C10.1616 4.86072 8.56936 5.62021 7.32449 7.13197L8.85887 8.97645C9.32208 8.49905 9.77081 8.13016 10.2268 7.86253C10.6755 7.59489 11.1894 7.4647 11.7684 7.4647C12.4632 7.4647 13.006 7.63829 13.3462 7.97826C13.6864 8.31822 13.8673 8.79562 13.8673 9.40321V9.96741H11.0881V9.96018ZM13.8673 12C13.8673 12.651 13.6357 13.1862 13.1797 13.584C12.7238 13.9819 12.1809 14.1916 11.5296 14.1916C11.0663 14.1916 10.69 14.0976 10.4005 13.8878C10.111 13.6781 9.96623 13.4032 9.96623 13.0126C9.96623 12.2676 10.4729 11.9349 11.5006 11.9349H13.8745V12H13.8673Z" fill="#833AE0"/>

	<clipPath id="clip0">
	<rect width="24" height="24" fill="white"/>
	</clipPath>
</symbol>



<symbol id="phone" viewBox="0 0 20 20">
	<path d="M19.5516 15.7833L16.4629 12.6942C15.8477 12.0815 14.8289 12.1001 14.1923 12.737L12.6362 14.2927C12.5379 14.2385 12.4361 14.1819 12.3291 14.1219C11.3465 13.5774 10.0015 12.8312 8.58628 11.4149C7.16683 9.99557 6.41986 8.64857 5.87372 7.66528C5.81609 7.56111 5.76087 7.46067 5.70634 7.36529L6.75071 6.32247L7.26416 5.80839C7.90178 5.1706 7.91936 4.15209 7.30559 3.53757L4.2169 0.4482C3.60313 -0.165457 2.58387 -0.146841 1.94626 0.490949L1.07576 1.36645L1.09955 1.39006C0.807657 1.76251 0.563746 2.19207 0.382234 2.6553C0.214915 3.09624 0.110743 3.517 0.0631095 3.93863C-0.344731 7.31973 1.20033 10.4098 5.39342 14.6029C11.1896 20.3987 15.8605 19.9608 16.062 19.9395C16.5009 19.887 16.9214 19.7821 17.3489 19.6161C17.8081 19.4368 18.2374 19.1932 18.6096 18.9019L18.6286 18.9188L19.5105 18.0553C20.1468 17.4176 20.1651 16.3988 19.5516 15.7833Z" />
</symbol>


<symbol id="close" viewBox="0 0 20 20">
	<path d="M20 2L18 0L10 8L2 0L0 2L8 10L0 18L2 20L10 12L18 20L20 18L12 10L20 2Z" />
</symbol>



<symbol id="arrow" viewBox="0 0 24 24">
	<path d="M9 18L15 12L9 6" stroke-linecap="round" stroke-linejoin="round"/>
</symbol>


<symbol id="exclamation" viewBox="0 0 24 24">
	<path d="M9.87378 0L10.7396 18.0985H14.2581L15.1266 0H9.87378Z" />
	<path d="M14.1775 21.6421H10.8193V25.0001H14.1775V21.6421Z"/>
</symbol>
























</svg>
