<svg display="none" width="0" height="0" version="1.1" xmlns="http://www.w3.org/2000/svg" xmlns:xlink="http://www.w3.org/1999/xlink">

	<symbol id="01d" viewBox="-249 420.9 96 96">
		<path d="M-186.9 456.7c.5 0 1-.2 1.4-.6l2.8-2.8c.8-.8.8-2 0-2.8-.8-.8-2-.8-2.8 0l-2.8 2.8c-.8.8-.8 2 0 2.8.4.5.9.6 1.4.6zm-32.1 12.2c0-1.1-.9-2-2-2h-4c-1.1 0-2 .9-2 2s.9 2 2 2h4c1.1 0 2-.9 2-2zm2.4 12.7l-2.8 2.8c-.8.8-.8 2 0 2.8.4.4.9.6 1.4.6.5 0 1-.2 1.4-.6l2.8-2.8c.8-.8.8-2 0-2.8-.7-.8-2-.8-2.8 0zm0-25.4c.4.4.9.6 1.4.6s1-.2 1.4-.6c.8-.8.8-2 0-2.8l-2.8-2.8c-.8-.8-2-.8-2.8 0-.8.8-.8 2 0 2.8l2.8 2.8zm15.6-5.3c1.1 0 2-.9 2-2v-4c0-1.1-.9-2-2-2s-2 .9-2 2v4c0 1.1.9 2 2 2zm24 16h-4c-1.1 0-2 .9-2 2s.9 2 2 2h4c1.1 0 2-.9 2-2s-.9-2-2-2zm-8.4 14.7c-.8-.8-2-.8-2.8 0-.8.8-.8 2 0 2.8l2.8 2.8c.4.4.9.6 1.4.6.5 0 1-.2 1.4-.6.8-.8.8-2 0-2.8l-2.8-2.8zm-15.6 5.3c-1.1 0-2 .9-2 2v4c0 1.1.9 2 2 2s2-.9 2-2v-4c0-1.1-.9-2-2-2zm0-32c-7.7 0-14 6.3-14 14s6.3 14 14 14 14-6.3 14-14-6.3-14-14-14zm0 24c-5.5 0-10-4.5-10-10s4.5-10 10-10 10 4.5 10 10-4.5 10-10 10z"/>
	</symbol>
	<symbol id="01n" viewBox="-249 420.9 96 96">
		<path d="M-186.9 456.7c.5 0 1-.2 1.4-.6l2.8-2.8c.8-.8.8-2 0-2.8-.8-.8-2-.8-2.8 0l-2.8 2.8c-.8.8-.8 2 0 2.8.4.5.9.6 1.4.6zm-32.1 12.2c0-1.1-.9-2-2-2h-4c-1.1 0-2 .9-2 2s.9 2 2 2h4c1.1 0 2-.9 2-2zm2.4 12.7l-2.8 2.8c-.8.8-.8 2 0 2.8.4.4.9.6 1.4.6.5 0 1-.2 1.4-.6l2.8-2.8c.8-.8.8-2 0-2.8-.7-.8-2-.8-2.8 0zm0-25.4c.4.4.9.6 1.4.6s1-.2 1.4-.6c.8-.8.8-2 0-2.8l-2.8-2.8c-.8-.8-2-.8-2.8 0-.8.8-.8 2 0 2.8l2.8 2.8zm15.6-5.3c1.1 0 2-.9 2-2v-4c0-1.1-.9-2-2-2s-2 .9-2 2v4c0 1.1.9 2 2 2zm24 16h-4c-1.1 0-2 .9-2 2s.9 2 2 2h4c1.1 0 2-.9 2-2s-.9-2-2-2zm-8.4 14.7c-.8-.8-2-.8-2.8 0-.8.8-.8 2 0 2.8l2.8 2.8c.4.4.9.6 1.4.6.5 0 1-.2 1.4-.6.8-.8.8-2 0-2.8l-2.8-2.8zm-15.6 5.3c-1.1 0-2 .9-2 2v4c0 1.1.9 2 2 2s2-.9 2-2v-4c0-1.1-.9-2-2-2zm0-32c-7.7 0-14 6.3-14 14s6.3 14 14 14 14-6.3 14-14-6.3-14-14-14zm0 24c-5.5 0-10-4.5-10-10s4.5-10 10-10 10 4.5 10 10-4.5 10-10 10z"/>
	</symbol>

	<symbol id="02d" viewBox="-249 442.9 67 52">
		<path d="M-195.4 475.1c.9-1.9 1.4-4 1.4-6.2 0-7.7-6.3-14-14-14-4.6 0-8.9 2.3-11.5 6h-.5c-7.7 0-14.2 5-16.3 12.2-.6-.1-1.2-.2-1.7-.2-6.1 0-11 4.9-11 11s4.9 11 11 11h36c6.1 0 11-4.9 11-11 0-3.6-1.8-6.8-4.4-8.8zm-12.6-16.2c5.5 0 10 4.5 10 10 0 1.5-.4 3-1 4.4-.9-.3-1.9-.4-3-.4-.5 0-1.1.1-1.7.2-1.6-5.5-5.9-9.7-11.2-11.4 1.8-1.8 4.3-2.8 6.9-2.8zm6 32h-36c-3.9 0-7-3.1-7-7s3.1-7 7-7c.3 0 .7.1 1.2.2v1.8c0 1.1.9 2 2 2s2-.9 2-2v-3.2c1.1-6.3 6.4-10.8 12.8-10.8s11.7 4.5 12.8 10.8v3.2c0 1.1.9 2 2 2s2-.9 2-2v-1.8c.5-.1.9-.2 1.2-.2 3.9 0 7 3.1 7 7s-3.1 7-7 7zM-208 450.9c1.1 0 2-.9 2-2v-4c0-1.1-.9-2-2-2s-2 .9-2 2v4c0 1.1.9 2 2 2zM-184 466.9h-4c-1.1 0-2 .9-2 2s.9 2 2 2h4c1.1 0 2-.9 2-2s-.9-2-2-2zM-193.9 456.7c.5 0 1-.2 1.4-.6l2.8-2.8c.8-.8.8-2 0-2.8-.8-.8-2-.8-2.8 0l-2.8 2.8c-.8.8-.8 2 0 2.8.4.5.9.6 1.4.6zM-223.6 456.2c.4.4.9.6 1.4.6s1-.2 1.4-.6c.8-.8.8-2 0-2.8l-2.8-2.8c-.8-.8-2-.8-2.8 0-.8.8-.8 2 0 2.8l2.8 2.8z"/>
	</symbol>
	<symbol id="02n" viewBox="-249 442.9 67 52">
		<path d="M-195.4 475.1c.9-1.9 1.4-4 1.4-6.2 0-7.7-6.3-14-14-14-4.6 0-8.9 2.3-11.5 6h-.5c-7.7 0-14.2 5-16.3 12.2-.6-.1-1.2-.2-1.7-.2-6.1 0-11 4.9-11 11s4.9 11 11 11h36c6.1 0 11-4.9 11-11 0-3.6-1.8-6.8-4.4-8.8zm-12.6-16.2c5.5 0 10 4.5 10 10 0 1.5-.4 3-1 4.4-.9-.3-1.9-.4-3-.4-.5 0-1.1.1-1.7.2-1.6-5.5-5.9-9.7-11.2-11.4 1.8-1.8 4.3-2.8 6.9-2.8zm6 32h-36c-3.9 0-7-3.1-7-7s3.1-7 7-7c.3 0 .7.1 1.2.2v1.8c0 1.1.9 2 2 2s2-.9 2-2v-3.2c1.1-6.3 6.4-10.8 12.8-10.8s11.7 4.5 12.8 10.8v3.2c0 1.1.9 2 2 2s2-.9 2-2v-1.8c.5-.1.9-.2 1.2-.2 3.9 0 7 3.1 7 7s-3.1 7-7 7zM-208 450.9c1.1 0 2-.9 2-2v-4c0-1.1-.9-2-2-2s-2 .9-2 2v4c0 1.1.9 2 2 2zM-184 466.9h-4c-1.1 0-2 .9-2 2s.9 2 2 2h4c1.1 0 2-.9 2-2s-.9-2-2-2zM-193.9 456.7c.5 0 1-.2 1.4-.6l2.8-2.8c.8-.8.8-2 0-2.8-.8-.8-2-.8-2.8 0l-2.8 2.8c-.8.8-.8 2 0 2.8.4.5.9.6 1.4.6zM-223.6 456.2c.4.4.9.6 1.4.6s1-.2 1.4-.6c.8-.8.8-2 0-2.8l-2.8-2.8c-.8-.8-2-.8-2.8 0-.8.8-.8 2 0 2.8l2.8 2.8z"/>
	</symbol>

	<symbol id="03d" viewBox="-249 451.9 58 34">
		<path d="M-202 463.9c-.5 0-1.1.1-1.7.2-2.1-7.2-8.6-12.2-16.3-12.2-7.7 0-14.2 5-16.3 12.2-.6-.1-1.2-.2-1.7-.2-6.1 0-11 4.9-11 11s4.9 11 11 11h36c6.1 0 11-4.9 11-11s-4.9-11-11-11zm0 18h-36c-3.9 0-7-3.1-7-7s3.1-7 7-7c.3 0 .7.1 1.2.2v1.8c0 1.1.9 2 2 2s2-.9 2-2v-3.2c1.1-6.3 6.4-10.8 12.8-10.8s11.7 4.5 12.8 10.8v3.2c0 1.1.9 2 2 2s2-.9 2-2v-1.8c.5-.1.9-.2 1.2-.2 3.9 0 7 3.1 7 7s-3.1 7-7 7z"/>
	</symbol>
	<symbol id="03n" viewBox="-249 451.9 58 34">
		<path d="M-202 463.9c-.5 0-1.1.1-1.7.2-2.1-7.2-8.6-12.2-16.3-12.2-7.7 0-14.2 5-16.3 12.2-.6-.1-1.2-.2-1.7-.2-6.1 0-11 4.9-11 11s4.9 11 11 11h36c6.1 0 11-4.9 11-11s-4.9-11-11-11zm0 18h-36c-3.9 0-7-3.1-7-7s3.1-7 7-7c.3 0 .7.1 1.2.2v1.8c0 1.1.9 2 2 2s2-.9 2-2v-3.2c1.1-6.3 6.4-10.8 12.8-10.8s11.7 4.5 12.8 10.8v3.2c0 1.1.9 2 2 2s2-.9 2-2v-1.8c.5-.1.9-.2 1.2-.2 3.9 0 7 3.1 7 7s-3.1 7-7 7z"/>
	</symbol>

	<symbol id="04d" viewBox="-249 445.9 66 46">
		<path d="M-199 461.9c2.2 0 4 1.8 4 4s-1.8 4-4 4h-21c-1.1 0-2 .9-2 2s.9 2 2 2h21c4.4 0 8-3.6 8-8s-3.6-8-8-8c-1.1 0-2 .9-2 2s.9 2 2 2zM-202 475.9h-36c-3.9 0-7-3.1-7-7s3.1-7 7-7c.3 0 .7.1 1.2.2v1.8c0 1.1.9 2 2 2s2-.9 2-2v-3.2c1.1-6.3 6.4-10.8 12.8-10.8 7.2 0 13 5.8 13 13v1c0 1.1.9 2 2 2s2-.9 2-2v-1c0-9.4-7.6-17-17-17-7.7 0-14.2 5-16.3 12.2-.6-.1-1.2-.2-1.7-.2-6.1 0-11 4.9-11 11s4.9 11 11 11h36c3.9 0 7 3.1 7 7 0 1.1.9 2 2 2s2-.9 2-2c0-6.1-4.9-11-11-11zM-202 481.9h-36c-1.1 0-2 .9-2 2s.9 2 2 2h36c.6 0 1 .4 1 1s-.4 1-1 1c-1.1 0-2 .9-2 2s.9 2 2 2c2.8 0 5-2.2 5-5s-2.2-5-5-5zM-188 467.9c-1.1 0-2 .9-2 2s.9 2 2 2c.6 0 1 .4 1 1s-.4 1-1 1h-4c-1.1 0-2 .9-2 2s.9 2 2 2h4c2.8 0 5-2.2 5-5s-2.2-5-5-5z"/>
	</symbol>
	<symbol id="04n" viewBox="-249 445.9 66 46">
		<path d="M-199 461.9c2.2 0 4 1.8 4 4s-1.8 4-4 4h-21c-1.1 0-2 .9-2 2s.9 2 2 2h21c4.4 0 8-3.6 8-8s-3.6-8-8-8c-1.1 0-2 .9-2 2s.9 2 2 2zM-202 475.9h-36c-3.9 0-7-3.1-7-7s3.1-7 7-7c.3 0 .7.1 1.2.2v1.8c0 1.1.9 2 2 2s2-.9 2-2v-3.2c1.1-6.3 6.4-10.8 12.8-10.8 7.2 0 13 5.8 13 13v1c0 1.1.9 2 2 2s2-.9 2-2v-1c0-9.4-7.6-17-17-17-7.7 0-14.2 5-16.3 12.2-.6-.1-1.2-.2-1.7-.2-6.1 0-11 4.9-11 11s4.9 11 11 11h36c3.9 0 7 3.1 7 7 0 1.1.9 2 2 2s2-.9 2-2c0-6.1-4.9-11-11-11zM-202 481.9h-36c-1.1 0-2 .9-2 2s.9 2 2 2h36c.6 0 1 .4 1 1s-.4 1-1 1c-1.1 0-2 .9-2 2s.9 2 2 2c2.8 0 5-2.2 5-5s-2.2-5-5-5zM-188 467.9c-1.1 0-2 .9-2 2s.9 2 2 2c.6 0 1 .4 1 1s-.4 1-1 1h-4c-1.1 0-2 .9-2 2s.9 2 2 2h4c2.8 0 5-2.2 5-5s-2.2-5-5-5z"/>
	</symbol>

	<symbol id="09d" viewBox="-249 430.9 67 76">
		<path d="M-220 498.9c-1.1 0-2 .9-2 2v4c0 1.1.9 2 2 2s2-.9 2-2v-4c0-1.1-.9-2-2-2zm-3.6-54.7c.4.4.9.6 1.4.6s1-.2 1.4-.6c.8-.8.8-2 0-2.8l-2.8-2.8c-.8-.8-2-.8-2.8 0-.8.8-.8 2 0 2.8l2.8 2.8zm15.6-5.3c1.1 0 2-.9 2-2v-4c0-1.1-.9-2-2-2s-2 .9-2 2v4c0 1.1.9 2 2 2zm14.1 5.8c.5 0 1-.2 1.4-.6l2.8-2.8c.8-.8.8-2 0-2.8-.8-.8-2-.8-2.8 0l-2.8 2.8c-.8.8-.8 2 0 2.8.4.5.9.6 1.4.6zm-35.1 48.2c-1.1 0-2 .9-2 2v4c0 1.1.9 2 2 2s2-.9 2-2v-4c0-1.1-.9-2-2-2zm45-38h-4c-1.1 0-2 .9-2 2s.9 2 2 2h4c1.1 0 2-.9 2-2s-.9-2-2-2zm-36 32c-1.1 0-2 .9-2 2v4c0 1.1.9 2 2 2s2-.9 2-2v-4c0-1.1-.9-2-2-2zm24.6-23.8c.9-1.9 1.4-4 1.4-6.2 0-7.7-6.3-14-14-14-4.6 0-8.9 2.3-11.5 6h-.5c-7.7 0-14.2 5-16.3 12.2-.6-.1-1.2-.2-1.7-.2-6.1 0-11 4.9-11 11s4.9 11 11 11h7v4c0 1.1.9 2 2 2s2-.9 2-2v-4h14v4c0 1.1.9 2 2 2s2-.9 2-2v-4h7c6.1 0 11-4.9 11-11 0-3.6-1.8-6.8-4.4-8.8zm-12.6-16.2c5.5 0 10 4.5 10 10 0 1.5-.4 3-1 4.4-.9-.3-1.9-.4-3-.4-.5 0-1.1.1-1.7.2-1.6-5.5-5.9-9.7-11.2-11.4 1.8-1.8 4.3-2.8 6.9-2.8zm6 32h-36c-3.9 0-7-3.1-7-7s3.1-7 7-7c.3 0 .7.1 1.2.2v1.8c0 1.1.9 2 2 2s2-.9 2-2v-3.2c1.1-6.3 6.4-10.8 12.8-10.8s11.7 4.5 12.8 10.8v3.2c0 1.1.9 2 2 2s2-.9 2-2v-1.8c.5-.1.9-.2 1.2-.2 3.9 0 7 3.1 7 7s-3.1 7-7 7zm-9 14c-1.1 0-2 .9-2 2v4c0 1.1.9 2 2 2s2-.9 2-2v-4c0-1.1-.9-2-2-2z"/>
	</symbol>
	<symbol id="09n" viewBox="-249 430.9 67 76">
		<path d="M-220 498.9c-1.1 0-2 .9-2 2v4c0 1.1.9 2 2 2s2-.9 2-2v-4c0-1.1-.9-2-2-2zm-3.6-54.7c.4.4.9.6 1.4.6s1-.2 1.4-.6c.8-.8.8-2 0-2.8l-2.8-2.8c-.8-.8-2-.8-2.8 0-.8.8-.8 2 0 2.8l2.8 2.8zm15.6-5.3c1.1 0 2-.9 2-2v-4c0-1.1-.9-2-2-2s-2 .9-2 2v4c0 1.1.9 2 2 2zm14.1 5.8c.5 0 1-.2 1.4-.6l2.8-2.8c.8-.8.8-2 0-2.8-.8-.8-2-.8-2.8 0l-2.8 2.8c-.8.8-.8 2 0 2.8.4.5.9.6 1.4.6zm-35.1 48.2c-1.1 0-2 .9-2 2v4c0 1.1.9 2 2 2s2-.9 2-2v-4c0-1.1-.9-2-2-2zm45-38h-4c-1.1 0-2 .9-2 2s.9 2 2 2h4c1.1 0 2-.9 2-2s-.9-2-2-2zm-36 32c-1.1 0-2 .9-2 2v4c0 1.1.9 2 2 2s2-.9 2-2v-4c0-1.1-.9-2-2-2zm24.6-23.8c.9-1.9 1.4-4 1.4-6.2 0-7.7-6.3-14-14-14-4.6 0-8.9 2.3-11.5 6h-.5c-7.7 0-14.2 5-16.3 12.2-.6-.1-1.2-.2-1.7-.2-6.1 0-11 4.9-11 11s4.9 11 11 11h7v4c0 1.1.9 2 2 2s2-.9 2-2v-4h14v4c0 1.1.9 2 2 2s2-.9 2-2v-4h7c6.1 0 11-4.9 11-11 0-3.6-1.8-6.8-4.4-8.8zm-12.6-16.2c5.5 0 10 4.5 10 10 0 1.5-.4 3-1 4.4-.9-.3-1.9-.4-3-.4-.5 0-1.1.1-1.7.2-1.6-5.5-5.9-9.7-11.2-11.4 1.8-1.8 4.3-2.8 6.9-2.8zm6 32h-36c-3.9 0-7-3.1-7-7s3.1-7 7-7c.3 0 .7.1 1.2.2v1.8c0 1.1.9 2 2 2s2-.9 2-2v-3.2c1.1-6.3 6.4-10.8 12.8-10.8s11.7 4.5 12.8 10.8v3.2c0 1.1.9 2 2 2s2-.9 2-2v-1.8c.5-.1.9-.2 1.2-.2 3.9 0 7 3.1 7 7s-3.1 7-7 7zm-9 14c-1.1 0-2 .9-2 2v4c0 1.1.9 2 2 2s2-.9 2-2v-4c0-1.1-.9-2-2-2z"/>
	</symbol>

	<symbol id="10d" viewBox="-249 439.9 58 58">
		<path d="M-202 451.9c-.5 0-1.1.1-1.7.2-2.1-7.2-8.6-12.2-16.3-12.2-7.7 0-14.2 5-16.3 12.2-.6-.1-1.2-.2-1.7-.2-6.1 0-11 4.9-11 11s4.9 11 11 11h7v16c0 1.1.9 2 2 2s2-.9 2-2v-16h14v16c0 1.1.9 2 2 2s2-.9 2-2v-16h7c6.1 0 11-4.9 11-11s-4.9-11-11-11zm0 18h-36c-3.9 0-7-3.1-7-7s3.1-7 7-7c.3 0 .7.1 1.2.2v1.8c0 1.1.9 2 2 2s2-.9 2-2v-3.2c1.1-6.3 6.4-10.8 12.8-10.8s11.7 4.5 12.8 10.8v3.2c0 1.1.9 2 2 2s2-.9 2-2v-1.8c.5-.1.9-.2 1.2-.2 3.9 0 7 3.1 7 7s-3.1 7-7 7zM-220 475.9c-1.1 0-2 .9-2 2v18c0 1.1.9 2 2 2s2-.9 2-2v-18c0-1.1-.9-2-2-2z"/>
	</symbol>
	<symbol id="10n" viewBox="-249 439.9 58 58">
		<path d="M-202 451.9c-.5 0-1.1.1-1.7.2-2.1-7.2-8.6-12.2-16.3-12.2-7.7 0-14.2 5-16.3 12.2-.6-.1-1.2-.2-1.7-.2-6.1 0-11 4.9-11 11s4.9 11 11 11h7v16c0 1.1.9 2 2 2s2-.9 2-2v-16h14v16c0 1.1.9 2 2 2s2-.9 2-2v-16h7c6.1 0 11-4.9 11-11s-4.9-11-11-11zm0 18h-36c-3.9 0-7-3.1-7-7s3.1-7 7-7c.3 0 .7.1 1.2.2v1.8c0 1.1.9 2 2 2s2-.9 2-2v-3.2c1.1-6.3 6.4-10.8 12.8-10.8s11.7 4.5 12.8 10.8v3.2c0 1.1.9 2 2 2s2-.9 2-2v-1.8c.5-.1.9-.2 1.2-.2 3.9 0 7 3.1 7 7s-3.1 7-7 7zM-220 475.9c-1.1 0-2 .9-2 2v18c0 1.1.9 2 2 2s2-.9 2-2v-18c0-1.1-.9-2-2-2z"/>
	</symbol>

	<symbol id="11d" viewBox="-249 442.9 58 52">
		<path d="M-202 454.9c-.5 0-1.1.1-1.7.2-2.1-7.2-8.6-12.2-16.3-12.2-7.7 0-14.2 5-16.3 12.2-.6-.1-1.2-.2-1.7-.2-6.1 0-11 4.9-11 11s4.9 11 11 11h11.3l-3.9 5.9c-.4.6-.4 1.4-.1 2.1.3.6 1 1.1 1.8 1.1h2.3l-3.9 5.9c-.6.9-.4 2.2.6 2.8.3.2.7.3 1.1.3.6 0 1.3-.3 1.7-.9l6-9c.4-.6.4-1.4.1-2.1-.3-.6-1-1.1-1.8-1.1h-2.3l3.3-5h5.2l-1.9 2.9c-.4.6-.4 1.4-.1 2.1.3.6 1 1.1 1.8 1.1h2.3l-1.9 2.9c-.6.9-.4 2.2.6 2.8.3.2.7.3 1.1.3.6 0 1.3-.3 1.7-.9l4-6c.4-.6.4-1.4.1-2.1-.3-.6-1-1.1-1.8-1.1h-2.3l1.3-2h9.9c6.1 0 11-4.9 11-11s-5.1-11-11.2-11zm0 18h-36c-3.9 0-7-3.1-7-7s3.1-7 7-7c.3 0 .7.1 1.2.2v1.8c0 1.1.9 2 2 2s2-.9 2-2v-3.2c1.1-6.3 6.4-10.8 12.8-10.8s11.7 4.5 12.8 10.8v3.2c0 1.1.9 2 2 2s2-.9 2-2v-1.8c.5-.1.9-.2 1.2-.2 3.9 0 7 3.1 7 7s-3.1 7-7 7z"/>
	</symbol>
	<symbol id="11n" viewBox="-249 442.9 58 52">
		<path d="M-202 454.9c-.5 0-1.1.1-1.7.2-2.1-7.2-8.6-12.2-16.3-12.2-7.7 0-14.2 5-16.3 12.2-.6-.1-1.2-.2-1.7-.2-6.1 0-11 4.9-11 11s4.9 11 11 11h11.3l-3.9 5.9c-.4.6-.4 1.4-.1 2.1.3.6 1 1.1 1.8 1.1h2.3l-3.9 5.9c-.6.9-.4 2.2.6 2.8.3.2.7.3 1.1.3.6 0 1.3-.3 1.7-.9l6-9c.4-.6.4-1.4.1-2.1-.3-.6-1-1.1-1.8-1.1h-2.3l3.3-5h5.2l-1.9 2.9c-.4.6-.4 1.4-.1 2.1.3.6 1 1.1 1.8 1.1h2.3l-1.9 2.9c-.6.9-.4 2.2.6 2.8.3.2.7.3 1.1.3.6 0 1.3-.3 1.7-.9l4-6c.4-.6.4-1.4.1-2.1-.3-.6-1-1.1-1.8-1.1h-2.3l1.3-2h9.9c6.1 0 11-4.9 11-11s-5.1-11-11.2-11zm0 18h-36c-3.9 0-7-3.1-7-7s3.1-7 7-7c.3 0 .7.1 1.2.2v1.8c0 1.1.9 2 2 2s2-.9 2-2v-3.2c1.1-6.3 6.4-10.8 12.8-10.8s11.7 4.5 12.8 10.8v3.2c0 1.1.9 2 2 2s2-.9 2-2v-1.8c.5-.1.9-.2 1.2-.2 3.9 0 7 3.1 7 7s-3.1 7-7 7z"/>
	</symbol>

	<symbol id="13d" viewBox="-249 444.9 58 48">
		<path d="M-202 456.9c-.5 0-1.1.1-1.7.2-2.1-7.2-8.6-12.2-16.3-12.2s-14.2 5-16.3 12.2c-.6-.1-1.2-.2-1.7-.2-6.1 0-11 4.9-11 11s4.9 11 11 11c1.1 0 2-.9 2-2s-.9-2-2-2c-3.9 0-7-3.1-7-7s3.1-7 7-7c.3 0 .7.1 1.2.2v1.8c0 1.1.9 2 2 2s2-.9 2-2v-3.2c1.1-6.3 6.4-10.8 12.8-10.8s11.7 4.5 12.8 10.8v3.2c0 1.1.9 2 2 2s2-.9 2-2v-1.8c.5-.1.9-.2 1.2-.2 3.9 0 7 3.1 7 7s-3.1 7-7 7c-1.1 0-2 .9-2 2s.9 2 2 2c6.1 0 11-4.9 11-11s-4.9-11-11-11zM-222.3 479.4c-.6-1-1.8-1.3-2.7-.7-1 .6-1.3 1.8-.7 2.7l1 1.7c.4.6 1 1 1.7 1 .3 0 .7-.1 1-.3 1-.6 1.3-1.8.7-2.7l-1-1.7zM-227.3 470.7c-.6-1-1.8-1.3-2.7-.7-1 .6-1.3 1.8-.7 2.7l1 1.7c.4.6 1 1 1.7 1 .3 0 .7-.1 1-.3 1-.6 1.3-1.8.7-2.7l-1-1.7zM-225 475.2c.3.2.7.3 1 .3.7 0 1.4-.4 1.7-1l1-1.7c.6-1 .2-2.2-.7-2.7-1-.6-2.2-.2-2.7.7l-1 1.7c-.6.9-.3 2.1.7 2.7zM-227 478.6c-1-.6-2.2-.2-2.7.7l-1 1.7c-.6 1-.2 2.2.7 2.7.3.2.7.3 1 .3.7 0 1.4-.4 1.7-1l1-1.7c.6-.9.3-2.1-.7-2.7zM-228 476.9c0-1.1-.9-2-2-2h-2c-1.1 0-2 .9-2 2s.9 2 2 2h2c1.1 0 2-.9 2-2zM-218 476.9c0-1.1-.9-2-2-2h-2c-1.1 0-2 .9-2 2s.9 2 2 2h2c1.1 0 2-.9 2-2zM-207.3 488.2c-.6-1-1.8-1.3-2.7-.7-1 .6-1.3 1.8-.7 2.7l1 1.7c.4.6 1 1 1.7 1 .3 0 .7-.1 1-.3 1-.6 1.3-1.8.7-2.7l-1-1.7zM-212.3 479.5c-.6-1-1.8-1.3-2.7-.7-1 .6-1.3 1.8-.7 2.7l1 1.7c.4.6 1 1 1.7 1 .3 0 .7-.1 1-.3 1-.6 1.3-1.8.7-2.7l-1-1.7zM-210 484c.3.2.7.3 1 .3.7 0 1.4-.4 1.7-1l1-1.7c.6-1 .2-2.2-.7-2.7s-2.2-.2-2.7.7l-1 1.7c-.6.9-.3 2.1.7 2.7zM-212 487.4c-1-.6-2.2-.2-2.7.7l-1 1.7c-.6 1-.2 2.2.7 2.7.3.2.7.3 1 .3.7 0 1.4-.4 1.7-1l1-1.7c.6-.9.3-2.1-.7-2.7zM-213 485.7c0-1.1-.9-2-2-2h-2c-1.1 0-2 .9-2 2s.9 2 2 2h2c1.1 0 2-.9 2-2zM-205 483.7h-2c-1.1 0-2 .9-2 2s.9 2 2 2h2c1.1 0 2-.9 2-2s-.9-2-2-2z"/>
	</symbol>
	<symbol id="13n" viewBox="-249 444.9 58 48">
		<path d="M-202 456.9c-.5 0-1.1.1-1.7.2-2.1-7.2-8.6-12.2-16.3-12.2s-14.2 5-16.3 12.2c-.6-.1-1.2-.2-1.7-.2-6.1 0-11 4.9-11 11s4.9 11 11 11c1.1 0 2-.9 2-2s-.9-2-2-2c-3.9 0-7-3.1-7-7s3.1-7 7-7c.3 0 .7.1 1.2.2v1.8c0 1.1.9 2 2 2s2-.9 2-2v-3.2c1.1-6.3 6.4-10.8 12.8-10.8s11.7 4.5 12.8 10.8v3.2c0 1.1.9 2 2 2s2-.9 2-2v-1.8c.5-.1.9-.2 1.2-.2 3.9 0 7 3.1 7 7s-3.1 7-7 7c-1.1 0-2 .9-2 2s.9 2 2 2c6.1 0 11-4.9 11-11s-4.9-11-11-11zM-222.3 479.4c-.6-1-1.8-1.3-2.7-.7-1 .6-1.3 1.8-.7 2.7l1 1.7c.4.6 1 1 1.7 1 .3 0 .7-.1 1-.3 1-.6 1.3-1.8.7-2.7l-1-1.7zM-227.3 470.7c-.6-1-1.8-1.3-2.7-.7-1 .6-1.3 1.8-.7 2.7l1 1.7c.4.6 1 1 1.7 1 .3 0 .7-.1 1-.3 1-.6 1.3-1.8.7-2.7l-1-1.7zM-225 475.2c.3.2.7.3 1 .3.7 0 1.4-.4 1.7-1l1-1.7c.6-1 .2-2.2-.7-2.7-1-.6-2.2-.2-2.7.7l-1 1.7c-.6.9-.3 2.1.7 2.7zM-227 478.6c-1-.6-2.2-.2-2.7.7l-1 1.7c-.6 1-.2 2.2.7 2.7.3.2.7.3 1 .3.7 0 1.4-.4 1.7-1l1-1.7c.6-.9.3-2.1-.7-2.7zM-228 476.9c0-1.1-.9-2-2-2h-2c-1.1 0-2 .9-2 2s.9 2 2 2h2c1.1 0 2-.9 2-2zM-218 476.9c0-1.1-.9-2-2-2h-2c-1.1 0-2 .9-2 2s.9 2 2 2h2c1.1 0 2-.9 2-2zM-207.3 488.2c-.6-1-1.8-1.3-2.7-.7-1 .6-1.3 1.8-.7 2.7l1 1.7c.4.6 1 1 1.7 1 .3 0 .7-.1 1-.3 1-.6 1.3-1.8.7-2.7l-1-1.7zM-212.3 479.5c-.6-1-1.8-1.3-2.7-.7-1 .6-1.3 1.8-.7 2.7l1 1.7c.4.6 1 1 1.7 1 .3 0 .7-.1 1-.3 1-.6 1.3-1.8.7-2.7l-1-1.7zM-210 484c.3.2.7.3 1 .3.7 0 1.4-.4 1.7-1l1-1.7c.6-1 .2-2.2-.7-2.7s-2.2-.2-2.7.7l-1 1.7c-.6.9-.3 2.1.7 2.7zM-212 487.4c-1-.6-2.2-.2-2.7.7l-1 1.7c-.6 1-.2 2.2.7 2.7.3.2.7.3 1 .3.7 0 1.4-.4 1.7-1l1-1.7c.6-.9.3-2.1-.7-2.7zM-213 485.7c0-1.1-.9-2-2-2h-2c-1.1 0-2 .9-2 2s.9 2 2 2h2c1.1 0 2-.9 2-2zM-205 483.7h-2c-1.1 0-2 .9-2 2s.9 2 2 2h2c1.1 0 2-.9 2-2s-.9-2-2-2z"/>
	</symbol>

	<symbol id="50d" viewBox="-249 451.9 64 34">
		<path d="M-226 455.9h12c1.1 0 2-.9 2-2s-.9-2-2-2h-12c-1.1 0-2 .9-2 2s.9 2 2 2zM-238 461.9h24c1.1 0 2-.9 2-2s-.9-2-2-2h-24c-1.1 0-2 .9-2 2s.9 2 2 2zM-244 467.9h24c1.1 0 2-.9 2-2s-.9-2-2-2h-24c-1.1 0-2 .9-2 2s.9 2 2 2zM-185 471.9c0-1.1-.9-2-2-2h-60c-1.1 0-2 .9-2 2s.9 2 2 2h60c1.1 0 2-.9 2-2zM-187 475.9h-57c-1.1 0-2 .9-2 2s.9 2 2 2h57c1.1 0 2-.9 2-2s-.9-2-2-2zM-226 481.9h-12c-1.1 0-2 .9-2 2s.9 2 2 2h12c1.1 0 2-.9 2-2s-.9-2-2-2zM-207 461.9h8c1.1 0 2-.9 2-2s-.9-2-2-2h-8c-1.1 0-2 .9-2 2s.9 2 2 2zM-216 465.9c0 1.1.9 2 2 2h21c1.1 0 2-.9 2-2s-.9-2-2-2h-21c-1.1 0-2 .9-2 2zM-193 481.9h-27c-1.1 0-2 .9-2 2s.9 2 2 2h27c1.1 0 2-.9 2-2s-.9-2-2-2z"/>
	</symbol>
	<symbol id="50n" viewBox="-249 451.9 64 34">
		<path d="M-226 455.9h12c1.1 0 2-.9 2-2s-.9-2-2-2h-12c-1.1 0-2 .9-2 2s.9 2 2 2zM-238 461.9h24c1.1 0 2-.9 2-2s-.9-2-2-2h-24c-1.1 0-2 .9-2 2s.9 2 2 2zM-244 467.9h24c1.1 0 2-.9 2-2s-.9-2-2-2h-24c-1.1 0-2 .9-2 2s.9 2 2 2zM-185 471.9c0-1.1-.9-2-2-2h-60c-1.1 0-2 .9-2 2s.9 2 2 2h60c1.1 0 2-.9 2-2zM-187 475.9h-57c-1.1 0-2 .9-2 2s.9 2 2 2h57c1.1 0 2-.9 2-2s-.9-2-2-2zM-226 481.9h-12c-1.1 0-2 .9-2 2s.9 2 2 2h12c1.1 0 2-.9 2-2s-.9-2-2-2zM-207 461.9h8c1.1 0 2-.9 2-2s-.9-2-2-2h-8c-1.1 0-2 .9-2 2s.9 2 2 2zM-216 465.9c0 1.1.9 2 2 2h21c1.1 0 2-.9 2-2s-.9-2-2-2h-21c-1.1 0-2 .9-2 2zM-193 481.9h-27c-1.1 0-2 .9-2 2s.9 2 2 2h27c1.1 0 2-.9 2-2s-.9-2-2-2z"/>
	</symbol>

	<symbol id="location" viewBox="-41 420.9 360 512">
		<path d="M139 420.9c-99.3 0-180 80.7-180 180 0 33.5 9.3 66.3 26.9 94.7l142.9 230.3c2.7 4.4 7.6 7.1 12.7 7.1h.1c5.2 0 10.1-2.8 12.8-7.3l139.2-232.5c16.6-27.8 25.4-59.7 25.4-92.2 0-99.4-80.7-180.1-180-180.1zm128.9 256.8l-126.6 211.4-129.9-209.4c-14.6-23.6-22.6-50.9-22.6-78.8 0-82.7 67.5-150.2 150.2-150.2s150.1 67.5 150.1 150.2c0 27.1-7.4 53.7-21.2 76.8zM139 510.9c-49.6 0-90 40.4-90 90 0 49.3 39.7 90 90 90 50.9 0 90-41.2 90-90 0-49.6-40.4-90-90-90zm0 150.2c-33.3 0-60.2-27-60.2-60.2 0-33.1 27.1-60.2 60.2-60.2s60.1 27.1 60.1 60.2c0 32.7-26.3 60.2-60.1 60.2z"/>
	</symbol>

	<symbol id="temperature" viewBox="-249 442.9 22 55">
		<path d="M-236 479.3v-11.4c0-1.1-.9-2-2-2s-2 .9-2 2v11.4c-1.8.8-3 2.5-3 4.6 0 2.8 2.2 5 5 5s5-2.2 5-5c0-2.1-1.2-3.8-3-4.6zm-2 5.6c-.6 0-1-.4-1-1s.4-1 1-1 1 .4 1 1-.4 1-1 1zM-230 476.3v-25.5c0-4.4-3.6-8-8-8s-8 3.6-8 8v25.5c-1.9 2-3 4.7-3 7.5 0 6.1 4.9 11 11 11s11-4.9 11-11c0-2.7-1.1-5.4-3-7.5zm-8 14.6c-3.9 0-7-3.1-7-7 0-2 .8-3.9 2.3-5.2.4-.4.7-.9.7-1.5v-26.3c0-2.2 1.8-4 4-4s4 1.8 4 4v26.3c0 .6.2 1.1.7 1.5 1.5 1.3 2.3 3.2 2.3 5.2 0 3.8-3.1 7-7 7z"/>
	</symbol>

	<symbol id="search" viewBox="-269 421.4 55 57">
		<path d="M-214.8 473.3l-13.6-14.1c3.5-4.1 5.4-9.4 5.4-14.8 0-12.7-10.3-23-23-23s-23 10.3-23 23 10.3 23 23 23c4.8 0 9.3-1.4 13.2-4.2l13.7 14.2c.6.6 1.3.9 2.2.9.8 0 1.5-.3 2.1-.8 1.1-1.1 1.1-3 0-4.2zm-31.2-45.9c9.4 0 17 7.6 17 17s-7.6 17-17 17-17-7.6-17-17 7.6-17 17-17z"/>
	</symbol>

</svg>