<svg display="none" width="0" height="0" version="1.1" xmlns="http://www.w3.org/2000/svg" xmlns:xlink="http://www.w3.org/1999/xlink">


<symbol id="phone" viewBox="0 0 90 90">
	<path d="M14.5 34.8C17.7 41.8 24.1 49.8 33.7 59.1C48.1 73 56.5 78 65.9 78C74.4 78 81 72.8 81 66.1C81 63.4 80.1 62.6 72.4 58.1C67.7 55.3 62.8 53 61.7 53C60.5 53 58 53.9 56.1 55.1C54.1 56.3 51.8 56.9 50.6 56.6C47.8 55.9 33 40.8 33 38.6C33 37.8 33.9 35.6 35 33.8C36.1 32 37 29.5 37 28.3C37 27.2 34.7 22.3 31.9 17.6C27.4 9.9 26.6 9 23.9 9C13.7 9 8.8 22.5 14.5 34.8Z" />
</symbol>


<symbol id="vk" viewBox="0 0 100 100">
	<path d="M35.5 5.7C23.3 10.1 13.2 19.2 7.7 30.7C4.6 37.2 4.5 38 4.5 50.1C4.5 62.5 4.5 62.7 8.2 70.1C12.9 79.6 21.2 87.8 30.7 92.3C37.2 95.4 38 95.5 50 95.5C62 95.5 62.8 95.4 69.3 92.3C78.8 87.8 87.1 79.6 91.8 70.1C95.5 62.7 95.5 62.5 95.5 50.1C95.5 38 95.4 37.2 92.3 30.7C87.8 21.2 79.6 12.9 70.1 8.2C63 4.7 62 4.5 51.6 4.2C43 4 39.4 4.4 35.5 5.7ZM29.4 38.6C30.3 38.9 31.9 41.3 33 43.8C35.5 49.4 37.7 52 40 52C43.1 52 43.6 43.9 40.7 40.2C39.7 39 42.3 38.5 48 39C51.3 39.3 52 40.5 52 46.7C52 49.5 52.5 52.2 53 52.5C55 53.7 58.7 50.2 61.1 44.7C63.3 39.5 63.8 39.1 67.6 38.5C71.9 37.9 75 38.6 75 40.2C75 41.7 72.4 46.3 69.1 50.4C67.4 52.5 66 54.7 66 55.2C66 55.7 68 58 70.5 60.4C75.7 65.5 76 66.7 72.4 67.6C68.5 68.6 63.1 67.3 59.5 64.5C55.1 61.2 52 61.2 52 64.4C52 71.4 37.5 66.6 30.7 57.3C26.2 51.1 20.8 40.2 21.5 39C22.2 37.9 27 37.7 29.4 38.6Z" />
</symbol>

<symbol id="location" viewBox="0 0 96 96">
	<path d="M35.2 10.6C29.3 13.6 24.5 18.6 21.7 24.9C20.1 28.5 19.8 30.9 20.2 37.5C20.6 44.6 21.2 46.9 24.8 54.4C29.2 63.6 38.6 77.9 44.5 84.6L48 88.5L51.5 84.6C57.4 77.9 66.8 63.6 71.2 54.4C74.8 46.9 75.4 44.6 75.8 37.5C76.2 30.9 75.9 28.5 74.3 24.9C71.5 18.6 66.7 13.6 60.8 10.6C53.4 6.9 42.6 6.9 35.2 10.6ZM54.5 29.5C56.4 31.3 57 33 57 36C57 39 56.4 40.7 54.5 42.5C52.7 44.4 51 45 48 45C45 45 43.3 44.4 41.5 42.5C39.6 40.7 39 39 39 36C39 30.4 42.4 27 48 27C51 27 52.7 27.6 54.5 29.5Z" />
</symbol>


<symbol id="instagram" viewBox="0 0 100 100">
	<path d="M22.0002 7.3C17.1002 8.9 8.70019 17.5 7.20019 22.6C5.60019 28.1 5.50019 71.7 7.20019 77.1C8.80019 82.6 14.5002 88.9 20.4002 91.6C25.3002 93.9 26.4002 94 50.0002 94C73.7002 94 74.7002 93.9 79.5002 91.6C85.5002 88.8 89.2002 85 91.9002 79C93.8002 74.9 94.0002 72.5 94.0002 50C94.0002 26.4 93.9002 25.3 91.6002 20.4C88.9002 14.5 82.6002 8.8 77.1002 7.2C72.1002 5.6 26.9002 5.8 22.0002 7.3ZM62.1002 32.5C68.5002 37 71.2002 42.9 70.8002 51.2C70.4002 59.4 66.9002 65.1 60.0002 68.8C56.2002 70.8 54.4002 71.1 48.8002 70.8C40.6002 70.4 34.9002 66.9 31.2002 60C29.2002 56.2 28.9002 54.4 29.2002 48.8C29.6002 40.6 33.1002 34.9 40.0002 31.2C43.8002 29.2 45.6002 28.9 51.2002 29.2C56.7002 29.5 58.7002 30.1 62.1002 32.5Z" />
	<path d="M41.2004 33.6C35.6004 36.5 32.6004 41.3 32.2004 48.5C31.4004 60.2 37.3004 67.1 48.5004 67.8C60.2004 68.6 67.1004 62.7 67.8004 51.5C68.3004 43.9 66.3004 39.1 61.2004 35.2C56.7004 31.8 46.4004 31 41.2004 33.6Z" />
</symbol>

<symbol id="arrow" viewBox="0 0 9 16">
	<path d="M8.70711 8.70711C9.09763 8.31658 9.09763 7.68342 8.70711 7.29289L2.34315 0.928932C1.95262 0.538408 1.31946 0.538408 0.928932 0.928932C0.538408 1.31946 0.538408 1.95262 0.928932 2.34315L6.58579 8L0.928932 13.6569C0.538408 14.0474 0.538408 14.6805 0.928932 15.0711C1.31946 15.4616 1.95262 15.4616 2.34315 15.0711L8.70711 8.70711ZM7 9H8V7H7V9Z" />
</symbol>

</svg>
