<svg display="none" width="0" height="0" version="1.1" xmlns="http://www.w3.org/2000/svg" xmlns:xlink="http://www.w3.org/1999/xlink">
	

	
<symbol id="hired" viewBox="-41 420.9 512 512">
	<path fill="#FFFFFF" d="M416.3 828.9c5.5-7.6 8.7-16.9 8.7-26.9v-60.1c0-5.5-4.5-10-10-10h-44.7c-20.7 0-37.5 16.8-37.5 37.5v32.6c0 10 3.2 19.3 8.7 26.9-6.8 1.1-13.4 3.3-19.5 6.5-13.9-20.7-36.7-35-62.8-37.4-.1 0-.2 0-.3-.1 9.4-10.5 15.1-24.2 15.1-39.3v-81.7c0-5.5-4.5-10-10-10h-60.7c-26.1 0-47.3 21.2-47.3 47.3v44.3c0 15.1 5.7 28.9 15.1 39.3-.1 0-.2 0-.3.1-26.2 2.4-48.9 16.7-62.8 37.4-6.1-3.2-12.7-5.4-19.5-6.5 5.5-7.6 8.7-16.9 8.7-26.9v-60.1c0-5.5-4.5-10-10-10h-44.8c-20.7 0-37.5 16.8-37.5 37.5v32.7c0 10.1 3.2 19.4 8.7 26.9-31 5.1-54.7 32-54.7 64.3v29.6c0 5.5 4.5 10 10 10h492c5.5 0 10-4.5 10-10v-29.6c.1-32.3-23.6-59.2-54.6-64.3zm-391.4-59.5c0-9.6 7.8-17.5 17.5-17.5h34.7v12.2c0 6-4.9 10.8-10.8 10.8h-41.4v-5.5zm0 25.5h41.3c3.8 0 7.5-.7 10.8-2v9.1c0 14.4-11.7 26.1-26.1 26.1s-26-11.7-26-26.1v-7.1zm32.5 53.2l-6.4 6.4-6.4-6.4h12.8zm36.2 34.5v30.3h-114.6v-19.6c0-22.4 16.4-41.1 37.9-44.6l27.1 27.1c1.9 1.9 4.4 2.9 7.1 2.9s5.2-1.1 7.1-2.9l27.1-27.1c4.8.8 9.4 2.3 13.7 4.6-3.6 9.1-5.4 19-5.4 29.3zm121.4-85c-21.5 0-39-17.5-39-39v-13.2h59.8c6.6 0 12.9-1.7 18.3-4.7v17.9c-.1 21.5-17.6 39-39.1 39zm17.4 20l-17.4 17.4-17.4-17.4h34.8zm-56.4-103.4c0-15.1 12.3-27.3 27.3-27.3h50.7v20.1c0 10.1-8.2 18.3-18.3 18.3h-59.7v-11.1zm140.4 198.7h-202.8v-20h65.1c5.5 0 10-4.5 10-10s-4.5-10-10-10h-64.4c4.3-28.4 27-50.9 55.6-54.7l38 38c2 2 4.5 2.9 7.1 2.9 2.6 0 5.1-1 7.1-2.9l38-38c31.8 4.3 56.3 31.5 56.3 64.4v30.3zm36.5-143.5c0-9.6 7.8-17.5 17.5-17.5h34.7v12.2c0 6-4.9 10.8-10.8 10.8h-41.3v-5.5zm0 25.5h41.3c3.8 0 7.5-.7 10.8-2v9.1c0 14.4-11.7 26.1-26.1 26.1s-26.1-11.7-26.1-26.1l.1-7.1zm32.5 53.2l-6.4 6.4-6.4-6.4h12.8zm-49 64.8v-30.3c0-10.3-1.9-20.2-5.2-29.4 4.3-2.3 8.9-3.8 13.7-4.6l27.1 27.1c1.9 1.9 4.4 2.9 7.1 2.9s5.2-1.1 7.1-2.9l27.1-27.1c21.5 3.5 37.9 22.2 37.9 44.6v19.6h-114.8zM264.3 486.2c-3.9-3.9-10.2-3.9-14.1 0l-49.1 49.1-21.2-21.2c-3.9-3.9-10.2-3.9-14.1 0-3.9 3.9-3.9 10.2 0 14.1l28.3 28.3c1.9 1.9 4.4 2.9 7.1 2.9s5.2-1.1 7.1-2.9l56.1-56.1c3.8-3.9 3.8-10.3-.1-14.2zM255.9 429.6c-5-2.2-11 0-13.2 5.1s0 11 5.1 13.2c29 12.9 47.7 41.8 47.7 73.5 0 44.4-36.1 80.5-80.5 80.5s-80.5-36.1-80.5-80.5c0-31.6 18.6-60.4 47.4-73.4 5-2.3 7.3-8.2 5-13.2s-8.2-7.3-13.2-5c-35.9 16.2-59.2 52.2-59.2 91.6 0 55.4 45.1 100.5 100.5 100.5s100.5-45.1 100.5-100.5c0-39.7-23.4-75.7-59.6-91.8zM215.4 420.9h-.4c-5.5 0-10 4.5-10 10s4.5 10 10 10h.3c5.5 0 10-4.4 10-10 0-5.5-4.4-10-9.9-10zM222.1 875.8c-1.9-1.9-4.4-2.9-7.1-2.9s-5.2 1.1-7.1 2.9-2.9 4.4-2.9 7.1 1.1 5.2 2.9 7.1c1.9 1.9 4.4 2.9 7.1 2.9s5.2-1.1 7.1-2.9c1.9-1.9 2.9-4.4 2.9-7.1s-1.1-5.2-2.9-7.1z"/>
</symbol>

<symbol id="precentage" viewBox="-41 420.9 512 512">
	<path fill="#FFFFFF" d="M396 495.9c-48.4-48.4-112.6-75-181-75s-132.7 26.6-181 75c-48.4 48.4-75 112.6-75 181s26.6 132.7 75 181c48.4 48.4 112.6 75 181 75s132.7-26.6 181-75c48.4-48.4 75-112.6 75-181s-26.6-132.7-75-181zm-181 416.6c-129.9 0-235.6-105.7-235.6-235.6s105.7-235.6 235.6-235.6 235.6 105.7 235.6 235.6-105.7 235.6-235.6 235.6zM346.6 545.1c-13.9-13.9-36.6-13.9-50.5 0l-212.7 212.7c-6.8 6.8-10.6 15.9-10.5 25.5 0 9.7 3.9 18.7 10.7 25.5 7 6.8 16.1 10.3 25.2 10.3 9.2 0 18.5-3.5 25.4-10.5l212.4-212.9c13.9-14 13.9-36.7 0-50.6zm-14.4 36.1l-212.4 213c-6 6-15.8 6.1-21.9.1-3-2.9-4.6-6.8-4.6-11s1.6-8.1 4.5-11l212.7-212.7c6-6 15.7-6 21.6 0 6.1 5.9 6.1 15.6.1 21.6zM133.9 550.4c-25 0-45.4 20.4-45.4 45.4s20.4 45.4 45.4 45.4 45.4-20.4 45.4-45.4-20.4-45.4-45.4-45.4zm0 70.4c-13.8 0-25-11.2-25-25s11.2-25 25-25 25 11.2 25 25-11.2 25-25 25zM296.1 712.6c-25 0-45.4 20.4-45.4 45.4s20.4 45.4 45.4 45.4 45.4-20.4 45.4-45.4c0-25.1-20.4-45.4-45.4-45.4zm0 70.4c-13.8 0-25-11.2-25-25s11.2-25 25-25 25 11.2 25 25-11.2 25-25 25zM421.1 719c-5.5-1.4-11 1.9-12.4 7.4-22.5 88.5-102.2 150.4-193.7 150.4-5.6 0-10.2 4.6-10.2 10.2s4.6 10.2 10.2 10.2c100.8 0 188.6-68.2 213.5-165.8 1.4-5.4-1.9-11-7.4-12.4zM425.1 666.7c-5.6 0-10.2 4.6-10.2 10.2 0 2.9-.1 5.9-.2 8.7-.2 5.6 4.1 10.4 9.7 10.6h.4c5.4 0 9.9-4.3 10.2-9.8.1-3.2.2-6.4.2-9.6.1-5.5-4.5-10.1-10.1-10.1z"/>
</symbol>

<symbol id="profits" viewBox="-41 420.9 512 512">
	<path fill="#FFFFFF" d="M461 912.9h-8v-292c0-5.5-4.5-10-10-10h-80c-5.5 0-10 4.5-10 10v107c0 5.5 4.5 10 10 10s10-4.5 10-10v-97h60v282h-60v-87c0-5.5-4.5-10-10-10s-10 4.5-10 10v87h-24v-226c0-5.5-4.5-10-10-10h-80c-5.5 0-10 4.5-10 10v226h-28v-164c0-5.5-4.5-10-10-10h-80c-5.5 0-10 4.5-10 10v164h-24v-100c0-5.5-4.5-10-10-10h-80c-5.5 0-10 4.5-10 10v100h-8c-5.5 0-10 4.5-10 10s4.5 10 10 10h492c5.5 0 10-4.5 10-10s-4.5-10-10-10zm-404 0h-60v-90h60v90zm124 0h-60v-154h60v154zm128 0h-60v-216h60v216zM370.1 767.7c-1.9-1.9-4.4-2.9-7.1-2.9s-5.2 1.1-7.1 2.9c-1.9 1.9-2.9 4.4-2.9 7.1 0 2.6 1.1 5.2 2.9 7.1 1.9 1.9 4.4 2.9 7.1 2.9s5.2-1.1 7.1-2.9c1.9-1.9 2.9-4.4 2.9-7.1 0-2.6-1.1-5.2-2.9-7.1zM395 420.9c-41.9 0-76 34.1-76 76s34.1 76 76 76 76-34.1 76-76-34.1-76-76-76zm0 105.1c-6.3 0-11.3-4.2-11.3-9.4 0-5.5-4.5-10-10-10s-10 4.5-10 10c0 12.9 9 23.9 21.3 27.8v7.5c-26.1-4.7-46-27.6-46-55.1s19.9-50.4 46-55.1v8.3c-12.4 3.9-21.3 14.9-21.3 27.8 0 16.2 14.1 29.4 31.3 29.4 6.3 0 11.3 4.2 11.3 9.4s-5 9.4-11.3 9.4zm10 26v-7.5c12.4-3.9 21.3-14.9 21.3-27.8 0-16.2-14.1-29.4-31.3-29.4-6.3 0-11.3-4.2-11.3-9.4s5.1-9.4 11.3-9.4 11.3 4.2 11.3 9.4c0 5.5 4.5 10 10 10s10-4.5 10-10c0-12.9-9-23.9-21.3-27.8v-8.3c26.1 4.7 46 27.6 46 55.1s-19.9 50.3-46 55.1zM315 550.3h-39.1c-5.5 0-10 4.5-10 10s4.5 10 10 10h15l-107 106.9-54.3-54.3c-3.9-3.9-10.2-3.9-14.1 0l-108.8 108.7c-3.9 3.9-3.9 10.2 0 14.1 2 2 4.5 2.9 7.1 2.9s5.1-1 7.1-2.9l101.7-101.7 54.3 54.3c3.9 3.9 10.2 3.9 14.1 0l114-114v15c0 5.5 4.5 10 10 10s10-4.5 10-10v-39.1c0-5.5-4.5-9.9-10-9.9zM-5.1 757.6c-1.9-1.9-4.4-2.9-7.1-2.9s-5.2 1.1-7.1 2.9-2.9 4.4-2.9 7.1 1.1 5.2 2.9 7.1c1.9 1.9 4.4 2.9 7.1 2.9s5.2-1.1 7.1-2.9 2.9-4.4 2.9-7.1-1.1-5.2-2.9-7.1z"/>
</symbol>

<symbol id="setting" viewBox="-41 466.4 513 421">
	<g id="surface1"><path class="#FFFFFF" d="M445.5 650.9h-286.4c-2.9-19.2-19.5-34-39.6-34s-36.6 14.8-39.6 34h-94.4c-14.3 0-26 11.7-26 26s11.7 26 26 26h94.4c2.9 19.2 19.5 34 39.6 34s36.6-14.8 39.6-34h286.4c14.3 0 26-11.7 26-26s-11.7-26-26-26zm-466 26c0-3.3 2.7-6 6-6h94v12h-94c-3.3 0-6-2.8-6-6zm160 20c0 11-9 20-20 20s-20-9-20-20v-40c0-11 9-20 20-20s20 9 20 20v40zm306-14h-286v-12h286c3.3 0 6 2.7 6 6 0 3.2-2.7 6-6 6zM45.3 520.9h.3c5.5 0 10-4.5 10-10s-4.5-10-10-10h-.3c-5.5 0-10 4.5-10 10s4.4 10 10 10zM-14.5 552.9h346.5c2.9 19.2 19.5 34 39.5 34s36.6-14.8 39.6-34h34.4c14.3 0 26-11.7 26-26s-11.7-26-26-26h-34.4c-2.9-19.2-19.5-34-39.6-34s-36.6 14.8-39.5 34h-246.5c-5.5 0-10 4.5-10 10s4.5 10 10 10h246v12h-346c-3.3 0-6-2.8-6-6 0-3.3 2.7-6 6-6h31c5.5 0 10-4.5 10-10s-4.5-10-10-10h-31c-14.3 0-26 11.7-26 26s11.7 26 26 26zm466-26c0 3.3-2.7 6-6 6h-34v-12h34c3.3 0 6 2.7 6 6zm-100-20c0-11 9-20 20-20s20 9 20 20v40c0 11-9 20-20 20s-20-9-20-20v-40zM445.5 800.9h-31c-5.5 0-10 4.5-10 10s4.5 10 10 10h31c3.3 0 6 2.7 6 6s-2.7 6-6 6h-130v-12h30c5.5 0 10-4.5 10-10s-4.5-10-10-10h-30.5c-2.9-19.2-19.5-34-39.5-34s-36.6 14.8-39.6 34h-250.4c-14.3 0-26 11.7-26 26s11.7 26 26 26h250.4c2.9 19.2 19.5 34 39.6 34s36.6-14.8 39.5-34h130.5c14.3 0 26-11.7 26-26s-11.7-26-26-26zm-466 26c0-3.3 2.7-6 6-6h250v12h-250c-3.3 0-6-2.8-6-6zm316 20c0 11-9 20-20 20s-20-9-20-20v-40c0-11 9-20 20-20s20 9 20 20v40zM385.7 820.9c5.5 0 10-4.5 10-10s-4.5-10-10-10h-.3c-5.5 0-10 4.5-10 10s4.5 10 10 10h.3z"/></g>
</symbol>

<symbol id="comission" viewBox="-41 420.9 494.8 512">
	<path fill="#FFFFFF" d="M266.1 711.1c1.3 0 2.6-.3 3.8-.9l51.2-25.6c4.2-2.1 5.9-7.2 3.8-11.4-.8-1.6-2.2-3-3.8-3.8l-51.2-25.6c-4.2-2.1-9.3-.4-11.4 3.8-.6 1.2-.9 2.5-.9 3.8v17.1h-34.1v-179.2h34.1v17.1c0 4.7 3.8 8.5 8.5 8.5 1.3 0 2.6-.3 3.8-.9l51.2-25.6c4.2-2.1 5.9-7.2 3.8-11.4-.8-1.6-2.2-3-3.8-3.8l-51.2-25.6c-4.2-2.1-9.3-.4-11.4 3.8-.6 1.2-.9 2.5-.9 3.8v17.1h-42.7c-4.7 0-8.5 3.8-8.5 8.5v187.7h-60.2c-4.7-51.6-50.4-89.6-102-84.9-51.6 4.7-89.6 50.4-84.9 102 4.4 48.3 44.9 85.3 93.5 85.3 48.5-.1 89-37 93.4-85.3h60.2v187.7c0 4.7 3.8 8.5 8.5 8.5h42.7v17.1c0 4.7 3.8 8.5 8.5 8.5 1.3 0 2.6-.3 3.8-.9l51.2-25.6c4.2-2.1 5.9-7.2 3.8-11.4-.8-1.6-2.2-3-3.8-3.8l-51.2-25.6c-4.2-2.1-9.3-.4-11.4 3.8-.6 1.2-.9 2.5-.9 3.8v17.1h-34.1v-179.3h34.1v17.1c0 4.7 3.8 8.5 8.5 8.5zm8.6-45.9l23.6 11.8-23.6 11.8v-23.6zm0-196.3l23.6 11.8-23.6 11.8v-23.6zm-221.9 284.8c-42.4 0-76.8-34.4-76.8-76.8s34.4-76.7 76.8-76.8c42.4 0 76.8 34.4 76.8 76.8 0 42.5-34.3 76.8-76.8 76.8zm221.9 107.7l23.6 11.8-23.6 11.8v-23.6zM427.3 478.6c13-13.6 12.5-35.2-1.1-48.2s-35.2-12.5-48.2 1.1c-12.6 13.2-12.6 33.9 0 47.1-16.3 9-26.5 26.2-26.5 44.8v42.6c0 4.7 3.8 8.5 8.5 8.5h85.3c4.7 0 8.5-3.8 8.5-8.5v-42.7c0-18.6-10.2-35.7-26.5-44.7zm-24.7-40.5c9.4 0 17.1 7.6 17.1 17.1 0 9.4-7.6 17.1-17.1 17.1-9.4 0-17.1-7.6-17.1-17.1.1-9.5 7.7-17.1 17.1-17.1zm34.2 119.4h-68.2v-34.1c0-18.8 15.3-34.1 34.1-34.1s34.1 15.3 34.1 34.1v34.1zM427.3 657.7c13-13.6 12.5-35.2-1.1-48.2s-35.2-12.5-48.2 1.1c-12.6 13.2-12.6 33.9 0 47.1-16.3 9-26.5 26.2-26.5 44.8v42.7c0 4.7 3.8 8.5 8.5 8.5h85.3c4.7 0 8.5-3.8 8.5-8.5v-42.7c0-18.6-10.2-35.8-26.5-44.8zm-24.7-40.5c9.4 0 17.1 7.6 17.1 17.1 0 9.4-7.6 17.1-17.1 17.1-9.4 0-17.1-7.6-17.1-17.1.1-9.4 7.7-17.1 17.1-17.1zm34.2 119.5h-68.2v-34.1c0-18.8 15.3-34.1 34.1-34.1s34.1 15.3 34.1 34.1v34.1zM427.3 836.9c13-13.6 12.5-35.2-1.1-48.2s-35.2-12.5-48.2 1.1c-12.6 13.2-12.6 33.9 0 47.1-16.3 9-26.5 26.2-26.5 44.8v42.7c0 4.7 3.8 8.5 8.5 8.5h85.3c4.7 0 8.5-3.8 8.5-8.5v-42.7c0-18.6-10.2-35.8-26.5-44.8zm-24.7-40.5c9.4 0 17.1 7.6 17.1 17.1 0 9.4-7.6 17.1-17.1 17.1-9.4 0-17.1-7.6-17.1-17.1.1-9.5 7.7-17.1 17.1-17.1zm34.2 119.4h-68.2v-34.1c0-18.8 15.3-34.1 34.1-34.1s34.1 15.3 34.1 34.1v34.1zM55.4 668.8c-9.6-3-11.1-4.2-11.1-8.9s3.8-8.5 8.5-8.5 8.5 3.8 8.5 8.5h17.1c0-10.8-6.9-20.4-17.1-24v-18.6h-17v18.6c-10.2 3.6-17 13.2-17.1 24 0 18 14.4 22.5 23 25.2 9.6 3 11.1 4.2 11.1 8.9s-3.8 8.5-8.5 8.5-8.5-3.8-8.5-8.5h-17c0 10.8 6.9 20.4 17.1 24v18.6h17.1v-18.6c10.2-3.6 17-13.2 17.1-24-.2-18-14.6-22.5-23.2-25.2z"/>
</symbol>

</svg>