<svg height="418" viewBox="0 0 2047 418" fill="none" xmlns="http://www.w3.org/2000/svg"><path fill-rule="evenodd" clip-rule="evenodd" d="M1941.23 268.283l-.96-10.146 100.31 29.096v.622c0 .829.21 1.451.83 2.073l-102.75 108.225c-.62-.622-1.24-.829-1.87-.829l-14.9-104.401 17.68-18.628c.62.415 1.25.83 2.07.83 1.87 0 3.53-1.659 3.53-3.525-.42-1.866-1.87-3.317-3.94-3.317zm-.83 0l-.98-10.393-8.07-2.342 8.22 12.942c.11 0 .26-.052.42-.104.15-.051.31-.103.41-.103zm43.42 1.534l-43.63-12.615-10.5-111.486 3.79-28.285c.41 0 1.04-.207 1.45-.415l72.3 114.031 34.18 53.905c-.42.415-.83.829-1.04 1.244l-56.55-16.379zm-44.49-12.862l-10.13-107.609-11.38 84.902 12.83 20.196 8.68 2.511zm-6.06-139.317l-3.66 27.298-2.45-26.047 4.25-2.495c.41.622 1.03 1.037 1.86 1.244zm-4.14 30.928l-2.76-29.216-26.03 15.289-33.41 19.51 50.74 79.866 11.46-85.449zm1.86-32.794l-3.91 2.287-.31-3.282 4.02-.041c0 .414 0 .829.2 1.036zm-4.69 2.746l-.36-3.733-83.47.86 24.03 37.823 59.8-34.95zm4.49-4.197l-4.06.038-8.29-88.028c1.66-.415 2.7-1.659 2.7-3.318 0-1.866-1.66-3.524-3.53-3.524-1.86 0-3.52 1.659-3.52 3.524 0 .208.05.467.11.726.05.26.1.518.1.726l-92.39 53.283a3.625 3.625 0 00-2.9-1.451c-1.86 0-3.31 1.451-3.52 3.11l-290.64 2.902c-.2-1.658-1.65-3.11-3.52-3.11-1.35 0-2.52.903-3.18 2.034l-143.78-34.708v-.415c0-1.659-1.45-3.11-3.1-3.11-1.33 0-2.53.937-2.95 2.165L1198.38 3.939v-.414c0-1.866-1.66-3.525-3.52-3.525-1.87 0-3.32 1.451-3.52 3.317L978.383 19.904c-.207-1.66-1.657-2.903-3.314-2.903-1.865 0-3.522 1.659-3.522 3.524v.623l-95.083 30.27c-.622-1.245-1.657-2.074-3.107-2.074-1.658 0-3.108 1.244-3.315 2.903L634.095 32.136c0-1.866-1.657-3.317-3.522-3.317-1.864 0-3.521 1.658-3.521 3.524v.415l-189.131 41.88c-.414-1.451-1.657-2.28-3.314-2.28s-3.108 1.243-3.315 2.695l-60.488-6.013c0-1.866-1.658-3.524-3.522-3.524-1.864 0-3.314 1.451-3.522 3.11L199.488 72.15c-.207-1.658-1.657-3.11-3.521-3.11-1.865 0-3.522 1.659-3.522 3.525 0 .83.207 1.451.621 2.073L5.8 236.354c-.621-.622-1.45-1.036-2.278-1.036-1.865 0-3.522 1.658-3.522 3.524s1.657 3.525 3.522 3.525c1.864 0 3.314-1.452 3.521-3.11 0-.829-.207-1.452-.414-1.866L193.895 75.675s.207 0 .207.207L87.626 237.184c-.415-.208-1.036-.415-1.657-.415-1.865 0-3.315 1.451-3.522 3.11.207 1.866 1.657 3.11 3.522 3.11 1.657 0 3.107-1.244 3.521-2.903l66.91 2.695c.208 1.866 1.658 3.318 3.522 3.318 1.657 0 3.107-1.244 3.314-2.696l120.183 14.082 8.582 91.02c-1.036.207-1.865 1.036-1.865 2.28a2.3 2.3 0 002.279 2.281 2.3 2.3 0 002.279-2.281c0-.414 0-.622-.208-.829l60.489-34.831c.052.078.107.152.165.223.408.496.974.813 1.699.813 1.243 0 2.072-.829 2.279-2.073l189.951-1.866.009.003c.208 1.036 1.036 2.071 2.278 2.071.808 0 1.489-.379 1.848-.938l257.178 70.614v.622c0 1.866 1.657 3.524 3.522 3.524 1.657 0 3.107-1.243 3.314-2.695l220.622 26.746c0 1.866 1.65 3.524 3.52 3.524 1.86 0 3.52-1.658 3.52-3.524 0-.415 0-.83-.21-1.037l32.31-15.236 152.39 18.429c0 1.659 1.45 3.11 3.1 3.11 1.66 0 3.11-1.451 3.11-3.11 0-.415 0-.622-.21-1.037l152.75-72.096 144.81 48.585v.829c0 1.866 1.66 3.525 3.52 3.525 1.87 0 3.32-1.244 3.52-3.11l135.6 2.918v.482c0 1.659 1.45 3.11 3.11 3.11s2.9-1.244 3.11-2.695l137.79 2.949c.47 1.441 1.76 2.359 3.37 2.359 1.41 0 2.7-.949 3.24-2.218l107.5 2.301c.2 1.658 1.45 2.902 3.1 2.902 1.66 0 3.11-1.451 3.11-3.11 0-.829-.21-1.451-.83-2.073l102.75-108.225c.62.414 1.24.622 1.87.622 1.65 0 3.1-1.452 3.1-3.11.21-1.244-1.24-2.696-2.9-2.696l-20.71-217.902c1.45-.207 2.48-1.658 2.48-3.11 0-1.658-1.45-3.11-3.1-3.11-1.66 0-3.11 1.452-3.11 3.11 0 .415 0 .83.21 1.244l-83.28 47.893c-.62-.829-1.45-1.244-2.49-1.244-1.65 0-2.9 1.244-3.1 2.903zM553.349 313.081l256.826 70.684a4.061 4.061 0 011.864-1.866l-7.077-21.167-37.545 2.908a2.3 2.3 0 01-2.279 2.28 2.3 2.3 0 01-2.279-2.28v-.208l-209.431-50.588c-.008.029-.015.057-.024.084a1.638 1.638 0 01-.055.153zm252.556 47.578l6.963 20.825h.829c.256 0 .512.079.866.189.218.067.474.146.791.226l13.485-23.016-22.934 1.776zm23.279-1.803l-13.623 23.25a3.628 3.628 0 011.45 2.903l220.619 26.745c.21-1.037.83-1.866 1.66-2.281l-8.12-19.117-.67-.081c-.41 1.451-1.66 2.488-3.11 2.488-1.65 0-3.1-1.452-3.1-3.11v-.415l-128.984-35.503-66.122 5.121zm67.844-5.254l127.462 35.014c.42-.622.83-1.244 1.66-1.658l-13.37-39.924-5.44-12.813-29.663-2.51c-.207 1.037-1.243 1.866-2.279 1.866-.829 0-1.657-.622-2.072-1.451l-62.145 19.903v.415a2.3 2.3 0 01-2.279 2.281c-1.243 0-2.072-.83-2.279-1.866l-9.595.743zm111.262-19.3l1.06 2.501-.83-2.482-.23-.019zm.99.084l3.59 10.702 17.02 40.088 27.38-46.729-47.99-4.061zm48.72 4.123l-23.56 40.155-4.27 7.176 1.78 4.195 44.52 5.379 122.91-58.02-2.62-6.15-60.2 13.321v.208c0 .077 0 .154-.01.23-.12 1.139-1.1 2.05-2.27 2.05-1.24 0-2.27-1.036-2.27-2.28l-74.01-6.264zm139.33-7.391l2.56 6.031 26.32-12.421-28.88 6.39zm32.06-7.094l-29.22 13.778 31.48 74.035c.2-.207.41-.207.82-.207 1.25 0 2.08.622 2.7 1.451l152.76-71.951-60.75-20.384-18.47.391c-.21 1.244-1.04 2.074-2.28 2.074a2.303 2.303 0 01-2.28-2.281l-39.57-3.939c-.41 1.036-1.24 1.866-2.28 1.866-1.03 0-1.86-.83-2.07-1.659l-30.84 6.826zm99.76-3.32l59.58 20.052 50.69-23.875c-.21-.415-.21-.622-.21-1.037 0-.045.01-.099.03-.159.02-.078.05-.166.08-.254v-.002c.05-.155.1-.311.1-.414l-11.21-4.387-7.85 6.777c.21.415.42.83.42 1.244a2.303 2.303 0 01-2.28 2.281c-1.24 0-2.07-1.037-2.28-2.073l-87.07 1.847zm99.62-10.563l10.86 4.252c.41-.83 1.45-1.659 2.48-1.659l.27-14.343-13.61 11.75zm14.01-12.097l100.01-86.376c.41.415 1.04.622 1.45.622 1.24 0 2.28-1.037 2.28-2.281 0-1.244-.83-3.731-2.07-3.731-1.25 0-2.07.829-2.28 2.073l-8.5-.071 43.91-16.008 11.34 1.463-20.52 75.546-123.39 44.904c-.41-.829-1.45-1.658-2.48-1.658l.25-14.483zm88.59-89.784l44.52-16.206-128.39-16.571c-.21 1.451-1.24 2.28-2.69 2.488l-.44 28.106 43.73 1.652c.21-1.037 1.04-1.866 2.28-1.866 1.24 0 2.07.829 2.28 2.073l38.71.324zm-87.27-2.799l.5-27.283c-1.45-.207-2.49-1.244-2.69-2.488l-153.95 11.34c.15.303.24.644.24 1.002v.001l151.63 17.83c.21-1.037 1.04-1.866 2.08-1.866 1.02 0 1.91.566 2.19 1.464zm-157-19.375l150.25-11.225 4.14-.208c0-.242.07-.414.13-.557.04-.1.08-.186.08-.272l-20.2-8.432-141.3-18.189a3.773 3.773 0 01-3.1 2.695l-.64 35.275 4.89 1.343 3.07-.23c.38-.33.91-.534 1.5-.534.43 0 .83.123 1.18.334zm-11.29-1.091l.04-2.339.63-32.55c-1.45-.208-2.7-1.452-2.9-2.903l-106.61 7.874 108.84 29.918zm-111.49-30.645l93.51-6.94 15.54-1.244c0-.103.05-.259.1-.414.05-.156.11-.311.11-.415l-41.43-17.208-68.25-28.467-12.31 51.188 12.73 3.5zm-13.25-3.643l12.41-51.223-47.09-19.642-32.03 10.222v.622c0 1.036-.41 1.865-1.24 2.487l25.15 45.771 42.8 11.763zm-43.32-11.907l-24.22-44.175-.83-1.452c-.41.208-.83.208-1.24.208-.41 0-1.04-.208-1.45-.415l-22.38 32.058 50.12 13.776zm-50.83-13.971l22.26-31.863a2.861 2.861 0 01-.62-.83l-55.52 23.381 33.88 9.312zm-34.83-9.574l56.26-23.74c-.2-.207-.2-.622 0-.83l-117.381-9.952-6.108 25.297 57.619 6.95c.21-1.037 1.03-1.866 2.07-1.866 1.24 0 2.28 1.037 2.28 2.281v.414l5.26 1.446zm-67.839-9.298l6.104-25.276-74.755-6.338 10.958 19.784 2.868 5.217 54.825 6.613zm-55.838-6.735l-13.757-24.959-19.049-1.615c-.207 1.037-.829 1.866-1.864 2.28l5.618 20.79 29.052 3.504zm-30.138-3.636l-5.568-20.45h-.414a3.141 3.141 0 01-2.702-1.616l-25.892 37.068 30.044-14.194c-.208-.415-.208-.622-.208-.83a2.3 2.3 0 012.279-2.28 2.3 2.3 0 012.279 2.28l.182.022zm-35.626 15.498l26.525-37.974-67.179 14.706-75.459 31.814 60.151 17.878 4.7-2.204-4.678 2.21 31.036 9.224 24.716-35.384-51.069 23.948 51.257-24.218zm.858-.221l-25.18 36.049 77.995 23.18c.415-.829 1.036-1.451 1.865-1.658l-1.036-3.525-15.101-55.46-5.2-12.226c-.207.207-.414.207-.622.207-.828 0-1.45-.414-1.864-1.036l-30.857 14.469zm41.349 5.184l14.159 52.387h.415c1.242 0 2.071.622 2.693 1.658l4.849-2.046-22.116-51.999zm22.339 52.523l-5.072 2.144c.207.208.207.415.207.83 0 .621-.207 1.243-.415 1.658l9.806 7.631.621-.162-5.147-12.101zm5.426 12.758l-.197.052.327.254-.13-.306zm.496 1.167l-1.247-.971-68.903 17.958-15.348 7.501 81.522 31.913 16.203-27.654-12.227-28.747zm12.365 29.072l-16.073 27.434 22.034 8.625 8.83-1.284-14.791-34.775zm15.04 35.361l-7.921 1.152 8.673 3.395c.055-.055.11-.124.169-.201l.025-.033.061-.078c.146-.187.321-.391.574-.517l-1.581-3.718zm-113.697-40.256l13.146-6.409-17.721 4.618 4.575 1.791zm-5.694-2.229l-33.758-13.215 30.319-43.407 78.423 23.308v.622c0 .415 0 .829.207 1.036l-53.134 25.907-22.057 5.749zm-34.311-13.432l30.289-43.363-31.827-9.46-58.946 27.85a2.892 2.892 0 00-.086-.189l59.004-27.669-60.245-17.905-33.077 13.946-3.894 21.174 33.486 11.226a.255.255 0 00-.014.021l-.025.036-33.454-11.244-.092.501 21.147 16.446 12.813-4.667c-.207-.207-.207-.414-.207-.622v-.414l-.168-.057c.426-.602 1.229-1.187 2.033-1.187.828 0 1.45.415 1.864 1.037l.915-.433c.121.294.121.467.121.64a.65.65 0 01-.084.272l-.02.039c-.027.056-.055.111-.075.167l-.001.002a.42.42 0 00-.027.142l60.57 23.711zm-78.561-18.328l-20.472-15.922-4.608 25.056 25.08-9.134zm-26.005 9.471l4.845-25.927-2.504-1.948-21.6-7.26-19.625 9.591 5.767 37.606 33.117-12.062zm-33.706 12.277l-129.865 47.3a1.61 1.61 0 00-.088-.155 2.156 2.156 0 00-1.155-.882l7.018-25.975 118.333-57.827 5.757 37.539zm-123.9 19.585l5.653-20.925 77.265-64.676 29.718 9.963.005.002-.005-.002-29.697-9.981 3.261-2.73 28.451 8.451.798 5.203-2.8-.938 2.8.941 1.634 10.657.989 6.449-41.298 20.214-76.774 37.372zm116.105-74.472l2.546 16.603 19.075-9.336-21.621-7.267zm0-.003l21.646 7.258 5.104-2.499c-.207-.414-.207-.829-.207-1.244v-.622l-27.345-8.122.802 5.229zm22.268 7.466l21.485 7.204-11.41-8.874a3.428 3.428 0 01-2.485 1.037c-1.243 0-2.279-.622-2.901-1.659l-4.689 2.292zm23.62 7.919l.66.221 3.849-20.597-17.225 7.263c.207.414.207.622.207 1.036 0 .622-.207 1.244-.621 1.866l13.13 10.211zm-79.563-26.7l3.245-2.715-56.449-16.767c.275.377.439.839.439 1.333v.415l52.765 17.734zm-55.893-20.281l-1.984-.589-58.794 1.234 59.348 1.28c.156-.934.662-1.634 1.43-1.925zm-73.305.375c.108-1.575 1.509-2.914 3.101-2.914 1.657 0 2.9 1.244 3.107 2.695l63.157-1.326-99.117-29.442c-.621 1.244-1.864 2.074-3.314 2.074h-.207l-5.227 28.083 38.5.83zm-39.391-.849l5.289-28.272c-1.243-.414-2.486-1.658-2.693-3.317l-60.489-6.012c-.207 1.244-1.242 2.28-2.485 2.695l5.191 33.716 55.187 1.19zm-55.63-1.199l-5.163-33.5h-.207a3.43 3.43 0 01-2.486-1.036L162.822 240.915c.414.622.622 1.244.622 2.074l119.933 14.052-6.291-66.728a2.3 2.3 0 01-2.279-2.28v-.001a2.3 2.3 0 012.279-2.28c.621 0 1.035.207 1.45.415l74.575-78.578c-.415-.414-.622-.829-.622-1.451a2.3 2.3 0 012.279-2.281c1.243 0 2.279.83 2.279 2.074l15.812.341zm224.198 21.972l-76.539 64.044 8.88-32.867 12.843-47.478h.415c.828 0 1.657-.622 2.071-1.244l52.33 17.545zm79.676 26.754l.52.405.041-.217-.561-.188zM1197.97 4.354l170.23 41.3c-.03.15-.04.302-.04.456l-142.13 11.06-29.31-51.157a3.262 3.262 0 001.25-1.66zm-1.66 2.488l28.87 50.395-48.84 3.8c-.21-1.45-1.45-2.487-3.11-2.487s-3.11 1.45-3.11 3.11v.622l-53.84 17.182-137.897-57.487c0-.104.052-.26.104-.415.052-.155.103-.31.103-.415l212.95-16.586c.21 1.244 1.66 2.488 3.32 2.488.21 0 .46-.052.72-.104.26-.051.52-.103.73-.103zM978.176 22.184l137.654 57.423-31.47 10.042c-.41-1.037-1.66-1.866-2.9-1.866-1.45 0-2.9 1.037-3.11 2.488L961.094 80.215l13.56-56.165h.415c1.243 0 2.486-.83 3.107-1.866zm-4.143 1.866l-13.552 56.112-75.232-6.452-9.821-17.731a3.627 3.627 0 001.45-2.903v-.622l95.083-30.27c.415.83 1.036 1.451 2.072 1.866zm-99.226 32.343l9.5 17.237-18.7-1.604c0-1.559-1.281-2.934-2.81-3.094l8.902-12.746c.415.207 1.036.415 1.658.415.414 0 1.035 0 1.45-.208zm-3.522-.622l-9.203 13.176c-1.476.218-2.69 1.561-2.69 3.079v.415l-65.11 14.41 76.174-32.116c.208.414.415.622.829 1.036zm-1.036-1.658L790.74 87.635l-101.834 22.539c-.415-1.244-1.658-2.073-2.901-2.073-1.45 0-2.693 1.037-3.107 2.488l-31.567-3.123-19.515-71.805c1.036-.415 1.865-1.452 2.072-2.489l235.947 20.111c.128.128.177.257.245.434.041.11.09.237.169.396zM631.195 35.868l19.439 71.529-22.217-2.199c0-1.658-1.45-3.109-3.107-3.109-1.658 0-2.901 1.244-3.108 2.902l-81.504 1.711-102.362-30.405V75.26l188.923-41.673c.414 1.451 1.657 2.28 3.314 2.28h.622zm-202.742 71.796l-55.121-1.188 11.698 75.962 35.105-30.307 8.318-44.467zm.892.019l-8.093 43.484 47.243-40.785c-.414-.622-.622-1.244-.622-1.866v-.002l-38.528-.831zm46.505 1.003l64.527 1.391s0 .208.207.622l-80.29 48.948 10.272-48.021h.415c1.657 0 2.9-1.244 3.107-2.903l1.762-.037zm-16.432 51.495l10.32-48.555c-.104 0-.156-.052-.207-.104-.052-.052-.104-.104-.207-.104l-47.174 71.483 37.268-22.72zm-38.419 23.422l47.91-72.599-.207-.208-47.581 41.078-6.645 35.706 6.523-3.977zm-7.62 4.646l-25.094 15.298-1.945-12.598-1.23-7.987 34.893-30.123-6.624 35.41zm-25.49 15.539l-3.159-20.498-16.137 13.931 2.126 15.069c.828 0 1.45.207 1.864.829l15.306-9.331zm-19.37-7.096l16.13-13.926-11.76-76.3-15.221-.328c-.207.829-.829 1.659-1.657 1.866l12.508 88.688zm-75.483 150.983l-8.491-90.058 9.966 1.167c.195 1.499 1.55 2.74 3.083 2.74a3.128 3.128 0 002.936-2.034l24.537 2.875 30.944 48.821a1.802 1.802 0 00-.214.164c-.456.406-.615.95-.615 1.494v.076c.001.365.013.559.207.754l-60.488 35.038c-.415-.622-1.036-1.037-1.865-1.037zm31.731-85.784l-1.812-2.859-22.254-.203a3.18 3.18 0 01-.043.237l24.109 2.825zm-2.338-3.69l-8.655-13.654-13.902 12.001c.056.166.111.318.163.458v.002c.141.385.252.688.252.991l22.142.202zm-8.898-14.038l-34.788-54.886c-.207.207-.415.207-.622.207l6.382 67.689 9.984 1.17c.041-1.629 1.473-3.039 3.107-3.039.828 0 1.45.207 2.071.829l13.866-11.97zm10.168 14.876l1.876 2.946 38.017 4.455.943-7.029-40.836-.372zm-.528-.831l41.475.379 5.658-42.15c-.776-.195-1.553-.936-1.647-1.882a1.738 1.738 0 01-.01-.192v-.414l-14.554-4.21-39.867 34.418 8.945 14.051zm-9.189-14.434l39.596-34.184-56.606-16.374-17.193-4.976c0 .207-.415.622-.622.829l34.825 54.705zm49.552 23.098l-37.657-4.412 30.755 48.311c.207 0 .363-.052.518-.104l.058-.019c.137-.045.279-.084.46-.084l5.866-43.692zm-5.452 43.899l5.887-43.848 31.072 3.64c0 1.866 1.657 3.525 3.521 3.525 1.45 0 2.693-.829 3.315-2.281l17.263 4.74-39.307 23.028-20.508 11.818-1.243-.622zm61.526-34.498l18.803-11.016-36.534 5.306v.83l17.731 4.88zm21.363-12.516l1.802-1.056-1.208-.14a3.653 3.653 0 01-.594 1.196zm2.915-1.708l3.894-2.281c-.208-.207-.208-.414-.208-.829 0-.207 0-.622.208-.829l-3.076-1.739-4.175 3.494c.415.622.622 1.244.622 1.866l2.735.318zm.395-5.917l-4.126-2.332-1.076 5.029c.414 0 .829.207 1.243.622l3.959-3.319zm-4.856-2.745l-1.9-1.073-17.597 8.599 14.801.611c.207-1.451 1.45-2.695 3.107-2.695h.415l1.174-5.442zm-2.619-1.48l-31.024-17.535-4.786 25.76 17.436.719 18.374-8.944zm-31.957-18.062l-11.885-6.718-.843 1.278 4.871 31.561 2.948.122 4.909-26.243zm-12.386-7.001l-.639-.361.167 1.077.472-.716zm-1.118-.632l-18.762-10.605c-.414.622-1.036 1.037-1.864 1.037l-5.632 41.947 3.353.03c.207-1.451 1.45-2.695 3.107-2.695.622 0 1.036.207 1.45.415l18.639-28.243-.291-1.886zm-26.368 33.203l-.95 7.076 31.221 3.658c.207-1.244 1.243-2.074 2.486-2.488l-1.097-7.113-21.568-.89c-.207 1.451-1.45 2.695-3.107 2.695-1.658 0-2.9-1.244-3.108-2.902l-3.877-.036zm-5.445 52.6l60.399-35.25 124.785 34.262-184.976 1.817c0-.243-.072-.414-.13-.557a.735.735 0 01-.078-.272zm186.315-.999l3.852-.038c.207-.207.207-.414.207-.622l-89.65-45.62-10.137-1.18-10.061 1.462-19.658 11.473 125.447 34.525zm-104.791-46.581l2.762-1.612 4.612.537-7.374 1.075zm3.88-2.264l6.481.753 4.102-.598-3.804-1.936c-.414.622-1.035 1.037-1.864 1.037-.829 0-1.45-.415-1.864-1.037l-3.051 1.781zm11.265.502l2.055 1.045-5.141-.597 3.086-.448zm349.242 96.602l24.267-1.879 10.957-18.701-46.373-12.765 11.149 33.345zm-.943.073l-11.272-33.711-57.369-15.792 29.072 50.685c.207-.208.414-.208.828-.208 1.036 0 1.865.83 2.072 1.866l36.669-2.84zm-68.993-50.116l57.519 15.801-8.534-25.526-55.664-23.253-11.295 1.643 17.974 31.335zm-18.303-31.909l10.519-1.53-13.545-5.658c-.207.414-.414.621-.621.829l3.647 6.359zm68.412 22.654l62.452 26.088-7.11 12.134-46.867-12.874-8.475-25.348zm62.716 26.198l-7.091 12.102 51.757 14.218 14.04-1.088c0-.084.034-.168.074-.252l.029-.059c.052-.104.104-.207.104-.311l-58.913-24.61zm42.95 26.452l-50.331-13.854-10.896 18.596 61.227-4.742zm148.828 56.639l-7.97-18.793 43.62 5.275-31.71 14.969c-.62-1.036-1.66-1.658-2.9-1.658-.41 0-.62 0-1.04.207zm189.46 4.644l-151.88-18.349 121.96-57.515 31.37 73.791c-.82.415-1.24 1.244-1.45 2.073zm30.87-98.371l-24.78 5.525 17.57-8.284 7.21 2.138v.621zm-8.26-3.071l-19.73 9.312-35.71 7.962-16.39-38.572 71.83 21.298zm-72.54-21.508l-62.55-18.545c-.21.622-.62 1.037-1.24 1.244l14.29 52.869 4.14 14.927h.42c1.03 0 1.86.83 2.07 1.659l59.41-13.246-16.54-38.908zm.48-.334l72.68 21.549 11.06-5.222 1.35-7.223-97.46-38.18 12.37 29.076zm-.72-.211l-62.1-18.414v-.415c0-.207 0-.622-.21-.829l33.02-16.117 16.9 6.618 12.39 29.157zm-28.31-36.253l15.47 6.043-4.78-11.256-10.69 5.213zm11.2-5.465l5.02 11.799 98.08 38.316 1.68-8.981 7.36-39.379-64.23-25.135-47.91 23.38zm48.82-23.827l63.46 24.858.1-.565.99-55.796-64.55 31.503zm65.21-31.823l-.95 52.359 10.34-55.3a2.127 2.127 0 01-1.24-1.037l-8.15 3.978zm-12.63 114.799l-9.84 4.642 6.8 2.015c.41-.829 1.03-1.451 2.07-1.451l.97-5.206zm-.35 5.413l1.07-5.753 6.68-3.148c.62 1.037 1.66 1.659 2.9 1.659 1.45 0 2.69-.83 3.11-2.074l28.71 9.632.62 4.038a1.79 1.79 0 00-.3.097c-.68.269-1.18.836-1.36 1.561l-39.57-3.939c-.41-1.036-1.03-1.866-1.86-2.073zm42.35-.455l-3.14-20.329-25.25 9.188c.21.207.21.622.21.829v.829l28.18 9.483zm-3.27-21.188l-4.97-32.155-22.17-8.678-.88 48.392c1.25.207 2.28.829 2.7 1.658l25.32-9.217zm-5.09-32.971l-10.58-68.539h-.42l-11.02 59.063-.02.843 22.04 8.633zm-22.72-5.72l-8.62 46.125 5.1 1.991c.41-1.037 1.45-1.659 2.69-1.866l.83-46.25zm-8.79 47.043l-1.24 6.645 6.1-2.877c-.21-.207-.21-.622-.21-1.037 0-.103.05-.259.1-.414.05-.156.11-.311.11-.415l-4.86-1.902zm40.61 17.437l-.59-3.819 5.54 1.858-3.09 2.583c-.05-.051-.1-.1-.16-.145-.41-.318-.95-.477-1.49-.477h-.21zm5.56-2.478l40.5-33.928-8.87-3.472-41.04 14.937 3.14 20.352 6.27 2.111zm-9.54-23.322l-4.96-32.131 44.92 17.58-39.96 14.551zm-5.09-32.947l46.04 18.037 25.17-9.165 71.89-60.216c-.03-.052-.06-.103-.08-.155-.18-.363-.34-.726-.34-1.089l-151.63-17.83a2.257 2.257 0 01-1.66 1.659l10.61 68.759zm69.28 10.491l-22.03 8.019 8.49 3.326 13.54-11.345zm-58.14 49.293l3.38-2.828 10.08 3.381-13.05.276c0-.128-.08-.256-.18-.433-.07-.11-.15-.238-.23-.396zm15.45.51l92.48-1.961c.2-1.244 1.03-2.073 2.28-2.073h.2l1.56-7.317-67.45-26.396-40.52 33.892 11.45 3.855zm29.67-38.252l66.99 26.244 13.3-62.296-31.28 11.402-34.58 12.587-14.43 12.063zm16.37-13.684l64.13-23.348 7.58-35.525c-.21 0-.62-.207-.83-.414l-70.88 59.287zm163.15 122.346l-144.23-48.544 50.72-23.937c.62.829 1.45 1.451 2.69 1.451s2.28-.829 2.9-1.866l101.42 34.049-9.77 36.774h-.62c-1.45 0-2.7.829-3.11 2.073zm4.56-2.073l9.9-36.452 10.8 3.625-20.5 33.035s-.2-.001-.2-.208zm9.98-36.734l10.88 3.65 64.58-104.076-53.48 19.465-2.55 9.47-19.43 71.491zm76.33-100.741l-64.89 104.577 23.23 7.794 86.06-52.229 39.56-24.107 19.39-71.596c-.62-.207-1.24-.829-1.65-1.451l-101.7 37.012zm-85.69 138.097l20.64-33.262 23.05 7.741-43.07 26.143-.62-.622zm1.03 1.244l43.44-26.503 91.26 30.636-134.28-2.889c-.11-.207-.16-.415-.21-.622-.05-.207-.1-.415-.21-.622zm135.8 4.157l1.01.022c.63-.913 1.59-1.608 2.73-1.608h.41l28.5-105.241-107.96 65.766-16.71 10.195 92.02 30.866zm6.64 1.317c0-.193-.05-.387-.09-.559l137.72 2.964c.02.187.06.368.1.542l-137.73-2.947zm251.9 5.39l-107.42-2.298c.13-.351.2-.722.2-1.102 0-.829-.42-1.659-.83-2.281l95.66-100.793 14.67 103.779c-1.25.207-2.08 1.451-2.28 2.695zm4.85-125.931l-16.81 17.706-3.76-26.338 19.74 5.729v.622c0 .83.41 1.659.83 2.281zm-17.4 18.327l-3.83-27.153-17.22-4.998-88.81 54.199 11.25 78.839c.83 0 1.45.207 2.07.829l96.54-101.716zm-12.85-30.767l8.87 2.562-1.5-10.564h-.2c-1.04 0-1.87-.415-2.49-1.244l-11.78 7.188 7.1 2.058zm8-8.002l1.53 10.756 19.89 5.747c.21-.622.62-1.037 1.03-1.452l-8.57-13.49-11.81-3.427c-.21.829-1.04 1.658-2.07 1.866zm1.36-18.15l11.82 18.608-10.9-3.154v-.622c0-1.451-1.04-2.695-2.49-3.11l1.57-11.722zm-51.42-80.938l51.27 80.705-1.63 12.163c-1.03 0-2.07.622-2.48 1.244l-103.58-58.674c.21-.415.21-.83.21-1.244 0-.415 0-.83-.21-1.244l56.42-32.95zm-24.72-38.903l24.29 38.222-17.46 10.203-39.15 22.806c-.62-.83-1.45-1.244-2.49-1.244-.53 0-1.06.162-1.53.431l9.41-70.141 26.93-.277zm-27.46.282l-9.48 70.562c-.21.179-.4.38-.56.594l-90.07-45.831 42.35-24.73 57.76-.595zm-58.69.604l-41.91 24.472-44.71-22.753c0-.103.05-.258.1-.413v-.002c.05-.155.11-.311.11-.414l86.41-.89zm-86.41.268l87.37-.83 59.79-34.914c-.21-.414-.21-.622 0-1.036l-290.64 2.902v.07l137.47 33.186c.41-1.244 1.45-2.073 2.9-2.073 1.66 0 2.9 1.036 3.11 2.695zm145.16-1.379l-56.86.54 59.07-34.49c.62.83 1.45 1.244 2.07 1.451l-2.69 20.733-1.59 11.766zm27.1-.258l-26.56.252 4.36-32.493c.62 0 1.04-.207 1.45-.414l20.75 32.655zm-19.92-32.863l20.87 32.854 83.75-.796-8.3-88.036c-1.03 0-2.07-.622-2.69-1.452l-92.6 53.284c0 .207.06.466.11.725v.003c.05.258.1.516.1.723 0 1.037-.41 2.073-1.24 2.695zm-130.56 71.972l21.77-12.713-44.18-22.479-.62.622 23.03 34.57zm22.26-12.463l-22 12.849 15.2 22.831 46.65 26.413 50.55-14.537v-.415c0-.415 0-.622.21-1.037l-90.61-46.104zm-45.91-21.899l23.1 34.682-9.34 5.456c-.62-.829-1.66-1.451-2.69-1.451-1.25 0-2.28.622-2.9 1.659l-58.63-29.872 46.11-12.133c.42 1.244 1.66 2.073 2.9 2.073.62 0 1.04-.207 1.45-.414zm-128.97-29.524l77.63 39.551 46.99-12.308v-.829l-137.39-33.144-.03.051c-.02.016-.03.03-.04.045l12.84 6.634zm24.87 53.367l51.75-13.552-90.08-45.827c-.21.414-.42.622-.63.829l38.96 58.55zm52.63-13.104l-52.21 13.735 26.29 39.507c.13-.043.25-.086.37-.128.43-.157.8-.286 1.29-.286 1.45 0 2.9.829 3.31 2.073l79.96-23.014c0-.207 0-.414-.2-.622 0-.414 0-.829.2-1.244l-59.01-30.021zm-92-45.031l38.79 58.289-10.5 2.748-89.42 23.355-21.41-2.756-31.47-54.798 109.24-28.497c.21 1.037 1.46 2.073 3.11 2.073.49 0 .86-.13 1.29-.287.12-.04.24-.084.37-.127zm22.49 63.318l-81.84 21.302 123.77 15.934c.21-.83.63-1.452 1.25-1.866l-26.46-39.767-16.72 4.397zm-104.62 19.018l19.34 2.49-12.91 3.371c-.41-1.244-1.65-2.073-2.9-2.073-.41 0-.82 0-1.24.207l-2.29-3.995zm-32.51-55.332l31.31 54.529-17.97-2.313-82.11-34.277 68.77-17.939zm31.71 55.229l-16.13-2.075 17.77 7.417c.21-.415.41-.829.83-1.036l-2.47-4.306zm-101.78-36.951l80.35 33.545-138.84-17.873v-.415l58.49-15.257zm69.49-19.273l-69.88 18.229-93.1-38.868-19.27-33.628 142.02-11.052c0 1.659 1.24 2.696 2.9 2.696.41 0 .83 0 1.24-.208l34.18 59.503 1.91 3.328zm-71.18 18.568l-91.14-38.049 29.16 50.901c.21 0 .47-.051.73-.103s.52-.104.72-.104c1.66 0 2.9 1.037 3.32 2.281l57.21-14.926zm-161.08-68.13l68.11 28.435-18.95-33.074-48.95 3.81c0 .103-.06.258-.11.413v.002c-.05.155-.1.31-.1.414zm98.69 81.812l-29.92-52.219-69.39-28.97c-.42 1.036-1.45 1.658-2.7 1.658h-.41l-8.42 34.997 109.8 45.778c.21-.622.62-1.037 1.04-1.244zm-157.98-64.187l46.71 19.475 8.44-34.82c-.83-.207-1.45-.828-1.87-1.658L1116.84 79.7zm34.69 71.406l12 3.303-13.03.968 1.03-4.271zm-.52-.142l-42.56-11.708 10.16 18.487 31.32-2.324 1.08-4.455zm-43.09-11.853l-50.44-13.874-25.68 36.786.71 2.109 85.64-6.355-10.23-18.666zm-75.12 25.877l85.83-6.34 19.8 36.117c-.83.622-1.25 1.452-1.25 2.488v.415l-78.46 20.409-9.36-3.657-16.56-49.432zm16.85 50.312l1.57 4.662h.25l6.07-1.576-7.89-3.086zm3.38 5.142c.33.283.57.684.67 1.179l8.82-1.285-3.63-1.42-5.86 1.526zm10.93-.316l-3.88-1.519 77.31-20.11c.21.622.62 1.037 1.04 1.451l-5.98 10.201-68.49 9.977zm69.43-10.113l11.14-1.624-3.41-8.026c-.21.207-.41.207-.83.207-.41 0-.83 0-1.24-.207l-5.66 9.65zm11.73-1.709l15.63-2.277-17.77-6.908c-.2.415-.62 1.037-1.24 1.244l3.38 7.941zm17.28-2.518l113.34-16.51.02-1.347-11.18.824-121.18 8.915c0 .104-.05.207-.1.311-.06.104-.11.207-.11.311l11.19 4.354 8.02 3.142zm113.99-16.605l7.87-1.147v-.415l-.9-.249-6.95.511-.02 1.3zm4.1-2.6l-4.03-1.11-.03 1.413 4.06-.303zm-4.68-1.288l-109.63-30.157-15.91 1.175-9.15 38.04c1.04.414 1.86 1.451 2.07 2.488l132.59-9.906.03-1.64zm-244.29-24.113l-14.45-43.146 5.62-2.368 34.08 9.375-25.25 36.139zm-9.78-45.776l-4.29-1.179c-.21.622-.62 1.036-1.24 1.244l.66 1.987 4.87-2.052zm127.96 40.949l-30.61 2.261 19.75 35.944c.42-.207.83-.207 1.24-.207h.42l9.2-37.998zm-118.36 6.339l.5 1.49-1.63.121 1.13-1.611zm-.29-.843l-1.76 2.522-45.791 3.399 27.681-47.258 5.28-2.223 14.59 43.56zm-14.78-44.137l-.68-2.036h-.42c-.41 0-.83 0-1.03-.207l-2.45 4.174 4.58-1.931zm-33.297 50.956l-9.437 16.109 32.594 12.744 22.52-32.227-45.677 3.374zm-9.78 16.695l-16.314 27.849 6.685 15.745 11.213 8.725c.621-.622 1.45-1.036 2.278-1.036.415 0 1.036.207 1.45.414l27.225-38.959-32.537-12.738zm-16.845 28.756l-.63 1.075-3.081 5.26 9.558 7.438-5.847-13.773zm-3.942 6.731l10.154 7.901 5.157 12.148-29.573 4.3 14.262-24.349zm-14.66 25.029l30.22-4.394.899 2.117-33.448 8.703c-.207-.414-.414-.829-.828-1.036l3.157-5.39zm-2.329 6.841c0 .829-.414 1.451-1.035 1.866l16.572 30.063 24.03 43.746c.207-.208.414-.208.828-.208.415 0 .622 0 1.036.208l17.411-24.979-25.384-59.789-33.458 8.678v.415zm34.284-9.307l25.128 59.186 2.069-2.969-19.014-56.765h-.622c-.861 0-1.649-.292-2.234-.834l-5.327 1.382zm10.52-2.729c-.283.89-.941 1.664-1.716 1.974l8.908 26.538 9.973 29.734 52.584-75.443c-.02-.026-.05-.052-.07-.078a2.547 2.547 0 01-.55-.752v-.414c0-.303.06-.606.17-.888l-69.15 17.986v.415c0 .299-.048.599-.136.887l69.116-17.986-29.21 7.672-39.919 10.355zM975 242.004a3.116 3.116 0 01-.845-1.42l-5.326.774.861 2.028 5.31-1.382zm75.53-21.804c0 .004-.01.008-.02.011l-70.347 18.3c-.208-.415-.415-.83-.829-1.244l25.276-36.283 1.82-2.609 42.43 16.612 1.73 5.182-.06.031zm-1.97-6.092l-16.44-49.072-2.55.189-22.74 32.57 32.87 12.851 8.86 3.462zm-38.26-93.227l-27.537 46.942-40.632 3.016c-.207-1.244-1.035-2.281-2.278-2.696l1.864-7.671 2.878-11.921 65.705-27.67zm.51-.868l-66.054 27.871 10.063-41.677 57.871 6.98c0 .829.41 1.451 1.03 1.866l-2.91 4.96zm-56.602-13.879l-10.156 42.047-14.428 6.088-30.091-54.73 54.675 6.595zm-55.687-6.717l30.398 55.149-31.596 13.332-23.189-54.523-4.722-17.47 29.109 3.512zm-30.194-3.642l-.027-.003c0 .622-.414 1.244-1.036 1.45l4.049 9.52-2.986-10.967zm29.219 72.646l31.637-13.376 7.562 13.72a3.63 3.63 0 00-1.45 2.903v.414l-32.58 8.492-5.169-12.153zm5.448 12.81l.377.885 19.945 15.521 13.637-23.274a3.223 3.223 0 01-1.243-1.659l-32.716 8.527zm.743 1.746l11.847 27.856 7.5-12.801-19.347-15.055zm11.985 28.181l14.941 35.128 6.636-.965 14.591-24.873-28.58-22.24-7.588 12.95zm36.4 8.895l-28.58-22.241 13.618-23.242c.414.208.828.415 1.45.415.414 0 .621 0 1.036-.207l16.389 38.605-3.913 6.67zm4.445-7.577l16.041-27.343-30.684-12.014a4.823 4.823 0 01-1.45 1.451l16.093 37.906zm16.385-27.928l9.285-15.827-39.898 2.947c0 .103-.052.259-.104.414-.052.156-.104.311-.104.415l30.821 12.051zM936.9 246.001l-5.988.87 1.605 3.775c.207-.208.415-.208.622-.208.414 0 .828 0 1.036.208l2.725-4.645zm-45.192-72.384l9.459 7.36-65 16.941 50.57-24.716c.621.829 1.45 1.451 2.693 1.451.828 0 1.657-.414 2.278-1.036zM776.987 191.78l33.066 12.944-48.973 12.763c-.207-.622-.622-1.036-1.036-1.451l16.943-24.256zm-.553-.217l-16.804 24.058c-.415-.207-1.036-.414-1.658-.414a3.427 3.427 0 00-2.485 1.036l-41.59-32.343.281-14.734c.052 0 .103-.003.153-.007.752-.071 1.323-.654 1.711-1.237h.001l60.391 23.641zm-62.555-6.733l41.193 32.035c-.414.415-.621 1.037-.621 1.866l-41.334 6.028.762-39.929zm-.774 40.529l-.614 32.183 49.845-24.303-3.742-11.19h-.829c-1.657 0-2.9-1.244-3.314-2.696l-41.346 6.006zm-.63 33.012l-.161 8.446c.828.208 1.657.829 1.864 1.866l58.565-4.315-10.188-30.473-50.08 24.476zm61.212 5.928l-10.301-30.81 53.435-26.116 81.985 32.095-7.333 12.516-50.71 7.373-67.076 4.942zm75.748-5.581l39.811-2.933 1.829-3.121-41.64 6.054zm40.154-2.958l41.271-3.041c0-.066 0-.111.007-.155.014-.094.059-.184.2-.467l-9.775-3.827-29.858 4.341-1.845 3.149zm30.544-7.943l-28.301 4.115 7.242-12.359 21.059 8.244zm-104.108-40.755l-4.853-1.9-49.678 12.947v.415c0 1.451-.829 2.488-2.072 3.11l3.745 11.2 52.858-25.772zm-152.307-65.871l17.576-7.411 3.676-19.666c-1.243-.415-2.279-1.452-2.279-3.11l-31.239-3.091 8.537 31.412h.622c1.45 0 2.485.829 3.107 1.866zm50.304-21.21l-31.949 13.471 3.518-19.131h.207c1.243 0 2.486-.829 2.9-1.866l25.324 7.526zm-25.116-8.563l26.644 7.919 72.946-30.755-99.59 21.8v1.036zm-62.975-3.317l3.843 25.06 27.729 8.237c.207-.829 1.036-1.451 1.865-1.866l-8.612-31.688-22.546-2.231c-.207 1.244-1.036 2.281-2.279 2.488zm-24.115 16.756l27.307 8.111-3.813-24.867h-.208c-1.035 0-1.657-.207-2.278-.829l-21.008 17.585zm-59.162-17.574l58.638 17.418 21.325-17.844c-.415-.207-.415-.829-.415-1.244l-79.548 1.67zm-23.319 86.616l-5.513 20.518-45.401 22.101 50.914-42.619zm.216-.801l-37.177 31.107-15.712 13.169-4.445 2.164 79.196-127.802h.207l-21.544 79.407-.525 1.955zm-57.965 47.458l-1.383 2.231 4.452-3.731-3.069 1.5zm-2.167 3.497l-8.325 13.435c.207.207.414.414.621.829l52.41-15.135v-.415a2.3 2.3 0 012.279-2.28h.414l6.815-25.365-47.215 23.072-6.999 5.859zm81.787-132.732l-79.654 128.54-20.556 10.007 19.137-89.467 80.658-49.08c0-.128.079-.098.189-.056a.642.642 0 00.226.056zm-81.948 49.612l-7.542 35.49-11.627 53.886-2.974 1.448-31.279-17.679 6.84-36.82 8.8-13.335 37.782-22.99zm-38.932 23.69l-4.241 2.58-1.736 1.056-1.079 5.8-.325 1.748 7.381-11.184zm-7.074 4.303l-1.675 8.954-18.958 28.728-.849-.481-3.406-22.065 24.888-15.136zm-25.283 15.377l3.321 21.554-18.5-10.457h.001c.206-.208.206-.622.206-.829 0-.415 0-.622-.207-1.037l15.179-9.231zm5.151 22.588l18.185-27.556-6.401 34.216-11.784-6.66zm44.713 25.272l1.654.935.42-1.949-2.074 1.014zm2.384 1.348l4.295 2.428 14.726-12.342 1.683-2.716-20.104 9.824-.6 2.806zm4.718 2.666l3.052 1.725c.414-.622 1.035-1.036 1.864-1.036.414 0 .829 0 1.036.207l7.567-12.212-13.519 11.316zm-9.585 5.969l-16.548-.683-16.925 8.271v.415l35.743-5.213c-1.227-.341-2.099-1.425-2.27-2.79zm-33.888 6.966l15.841-7.711-16.416-.677-1.289 6.937c.829.207 1.45.829 1.864 1.451zm-2.9-1.659l1.267-6.773-2.744-.113 1.063 6.886h.414zm-6.796-38.51l4.779 31.005-22.098-.912c0-1.037-.414-1.866-1.035-2.281l18.354-27.812zm321.505-44.586l-14.649-11.392-25.526 9.297-9.283 49.687 48.685-7.099.773-40.493zm.017-.931l.269-14.053a3.222 3.222 0 01-1.658-1.244l-12.45 4.535 13.839 10.762zm-.802 42.023l-.618 32.397-18.062 8.806-35.622-4.575 5.52-29.543 48.782-7.085zm-55.148 36.52l5.477-29.306-17.395 2.527 3.95 25.756 7.968 1.023zm-8.602-1.105l-3.924-25.586-91.596 13.304 15.955 2.064 79.565 10.218zm-97.35-12.519l-43.118-5.578c.415-.207.415-.414.415-.622l129.925-47.322 6.121 39.91-93.343 13.612zm87.811-53.736l6.14 40.035 17.587-2.565 9.247-49.48-32.974 12.01zm55.976 72.219l14.448 1.855c.052-.103.107-.207.165-.309.411-.714 1-1.349 1.906-1.349l.16-8.349-16.679 8.152zm-46.417-5.833l-95.919-12.358-38.168 5.544 11.564 17.434 121.449 14.109 2.707-.706c.444-.646 1.147-1.169 1.851-1.31l-3.484-22.713zm.634.082l3.471 22.631h.414l4.039-21.61-7.924-1.021zm8.77 1.13l35.407 4.562-24.962 12.171-5.938 2.875-8.352 2.179a3.614 3.614 0 00-.211-.079l4.056-21.708zm8.455 18.578l43.213-11.272s0-.208.207-.622l-15.102-1.946-28.318 13.84zm-21.13 5.512l-118.676-13.814 13.982 21.08 10.151 15.342c.207 0 .362-.052.518-.104.155-.051.31-.103.517-.103.829 0 1.657.621 2.072 1.45v.001l91.436-23.852zm-131.107-32.555l-6.317-9.523c.414-.208.621-.622.829-1.244l42.114 5.426-36.626 5.341zm-6.938-8.901l6.018 9.035-57.144 8.334-4.391-2.234c0-.098.045-.24.093-.386a.332.332 0 00.01-.029c.052-.156.104-.311.104-.415 0-.103-.052-.155-.104-.207-.052-.052-.103-.104-.103-.207l52.409-15.135c.415.829 1.243 1.451 2.072 1.451.207 0 .362-.052.518-.104l.058-.019c.137-.045.278-.084.46-.084zm-50.444 17.716l2.584 1.315 65.614 7.623-11.444-17.181-56.754 8.243zm68.776 9.805l-64.191-7.471 88.532 45.051c.128 0 .177-.08.245-.189a1.11 1.11 0 01.169-.226l-24.755-37.165zm188.613-3.057l58.566-4.315 1.348 4.031-46.196 6.717-13.925-5.811c0-.065.02-.129.048-.194.017-.039.036-.078.056-.117l.038-.077a.573.573 0 00.065-.234zm14.823 6.894l45.289-6.585 9.902 29.616-55.191-23.031zm56.315 23.5l62.671 26.151 40.662-69.399-48.306 3.559-65.13 9.47 10.103 30.219zm46.355-39.05l-56.657 8.238-1.326-3.966 57.983-4.272zm57.321-4.223l-40.741 69.534 58.994 24.618c.207-.829 1.036-1.244 1.864-1.244h.207L932.31 255c-.621-.208-1.243-1.037-1.243-1.659l-41.868 3.085zm74.73-26.61l4.651 10.956 5.575-.81v-.207c0-.622.207-1.244.414-1.659l-10.64-8.28zm13.541 98.785l17.085-24.489 6.515 15.335-23.186 9.776a1.06 1.06 0 01-.207-.311c-.052-.103-.104-.207-.207-.311zm24.37-9.482l-6.715-15.823 2.028-2.907 6.077 18.144-1.39.586zm2.03-.856l-6.229-18.574 30.169-43.238 22.58-32.551c.41.208.62.208 1.03.208.62 0 1.25-.208 1.66-.622l49.11 38.303-11.65 19.888-46.78 19.764-39.89 16.822zm87.74-37.038l11.14-18.997 10.4 8.114c-.2.415-.41.829-.41 1.244 0 .207 0 .415.21.622l-21.34 9.017zm-113.726 48.413l23.326-9.847 5.47 12.889-28.589-2.42c0-.208 0-.415-.207-.622zm29.746 3.122l.38.032-4.66-13.904-1.36.574 5.64 13.298zm-3.64-14.142l86.23-36.401-32.12 54.814-49.33-4.175-4.78-14.238zm54.84 18.475l32.46-55.327 21.66-9.143c.41.622 1.03 1.244 1.86 1.244h.42l9.73 35.66 8.91 32.136c-.08.026-.16.058-.23.097-.54.269-1.04.836-1.22 1.561l-73.59-6.228zm-32.06 49.45l-10.45-31.173 13.04 30.713-.52.875c-.16-.056-.31-.112-.46-.163-.38-.141-.68-.252-.99-.252h-.62zm2.49.829l.37-.633 1.35 3.18-.48-.059c0-1.037-.41-2.073-1.24-2.488zm24.23-165.338l9.74-1.418 51.31 20.089-12.2 20.825-49.26-38.252v-.001c.01-.025.03-.051.04-.076.19-.389.37-.778.37-1.167zm49.41 39.934l12.32-20.997.92.359 33.37 13.072-32.63 15.94a2.06 2.06 0 00-.16-.223c-.41-.496-.98-.814-1.7-.814-.62 0-1.24.208-1.66.622h-.21l-10.25-7.959zm47.59-8.043l-34.87-13.622 17.52-29.871 11.55-1.682 16.9 39.751-11.1 5.424zm11.61-5.675l-16.83-39.585 16.19-2.359 25.23 9.813 22.86 8.946-47.45 23.185zm48.37-23.633l46.45-22.693 18.75-9.102.06-3.162-112.62 16.405 47.36 18.552zm65.91-35.052l-.05 2.94 7.93-3.85s0-.208-.2-.208l-7.68 1.118zm-144.18 21.003l-67.52 9.837 50.26 19.632 17.26-29.469zm288.65 96.467l13.35-62.493 9.24-3.367-.73 39.011-18.56 28.144-3.3-1.295zm-.14.657l-1.59 7.433c.21.207.21.207.41.207l4.25-6.438-3.07-1.202zm22.39-28.094l.68-38.546 32.58-11.88-33.26 50.426zm34.03-51.589l-33.34 12.137.39-22.576.18-10.932c0-.031.01-.062.02-.094 0-.02.01-.039.01-.059l43.92 1.658c.21.83.41 1.244.83 1.659l-12.01 18.207zm-33.07-20.691c-.39.614-1.06 1.033-1.95 1.033h-.2l-1.04 4.976-6.46 30.234 9.04-3.292.61-32.951zm-.97 73.139l34-51.549 56.03-20.427 9.26.077c0 .415.2.829.41 1.037l-99.97 86.219.27-15.357zm-.39.589l-.28 15.113-15.41 13.29-2.42-.948 18.11-27.455zm-18.48 28.02l-4.27 6.473 6.49-5.602-2.22-.871zm106.6-100.605l-37.95-.318c-.21 1.244-1.04 2.074-2.28 2.074-.42 0-.62 0-1.04-.208l-11.7 17.736 52.97-19.284zm-30.7-26.966l77.37 9.974 10.54-3.837c-.2-.207-.2-.622-.2-.829l-125.24-16.122-14.47 3.765v.415l52 6.634zm89 11.474l-9.94-1.282 8.85-3.226c.42.83 1.04 1.452 1.87 1.659l-.78 2.849zm-19.23 75.768l20.14-74.858 40.59 5.239 22.38 2.892-29.24 47.121-53.87 19.606zm20.35-75.624l63.22 8.149 22.61-36.436c-.41-.415-.82-.829-1.03-1.451l-79.96 23.013v.622c0 1.866-1.66 3.525-3.52 3.525h-.63l-.69 2.578zm34.39 55.703l28.99-46.726 71.67 9.261v.829l-100.66 36.636zm51.86-83.575l-22.4 36.102 71.2 9.178c.21-.622.62-1.244 1.04-1.658l-20.22-30.348-25.27-14.311a3.626 3.626 0 01-2.9 1.451c-.42 0-1.04-.207-1.45-.414zm4.76-1.866l23.72 13.432-14.53-21.821-9.39 5.486c.2.415.41 1.037.41 1.451 0 .622 0 1.037-.21 1.452zm45.7 45.28l-19.62-29.449 44.26 25.063-20.29 5.838c-.42-1.244-1.66-1.866-2.9-1.866-.62 0-1.04.207-1.45.414zm15.95-1.244l9.42-2.734 32.45 18.376-15.97 25.735-60.05 36.591 16.13-59.515 3.1-11.404h.42c1.66 0 3.11-1.451 3.11-3.109v-.622l11.39-3.318zm60.7-17.623l-50.04 14.529 31.7 17.949 18.51-29.849.26-1.934a4.092 4.092 0 01-.43-.695zm-33.51 58.216l15.27-24.616 10.45 5.917c-.21.415-.21.829-.21 1.451 0 .622.21 1.037.42 1.452l-25.93 15.796zm26.13-15.382l-26.67 16.247-89 143.479c.2.207.41.415.2.829l129.71-79.072-11.34-80.031h-.2c-1.04 0-2.08-.622-2.7-1.452zm-116.09 159.104l88.14-142.074-59.69 36.362-28.65 105.712h.2zm125.83-114.528l5.21 36.475 88.03-53.668-97.18-28.212c-.41 1.037-1.24 1.866-2.28 2.073l6.22 43.332zm106.39-25.211l-12.05 7.345-97.86-28.368v-.622c0-1.659-1.04-2.903-2.7-3.318l1.66-12.854 2.85-21.234.8-1.282c.41.208.82.415 1.45.415 1.03 0 2.07-.622 2.48-1.244l45.16 25.709 58.21 32.965c-.21.415-.21.829-.21 1.244 0 .207.06.414.11.62v.002c.05.207.1.415.1.622zm-113.23-24.963l4.43-32.961-17.7 28.538 10.37 5.875a3.624 3.624 0 012.9-1.452zm5.51-35.992l-.16.258.05-.326c.03.026.07.049.11.068zm-70.02 170.217l75.96-46.354 11.13 78.614c-1.45.415-2.48 1.451-2.48 2.903l-137.41-2.957 52.8-32.206zm-289.18-46.442l122.73-44.669-7.26 26.756-14.18 53.339-101.29-33.974v-1.452zM930.86 154.335l-.973.412 7.48 13.604c.414-.208 1.036-.208 1.45-.208h.414l4.661-19.295-13.032 5.487zm442.06-105.737l36.11 62.871 109.4-28.538v-.829l-75.6-18.341-68.87-16.614c-.21.622-.62 1.036-1.04 1.45zM364.589 71.32L170.487 233.866l-8.079 6.842c-.414-.415-.829-.622-1.243-.829l12.843-60.125 22.166-103.25h.414c1.864 0 3.315-1.451 3.522-3.11l164.272-3.524c-.207.414-.207.829.207 1.45zM88.247 237.39L194.724 76.09c.207 0 .414.207.414.207l-35.009 163.167h-.414c-1.657 0-3.107 1.244-3.522 2.903l-66.91-2.696c.207-.829-.207-1.658-1.036-2.28zm279.879-40.36l-12.737-89.234c-.621 0-1.035-.208-1.449-.415h-.001l-74.575 78.577c.415.415.622.83.622 1.452v.414l73.961 21.447 14.179-12.241zm.076.528l-13.74 11.862 14.185 4.113a3.22 3.22 0 011.657-1.244l-2.102-14.731zm278.932 88.93l-93.085 24.282v.622l209.224 50.588c.208-.415.415-.829.829-1.037l-29.51-51.447-78.624-21.642c-.414 1.244-1.657 2.073-2.9 2.073-1.657 0-3.107-1.451-3.107-3.11l-2.827-.329zm2.198-.573l.629.073a1.596 1.596 0 01.038-.158c.009-.032.018-.065.029-.097l-.696.182zm5.73-1.495c.265.2.505.446.699.738l4.122-1.996-4.821 1.258zm79.179 24.463l-17.692-30.844-60.374 8.778v.622l78.066 21.444zm-18.021-31.418l-3.492-6.087a.947.947 0 01-.078.068c-.184.139-.388.139-.751.139-.828 0-1.657-.622-2.071-1.451l-45.942 11.984-7.918 3.87c.104 0 .156 0 .181.026.026.025.026.077.026.181l60.045-8.73zM2022.56 66.428c-1.04 0-1.87-.415-2.49-1.244l-83.28 47.686c.21.414.21.829.21 1.244 0 1.036-.62 1.866-1.24 2.488l106.68 167.935c.11 0 .26-.051.42-.103.15-.052.31-.104.41-.104l-20.71-217.902zM910.145 349.334c.414.207 1.036.622 1.243 1.244l62.146-19.904v-.414c0-.83.414-1.451 1.035-1.866l-40.602-73.602c-.207.208-.414.208-.828.208h-.207l-22.787 94.334z" fill="url(#paint0_linear)"/><defs><linearGradient id="paint0_linear" gradientTransform="rotate(10 .5 .5)"><stop class="stop-1" stop-color="#6C768E"/><stop offset="0" stop-color="#6C768E"><animate attributeName="offset" dur="5s" values="0;1" repeatCount="indefinite"/></stop><stop offset=".2" stop-color="#BA9C66"><animate attributeName="offset" dur="5s" values="0.2;1" repeatCount="indefinite"/></stop><stop class="stop-3" stop-color="#6C768E"/></linearGradient></defs></svg>