<svg width="1366" height="693" viewBox="0 0 1366 693" fill="none" xmlns="http://www.w3.org/2000/svg">
<g opacity="0.12">
<g clip-path="url(#clip0)">
<path d="M1780.83 483.513L1759.69 261.118C1761.17 260.907 1762.23 259.425 1762.23 257.944C1762.23 256.251 1760.75 254.77 1759.06 254.77C1757.37 254.77 1755.89 256.251 1755.89 257.944C1755.89 258.367 1755.89 258.791 1756.1 259.214L1671.13 308.094C1670.49 307.248 1669.65 306.824 1668.59 306.824C1666.9 306.824 1665.63 308.094 1665.42 309.787L1398.25 312.326C1398.03 310.633 1396.77 309.575 1395.07 309.575C1393.6 309.575 1392.54 310.422 1392.12 311.691L1097.67 240.593C1097.67 240.381 1097.67 240.381 1097.67 240.17C1097.67 238.477 1096.19 236.995 1094.5 236.995C1092.81 236.995 1091.33 238.477 1091.33 240.17L895.602 255.405C895.391 253.924 894.122 252.866 892.431 252.866C890.74 252.866 889.261 254.347 889.261 256.04C889.261 256.251 889.261 256.463 889.261 256.675L801.753 284.606C801.33 283.548 800.062 282.702 798.794 282.702C797.314 282.702 795.834 283.76 795.623 285.241L578.544 266.62C578.544 264.927 577.064 263.446 575.373 263.446C573.682 263.446 572.203 264.927 572.203 266.62C572.203 266.832 572.203 266.832 572.203 267.043L398.243 305.555C397.82 304.285 396.552 303.439 395.284 303.439C393.804 303.439 392.536 304.497 392.113 305.978L336.522 300.476C336.522 298.784 335.043 297.302 333.352 297.302C331.661 297.302 330.393 298.572 330.181 300.265L179.05 303.439C178.839 301.958 177.57 300.688 175.879 300.688C174.189 300.688 172.709 302.169 172.709 303.862C172.709 304.497 172.92 305.132 173.343 305.766L1.07459 454.523C0.440474 453.889 -0.193644 453.677 -1.03913 453.677C-2.73011 453.677 -4.20972 455.158 -4.20972 456.851C-4.20972 458.544 -2.73011 460.025 -1.03913 460.025C0.651845 460.025 1.92008 458.755 2.13145 457.274L71.673 457.909C71.8843 459.602 73.1526 460.871 74.8435 460.871C76.5345 460.871 77.8027 459.602 78.0141 458.121L139.523 460.66C139.735 462.353 141.003 463.622 142.694 463.622C144.174 463.622 145.442 462.564 145.865 461.083L358.505 485.841C358.505 487.533 359.985 489.015 361.676 489.015C362.944 489.015 364.212 488.168 364.635 486.899L740.455 590.373C740.455 590.584 740.455 590.796 740.455 590.796C740.455 592.489 741.934 593.97 743.625 593.97C745.105 593.97 746.373 592.912 746.796 591.431L949.713 615.977C949.713 617.669 951.193 619.151 952.884 619.151C954.575 619.151 956.055 617.669 956.055 615.977C956.055 615.553 956.055 615.342 955.843 614.918L1164.26 516.523C1164.89 517.37 1165.74 518.004 1167 518.004C1168.27 518.004 1169.33 517.158 1169.96 516.1L1405.01 595.028C1405.01 595.239 1405.01 595.451 1405.01 595.663C1405.01 597.355 1406.49 598.837 1408.18 598.837C1409.87 598.837 1411.14 597.567 1411.35 596.086L1668.38 601.587C1668.59 603.28 1669.86 604.55 1671.55 604.55C1673.24 604.55 1674.72 603.069 1674.72 601.376C1674.72 600.53 1674.51 599.895 1673.87 599.26L1778.72 488.803C1779.35 489.226 1779.98 489.438 1780.62 489.438C1782.31 489.438 1783.79 487.957 1783.79 486.264C1784 484.994 1782.52 483.513 1780.83 483.513ZM1.28598 454.947L173.554 306.19C173.554 306.19 173.554 306.19 173.766 306.401L75.9004 454.735C75.4777 454.523 75.0549 454.312 74.4208 454.312C72.7298 454.312 71.4616 455.581 71.2502 457.063L1.70871 456.428C1.70871 456.005 1.49735 455.581 1.28598 454.947ZM743.625 587.622C743.414 587.622 743.203 587.622 742.991 587.622L702.831 467.854L693.742 440.769C694.798 440.346 695.644 439.076 695.644 437.807C695.644 437.595 695.644 437.595 695.644 437.384L855.864 395.698C856.075 396.333 856.498 396.756 856.921 397.179L745.105 588.045C744.471 587.833 744.048 587.622 743.625 587.622ZM1535.43 386.387L1461.87 407.548C1461.45 406.278 1460.18 405.643 1458.91 405.643C1458.28 405.643 1457.85 405.855 1457.43 406.066L1396.98 315.289C1397.19 315.077 1397.4 314.865 1397.61 314.654L1535.64 384.906C1535.43 385.329 1535.43 385.541 1535.43 385.964C1535.43 385.964 1535.43 386.176 1535.43 386.387ZM1410.08 593.547L1537.12 388.715C1537.54 388.926 1537.96 389.138 1538.6 389.138C1539.65 389.138 1540.71 388.503 1541.13 387.868L1587.21 414.107L1646.61 447.752C1646.4 448.175 1646.4 448.598 1646.4 449.022C1646.4 449.445 1646.61 449.868 1646.61 450.291L1410.29 594.393C1410.5 593.97 1410.29 593.758 1410.08 593.547ZM1666.05 311.903C1666.48 312.538 1667.11 312.961 1667.96 313.173L1650.2 445.636C1649.14 445.636 1648.09 446.271 1647.66 446.906L1541.98 387.022C1542.19 386.599 1542.19 386.176 1542.19 385.752C1542.19 385.329 1542.19 384.906 1541.98 384.483L1634.35 330.524L1666.05 311.903ZM1455.74 408.817C1455.74 409.24 1455.74 409.452 1455.74 409.664L1169.75 513.772C1169.33 512.926 1168.27 512.079 1167.22 512.079L1168.91 415.165L1169.54 374.749C1171.02 374.537 1172.08 373.691 1172.29 372.21L1359.14 396.333L1455.74 408.817ZM364.635 484.994L600.104 369.882C600.738 370.729 601.583 371.363 602.852 371.363C603.697 371.363 604.542 370.94 605.177 370.305L689.726 436.114C689.514 436.537 689.303 437.172 689.303 437.807C689.303 437.807 689.303 437.807 689.303 438.018L364.846 485.206C364.846 484.994 364.846 484.994 364.635 484.994ZM856.921 391.889C856.075 392.524 855.653 393.37 855.653 394.428C855.653 394.64 855.653 394.64 855.653 394.851L695.433 436.537C695.221 436.114 695.01 435.691 694.587 435.268L720.375 398.237L797.314 287.992C797.737 288.203 798.371 288.415 798.794 288.415C799.216 288.415 799.639 288.415 800.062 288.203L800.907 289.685L856.921 391.889ZM795.834 287.145C796.046 287.569 796.257 287.78 796.469 287.992L693.742 435.056C693.319 434.844 692.685 434.633 692.262 434.633C691.416 434.633 690.571 435.056 689.937 435.691L605.388 369.882C605.599 369.459 605.811 368.824 605.811 368.189C605.811 367.766 605.811 367.555 605.599 367.343L645.126 350.626L795.834 287.145ZM394.861 309.787H395.073C396.341 309.787 397.609 308.941 398.032 307.882L599.47 367.766C599.47 367.978 599.47 368.189 599.47 368.401C599.47 368.824 599.47 369.247 599.681 369.459L377.529 477.8L364.424 484.148C364.001 483.513 363.367 483.09 362.733 482.878L382.179 378.77L394.861 309.787ZM861.782 394.005C861.571 392.947 860.726 391.889 859.669 391.466L891.586 258.791C891.797 258.791 891.797 258.791 892.009 258.791C893.277 258.791 894.334 258.156 894.757 257.098L1166.37 370.517C1166.37 370.729 1166.16 370.94 1166.16 371.363L1161.93 371.575L861.782 394.005ZM1458.49 411.991C1458.7 411.991 1458.91 411.991 1458.91 411.991C1460.6 411.991 1462.08 410.51 1462.08 408.817C1462.08 408.606 1462.08 408.394 1462.08 408.182L1473.71 404.797L1535.64 386.81C1535.85 387.234 1536.27 387.868 1536.69 388.08L1409.66 592.912H1409.45L1455.32 423.629L1458.49 411.991ZM1652.95 449.233C1652.95 449.022 1652.95 448.81 1652.95 448.599C1652.95 447.117 1651.89 445.848 1650.41 445.424L1663.94 344.49L1668.17 312.961C1668.59 312.961 1669.22 312.749 1669.65 312.538L1743.42 428.919L1778.29 483.936C1777.87 484.359 1777.45 484.783 1777.24 485.206L1719.53 468.489L1652.95 449.233ZM1665.63 311.268L1581.29 360.572L1541.34 383.848C1540.71 383.002 1539.86 382.578 1538.81 382.578C1537.75 382.578 1536.69 383.213 1536.06 384.06L1398.03 313.807C1398.03 313.596 1398.25 313.173 1398.25 312.961L1665.42 310.21C1665.42 310.633 1665.42 311.057 1665.63 311.268ZM1391.9 313.807C1392.33 315.077 1393.6 315.923 1394.86 315.923C1395.5 315.923 1395.92 315.712 1396.34 315.5L1456.8 406.278C1456.37 406.701 1455.95 407.336 1455.74 407.971L1225.98 378.346L1172.92 371.575C1172.92 371.363 1172.92 371.152 1172.92 371.152L1272.9 345.125L1391.9 313.807ZM1094.29 243.132C1094.71 243.132 1095.14 243.132 1095.56 242.92L1130.44 303.65L1167.85 368.824C1167.43 369.036 1167.22 369.459 1167 369.882L895.391 256.463C895.391 256.251 895.602 255.828 895.602 255.617L1091.33 240.381C1091.33 242.074 1092.6 243.132 1094.29 243.132ZM795.623 286.511L605.599 366.708C604.965 365.65 604.12 365.015 602.852 365.015C602.64 365.015 602.429 365.015 602.429 365.015L576.641 269.582C577.698 269.159 578.332 268.313 578.544 267.255L795.623 285.664C795.412 285.876 795.412 286.299 795.623 286.511ZM394.227 309.575L361.887 482.667H361.676C361.676 482.667 361.676 482.667 361.464 482.667L333.986 303.439C335.254 303.227 336.1 302.169 336.311 300.9L391.902 306.401C391.902 308.094 392.959 309.152 394.227 309.575ZM330.604 302.169L187.505 421.937L144.596 457.909C144.174 457.486 143.751 457.274 143.328 457.274L175.457 307.036C175.668 307.036 175.668 307.036 175.879 307.036C177.57 307.036 178.839 305.766 179.05 304.074L330.181 300.9C330.181 301.323 330.181 301.958 330.604 302.169ZM76.3231 455.158L174.189 306.824C174.4 306.824 174.4 307.036 174.611 307.036L156.222 393.582L142.483 457.274C142.271 457.274 142.271 457.274 142.06 457.274C140.369 457.274 139.101 458.544 138.889 460.025L77.38 457.486C77.38 456.428 76.9573 455.581 76.3231 455.158ZM861.782 395.486C861.782 395.275 861.994 395.063 861.994 394.851L985.647 385.752L1166.58 372.421C1166.79 373.691 1167.85 374.749 1169.33 374.961L1166.79 512.291C1165.74 512.291 1164.68 513.137 1164.26 513.984L873.197 399.93L861.782 395.486ZM1411.14 594.816L1465.25 561.806L1647.24 450.715C1647.88 451.561 1648.72 451.984 1649.78 451.984C1649.78 451.984 1649.78 451.984 1649.99 451.984L1670.7 598.625C1669.44 598.837 1668.59 600.106 1668.38 601.376L1411.35 595.874C1411.35 595.451 1411.14 595.028 1411.14 594.816ZM1671.55 598.625C1671.34 598.625 1671.34 598.625 1671.55 598.625L1650.62 451.984C1651.68 451.773 1652.53 450.926 1652.74 450.08L1777.45 486.264C1777.45 486.475 1777.45 486.687 1777.45 486.899C1777.45 487.745 1777.66 488.38 1778.29 489.015L1673.45 599.471C1672.82 598.837 1672.18 598.625 1671.55 598.625ZM1756.52 259.637C1757.16 260.483 1758 260.907 1759.06 260.907L1780.19 483.301C1779.98 483.301 1779.56 483.513 1779.35 483.513L1670.49 312.115C1671.13 311.48 1671.76 310.633 1671.76 309.575C1671.76 309.152 1671.76 308.729 1671.55 308.306L1756.52 259.637ZM1391.9 312.326C1391.9 312.538 1391.9 312.538 1391.9 312.749C1391.9 312.961 1391.9 313.173 1391.9 313.173L1278.82 342.797L1172.71 370.517C1172.29 369.247 1171.02 368.401 1169.75 368.401C1169.33 368.401 1168.91 368.401 1168.48 368.613L1096.19 242.709C1096.62 242.286 1097.04 241.862 1097.25 241.228L1391.9 312.326ZM889.261 257.098C889.684 257.944 890.318 258.579 891.163 258.791L859.035 391.466C858.823 391.466 858.823 391.466 858.612 391.466C858.189 391.466 857.766 391.466 857.344 391.677L800.484 288.203C801.33 287.569 801.753 286.722 801.753 285.664C801.753 285.453 801.753 285.241 801.753 285.029L889.261 257.098ZM572.203 267.678C572.625 268.948 573.893 269.794 575.162 269.794C575.373 269.794 575.584 269.794 575.584 269.794L600.526 361.418L601.583 365.015C600.738 365.227 600.104 365.862 599.681 366.708L398.243 306.824C398.243 306.613 398.243 306.401 398.243 306.19C398.243 305.978 398.243 305.978 398.243 305.766L572.203 267.678ZM145.442 460.237C145.442 459.602 145.23 458.967 144.808 458.332L330.815 302.592C331.449 303.227 332.084 303.439 333.14 303.439C333.14 303.439 333.14 303.439 333.352 303.439L339.904 346.183L360.83 482.667C359.773 482.878 358.716 483.936 358.505 484.994L145.442 460.237ZM364.846 486.475C364.846 486.264 364.846 486.052 364.846 486.052C364.846 486.052 364.846 486.052 364.846 485.841L689.303 438.653C689.725 440.134 690.994 440.981 692.473 440.981C692.685 440.981 692.896 440.981 693.107 440.981L742.357 588.045C741.512 588.468 741.089 589.103 740.666 589.738L364.846 486.475ZM746.796 591.007C746.796 589.949 746.373 588.891 745.528 588.468L750.812 579.581L857.555 397.602C857.978 397.814 858.401 397.814 858.823 397.814C859.246 397.814 859.457 397.814 859.669 397.602L951.404 613.437C950.559 613.86 950.136 614.707 949.925 615.553L746.796 591.007ZM955.632 614.707C954.998 613.86 954.152 613.226 952.884 613.226C952.461 613.226 952.25 613.226 952.038 613.437L860.303 397.602C860.937 397.391 861.36 396.756 861.571 396.333L906.171 413.684L1164.04 514.619C1164.04 514.83 1163.83 515.253 1163.83 515.465C1163.83 515.888 1163.83 516.1 1164.04 516.523L955.632 614.707ZM1170.17 515.888C1170.17 515.677 1170.17 515.465 1170.17 515.253C1170.17 515.042 1170.17 514.83 1170.17 514.407L1456.16 410.298C1456.58 410.933 1457.22 411.568 1457.85 411.78L1408.81 592.912C1408.6 592.912 1408.39 592.912 1408.39 592.912C1407.12 592.912 1406.07 593.758 1405.43 594.816L1170.17 515.888Z" fill="white"/>
<path d="M1675.57 466.796L1652.31 219.856C1654.01 219.432 1655.06 218.163 1655.06 216.47C1655.06 214.565 1653.37 212.873 1651.47 212.873C1649.57 212.873 1647.88 214.565 1647.88 216.47C1647.88 216.893 1648.09 217.528 1648.09 217.951L1553.82 272.333C1553.18 271.487 1552.12 270.852 1550.86 270.852C1548.95 270.852 1547.47 272.333 1547.26 274.026L1250.71 276.988C1250.5 275.296 1249.02 273.814 1247.11 273.814C1245.63 273.814 1244.37 274.872 1243.73 276.142L917.585 197.002C917.585 196.791 917.585 196.791 917.585 196.579C917.585 194.675 915.894 192.982 913.991 192.982C912.089 192.982 910.609 194.463 910.398 196.368L693.107 213.296C692.896 211.603 691.416 210.333 689.725 210.333C687.823 210.333 686.132 212.026 686.132 213.931C686.132 214.142 686.132 214.354 686.132 214.565L589.112 245.459C588.478 244.19 587.421 243.343 585.942 243.343C584.251 243.343 582.771 244.613 582.56 246.306L341.807 225.78C341.807 223.876 340.116 222.395 338.213 222.395C336.311 222.395 334.62 224.088 334.62 225.992C334.62 226.204 334.62 226.204 334.62 226.415L141.637 269.159C141.214 267.678 139.946 266.831 138.255 266.831C136.564 266.831 135.085 268.101 134.873 269.582L73.1524 263.446C73.1524 261.541 71.4615 259.849 69.5591 259.849C67.6568 259.849 66.1772 261.33 65.9658 263.023L-101.652 266.62C-101.864 264.927 -103.343 263.446 -105.246 263.446C-107.148 263.446 -108.839 265.139 -108.839 267.043C-108.839 267.889 -108.628 268.524 -108.205 269.159L-299.286 434.209C-299.92 433.575 -300.765 433.151 -301.611 433.151C-303.513 433.151 -305.204 434.844 -305.204 436.749C-305.204 438.653 -303.513 440.346 -301.611 440.346C-299.708 440.346 -298.229 438.865 -298.017 437.172L-221.078 437.807C-220.866 439.711 -219.387 440.981 -217.484 440.981C-215.793 440.981 -214.314 439.711 -213.891 438.018L-145.618 440.769C-145.407 442.674 -143.927 444.155 -142.025 444.155C-140.334 444.155 -138.854 442.885 -138.643 441.404L97.883 469.124C97.883 471.028 99.574 472.721 101.476 472.721C102.956 472.721 104.224 471.875 104.858 470.394L521.685 584.871C521.685 585.082 521.685 585.294 521.685 585.506C521.685 587.41 523.375 589.103 525.278 589.103C526.969 589.103 528.448 587.833 528.66 586.352L753.771 613.649C753.771 615.553 755.462 617.246 757.365 617.246C759.267 617.246 760.958 615.553 760.958 613.649C760.958 613.226 760.958 612.802 760.747 612.591L991.776 503.615C992.411 504.673 993.467 505.308 994.736 505.308C996.215 505.308 997.484 504.462 997.906 503.192L1258.95 590.796C1258.95 591.007 1258.95 591.219 1258.95 591.642C1258.95 593.547 1260.64 595.239 1262.54 595.239C1264.45 595.239 1265.93 593.97 1266.14 592.065L1551.28 598.202C1551.49 600.106 1552.97 601.376 1554.87 601.376C1556.77 601.376 1558.47 599.683 1558.47 597.779C1558.47 596.932 1558.04 596.086 1557.62 595.451L1673.87 472.933C1674.51 473.356 1675.14 473.779 1675.99 473.779C1677.89 473.779 1679.58 472.086 1679.58 470.182C1679.16 468.277 1677.68 466.796 1675.57 466.796ZM-298.44 435.267L-107.36 270.217C-107.36 270.217 -107.148 270.217 -107.148 270.429L-215.793 435.056C-216.216 434.844 -216.85 434.633 -217.484 434.633C-219.387 434.633 -220.866 436.114 -221.078 437.807L-298.017 437.172C-298.017 436.325 -298.229 435.691 -298.44 435.267ZM689.303 217.528C689.514 217.528 689.514 217.528 689.725 217.528C690.994 217.528 692.262 216.681 692.896 215.623L952.038 323.753L994.313 341.316C994.313 341.527 994.102 341.95 994.102 342.162L978.249 343.432L656.117 367.343C655.906 366.073 655.06 365.015 653.792 364.592L655.695 356.763L689.303 217.528ZM1403.53 358.879L1321.94 382.367C1321.52 381.097 1320.04 380.251 1318.56 380.251C1317.92 380.251 1317.5 380.462 1316.87 380.674L1249.86 279.951C1250.07 279.739 1250.28 279.528 1250.5 279.104L1403.53 356.974C1403.32 357.398 1403.32 357.821 1403.32 358.244C1403.53 358.456 1403.53 358.667 1403.53 358.879ZM1247.75 280.797C1248.38 280.797 1248.81 280.586 1249.44 280.374L1316.44 381.097C1315.81 381.52 1315.39 382.155 1315.18 383.001L1001.29 342.585C1001.29 342.374 1001.29 342.162 1001.29 342.162L1244.58 278.681C1244.79 279.739 1246.06 280.797 1247.75 280.797ZM1550.22 277.623L1547.47 298.783L1530.56 424.687C1529.3 424.687 1528.24 425.322 1527.61 426.168L1410.29 359.725C1410.51 359.302 1410.51 358.879 1410.51 358.244C1410.51 357.821 1410.29 357.186 1410.08 356.763L1548.11 276.142C1548.74 276.988 1549.59 277.412 1550.22 277.623ZM1533.95 428.708C1533.95 428.496 1533.95 428.285 1533.95 428.073C1533.95 426.38 1532.89 425.11 1531.2 424.687L1532.89 411.568L1550.86 277.623C1551.49 277.623 1551.91 277.412 1552.34 277.2L1673.03 467.219C1672.61 467.643 1672.18 468.066 1671.97 468.701L1641.96 460.025L1533.95 428.708ZM525.066 582.332C524.855 582.332 524.644 582.332 524.221 582.332L469.687 419.186C470.955 418.551 471.801 417.493 471.801 416.012C471.801 415.8 471.801 415.588 471.801 415.588L649.565 369.247C649.776 369.882 650.199 370.517 650.833 370.94L526.757 582.755C525.912 582.543 525.489 582.332 525.066 582.332ZM464.614 416.223L104.858 468.701C104.858 468.489 104.858 468.489 104.858 468.277L365.903 340.681C366.537 341.739 367.594 342.374 368.862 342.374C369.919 342.374 370.765 341.95 371.399 341.316L465.248 414.319C464.825 414.742 464.614 415.377 464.614 416.223ZM138.466 274.026C139.946 274.026 141.214 273.179 141.848 271.91L365.48 338.353C365.48 338.565 365.48 338.776 365.48 338.988C365.48 339.411 365.48 339.834 365.692 340.258L298.264 373.268L104.436 467.643C104.013 467.008 103.379 466.373 102.533 466.161L116.484 391.042L138.255 274.026H138.466ZM583.828 249.903L469.898 413.049C469.476 412.837 468.841 412.626 468.207 412.626C467.15 412.626 466.305 413.049 465.671 413.684L371.821 340.681C372.244 340.046 372.456 339.411 372.456 338.776C372.456 338.353 372.456 338.142 372.244 337.718L582.982 248.845C583.194 249.268 583.405 249.48 583.828 249.903ZM649.142 368.189C649.142 368.401 649.142 368.612 649.142 368.612L471.378 414.954C471.167 414.319 470.744 413.896 470.321 413.472L584.251 250.326C584.673 250.538 585.308 250.75 585.942 250.75C586.364 250.75 586.998 250.75 587.421 250.538L650.622 365.227C649.776 365.862 649.142 366.92 649.142 368.189ZM995.158 498.325L997.906 345.971C999.386 345.759 1000.65 344.701 1001.08 343.22L1314.96 383.636C1314.96 383.848 1314.96 384.271 1315.18 384.483L997.906 500.018C997.484 499.172 996.427 498.537 995.158 498.325ZM1265.08 589.526C1264.87 589.314 1264.66 589.103 1264.45 588.891L1405.43 361.63C1405.85 361.841 1406.49 362.053 1406.91 362.053C1408.18 362.053 1409.24 361.418 1409.87 360.572L1527.18 427.015C1526.97 427.438 1526.97 427.861 1526.97 428.496C1526.97 429.131 1527.18 429.554 1527.39 429.977L1397.19 509.328L1265.08 589.526ZM1547.9 275.719L1409.87 356.339C1409.24 355.493 1408.18 354.858 1407.12 354.858C1405.85 354.858 1404.8 355.493 1404.16 356.551L1264.24 285.241L1251.13 278.47C1251.34 278.258 1251.34 277.835 1251.34 277.623L1547.9 274.661C1547.69 275.084 1547.69 275.296 1547.9 275.719ZM913.991 200.176C914.414 200.176 915.048 199.965 915.471 199.965L995.581 339.834C995.158 340.046 994.736 340.469 994.524 341.104L693.107 215.412C693.107 215.2 693.319 214.777 693.319 214.565L910.609 197.637C910.821 198.907 912.3 200.176 913.991 200.176ZM582.771 248.21L372.033 337.084C371.399 336.026 370.342 335.179 368.862 335.179C368.651 335.179 368.44 335.179 368.228 335.179L339.482 229.378C340.538 228.954 341.384 227.896 341.595 226.838L582.348 247.364C582.56 247.576 582.56 247.787 582.771 248.21ZM137.41 273.814L101.476 465.95H101.265H101.054L89.0054 387.868L70.4046 267.043C71.6728 266.62 72.7297 265.562 72.9411 264.292L134.662 270.429C134.873 272.121 136.141 273.391 137.41 273.814ZM66.8113 265.773L-131.245 431.67L-139.488 438.653C-139.911 438.23 -140.334 438.018 -140.756 437.807L-127.651 376.442L-105.034 271.063C-104.823 271.063 -104.823 271.063 -104.612 271.063C-102.709 271.063 -101.23 269.582 -101.018 267.889L66.5999 264.292C66.3885 264.715 66.3885 265.139 66.8113 265.773ZM-215.159 435.267L-106.514 270.64C-106.303 270.64 -106.091 270.852 -106.091 270.852L-141.813 437.383C-142.025 437.383 -142.025 437.383 -142.236 437.383C-143.927 437.383 -145.407 438.653 -145.829 440.346L-214.103 437.595C-213.891 436.749 -214.314 435.902 -215.159 435.267ZM656.117 369.036C656.117 368.824 656.329 368.401 656.329 368.189L994.313 343.22C994.524 344.701 995.793 345.971 997.272 346.183L996.638 379.404L994.524 498.325C993.256 498.537 992.199 499.172 991.776 500.23L755.674 407.971L656.117 369.036ZM1318.14 387.445C1318.35 387.445 1318.56 387.445 1318.77 387.445C1320.67 387.445 1322.36 385.752 1322.36 383.848C1322.36 383.636 1322.36 383.425 1322.36 383.213L1403.95 359.725C1404.16 360.36 1404.59 360.783 1405.01 361.206L1264.02 588.468C1264.02 588.468 1263.81 588.468 1263.81 588.256L1293.83 477.8L1318.14 387.445ZM1265.5 590.161L1327.22 552.496L1527.61 430.401C1528.24 431.247 1529.3 431.882 1530.35 431.882C1530.35 431.882 1530.35 431.882 1530.56 431.882L1553.6 594.605C1552.12 595.028 1551.07 596.086 1551.07 597.567L1265.93 591.43C1265.71 591.007 1265.71 590.584 1265.5 590.161ZM1554.45 594.393L1537.54 475.895L1531.2 431.67C1532.26 431.459 1533.1 430.612 1533.52 429.554L1671.97 469.759C1671.97 469.97 1671.97 470.182 1671.97 470.394C1671.97 471.24 1672.4 472.086 1672.82 472.721L1556.56 595.239C1555.93 594.604 1555.3 594.393 1554.45 594.393ZM1648.72 218.374C1649.36 219.221 1650.41 219.856 1651.47 219.856L1674.72 466.796C1674.51 466.796 1674.09 467.008 1673.87 467.008L1553.18 276.988C1554.03 276.354 1554.45 275.296 1554.45 274.238C1554.45 273.814 1554.24 273.179 1554.24 272.756L1648.72 218.374ZM1244.16 276.777C1244.16 276.988 1244.16 276.988 1244.16 277.2C1244.16 277.412 1244.16 277.623 1244.16 277.623L1000.87 341.104C1000.44 339.834 999.174 338.776 997.484 338.776C997.061 338.776 996.427 338.988 996.004 338.988L915.894 199.118C916.528 198.695 916.951 198.06 917.162 197.426L1244.16 276.777ZM686.555 215.623C686.978 216.47 687.612 217.105 688.669 217.528L653.158 364.592C652.947 364.592 652.947 364.592 652.735 364.592C652.313 364.592 651.678 364.592 651.256 364.804L609.615 289.05L588.055 250.115C588.901 249.48 589.535 248.422 589.535 247.152C589.535 246.941 589.535 246.729 589.535 246.518L686.555 215.623ZM334.831 227.262C335.254 228.743 336.522 229.589 338.213 229.589C338.425 229.589 338.636 229.589 338.847 229.589L367.594 335.391C366.749 335.814 365.903 336.449 365.692 337.295L142.06 270.852C142.06 270.64 142.06 270.429 142.06 270.217C142.06 270.005 142.06 270.005 142.06 269.794L334.831 227.262ZM-138.431 440.981C-138.431 440.134 -138.643 439.499 -139.065 438.865L67.234 266.197C67.8681 266.831 68.7136 267.255 69.7705 267.255H69.9819L100.631 466.161C99.3626 466.585 98.3058 467.431 98.0944 468.701L-138.431 440.981ZM104.858 469.97C104.858 469.759 104.858 469.547 104.858 469.336C104.858 469.336 104.858 469.336 104.858 469.124L464.614 416.858C465.037 418.339 466.305 419.609 467.996 419.609C468.207 419.609 468.419 419.609 468.841 419.609L523.375 582.755C522.53 583.178 521.896 583.813 521.473 584.659L104.858 469.97ZM528.448 585.929C528.448 584.659 527.814 583.601 526.969 582.966L651.044 371.152C651.467 371.363 651.89 371.575 652.524 371.575C652.947 371.575 653.158 371.575 653.581 371.363L755.251 610.898C754.405 611.321 753.771 612.168 753.56 613.226L528.448 585.929ZM760.112 612.168C759.478 611.11 758.422 610.475 757.153 610.475C756.73 610.475 756.519 610.475 756.096 610.686L654.426 371.152C655.06 370.728 655.483 370.305 655.906 369.67L833.67 439.288L991.354 501.076C991.354 501.288 991.142 501.711 991.142 501.922C991.142 502.346 991.142 502.769 991.354 502.98L760.112 612.168ZM998.329 502.557C998.329 502.346 998.329 502.134 998.329 501.711C998.329 501.499 998.329 501.076 998.118 500.864L1126 454.312L1315.18 385.329C1315.6 386.176 1316.23 386.81 1317.08 387.022L1287.49 495.997L1262.97 588.256C1262.76 588.256 1262.54 588.256 1262.33 588.256C1260.85 588.256 1259.59 589.103 1259.16 590.372L998.329 502.557Z" fill="white"/>
<path d="M1271.21 406.489C1269.94 406.489 1269.1 407.336 1268.89 408.605L1218.37 408.182C1218.16 406.913 1217.31 406.066 1216.04 406.066C1214.77 406.066 1213.93 406.913 1213.72 407.971L1168.91 406.278C1168.91 405.008 1167.85 404.162 1166.58 404.162C1165.52 404.162 1164.68 405.008 1164.47 406.066L1009.74 387.868C1009.74 386.599 1008.69 385.541 1007.42 385.541C1006.36 385.541 1005.52 386.175 1005.3 387.022L732.845 312.114C732.845 311.903 732.845 311.903 732.845 311.691C732.845 310.422 731.789 309.364 730.52 309.364C729.464 309.364 728.618 310.21 728.407 311.268L581.08 293.493C581.08 292.224 580.023 291.166 578.755 291.166C577.487 291.166 576.43 292.224 576.43 293.493C576.43 293.705 576.43 293.917 576.641 294.34L425.299 365.862C424.876 365.227 424.242 364.804 423.396 364.804C422.551 364.804 421.705 365.438 421.283 366.073L250.705 308.729C250.705 308.517 250.705 308.517 250.705 308.306C250.705 307.036 249.648 305.978 248.38 305.978C247.112 305.978 246.266 306.824 246.055 308.094L59.6247 304.074C59.6247 302.804 58.5678 301.958 57.2996 301.958C56.0313 301.958 54.9744 303.016 54.9744 304.285C54.9744 304.92 55.1858 305.343 55.6086 305.766L-20.4855 385.964C-20.9082 385.752 -21.3309 385.541 -21.9651 385.541C-23.2333 385.541 -24.2902 386.599 -24.2902 387.868C-24.2902 389.138 -23.2333 390.196 -21.9651 390.196L-6.74625 551.649C-7.80312 551.861 -8.64859 552.707 -8.64859 553.977C-8.64859 555.246 -7.59175 556.304 -6.32351 556.304C-5.05528 556.304 -3.99841 555.246 -3.99841 553.977C-3.99841 553.553 -3.99842 553.342 -4.20979 553.13L57.5109 517.581C57.9337 518.216 58.5678 518.639 59.4133 518.639C60.6815 518.639 61.527 517.793 61.7384 516.523L255.567 514.619C255.778 515.677 256.624 516.735 257.892 516.735C258.949 516.735 259.794 516.1 260.006 515.253L473.703 566.884V567.096C473.703 568.366 474.76 569.424 476.028 569.424C477.296 569.424 478.353 568.366 478.353 567.096L620.395 556.093C620.607 557.151 621.452 557.997 622.72 557.997C623.989 557.997 625.046 556.939 625.046 555.67C625.046 555.458 625.046 555.458 625.046 555.246L688.457 534.932C688.88 535.779 689.726 536.414 690.571 536.414C691.628 536.414 692.685 535.567 692.896 534.509L850.368 547.84C850.368 549.11 851.425 550.168 852.694 550.168C853.962 550.168 855.019 549.11 855.019 547.84V547.629L981.208 519.697C981.419 520.543 982.265 521.39 983.322 521.39C984.378 521.39 985.224 520.543 985.647 519.485L1026.02 523.506C1026.02 524.775 1027.08 525.834 1028.34 525.834C1029.61 525.834 1030.46 524.987 1030.67 523.717L1140.37 521.39C1140.58 522.448 1141.43 523.506 1142.7 523.506C1143.96 523.506 1145.02 522.448 1145.02 521.178C1145.02 520.755 1144.81 520.332 1144.6 519.909L1269.52 411.991C1269.94 412.414 1270.58 412.626 1271 412.626C1272.27 412.626 1273.32 411.568 1273.32 410.298C1273.32 409.029 1272.48 406.489 1271.21 406.489ZM852.271 544.666C851.637 544.878 851.003 545.513 850.791 546.359L693.319 533.028C693.319 532.816 693.319 532.605 693.107 532.393L830.922 474.202C831.345 474.837 831.979 475.472 832.825 475.472C833.036 475.472 833.036 475.472 833.247 475.472L843.182 511.868L852.271 544.666ZM983.744 515.465C982.688 515.465 982.053 516.1 981.631 516.946L835.361 473.568C835.361 473.356 835.361 473.356 835.361 473.144C835.361 472.933 835.361 472.51 835.15 472.298L1005.94 388.926C1006.15 389.35 1006.57 389.773 1007.21 389.984L988.183 491.765L983.744 515.465C983.744 515.677 983.744 515.465 983.744 515.465ZM1005.73 388.503L977.826 402.046L834.938 471.875C834.516 471.24 833.881 470.817 833.036 470.817C832.402 470.817 831.768 471.028 831.345 471.452H831.133L769.836 423.841C770.047 423.418 770.258 422.994 770.258 422.571L1005.52 388.292C1005.73 388.292 1005.73 388.503 1005.73 388.503ZM730.098 313.807C730.309 314.019 730.732 314.019 731.154 314.019C731.366 314.019 731.577 314.019 731.577 314.019L767.299 420.667C766.454 421.09 766.031 421.936 766.031 422.783C766.031 422.994 766.031 422.994 766.031 423.206L736.227 431.035L649.776 453.465C649.565 453.042 649.353 452.619 648.931 452.407L670.491 415.588L730.098 313.807ZM646.606 456.216L623.355 552.496H623.143C622.298 552.496 621.452 552.919 621.241 553.765L424.031 471.452C424.031 471.24 424.242 471.028 424.242 470.817L645.337 454.523C645.337 455.158 645.971 456.005 646.606 456.216ZM419.592 471.028L260.64 512.503C260.217 511.656 259.372 511.021 258.526 511.021C258.103 511.021 257.892 511.233 257.469 511.233L247.112 495.574L213.715 445.213C214.138 445.001 214.349 444.578 214.561 443.943L419.803 470.394C419.592 470.817 419.592 471.028 419.592 471.028ZM247.535 309.575L155.376 458.332C155.165 458.121 154.742 458.121 154.319 458.121C153.474 458.121 152.84 458.544 152.417 459.179L75.6889 415.8C75.9003 415.588 75.9003 415.165 75.9003 414.954C75.9003 414.53 75.9003 414.319 75.6889 413.896L119.866 387.022L247.112 309.575C247.112 309.364 247.323 309.575 247.535 309.575ZM60.6815 513.137L73.5752 417.07C74.4207 417.07 75.0548 416.646 75.4776 416.012L152.206 459.39C151.994 459.602 151.994 460.025 151.994 460.237C151.994 460.66 151.994 460.871 152.206 461.083L82.8756 501.711L61.9497 513.772C61.527 513.561 61.1043 513.349 60.6815 513.137ZM214.349 443.097L421.705 367.554C422.128 368.189 422.762 368.612 423.396 368.824L421.494 468.489C420.437 468.489 419.803 469.335 419.38 470.182L276.07 451.772L213.926 443.732C214.349 443.52 214.349 443.308 214.349 443.097ZM645.126 453.888L424.031 470.182C423.819 469.124 422.974 468.489 422.128 468.277L424.031 368.612C424.876 368.612 425.51 367.978 425.933 367.343L645.337 453.254C645.126 453.677 645.126 453.677 645.126 453.888ZM156.433 460.025L209.91 444.578C210.333 445.424 211.179 446.059 212.024 446.059C212.447 446.059 212.658 445.848 213.081 445.848L257.046 511.868C256.835 512.079 256.835 512.291 256.624 512.291L156.433 461.295C156.433 461.083 156.645 460.66 156.645 460.448C156.645 460.237 156.433 460.237 156.433 460.025ZM71.4615 414.319C71.4615 414.53 71.4615 414.53 71.4615 414.742C71.4615 415.8 72.307 416.646 73.1525 416.858L60.2588 512.926C59.836 512.926 59.6246 513.137 59.2019 513.137L-19.8513 388.926C-19.64 388.715 -19.2172 388.292 -19.2172 388.08L-1.6733 393.158L71.4615 414.319ZM648.719 455.793C649.353 455.37 649.776 454.735 649.776 453.888C649.776 453.677 649.776 453.677 649.776 453.465L766.031 423.206C766.242 423.629 766.454 423.841 766.665 424.052L692.051 531.124C691.628 530.912 691.416 530.912 690.994 530.912C690.571 530.912 690.36 530.912 690.148 531.124L665.629 486.475L648.719 455.793ZM693.107 531.97C692.896 531.758 692.896 531.547 692.685 531.335L744.048 457.697L767.088 424.476C767.51 424.687 767.722 424.687 768.145 424.687C768.779 424.687 769.413 424.476 769.836 424.052L831.133 471.875C830.922 472.298 830.711 472.721 830.711 473.144C830.711 473.356 830.711 473.568 830.922 473.779L760.324 503.615L693.107 531.97ZM212.447 441.404C212.235 441.404 212.235 441.404 212.024 441.404C210.756 441.404 209.699 442.462 209.699 443.732C209.699 443.943 209.699 443.943 209.699 444.155L156.222 459.602C156.01 459.179 155.799 458.967 155.588 458.755L247.746 309.998C247.746 309.998 247.746 309.998 247.957 309.998L225.975 391.042L212.447 441.404ZM246.901 308.94L75.4776 413.472C75.0548 412.837 74.4207 412.626 73.5752 412.626L58.5678 306.19C59.4133 305.978 60.0474 305.132 60.2588 304.285L246.689 308.306C246.689 308.306 246.689 308.517 246.901 308.94ZM57.9337 305.978L73.1525 412.626C72.5184 412.837 71.8842 413.261 71.4615 413.896L-19.0059 387.657C-19.0059 387.445 -19.0059 387.445 -19.0059 387.234C-19.0059 386.599 -19.2172 386.176 -19.6399 385.752L56.4541 305.555C56.8768 305.766 57.2996 305.978 57.9337 305.978ZM62.1611 514.407L152.417 461.718C152.84 462.353 153.474 462.776 154.319 462.776C155.165 462.776 155.799 462.353 156.222 461.718L256.412 512.714C256.412 512.926 256.412 513.137 256.201 513.349L62.3725 515.253C62.3725 514.83 62.1611 514.619 62.1611 514.407ZM476.662 563.71C476.239 563.71 476.028 563.71 475.817 563.922L423.396 472.51C423.608 472.298 423.819 472.086 424.031 471.663L621.03 553.977C621.03 554.188 620.818 554.4 620.818 554.612L478.776 565.615C478.565 564.557 477.719 563.71 476.662 563.71ZM984.378 515.677L1007.84 389.984H1008.05C1008.05 389.984 1008.05 389.984 1008.26 389.984L1028.34 520.12C1027.5 520.332 1026.86 520.967 1026.65 521.813L986.281 517.793C985.858 516.735 985.224 515.888 984.378 515.677ZM1214.77 410.087L1143.75 517.793C1143.54 517.793 1143.54 517.793 1143.33 517.581L1165.52 413.684L1166.58 408.605H1166.79C1168.06 408.605 1168.91 407.759 1169.12 406.701L1213.93 408.394C1214.14 409.24 1214.35 409.663 1214.77 410.087ZM1030.46 520.967L1165.52 407.971C1165.74 408.182 1166.16 408.394 1166.37 408.394L1143.12 517.369H1142.91C1141.64 517.369 1140.79 518.216 1140.58 519.485L1030.88 521.813C1030.88 521.601 1030.67 521.39 1030.46 520.967ZM1144.18 518.004L1215.2 410.298C1215.62 410.51 1215.83 410.51 1216.25 410.51C1217.52 410.51 1218.37 409.663 1218.58 408.394L1269.1 408.817C1269.1 409.24 1269.31 409.663 1269.52 409.875L1144.18 518.004C1144.39 518.004 1144.39 518.004 1144.18 518.004ZM1164.68 406.278C1164.68 406.701 1164.89 407.124 1165.1 407.547L1030.25 520.543C1029.82 520.12 1029.19 519.909 1028.56 519.909C1028.56 519.909 1028.56 519.909 1028.34 519.909L1008.26 389.773C1009.11 389.561 1009.74 388.926 1009.95 388.08L1164.68 406.278ZM1005.73 387.445C1005.73 387.657 1005.73 387.657 1005.73 387.868L770.47 422.148C770.258 421.09 769.413 420.455 768.356 420.455C768.145 420.455 767.933 420.455 767.933 420.455L732.211 313.807C732.845 313.596 733.268 313.172 733.48 312.538L1005.73 387.445ZM728.618 311.48C728.618 311.691 728.618 311.691 728.618 311.48C728.618 312.326 729.041 312.961 729.675 313.384L648.508 451.772C648.297 451.561 647.874 451.561 647.451 451.561C647.24 451.561 647.028 451.561 646.817 451.772L580.235 295.186C580.869 294.975 581.292 294.34 581.292 293.705L728.618 311.48ZM577.275 294.34C577.698 294.975 578.332 295.398 579.178 295.398C579.389 295.398 579.601 295.398 579.812 295.186L646.394 451.772C645.971 451.984 645.76 452.407 645.549 452.619L426.144 366.708C426.144 366.496 426.356 366.285 426.356 366.073C426.356 365.862 426.356 365.65 426.144 365.227L577.275 294.34ZM421.494 366.073C421.494 366.285 421.494 366.285 421.494 366.496C421.494 366.708 421.494 366.92 421.705 367.131L214.349 442.674C214.138 442.25 213.715 441.827 213.081 441.615L235.486 358.667L248.591 310.21C248.803 310.21 248.803 310.21 249.014 310.21C249.86 310.21 250.705 309.575 251.128 308.94L421.494 366.073ZM-3.78702 551.861C-4.20977 551.226 -4.8439 550.803 -5.68939 550.803L-20.9082 389.35C-20.6968 389.35 -20.4854 389.35 -20.2741 389.138L58.5678 513.561C57.9337 513.984 57.7223 514.619 57.7223 515.253C57.7223 515.677 57.7223 515.888 57.9337 516.1L-3.78702 551.861ZM260.64 513.772V513.561C260.64 513.349 260.64 513.349 260.64 513.137L419.592 471.663C420.014 472.51 420.86 473.144 421.705 473.144C422.128 473.144 422.34 473.144 422.551 472.933L474.971 564.345C474.548 564.557 474.337 564.98 474.126 565.403L260.64 513.772ZM625.257 553.765C625.046 553.13 624.411 552.707 623.989 552.496L647.24 456.216H647.451C647.874 456.216 648.085 456.216 648.297 456.005L689.726 531.124C689.091 531.547 688.669 532.182 688.669 533.028C688.669 533.24 688.669 533.24 688.669 533.451L625.257 553.765ZM855.23 546.147C855.019 545.301 854.173 544.455 853.116 544.455C852.905 544.455 852.905 544.455 852.694 544.455L848.466 529.219L833.881 475.26C834.516 475.049 834.938 474.626 835.15 473.991L981.419 517.369C981.419 517.581 981.419 517.581 981.419 517.793V518.004L855.23 546.147Z" fill="white"/>
<path d="M1271.21 406.489C1269.94 406.489 1269.1 407.336 1268.89 408.605L1218.37 408.182C1218.16 406.913 1217.31 406.066 1216.04 406.066C1214.77 406.066 1213.93 406.913 1213.72 407.971L1168.91 406.278C1168.91 405.008 1167.85 404.162 1166.58 404.162C1165.52 404.162 1164.68 405.008 1164.47 406.066L1009.74 387.868C1009.74 386.599 1008.69 385.541 1007.42 385.541C1006.36 385.541 1005.52 386.175 1005.3 387.022L732.845 312.114C732.845 311.903 732.845 311.903 732.845 311.691C732.845 310.422 731.789 309.364 730.52 309.364C729.464 309.364 728.618 310.21 728.407 311.268L581.08 293.493C581.08 292.224 580.023 291.166 578.755 291.166C577.487 291.166 576.43 292.224 576.43 293.493C576.43 293.705 576.43 293.917 576.641 294.34L425.299 365.862C424.876 365.227 424.242 364.804 423.396 364.804C422.551 364.804 421.705 365.438 421.283 366.073L250.705 308.729C250.705 308.517 250.705 308.517 250.705 308.306C250.705 307.036 249.648 305.978 248.38 305.978C247.112 305.978 246.266 306.824 246.055 308.094L59.6247 304.074C59.6247 302.804 58.5678 301.958 57.2996 301.958C56.0313 301.958 54.9744 303.016 54.9744 304.285C54.9744 304.92 55.1858 305.343 55.6086 305.766L-20.4855 385.964C-20.9082 385.752 -21.3309 385.541 -21.9651 385.541C-23.2333 385.541 -24.2902 386.599 -24.2902 387.868C-24.2902 389.138 -23.2333 390.196 -21.9651 390.196L-6.74625 551.649C-7.80312 551.861 -8.64859 552.707 -8.64859 553.977C-8.64859 555.246 -7.59175 556.304 -6.32351 556.304C-5.05528 556.304 -3.99841 555.246 -3.99841 553.977C-3.99841 553.553 -3.99842 553.342 -4.20979 553.13L57.5109 517.581C57.9337 518.216 58.5678 518.639 59.4133 518.639C60.6815 518.639 61.527 517.793 61.7384 516.523L255.567 514.619C255.778 515.677 256.624 516.735 257.892 516.735C258.949 516.735 259.794 516.1 260.006 515.253L473.703 566.884V567.096C473.703 568.366 474.76 569.424 476.028 569.424C477.296 569.424 478.353 568.366 478.353 567.096L620.395 556.093C620.607 557.151 621.452 557.997 622.72 557.997C623.989 557.997 625.046 556.939 625.046 555.67C625.046 555.458 625.046 555.458 625.046 555.246L688.457 534.932C688.88 535.779 689.726 536.414 690.571 536.414C691.628 536.414 692.685 535.567 692.896 534.509L850.368 547.84C850.368 549.11 851.425 550.168 852.694 550.168C853.962 550.168 855.019 549.11 855.019 547.84V547.629L981.208 519.697C981.419 520.543 982.265 521.39 983.322 521.39C984.378 521.39 985.224 520.543 985.647 519.485L1026.02 523.506C1026.02 524.775 1027.08 525.834 1028.34 525.834C1029.61 525.834 1030.46 524.987 1030.67 523.717L1140.37 521.39C1140.58 522.448 1141.43 523.506 1142.7 523.506C1143.96 523.506 1145.02 522.448 1145.02 521.178C1145.02 520.755 1144.81 520.332 1144.6 519.909L1269.52 411.991C1269.94 412.414 1270.58 412.626 1271 412.626C1272.27 412.626 1273.32 411.568 1273.32 410.298C1273.32 409.029 1272.48 406.489 1271.21 406.489ZM852.271 544.666C851.637 544.878 851.003 545.513 850.791 546.359L693.319 533.028C693.319 532.816 693.319 532.605 693.107 532.393L830.922 474.202C831.345 474.837 831.979 475.472 832.825 475.472C833.036 475.472 833.036 475.472 833.247 475.472L843.182 511.868L852.271 544.666ZM983.744 515.465C982.688 515.465 982.053 516.1 981.631 516.946L835.361 473.568C835.361 473.356 835.361 473.356 835.361 473.144C835.361 472.933 835.361 472.51 835.15 472.298L1005.94 388.926C1006.15 389.35 1006.57 389.773 1007.21 389.984L988.183 491.765L983.744 515.465C983.744 515.677 983.744 515.465 983.744 515.465ZM1005.73 388.503L977.826 402.046L834.938 471.875C834.516 471.24 833.881 470.817 833.036 470.817C832.402 470.817 831.768 471.028 831.345 471.452H831.133L769.836 423.841C770.047 423.418 770.258 422.994 770.258 422.571L1005.52 388.292C1005.73 388.292 1005.73 388.503 1005.73 388.503ZM730.098 313.807C730.309 314.019 730.732 314.019 731.154 314.019C731.366 314.019 731.577 314.019 731.577 314.019L767.299 420.667C766.454 421.09 766.031 421.936 766.031 422.783C766.031 422.994 766.031 422.994 766.031 423.206L736.227 431.035L649.776 453.465C649.565 453.042 649.353 452.619 648.931 452.407L670.491 415.588L730.098 313.807ZM646.606 456.216L623.355 552.496H623.143C622.298 552.496 621.452 552.919 621.241 553.765L424.031 471.452C424.031 471.24 424.242 471.028 424.242 470.817L645.337 454.523C645.337 455.158 645.971 456.005 646.606 456.216ZM419.592 471.028L260.64 512.503C260.217 511.656 259.372 511.021 258.526 511.021C258.103 511.021 257.892 511.233 257.469 511.233L247.112 495.574L213.715 445.213C214.138 445.001 214.349 444.578 214.561 443.943L419.803 470.394C419.592 470.817 419.592 471.028 419.592 471.028ZM247.535 309.575L155.376 458.332C155.165 458.121 154.742 458.121 154.319 458.121C153.474 458.121 152.84 458.544 152.417 459.179L75.6889 415.8C75.9003 415.588 75.9003 415.165 75.9003 414.954C75.9003 414.53 75.9003 414.319 75.6889 413.896L119.866 387.022L247.112 309.575C247.112 309.364 247.323 309.575 247.535 309.575ZM60.6815 513.137L73.5752 417.07C74.4207 417.07 75.0548 416.646 75.4776 416.012L152.206 459.39C151.994 459.602 151.994 460.025 151.994 460.237C151.994 460.66 151.994 460.871 152.206 461.083L82.8756 501.711L61.9497 513.772C61.527 513.561 61.1043 513.349 60.6815 513.137ZM214.349 443.097L421.705 367.554C422.128 368.189 422.762 368.612 423.396 368.824L421.494 468.489C420.437 468.489 419.803 469.335 419.38 470.182L276.07 451.772L213.926 443.732C214.349 443.52 214.349 443.308 214.349 443.097ZM645.126 453.888L424.031 470.182C423.819 469.124 422.974 468.489 422.128 468.277L424.031 368.612C424.876 368.612 425.51 367.978 425.933 367.343L645.337 453.254C645.126 453.677 645.126 453.677 645.126 453.888ZM156.433 460.025L209.91 444.578C210.333 445.424 211.179 446.059 212.024 446.059C212.447 446.059 212.658 445.848 213.081 445.848L257.046 511.868C256.835 512.079 256.835 512.291 256.624 512.291L156.433 461.295C156.433 461.083 156.645 460.66 156.645 460.448C156.645 460.237 156.433 460.237 156.433 460.025ZM71.4615 414.319C71.4615 414.53 71.4615 414.53 71.4615 414.742C71.4615 415.8 72.307 416.646 73.1525 416.858L60.2588 512.926C59.836 512.926 59.6246 513.137 59.2019 513.137L-19.8513 388.926C-19.64 388.715 -19.2172 388.292 -19.2172 388.08L-1.6733 393.158L71.4615 414.319ZM648.719 455.793C649.353 455.37 649.776 454.735 649.776 453.888C649.776 453.677 649.776 453.677 649.776 453.465L766.031 423.206C766.242 423.629 766.454 423.841 766.665 424.052L692.051 531.124C691.628 530.912 691.416 530.912 690.994 530.912C690.571 530.912 690.36 530.912 690.148 531.124L665.629 486.475L648.719 455.793ZM693.107 531.97C692.896 531.758 692.896 531.547 692.685 531.335L744.048 457.697L767.088 424.476C767.51 424.687 767.722 424.687 768.145 424.687C768.779 424.687 769.413 424.476 769.836 424.052L831.133 471.875C830.922 472.298 830.711 472.721 830.711 473.144C830.711 473.356 830.711 473.568 830.922 473.779L760.324 503.615L693.107 531.97ZM212.447 441.404C212.235 441.404 212.235 441.404 212.024 441.404C210.756 441.404 209.699 442.462 209.699 443.732C209.699 443.943 209.699 443.943 209.699 444.155L156.222 459.602C156.01 459.179 155.799 458.967 155.588 458.755L247.746 309.998C247.746 309.998 247.746 309.998 247.957 309.998L225.975 391.042L212.447 441.404ZM246.901 308.94L75.4776 413.472C75.0548 412.837 74.4207 412.626 73.5752 412.626L58.5678 306.19C59.4133 305.978 60.0474 305.132 60.2588 304.285L246.689 308.306C246.689 308.306 246.689 308.517 246.901 308.94ZM57.9337 305.978L73.1525 412.626C72.5184 412.837 71.8842 413.261 71.4615 413.896L-19.0059 387.657C-19.0059 387.445 -19.0059 387.445 -19.0059 387.234C-19.0059 386.599 -19.2172 386.176 -19.6399 385.752L56.4541 305.555C56.8768 305.766 57.2996 305.978 57.9337 305.978ZM62.1611 514.407L152.417 461.718C152.84 462.353 153.474 462.776 154.319 462.776C155.165 462.776 155.799 462.353 156.222 461.718L256.412 512.714C256.412 512.926 256.412 513.137 256.201 513.349L62.3725 515.253C62.3725 514.83 62.1611 514.619 62.1611 514.407ZM476.662 563.71C476.239 563.71 476.028 563.71 475.817 563.922L423.396 472.51C423.608 472.298 423.819 472.086 424.031 471.663L621.03 553.977C621.03 554.188 620.818 554.4 620.818 554.612L478.776 565.615C478.565 564.557 477.719 563.71 476.662 563.71ZM984.378 515.677L1007.84 389.984H1008.05C1008.05 389.984 1008.05 389.984 1008.26 389.984L1028.34 520.12C1027.5 520.332 1026.86 520.967 1026.65 521.813L986.281 517.793C985.858 516.735 985.224 515.888 984.378 515.677ZM1214.77 410.087L1143.75 517.793C1143.54 517.793 1143.54 517.793 1143.33 517.581L1165.52 413.684L1166.58 408.605H1166.79C1168.06 408.605 1168.91 407.759 1169.12 406.701L1213.93 408.394C1214.14 409.24 1214.35 409.663 1214.77 410.087ZM1030.46 520.967L1165.52 407.971C1165.74 408.182 1166.16 408.394 1166.37 408.394L1143.12 517.369H1142.91C1141.64 517.369 1140.79 518.216 1140.58 519.485L1030.88 521.813C1030.88 521.601 1030.67 521.39 1030.46 520.967ZM1144.18 518.004L1215.2 410.298C1215.62 410.51 1215.83 410.51 1216.25 410.51C1217.52 410.51 1218.37 409.663 1218.58 408.394L1269.1 408.817C1269.1 409.24 1269.31 409.663 1269.52 409.875L1144.18 518.004C1144.39 518.004 1144.39 518.004 1144.18 518.004ZM1164.68 406.278C1164.68 406.701 1164.89 407.124 1165.1 407.547L1030.25 520.543C1029.82 520.12 1029.19 519.909 1028.56 519.909C1028.56 519.909 1028.56 519.909 1028.34 519.909L1008.26 389.773C1009.11 389.561 1009.74 388.926 1009.95 388.08L1164.68 406.278ZM1005.73 387.445C1005.73 387.657 1005.73 387.657 1005.73 387.868L770.47 422.148C770.258 421.09 769.413 420.455 768.356 420.455C768.145 420.455 767.933 420.455 767.933 420.455L732.211 313.807C732.845 313.596 733.268 313.172 733.48 312.538L1005.73 387.445ZM728.618 311.48C728.618 311.691 728.618 311.691 728.618 311.48C728.618 312.326 729.041 312.961 729.675 313.384L648.508 451.772C648.297 451.561 647.874 451.561 647.451 451.561C647.24 451.561 647.028 451.561 646.817 451.772L580.235 295.186C580.869 294.975 581.292 294.34 581.292 293.705L728.618 311.48ZM577.275 294.34C577.698 294.975 578.332 295.398 579.178 295.398C579.389 295.398 579.601 295.398 579.812 295.186L646.394 451.772C645.971 451.984 645.76 452.407 645.549 452.619L426.144 366.708C426.144 366.496 426.356 366.285 426.356 366.073C426.356 365.862 426.356 365.65 426.144 365.227L577.275 294.34ZM421.494 366.073C421.494 366.285 421.494 366.285 421.494 366.496C421.494 366.708 421.494 366.92 421.705 367.131L214.349 442.674C214.138 442.25 213.715 441.827 213.081 441.615L235.486 358.667L248.591 310.21C248.803 310.21 248.803 310.21 249.014 310.21C249.86 310.21 250.705 309.575 251.128 308.94L421.494 366.073ZM-3.78702 551.861C-4.20977 551.226 -4.8439 550.803 -5.68939 550.803L-20.9082 389.35C-20.6968 389.35 -20.4854 389.35 -20.2741 389.138L58.5678 513.561C57.9337 513.984 57.7223 514.619 57.7223 515.253C57.7223 515.677 57.7223 515.888 57.9337 516.1L-3.78702 551.861ZM260.64 513.772V513.561C260.64 513.349 260.64 513.349 260.64 513.137L419.592 471.663C420.014 472.51 420.86 473.144 421.705 473.144C422.128 473.144 422.34 473.144 422.551 472.933L474.971 564.345C474.548 564.557 474.337 564.98 474.126 565.403L260.64 513.772ZM625.257 553.765C625.046 553.13 624.411 552.707 623.989 552.496L647.24 456.216H647.451C647.874 456.216 648.085 456.216 648.297 456.005L689.726 531.124C689.091 531.547 688.669 532.182 688.669 533.028C688.669 533.24 688.669 533.24 688.669 533.451L625.257 553.765ZM855.23 546.147C855.019 545.301 854.173 544.455 853.116 544.455C852.905 544.455 852.905 544.455 852.694 544.455L848.466 529.219L833.881 475.26C834.516 475.049 834.938 474.626 835.15 473.991L981.419 517.369C981.419 517.581 981.419 517.581 981.419 517.793V518.004L855.23 546.147Z" fill="white"/>
</g>
</g>
<defs>
<clipPath id="clip0">
<rect width="1366" height="693" fill="white"/>
</clipPath>
</defs>
</svg>
