<svg width="295" height="329" viewBox="0 0 295 329" fill="none" xmlns="http://www.w3.org/2000/svg">
<path d="M15.9966 162.033C15.9966 162.033 15.9966 201.522 15.9966 237.012C15.9966 262.019 14.7342 297.467 19.363 302.73C30.893 315.781 88.7954 316.96 149.265 317.212C211.796 317.507 270.414 311.865 280.681 303.109C284.468 299.867 282.785 257.094 282.785 232.171C282.785 196.302 282.785 162.033 282.785 162.033" stroke="white" stroke-width="4" stroke-miterlimit="10" stroke-linecap="round" stroke-linejoin="round"/>
<path d="M218.655 289.373C217.519 285.458 214.068 282.764 210.197 282.764H89.0479C85.2186 282.764 81.8101 285.374 80.6318 289.247L74.9089 308.318C74.9089 308.318 113.623 310.844 149.812 310.844C189.746 310.844 223.873 307.476 223.873 307.476L218.655 289.373Z" stroke="white" stroke-width="2" stroke-miterlimit="10" stroke-linecap="round" stroke-linejoin="round"/>
<path d="M267.931 294.352H235.361C232.541 294.352 230.269 292.079 230.269 289.258V235.244C230.269 232.423 232.541 230.15 235.361 230.15H267.931C270.75 230.15 273.023 232.423 273.023 235.244V289.258C273.023 292.079 270.75 294.352 267.931 294.352Z" stroke="#526583" stroke-width="2" stroke-miterlimit="10" stroke-linecap="round" stroke-linejoin="round"/>
<path d="M267.594 294H235.406C232.978 294 231 292.017 231 289.584V235.416C231 232.983 232.978 231 235.406 231H267.594C270.021 231 271.999 232.983 271.999 235.416V289.584C272.044 292.017 270.066 294 267.594 294Z" stroke="white" stroke-width="2" stroke-miterlimit="10" stroke-linecap="round" stroke-linejoin="round"/>
<path d="M265.616 289.005H237.675C237.17 289.005 236.791 288.584 236.791 288.121V285.132C236.791 284.627 237.212 284.248 237.675 284.248H265.616C266.121 284.248 266.5 284.669 266.5 285.132V288.121C266.542 288.584 266.121 289.005 265.616 289.005Z" fill="white" stroke="white" stroke-width="2" stroke-miterlimit="10" stroke-linecap="round" stroke-linejoin="round"/>
<path d="M246.433 256.126C246.433 257.035 245.696 257.773 244.787 257.773C243.878 257.773 243.141 257.036 243.141 256.126C243.141 255.216 243.878 254.479 244.787 254.479C245.696 254.479 246.433 255.216 246.433 256.126Z" fill="white" stroke="white"/>
<path d="M248.7 253.01L248.964 252.585L248.952 252.578C248.605 252.376 248.401 251.996 248.401 251.621C248.401 251.436 248.45 251.266 248.549 251.064C248.875 250.55 249.532 250.385 250.045 250.663C250.346 250.853 252.993 252.543 252.955 256.205C252.936 258.11 252.203 259.465 251.465 260.359C251.095 260.808 250.724 261.141 250.44 261.365C250.299 261.477 250.179 261.563 250.093 261.623C250.058 261.646 250.03 261.665 250.005 261.682C249.998 261.687 249.991 261.692 249.985 261.696C249.974 261.703 249.962 261.712 249.95 261.72C249.395 261.992 248.746 261.779 248.464 261.272L248.454 261.254L248.443 261.237C248.352 261.101 248.317 260.92 248.317 260.714C248.317 260.34 248.521 259.959 248.868 259.757L248.924 259.724L248.952 259.696L248.975 259.679L249.011 259.652C249.065 259.611 249.14 259.553 249.227 259.478C249.401 259.329 249.625 259.114 249.848 258.826C250.296 258.246 250.734 257.376 250.757 256.177L250.757 256.177V256.168C250.757 254.946 250.32 254.053 249.878 253.467C249.658 253.175 249.437 252.96 249.269 252.816C249.184 252.744 249.113 252.689 249.06 252.651C249.034 252.632 249.012 252.617 248.996 252.606L248.976 252.593L248.969 252.588L248.966 252.587L248.965 252.586L248.965 252.586C248.964 252.586 248.964 252.586 248.7 253.01Z" fill="white" stroke="white"/>
<path d="M254.601 246.164L254.611 246.169L254.62 246.174C254.62 246.174 254.62 246.174 254.621 246.175C254.627 246.178 254.649 246.19 254.689 246.214C254.735 246.243 254.8 246.283 254.879 246.336C255.037 246.442 255.255 246.597 255.51 246.803C256.021 247.214 256.682 247.826 257.334 248.652C258.633 250.3 259.897 252.802 259.856 256.288C259.777 263.125 254.746 266.088 254.391 266.297C253.83 266.586 253.168 266.374 252.883 265.86L252.873 265.843L252.862 265.826C252.774 265.694 252.737 265.521 252.735 265.323C252.771 264.931 252.981 264.558 253.311 264.357C253.384 264.321 253.482 264.263 253.582 264.198C253.72 264.109 253.9 263.983 254.107 263.819C254.522 263.492 255.05 263.007 255.572 262.352C256.618 261.038 257.636 259.038 257.658 256.256C257.68 253.475 256.696 251.454 255.678 250.118C254.712 248.85 253.708 248.19 253.492 248.071C253.148 247.868 252.945 247.489 252.945 247.116C252.945 246.931 252.995 246.762 253.093 246.56C253.422 246.042 254.086 245.878 254.601 246.164Z" fill="white" stroke="white"/>
<path d="M15.9966 210.826V24.7456C15.9966 22.7669 17.6377 21.125 19.6996 21.125C19.6996 21.125 116.947 13.7155 149.391 13.7155C181.835 13.7155 279.082 21.125 279.082 21.125C281.102 21.125 282.785 22.7669 282.785 24.7456V210.826" stroke="white" stroke-width="4" stroke-miterlimit="10" stroke-linecap="round" stroke-linejoin="round"/>
<path d="M277.338 212H20.6619C18.6606 212 17 210.381 17 208.42V24.91C17 22.9496 18.6606 21.3302 20.6619 21.3302C20.6619 21.3302 116.894 14 149 14C181.106 14 277.338 21.3302 277.338 21.3302C279.339 21.3302 281 22.9496 281 24.91V208.42C281 210.381 279.339 212 277.338 212Z" stroke="white" stroke-width="2" stroke-miterlimit="10" stroke-linecap="round" stroke-linejoin="round"/>
<path d="M258.799 53.1628H38.2991V191.502H258.799V53.1628Z" stroke="white" stroke-width="2" stroke-miterlimit="10" stroke-linecap="round" stroke-linejoin="round"/>
<path d="M149.18 42.1328C153.48 42.1328 156.965 38.7777 156.965 34.639C156.965 30.5003 153.48 27.1453 149.18 27.1453C144.881 27.1453 141.396 30.5003 141.396 34.639C141.396 38.7777 144.881 42.1328 149.18 42.1328Z" stroke="#526583" stroke-width="2" stroke-miterlimit="10" stroke-linecap="round" stroke-linejoin="round"/>
<path d="M149.18 40.533C152.574 40.533 155.324 37.8942 155.324 34.6391C155.324 31.3839 152.574 28.7451 149.18 28.7451C145.787 28.7451 143.037 31.3839 143.037 34.6391C143.037 37.8942 145.787 40.533 149.18 40.533Z" stroke="white" stroke-width="2" stroke-miterlimit="10" stroke-linecap="round" stroke-linejoin="round"/>
</svg>
