<svg display="none" width="0" height="0" version="1.1" xmlns="http://www.w3.org/2000/svg" xmlns:xlink="http://www.w3.org/1999/xlink">

    <symbol id="logo" viewBox="0 0 123 59">
        <path d="M110.372 3.06705L109.799 16.661L122.849 11.9893C122.849 11.9893 118.754 11.7371 115.309 9.27331C111.863 6.8095 110.372 3.06705 110.372 3.06705Z" fill="#CF8900"/>
        <path d="M106.083 2.32419e-05L105.383 18.1718L122.849 11.9893C122.849 11.9893 117.133 11.9365 112.503 8.62579C107.873 5.31504 106.083 2.32419e-05 106.083 2.32419e-05Z" fill="#FFBA33"/>
        <path d="M17.2851 38.5606L15.5104 32.4817H7.24057L5.46592 38.5606H0L8.16339 13H14.8361L22.893 38.5606H17.2851ZM11.4287 18.0535H11.2513L8.51832 27.7577H14.1972L11.4287 18.0535Z" fill="#FDFDFD"/>
        <path d="M28.2713 23.5465H22.8763V19.3352H38.9192V23.5465H33.5242V38.5606H28.2713V23.5465Z" fill="#FDFDFD"/>
        <path d="M39.0936 34.3493H41.5071C41.7437 34.0319 41.9448 33.6291 42.1105 33.1408C42.2998 32.6526 42.4536 32.0667 42.5719 31.3831C42.7139 30.6751 42.8203 29.8329 42.8913 28.8563C42.9623 27.8798 42.9978 26.7324 42.9978 25.4141V19.3352H57.7984V38.5606H52.5454V23.5465H48.0378V25.707C48.0378 27.3671 47.9787 28.8319 47.8603 30.1014C47.742 31.3465 47.5646 32.4329 47.328 33.3606C47.0913 34.2638 46.8074 35.0329 46.4761 35.6676C46.1685 36.2779 45.8254 36.7784 45.4468 37.169C44.8789 37.7549 44.2164 38.17 43.4592 38.4141C42.7257 38.6582 41.8029 38.7803 40.6908 38.7803H39.0936V34.3493Z" fill="#FDFDFD"/>
        <path d="M76.4793 38.5606C75.5329 38.5606 74.7402 38.2554 74.1013 37.6451C73.4861 37.0347 73.0957 36.2169 72.93 35.1915H72.7171C72.4331 36.4366 71.8061 37.3887 70.836 38.0479C69.8658 38.6826 68.6709 39 67.2512 39C65.3819 39 63.9503 38.4873 62.9565 37.462C61.9627 36.4366 61.4658 35.0817 61.4658 33.3972C61.4658 31.3709 62.1757 29.8695 63.5954 28.893C65.0388 27.892 66.9909 27.3916 69.4517 27.3916H72.3976V26.1831C72.3976 25.2554 72.161 24.523 71.6878 23.9859C71.2145 23.4244 70.4219 23.1437 69.3097 23.1437C68.2686 23.1437 67.4405 23.3756 66.8252 23.8394C66.21 24.3033 65.7013 24.8282 65.299 25.4141L62.1757 22.5577C62.9328 21.4103 63.8793 20.5192 65.0151 19.8845C66.1745 19.2254 67.7362 18.8958 69.7002 18.8958C72.3503 18.8958 74.3379 19.4939 75.663 20.6901C76.9881 21.8864 77.6506 23.6319 77.6506 25.9268V34.3493H79.3898V38.5606H76.4793ZM69.2033 35.2282C70.0788 35.2282 70.8241 35.0329 71.4393 34.6423C72.0782 34.2516 72.3976 33.6169 72.3976 32.738V30.4676H69.8421C67.7836 30.4676 66.7543 31.1878 66.7543 32.6282V33.1775C66.7543 33.8854 66.9672 34.4103 67.3931 34.7521C67.819 35.0695 68.4224 35.2282 69.2033 35.2282Z" fill="#FDFDFD"/>
        <path d="M90.44 39C89.0439 39 87.8017 38.7681 86.7132 38.3042C85.6248 37.816 84.7138 37.1446 83.9803 36.2901C83.2467 35.4113 82.6907 34.3493 82.3121 33.1042C81.9335 31.8592 81.7442 30.4676 81.7442 28.9296C81.7442 27.3916 81.9335 26.0122 82.3121 24.7915C82.6907 23.5465 83.2467 22.4845 83.9803 21.6056C84.7138 20.7268 85.6248 20.0554 86.7132 19.5916C87.8017 19.1277 89.0439 18.8958 90.44 18.8958C92.333 18.8958 93.9065 19.3352 95.1606 20.2141C96.4383 21.093 97.3493 22.3258 97.8935 23.9127L93.6344 25.8169C93.4687 25.0845 93.1256 24.462 92.6051 23.9493C92.0845 23.4366 91.3628 23.1803 90.44 23.1803C89.3752 23.1803 88.5707 23.5465 88.0265 24.2789C87.4822 24.9869 87.2101 25.9512 87.2101 27.1718V30.7606C87.2101 31.9812 87.4822 32.9577 88.0265 33.6901C88.5707 34.3981 89.3752 34.7521 90.44 34.7521C91.4811 34.7521 92.2501 34.4714 92.747 33.9099C93.2676 33.3239 93.658 32.6404 93.9183 31.8592L98 33.6901C97.3848 35.5211 96.4265 36.8638 95.1251 37.7183C93.8473 38.5728 92.2856 39 90.44 39Z" fill="#FDFDFD"/>
        <path d="M3.83163 57.1559C3.2448 57.1559 2.71407 57.0535 2.23943 56.8486C1.77342 56.6347 1.37214 56.3274 1.03558 55.9265C0.707643 55.5167 0.453064 55.0134 0.271838 54.4165C0.0906128 53.8107 0 53.1158 0 52.3318C0 51.5479 0.0906128 50.8575 0.271838 50.2606C0.453064 49.6637 0.707643 49.1604 1.03558 48.7506C1.37214 48.3408 1.77342 48.0334 2.23943 47.8285C2.71407 47.6147 3.2448 47.5078 3.83163 47.5078C4.40982 47.5078 4.93624 47.6147 5.41088 47.8285C5.88552 48.0334 6.2868 48.3408 6.61474 48.7506C6.9513 49.1604 7.21019 49.6637 7.39142 50.2606C7.57264 50.8575 7.66325 51.5479 7.66325 52.3318C7.66325 53.1158 7.57264 53.8107 7.39142 54.4165C7.21019 55.0134 6.9513 55.5167 6.61474 55.9265C6.2868 56.3274 5.88552 56.6347 5.41088 56.8486C4.93624 57.0535 4.40982 57.1559 3.83163 57.1559ZM3.83163 56.1537C4.21997 56.1537 4.5781 56.0824 4.90604 55.9399C5.23397 55.7973 5.51444 55.5924 5.74744 55.3252C5.98908 55.0579 6.17462 54.7372 6.30406 54.363C6.43351 53.9889 6.49823 53.5702 6.49823 53.1069V51.5568C6.49823 51.0935 6.43351 50.6748 6.30406 50.3007C6.17462 49.9265 5.98908 49.6058 5.74744 49.3385C5.51444 49.0713 5.23397 48.8664 4.90604 48.7238C4.5781 48.5813 4.21997 48.51 3.83163 48.51C3.44329 48.51 3.08515 48.5813 2.75722 48.7238C2.42929 48.8664 2.1445 49.0713 1.90287 49.3385C1.66986 49.6058 1.48864 49.9265 1.35919 50.3007C1.22975 50.6748 1.16502 51.0935 1.16502 51.5568V53.1069C1.16502 53.5702 1.22975 53.9889 1.35919 54.363C1.48864 54.7372 1.66986 55.0579 1.90287 55.3252C2.1445 55.5924 2.42929 55.7973 2.75722 55.9399C3.08515 56.0824 3.44329 56.1537 3.83163 56.1537Z" fill="#EBECF0"/>
        <path d="M12.0904 57.1559C11.6244 57.1559 11.2059 57.0757 10.8348 56.9154C10.4637 56.755 10.1487 56.5056 9.88984 56.167C9.63095 55.8285 9.42815 55.392 9.28144 54.8575C9.14336 54.314 9.07433 53.6592 9.07433 52.8931C9.07433 51.9042 9.13474 51.0579 9.25555 50.3541C9.385 49.6503 9.5878 49.0713 9.86395 48.6169C10.1401 48.1626 10.4896 47.8241 10.9125 47.6013C11.344 47.3697 11.8661 47.2272 12.4788 47.1737L14.5758 47V48.0824L12.3493 48.2695C11.9696 48.3051 11.6503 48.3808 11.3914 48.4967C11.1325 48.6125 10.9168 48.7951 10.7442 49.0445C10.5802 49.2851 10.4508 49.6058 10.3559 50.0067C10.2696 50.4076 10.2048 50.9065 10.1617 51.5033H10.2135C10.4119 51.0312 10.6665 50.6793 10.9772 50.4477C11.2965 50.216 11.715 50.1002 12.2328 50.1002C12.6557 50.1002 13.044 50.1804 13.3979 50.3408C13.7517 50.5011 14.0537 50.7327 14.304 51.0356C14.5542 51.3296 14.7484 51.6993 14.8865 52.1448C15.0332 52.5813 15.1066 53.0802 15.1066 53.6414C15.1066 54.167 15.0332 54.6437 14.8865 55.0713C14.7398 55.4989 14.5327 55.8686 14.2651 56.1804C13.9976 56.4922 13.6783 56.7327 13.3072 56.902C12.9448 57.0713 12.5392 57.1559 12.0904 57.1559ZM12.1422 56.2071C12.4097 56.2071 12.6557 56.1626 12.8801 56.0735C13.1044 55.9844 13.2986 55.8508 13.4626 55.6726C13.6265 55.4944 13.756 55.2762 13.8509 55.0178C13.9458 54.7595 13.9933 54.4566 13.9933 54.1091V53.2673C13.9933 52.5189 13.8164 51.9621 13.4626 51.5969C13.1088 51.2316 12.6341 51.049 12.0387 51.049C11.4173 51.049 10.9513 51.2094 10.6406 51.5301C10.3386 51.8419 10.1876 52.2517 10.1876 52.7595V53.9889C10.1876 54.7372 10.3645 55.294 10.7183 55.6592C11.0721 56.0245 11.5468 56.2071 12.1422 56.2071Z" fill="#EBECF0"/>
        <path d="M15.7738 56.0601H16.654C16.7662 55.8998 16.8655 55.7082 16.9518 55.4855C17.0381 55.2628 17.1114 54.9955 17.1718 54.6837C17.2322 54.3719 17.2797 54.0022 17.3142 53.5746C17.3487 53.147 17.366 52.6437 17.366 52.0646V50.1002H21.8837V56.9955H20.8481V51.0356H18.3498V52.0913C18.3498 52.7595 18.3239 53.343 18.2721 53.8419C18.229 54.3408 18.1643 54.7684 18.078 55.1247C18.0003 55.4811 17.9054 55.7751 17.7932 56.0067C17.681 56.2294 17.5602 56.4076 17.4307 56.5412C17.2668 56.7105 17.0855 56.8307 16.8871 56.902C16.6886 56.9644 16.4512 56.9955 16.1751 56.9955H15.7738V56.0601Z" fill="#EBECF0"/>
        <path d="M28.9441 56.9955C28.5558 56.9955 28.2753 56.8886 28.1027 56.6748C27.9387 56.461 27.8352 56.1938 27.792 55.873H27.7273C27.5806 56.3007 27.339 56.6214 27.0024 56.8352C26.6659 57.049 26.2646 57.1559 25.7986 57.1559C25.0909 57.1559 24.5386 56.9688 24.1416 56.5947C23.7533 56.2205 23.5591 55.7127 23.5591 55.0713C23.5591 54.4209 23.7878 53.922 24.2452 53.5746C24.7112 53.2272 25.4318 53.0535 26.407 53.0535H27.7273V52.3719C27.7273 51.882 27.5979 51.5078 27.339 51.2494C27.0801 50.9911 26.6831 50.8619 26.1481 50.8619C25.7425 50.8619 25.4016 50.9555 25.1254 51.1425C24.8579 51.3296 24.6335 51.5791 24.4523 51.8909L23.831 51.2895C24.0122 50.9154 24.3013 50.5991 24.6983 50.3408C25.0952 50.0735 25.5958 49.9399 26.1998 49.9399C27.011 49.9399 27.641 50.1448 28.0898 50.5546C28.5385 50.9644 28.7629 51.5345 28.7629 52.265V56.0601H29.5266V56.9955H28.9441ZM25.9668 56.2472C26.2257 56.2472 26.4631 56.216 26.6788 56.1537C26.8945 56.0913 27.0801 56.0022 27.2354 55.8864C27.3908 55.7706 27.5116 55.637 27.5979 55.4855C27.6842 55.3341 27.7273 55.1693 27.7273 54.9911V53.8552H26.3552C25.7597 53.8552 25.3239 53.9443 25.0478 54.1225C24.7802 54.3007 24.6465 54.559 24.6465 54.8975V55.1782C24.6465 55.5167 24.763 55.7795 24.996 55.9666C25.2376 56.1537 25.5612 56.2472 25.9668 56.2472Z" fill="#EBECF0"/>
        <path d="M34.5937 53.8285H34.5289C34.3218 54.069 34.0672 54.2695 33.7652 54.4298C33.4632 54.5813 33.0662 54.657 32.5743 54.657C31.8925 54.657 31.3618 54.4833 30.9821 54.1359C30.6024 53.7795 30.4125 53.245 30.4125 52.5323V50.1002H31.4481V52.4388C31.4481 53.2762 31.9271 53.6949 32.885 53.6949C33.3769 53.6949 33.7825 53.6281 34.1018 53.4944C34.4297 53.3519 34.5937 53.1381 34.5937 52.853V50.1002H35.6292V56.9955H34.5937V53.8285Z" fill="#EBECF0"/>
        <path d="M37.831 50.1002H38.8665V52.9733H42.2063V50.1002H43.2418V56.9955H42.2063V53.9087H38.8665V56.9955H37.831V50.1002Z" fill="#EBECF0"/>
        <path d="M45.441 50.1002H46.4766V52.5991H48.25C48.9231 52.5991 49.4582 52.7951 49.8551 53.1871C50.2521 53.5791 50.4506 54.118 50.4506 54.804C50.4506 55.4989 50.2564 56.0379 49.8681 56.4209C49.4798 56.804 48.9447 56.9955 48.263 56.9955H45.441V50.1002ZM48.1076 56.0601C48.496 56.0601 48.798 55.9844 49.0137 55.833C49.2295 55.6815 49.3374 55.4276 49.3374 55.0713V54.51C49.3374 54.1537 49.2295 53.9042 49.0137 53.7617C48.798 53.6102 48.496 53.5345 48.1076 53.5345H46.4766V56.0601H48.1076ZM51.5768 50.1002H52.6124V56.9955H51.5768V50.1002Z" fill="#EBECF0"/>
        <path d="M54.8082 50.1002H55.8179V53.922L55.7143 55.5791H55.7661L56.5946 54.1091L59.2612 50.1002H60.2191V56.9955H59.2094V53.1737L59.313 51.5167H59.2612L58.4327 52.9866L55.7661 56.9955H54.8082V50.1002ZM57.5395 49.0312C57.0735 49.0312 56.7024 48.9376 56.4263 48.7506C56.1501 48.5546 55.9301 48.3007 55.7661 47.9889L55.5072 47.4811L56.4133 47.0668L56.8664 48.1626C56.97 48.1893 57.0822 48.2116 57.203 48.2294C57.3238 48.2383 57.436 48.2428 57.5395 48.2428C57.6431 48.2428 57.7553 48.2383 57.8761 48.2294C57.9969 48.2116 58.1091 48.1893 58.2127 48.1626L58.6657 47.0668L59.5719 47.4811L59.313 47.9889C59.149 48.3007 58.9289 48.5546 58.6528 48.7506C58.3766 48.9376 58.0056 49.0312 57.5395 49.0312Z" fill="#EBECF0"/>
        <path d="M68.7654 57.1559C67.6177 57.1559 66.7245 56.755 66.0859 55.9532C65.4473 55.1425 65.128 53.9532 65.128 52.3853C65.128 50.8174 65.4473 49.6147 66.0859 48.7773C66.7245 47.931 67.6177 47.5078 68.7654 47.5078C69.5248 47.5078 70.1591 47.686 70.6683 48.0423C71.1861 48.3987 71.5874 48.902 71.8721 49.5523L70.9919 50.1002C70.8107 49.6192 70.5345 49.2361 70.1634 48.951C69.7924 48.657 69.3263 48.51 68.7654 48.51C68.3771 48.51 68.0276 48.5857 67.7169 48.7372C67.4149 48.8886 67.156 49.1069 66.9402 49.392C66.7331 49.6682 66.5734 50.0022 66.4613 50.3942C66.3491 50.7773 66.293 51.2094 66.293 51.6904V53.0802C66.293 54.0423 66.5087 54.7951 66.9402 55.3385C67.3717 55.882 67.9801 56.1537 68.7654 56.1537C69.3436 56.1537 69.8269 56.0022 70.2152 55.6993C70.6036 55.3875 70.8883 54.9777 71.0696 54.4699L71.9369 55.0312C71.6521 55.6904 71.2422 56.2116 70.7071 56.5947C70.1721 56.9688 69.5248 57.1559 68.7654 57.1559Z" fill="#EBECF0"/>
        <path d="M73.6209 47.6682H74.7082V51.7973H76.4687L78.281 48.6036C78.4795 48.265 78.6736 48.0245 78.8635 47.882C79.0533 47.7394 79.2863 47.6682 79.5625 47.6682H80.158V48.657H79.3424L77.7373 51.49C77.582 51.7572 77.4525 51.9354 77.349 52.0245C77.254 52.1136 77.1289 52.1849 76.9736 52.2383V52.3051C77.172 52.3497 77.3446 52.4254 77.4913 52.5323C77.6381 52.6392 77.7977 52.8486 77.9703 53.1604L79.6531 56.0067H80.4427V56.9955H79.6402C79.4331 56.9955 79.2346 56.9376 79.0447 56.8218C78.8549 56.6971 78.6607 56.4655 78.4622 56.1269L76.4687 52.7595H74.7082V56.9955H73.6209V47.6682Z" fill="#EBECF0"/>
        <path d="M82.8519 56.0067H84.1593L84.5864 54.8975L81.2467 47.6682H82.4247L84.3793 51.9176L85.0525 53.5345H85.1172L85.6868 51.8909L87.3178 47.6682H88.431L85.2725 55.8062C85.1776 56.0468 85.0827 56.2472 84.9877 56.4076C84.8928 56.559 84.7806 56.6793 84.6512 56.7684C84.5217 56.8485 84.3664 56.9065 84.1852 56.9421C84.0126 56.9777 83.8055 56.9955 83.5638 56.9955H82.8519V56.0067Z" fill="#EBECF0"/>
        <path d="M88.1458 56.0067H89.0908C89.4791 55.4365 89.7769 54.706 89.984 53.8151C90.1911 52.9243 90.2947 51.7884 90.2947 50.4076V47.6682H95.7314V56.0067H97V59H96.0033V56.9955H89.1426V59H88.1458V56.0067ZM94.6441 56.0067V48.657H91.3302V50.4878C91.3302 51.9042 91.2396 53.049 91.0584 53.922C90.8858 54.7862 90.6528 55.4588 90.3594 55.9399V56.0067H94.6441Z" fill="#EBECF0"/>
    </symbol>

    <symbol id="list-icon" viewBox="0 0 24 24">
        <g clip-path="url(#clip0)">
            <path d="M3 17.8605L16.5 8.93023L3 0C3 0 5.57962 3.9982 5.57962 8.93023C5.57962 13.8623 3 17.8605 3 17.8605Z" fill="#CF8900"/>
            <path d="M3 24L21 12L3 0C3 0 6.88927 5.37258 6.88927 12C6.88927 18.6274 3 24 3 24Z" fill="#FFBA33"/>
        </g>
        <defs>
            <clipPath id="clip0">
                <rect y="24" width="24" height="24" transform="rotate(-90 0 24)" fill="white"/>
            </clipPath>
        </defs>
    </symbol>

    <symbol id="icon-tooltip" viewBox="0 0 18 18">
        <rect width="18" height="18" rx="9" fill="#FFBA33"/>
        <path d="M12.4999 8.5H9.49988V5.5H8.49988V8.5H5.49988V9.5H8.49988V12.5H9.49988V9.5H12.4999V8.5Z" fill="#00002B"/>
    </symbol>

    <symbol id="icon-tooltip-grey" viewBox="0 0 24 24">
        <path d="M12 2C6.486 2 2 6.486 2 12C2 17.514 6.486 22 12 22C17.514 22 22 17.514 22 12C22 6.486 17.514 2 12 2ZM13 17H11V11H13V17ZM13 9H11V7H13V9Z" fill="#C8CCD4"/>
    </symbol>

    <symbol id="icon-big-envelope" viewBox="0 0 262 226">
        <path d="M105.051 17.6222L144.837 160.606L261.52 68.8872C261.52 68.8872 219.146 79.835 175.939 65.6786C132.731 51.5222 105.051 17.6222 105.051 17.6222Z" fill="#CF8900"/>
        <path d="M51.2649 -0.00014889L105.127 190.912L261.52 68.8872C261.52 68.8872 203.376 87.2746 145.316 68.2519C87.2553 49.2291 51.2649 -0.00014889 51.2649 -0.00014889Z" fill="#FFBA33"/>
    </symbol>

    <symbol id="bracket-big" viewBox="0 0 441 12">
        <path d="M440 12.5V9C440 4.58172 436.418 1 432 1H9C4.58172 1 1 4.58172 1 9V12.5" stroke="#FFBA33"/>
    </symbol>

    <symbol id="bracket-small" viewBox="0 0 222 13">
        <path d="M221 12.5V9C221 4.58172 217.418 1 213 1H9C4.58172 1 1 4.58172 1 9V12.5" stroke="#FFBA33"/>
    </symbol>

    <symbol id="arrow-dropdown" viewBox="0 0 24 24">
        <path d="M7.70703 9.29297L12 13.586L16.293 9.29297L17.707 10.707L12 16.414L6.29303 10.707L7.70703 9.29297Z"/>
    </symbol>

    <symbol id="x.seven-logo" viewBox="0 0 74 12">
        <path fill-rule="evenodd" clip-rule="evenodd" d="M19.2954 10.955V7.82564L20.0444 8.26384C21.1783 8.92725 22.2037 9.2549 23.441 9.2549C24.1488 9.2549 24.5715 9.13565 24.8065 8.97274C25.0037 8.83596 25.1216 8.63219 25.1216 8.25548C25.1216 8.15004 25.1019 8.09269 25.0807 8.05443C25.058 8.01337 25.0133 7.95825 24.9117 7.88795C24.6857 7.73162 24.3098 7.5834 23.6719 7.35395L22.3667 6.88595C21.5693 6.58792 20.8711 6.20879 20.3719 5.65735C19.8582 5.08988 19.5888 4.37721 19.5888 3.49038C19.5888 2.43819 19.9666 1.54061 20.7491 0.920239C21.5134 0.314248 22.6029 0.0211777 23.944 0.0211777C25.1187 0.0211777 26.3112 0.266535 27.2884 0.648054L27.6075 0.772663V3.81817L26.8965 3.48092C25.9159 3.01577 25.0878 2.76628 23.9859 2.76628C23.3814 2.76628 22.9991 2.8646 22.781 3.00641C22.6028 3.12225 22.4939 3.2909 22.4939 3.61745C22.4939 3.71788 22.5081 3.77141 22.5222 3.80392C22.5352 3.83374 22.56 3.87363 22.6248 3.92786C22.7774 4.05551 23.0705 4.20006 23.6534 4.41426L23.658 4.41594L24.8549 4.88277L24.856 4.88318C25.8177 5.25297 26.6209 5.62044 27.1767 6.14508C27.7689 6.70407 28.0476 7.40638 28.0476 8.3402C28.0476 9.54917 27.5711 10.4914 26.7092 11.1122C25.8721 11.7151 24.7228 11.9788 23.42 11.9788C22.1437 11.9788 20.7406 11.7133 19.5645 11.0961L19.2954 10.955ZM39.2595 10.5257L39.025 10.6738C38.1402 11.2327 36.7277 12 34.4014 12C32.5562 12 31.0796 11.3748 30.0672 10.2746C29.0597 9.17974 28.5583 7.66534 28.5583 5.96823C28.5583 4.36561 29.0819 2.87129 30.0935 1.77291C31.11 0.669163 32.5877 0 34.4224 0C36.0566 0 37.4033 0.511659 38.3398 1.49716C39.2735 2.4798 39.7415 3.87262 39.7415 5.52349V5.53966C39.7416 5.75021 39.7416 6.33151 39.7181 6.56904L39.6732 7.02311H31.4722C31.5775 7.5727 31.8432 8.06001 32.2444 8.43667C32.7661 8.9263 33.5457 9.2549 34.5691 9.2549C35.6024 9.2549 36.3365 9.0899 36.9231 8.85803C37.4881 8.63474 37.9321 8.34461 38.4134 8.03005C38.4388 8.01348 38.4642 7.99684 38.4898 7.98015L39.2595 7.47781V10.5257ZM31.0272 4.9305H37.4612C37.4612 4.75791 37.4472 4.58943 37.4198 4.42625C37.1982 3.10766 36.0985 2.13497 34.4014 2.13497C32.6908 2.13497 31.4691 3.021 31.1145 4.42625C31.0738 4.58767 31.0445 4.75594 31.0272 4.9305ZM46.3095 11.767H43.9586L38.9963 0.275317H42.1405L42.2705 0.579891C43.9744 4.57274 44.7437 6.39649 45.2049 7.54375C45.6494 6.42082 46.3932 4.62476 48.1017 0.581542L48.2311 0.275317H51.2718L46.3095 11.767ZM61.3328 10.5257L61.0982 10.6738C60.2134 11.2327 58.801 12 56.4746 12C54.6295 12 53.1529 11.3748 52.1404 10.2746C51.1329 9.17974 50.6315 7.66534 50.6315 5.96823C50.6315 4.36561 51.1552 2.87129 52.1668 1.77291C53.1833 0.669163 54.661 0 56.4956 0C58.1298 0 59.4766 0.511659 60.413 1.49716C61.3468 2.4798 61.8148 3.87262 61.8148 5.52349V5.53966C61.8148 5.75021 61.8149 6.33151 61.7914 6.56904L61.7464 7.02311H53.5455C53.6508 7.5727 53.9164 8.06001 54.3177 8.43667C54.8393 8.9263 55.6189 9.2549 56.6423 9.2549C57.6756 9.2549 58.4097 9.0899 58.9964 8.85803C59.5613 8.63474 60.0053 8.34462 60.4866 8.03006C60.512 8.01349 60.5375 7.99685 60.5631 7.98015L61.3328 7.47781V10.5257ZM53.1005 4.9305H59.5344C59.5344 4.75791 59.5204 4.58943 59.493 4.42625C59.2714 3.10766 58.2219 2.1864 56.5248 2.1864C54.8142 2.1864 53.5424 3.021 53.1878 4.42625C53.1471 4.58767 53.1178 4.75594 53.1005 4.9305ZM65.7677 11.767H62.9045V0.275317H65.7258V1.27326C66.5953 0.52971 67.822 0.0423558 69.1249 0.0423558C70.8234 0.0423558 72.1363 0.671244 72.8336 2.00183C73.0528 2.40735 73.1732 2.91477 73.2417 3.39138C73.3117 3.87784 73.3333 4.37462 73.3333 4.78225V11.767H70.4911V5.29053C70.4911 4.93676 70.471 4.5794 70.4191 4.26036C70.3662 3.93491 70.2858 3.68419 70.1866 3.5196L70.1835 3.51434L70.1804 3.50902C69.9062 3.02771 69.3649 2.76628 68.5381 2.76628C67.7114 2.76628 66.671 3.21275 66.1504 4.037L66.1461 4.04379L66.1416 4.05043C65.9328 4.35879 65.7677 4.80728 65.7677 5.48113V11.767Z" fill="white"/>
        <path fill-rule="evenodd" clip-rule="evenodd" d="M3.37647 11.7671H0L4.51255 5.8413L0.272171 0.275391H3.75512L3.90488 0.474604C4.88455 1.77776 5.49597 2.56866 5.90687 3.10018L5.96248 3.17211C6.12464 3.38191 6.2561 3.55219 6.36773 3.69989C6.74973 3.19339 7.38865 2.35557 8.83456 0.470701L8.98438 0.275391H12.3735L8.09957 5.76164L12.6253 11.7671H9.2159L9.06606 11.5731C7.45947 9.49244 6.74297 8.55665 6.288 7.93839C6.06935 8.22857 5.80689 8.57287 5.42491 9.07396C4.98707 9.64834 4.39219 10.4287 3.52626 11.5697L3.37647 11.7671Z" fill="white"/>
        <path fill-rule="evenodd" clip-rule="evenodd" d="M16.9882 10.2037C16.9882 11.1642 16.2362 11.9786 15.2736 11.9786C14.3 11.9786 13.5801 11.1525 13.5801 10.2037C13.5801 9.25482 14.3 8.42871 15.2736 8.42871C16.2362 8.42871 16.9882 9.24311 16.9882 10.2037Z" fill="#FF6433"/>
    </symbol>

    <symbol id="icon-presentation" viewBox="0 0 24 24">
        <path d="M24 12C24 15.2767 22.6864 18.2474 20.5572 20.4128C18.3801 22.6271 15.3502 24 12 24C8.64933 24 5.61942 22.6266 3.44227 20.4122C1.31316 18.2468 0 15.2767 0 12C0 8.72325 1.31316 5.75316 3.44227 3.58777C4.46887 2.54353 5.68505 1.68637 7.03491 1.07217C8.54794 0.383531 10.2289 0 12 0C18.6274 0 24 5.37258 24 12Z" fill="white"/>
        <path d="M20.5572 6.85678V20.4128C18.3801 22.6272 15.3502 24.0001 12 24.0001C8.64932 24.0001 5.61942 22.6267 3.44226 20.4124V2.5838C3.44226 1.74919 4.11867 1.07227 4.95379 1.07227H14.7737L20.5572 6.85678Z" fill="#FFBA33"/>
        <path d="M20.5574 6.85674V11.7047L15.4713 6.61857L16.0018 5.96387L20.5574 6.85674Z" fill="#DA9E2B"/>
        <path d="M20.5573 6.85664H16.2852C15.4504 6.85664 14.7738 6.17995 14.7738 5.34525V1.07227L20.5573 6.85664Z" fill="#FFDA92"/>
        <path d="M16.319 11.5342H7.68048V12.6241H16.319V11.5342Z" fill="#00002B"/>
        <path d="M13.0143 17.2212H7.68048V18.3111H13.0143V17.2212Z" fill="#00002B"/>
        <path d="M16.319 15.3252H7.68048V16.4151H16.319V15.3252Z" fill="#00002B"/>
        <path d="M16.319 13.4297H7.68048V14.5196H16.319V13.4297Z" fill="#00002B"/>
    </symbol>

    <symbol id="icon-instruction" viewBox="0 0 24 24">
        <path d="M24 12C24 15.2767 22.6864 18.2474 20.5572 20.4128C18.3801 22.6271 15.3502 24 12 24C8.64933 24 5.61942 22.6266 3.44227 20.4122C1.31316 18.2468 0 15.2767 0 12C0 8.72325 1.31316 5.75316 3.44227 3.58777C4.46887 2.54353 5.68505 1.68637 7.03491 1.07217C8.54794 0.383531 10.2289 0 12 0C18.6274 0 24 5.37258 24 12Z" fill="white"/>
        <path d="M20.5572 6.85678V20.4128C18.3801 22.6272 15.3502 24.0001 12 24.0001C8.64932 24.0001 5.61942 22.6267 3.44226 20.4124V2.5838C3.44226 1.74919 4.11867 1.07227 4.95379 1.07227H14.7737L20.5572 6.85678Z" fill="#58637E"/>
        <path d="M20.5574 6.85674V11.7047L15.4713 6.61857L16.0018 5.96387L20.5574 6.85674Z" fill="#00002B"/>
        <path d="M20.5573 6.85664H16.2852C15.4504 6.85664 14.7738 6.17995 14.7738 5.34525V1.07227L20.5573 6.85664Z" fill="#434B5E"/>
        <path d="M16.319 11.5342H7.68042V12.6241H16.319V11.5342Z" fill="#00002B"/>
        <path d="M13.0143 17.2217H7.68042V18.3116H13.0143V17.2217Z" fill="#00002B"/>
        <path d="M16.319 15.3252H7.68042V16.4151H16.319V15.3252Z" fill="#00002B"/>
        <path d="M16.319 13.4297H7.68042V14.5196H16.319V13.4297Z" fill="#00002B"/>
    </symbol>

    <symbol id="icon-holding" viewBox="0 0 24 24">
        <path d="M23.0007 19.1628L24.0366 18.0286H16.4957C14.9022 17.9822 13.3895 17.3167 12.2788 16.1732C11.1681 15.0297 10.5468 13.4983 10.5468 11.9042C10.5468 10.31 11.1681 8.77866 12.2788 7.63518C13.3895 6.4917 14.9022 5.8261 16.4957 5.77975H24.0521L23.0163 4.64551H16.4957C14.5664 4.64551 12.7162 5.41189 11.352 6.7761C9.98788 8.14026 9.22144 9.99048 9.22144 11.9197C9.22144 13.849 9.98788 15.6992 11.352 17.0633C12.7162 18.4275 14.5664 19.1939 16.4957 19.1939L23.0007 19.1628Z" />
        <path d="M20.9136 21.3849L21.9857 20.2403H14.1341C11.9442 20.1859 9.86236 19.2777 8.33278 17.7097C6.80319 16.1417 5.94704 14.0379 5.94704 11.8474C5.94704 9.65685 6.80319 7.55307 8.33278 5.98505C9.86236 4.417 11.9442 3.50887 14.1341 3.45447H21.9339L20.8618 2.30469H14.1288C11.5986 2.30469 9.17212 3.3098 7.38298 5.09892C5.59386 6.88803 4.58875 9.31461 4.58875 11.8448C4.58875 14.375 5.59386 16.8015 7.38298 18.5907C9.17212 20.3798 11.5986 21.3849 14.1288 21.3849H20.9136Z" />
        <path d="M19.8364 22.5451H11.8448C9.04842 22.4836 6.38724 21.3295 4.43126 19.33C2.47528 17.3305 1.38 14.6446 1.38 11.8474C1.38 9.05034 2.47528 6.36438 4.43126 4.36491C6.38724 2.36542 9.04842 1.21132 11.8448 1.14979H19.7846L18.7177 0H11.8448C8.70342 0 5.69062 1.24793 3.46928 3.46928C1.24793 5.69062 0 8.70342 0 11.8448C0 14.9863 1.24793 17.9991 3.46928 20.2204C5.69062 22.4417 8.70342 23.6897 11.8448 23.6897H18.7694L19.8364 22.5451Z" />
    </symbol>

    <symbol id="icon-Wi-Fi" viewBox="0 0 24 24">
        <path d="M12 6C15.537 6 18.837 7.353 21.293 9.809L22.707 8.395C19.874 5.561 16.071 4 12 4C7.92903 4.001 4.12603 5.561 1.29303 8.395L2.70703 9.809C5.16303 7.353 8.46303 6 12 6ZM17.671 14.307C14.597 11.233 9.40303 11.233 6.32903 14.307L7.74303 15.721C10.05 13.414 13.95 13.414 16.257 15.721L17.671 14.307Z"/>
        <path d="M20.437 11.2928C15.865 6.7188 8.13603 6.7188 3.56403 11.2928L4.97803 12.7068C8.78503 8.8998 15.216 8.8998 19.023 12.7068L20.437 11.2928Z" />
        <path d="M12 20C13.1046 20 14 19.1046 14 18C14 16.8954 13.1046 16 12 16C10.8954 16 10 16.8954 10 18C10 19.1046 10.8954 20 12 20Z" />
    </symbol>

    <symbol id="icon-camera" viewBox="0 0 24 24">
        <path d="M18 7C18 5.897 17.103 5 16 5H4C2.897 5 2 5.897 2 7V17C2 18.103 2.897 19 4 19H16C17.103 19 18 18.103 18 17V13.667L22 17V7L18 10.333V7Z" />
    </symbol>

    <symbol id="icon-camReport" viewBox="0 0 15 20">
        <path d="M7.712 20.472C6.47467 20.472 5.376 20.2693 4.416 19.864C3.456 19.4587 2.64533 18.872 1.984 18.104C1.344 17.336 0.853333 16.4187 0.512 15.352C0.170667 14.264 0 13.048 0 11.704C0 10.36 0.170667 9.15467 0.512 8.088C0.853333 7.02134 1.344 6.11467 1.984 5.368C2.64533 4.6 3.456 4.01333 4.416 3.608C5.376 3.20267 6.47467 3 7.712 3C9.39733 3 10.784 3.37333 11.872 4.12C12.9813 4.86667 13.7813 5.90133 14.272 7.224L10.912 8.728C10.72 8.024 10.3573 7.448 9.824 7C9.312 6.53067 8.608 6.296 7.712 6.296C6.56 6.296 5.696 6.65867 5.12 7.384C4.56533 8.10933 4.288 9.05867 4.288 10.232V13.272C4.288 14.4453 4.56533 15.3947 5.12 16.12C5.696 16.824 6.56 17.176 7.712 17.176C8.69333 17.176 9.45067 16.9307 9.984 16.44C10.5173 15.928 10.9333 15.2987 11.232 14.552L14.368 16.056C13.8133 17.528 12.9707 18.6373 11.84 19.384C10.7093 20.1093 9.33333 20.472 7.712 20.472Z"/>
        <rect x="14.752" width="4" height="4" rx="2"/>
    </symbol>

    <symbol id="icon-GR" viewBox="0 0 24 22">
        <path fill-rule="evenodd" clip-rule="evenodd" d="M2.20286 19.9375H23.04V2.12025H2.20286V19.9375ZM24.1414 22.0577H0V0H25.2429V22.0577H24.1414Z"/>
        <path fill-rule="evenodd" clip-rule="evenodd" d="M9.94863 17.0155C6.45363 17.0155 4.09863 14.5563 4.09863 11.0198C4.09863 7.51905 6.4522 5.04199 9.96506 5.04199H16.9651C19.4272 5.04199 21.0493 6.94155 21.0493 9.16837C21.0493 11.2866 19.5943 12.7028 18.0836 12.9359L21.1422 17.0155H18.6058C17.2186 15.0094 16.0451 13.3511 14.7272 11.3196H16.6843C17.9151 11.3196 18.8108 10.3165 18.8108 9.1498C18.8108 8.00099 17.9151 6.89068 16.6843 6.89068H9.94649C7.45935 6.89068 6.11363 8.72149 6.11363 11.0191C6.11363 13.2989 7.52578 15.1661 9.96292 15.1661H11.4986V9.57399H13.6943L13.6929 12.5454H13.6908V17.0148H9.94863V17.0155Z"/>
    </symbol>

    <symbol id="icon-tell" viewBox="0 0 24 24">
        <path d="M20.487 17.1399L16.422 13.4439C16.023 13.0809 15.407 13.0999 15.031 13.4869L12.638 15.9479C12.062 15.8379 10.904 15.4769 9.71198 14.2879C8.51998 13.0949 8.15898 11.9339 8.05198 11.3619L10.511 8.96788C10.899 8.59188 10.917 7.97688 10.554 7.57688L6.85898 3.51288C6.49598 3.11188 5.87898 3.07388 5.46798 3.42588L3.29798 5.28688C3.12498 5.46088 3.02198 5.69088 3.00798 5.93588C2.99298 6.18588 2.70698 12.1079 7.29898 16.7019C11.305 20.7069 16.323 20.9999 17.705 20.9999C17.907 20.9999 18.031 20.9939 18.064 20.9919C18.309 20.9779 18.539 20.8749 18.712 20.7009L20.572 18.5299C20.926 18.1189 20.887 17.5029 20.487 17.1399Z"/>
    </symbol>

    <symbol id="menu-hamburger" viewBox="0 0 32 32">
        <path d="M5.33333 8H26.6667V10.6667H5.33333V8ZM5.33333 14.6667H26.6667V17.3333H5.33333V14.6667ZM5.33333 21.3333H26.6667V24H5.33333V21.3333Z"/>
    </symbol>

    <symbol id="btn-popup-close" viewBox="0 0 56 56">
        <path d="M37.7814 14.8027L27.881 24.7007L17.983 14.8027L14.6837 18.102L24.5817 28L14.6837 37.898L17.983 41.1973L27.881 31.2993L37.7814 41.1973L41.0807 37.898L31.1827 28L41.0807 18.102L37.7814 14.8027Z"/>
    </symbol>

    <symbol id="icon-close-notification" viewBox="0 0 24 24">
        <path d="M9.17206 16.242L12.0001 13.414L14.8281 16.242L16.2421 14.828L13.4141 12L16.2421 9.172L14.8281 7.758L12.0001 10.586L9.17206 7.758L7.75806 9.172L10.5861 12L7.75806 14.828L9.17206 16.242Z" fill="#EB6D61"/>
        <path d="M12 22C17.514 22 22 17.514 22 12C22 6.486 17.514 2 12 2C6.486 2 2 6.486 2 12C2 17.514 6.486 22 12 22ZM12 4C16.411 4 20 7.589 20 12C20 16.411 16.411 20 12 20C7.589 20 4 16.411 4 12C4 7.589 7.589 4 12 4Z" fill="#EB6D61"/>
    </symbol>

    <symbol id="envelope-pro" viewBox="0 0 39 33">
        <path d="M15.3354 2.57252L21.1433 23.4453L38.1766 10.0562C38.1766 10.0562 31.9909 11.6543 25.6835 9.58778C19.3761 7.52123 15.3354 2.57252 15.3354 2.57252Z" fill="#CF8900"/>
        <path d="M7.48366 1.59891e-05L15.3465 27.8694L38.1766 10.0562C38.1766 10.0562 29.6888 12.7404 21.2132 9.96342C12.7375 7.18649 7.48366 1.59891e-05 7.48366 1.59891e-05Z" fill="#FFBA33"/>
    </symbol>
</svg>