<svg width="1245" height="780" fill="none" xmlns="http://www.w3.org/2000/svg"><g opacity=".16" stroke="#fff" stroke-width=".25" stroke-miterlimit="10"><path d="M813.616 635.34c119.031-101.21 67.816-413.316 172.542-298.153 104.722 114.987 344.382 291.971 225.342 393.18-119.03 101.209-287.33 6.712-438.857-38.152-300.227-89.022-78.059 44.157 40.973-56.875z"/><path d="M817.324 634.633c117.619-100.15 71.525-413.492 175.015-299.566C1095.83 448.994 1322.24 627.391 1204.62 727.54c-117.62 100.15-284.336 7.949-433.39-37.445-292.456-89.375-71.701 44.687 46.094-55.462z"/><path d="M820.856 634.103c116.383-98.913 75.41-413.669 177.664-301.155 102.43 112.514 315.59 292.677 199.21 391.59-116.38 98.913-281.331 9.361-427.736-36.739-284.862-89.552-65.52 45.217 50.862-53.696z"/><path d="M824.388 633.397c115.146-97.853 79.119-413.845 180.312-302.568 101.2 111.277 301.11 293.03 185.97 390.883-115.15 97.853-278.333 10.598-422.265-36.032-276.916-89.905-58.986 45.57 55.983-52.283z"/><path d="M828.097 632.867c113.733-96.794 82.827-414.022 182.963-303.981 100.13 110.04 286.63 293.383 172.89 390-113.73 96.793-275.321 12.011-416.605-35.326-269.321-90.082-52.981 45.924 60.752-50.693z"/><path d="M831.629 632.16c112.497-95.557 86.713-414.198 185.611-305.394 98.9 108.804 272.32 293.736 159.83 389.47-112.5 95.734-272.327 13.247-411.138-34.619-261.551-90.612-46.8 46.1 65.697-49.457z"/><path d="M835.161 631.63c111.084-94.497 90.422-414.374 188.079-306.807 97.67 107.392 257.85 294.09 146.76 388.587-111.08 94.498-269.142 14.661-405.657-33.913-253.604-90.611-40.266 46.454 70.818-47.867z"/><path d="M838.87 630.924C948.718 537.487 933 216.372 1029.6 322.527c96.6 106.155 243.54 294.443 133.69 387.881-109.85 93.437-266.141 16.073-400.007-33.207-246.186-90.611-34.261 47.161 75.587-46.277z"/><path d="M842.402 630.394c108.435-92.201 97.839-414.728 193.378-309.81 95.37 104.919 229.06 294.973 120.62 387.174-108.43 92.201-263.136 17.31-394.53-32.5-238.415-90.965-27.903 47.337 80.532-44.864z"/><path d="M845.934 629.687c107.199-91.141 101.724-414.904 196.026-311.222 94.31 103.682 214.58 295.326 107.38 386.467-107.2 91.141-260.138 18.723-388.882-31.794-230.645-90.964-21.723 47.691 85.476-43.451z"/><path d="M849.643 629.157c105.962-90.081 105.432-415.081 198.507-312.636 93.07 102.269 200.26 295.68 94.3 385.585-105.96 90.081-256.957 20.135-383.405-31.264-223.051-90.788-15.365 48.22 90.598-41.685z"/><path d="M853.175 628.451c104.55-88.845 109.141-415.258 201.155-314.049 92.01 101.033 185.78 296.033 81.23 384.878-104.54 88.845-253.952 21.725-377.751-30.557-215.458-90.612-9.184 48.573 95.366-40.272z"/><path d="M856.707 627.921c103.313-87.785 113.027-415.435 203.803-315.639 90.77 99.797 171.48 296.386 68.17 384.172-103.32 87.785-250.957 23.138-372.284-29.851-207.687-90.611-2.826 49.103 100.311-38.682z"/><path d="M860.416 627.214c101.9-86.725 116.735-415.611 206.274-317.051 89.71 98.56 157 296.739 55.1 383.465-101.9 86.725-247.776 24.551-366.63-29.144-200.093-90.435 3.355 49.456 105.256-37.27z"/><path d="M863.948 626.685c100.664-85.489 120.444-415.788 208.922-318.465 88.48 97.324 142.52 297.093 42.03 382.582-100.66 85.489-244.771 26.141-361.153-28.438-192.322-90.081 9.536 49.81 110.201-35.679z"/><path d="M867.656 625.978c99.252-84.429 124.33-415.965 211.574-319.878 87.42 96.087 128.21 297.446 28.78 381.875-99.25 84.43-241.767 27.731-355.5-27.731-184.904-89.905 15.718 50.163 115.146-34.266z"/><path d="M871.188 625.448c98.016-83.369 128.038-416.141 214.222-321.291 86.18 94.674 113.73 297.799 15.72 381.169-98.02 83.37-238.595 29.321-350.032-27.025-177.134-89.728 22.075 50.34 120.09-32.853z"/><path d="M874.721 624.742c96.779-82.133 131.749-416.318 216.869-322.881 85.12 93.438 99.43 298.153 2.65 380.462-96.78 82.134-235.59 30.911-344.379-26.318-169.716-89.021 28.257 51.047 124.86-31.263z"/><path d="M878.429 624.212c95.366-81.074 135.451-416.495 219.341-324.294 83.89 92.201 84.95 298.506-10.42 379.579-95.364 81.074-232.586 32.5-338.902-25.611-161.946-88.492 34.438 51.399 129.981-29.674z"/><path d="M881.961 623.505c94.13-80.013 139.339-416.671 221.989-325.706 82.83 90.965 70.47 298.859-23.49 378.872-94.126 80.014-229.581 34.267-333.248-24.905-154.528-87.962 40.619 51.753 134.749-28.261z"/><path d="M885.493 622.975c92.718-78.953 143.047-416.848 224.637-327.119 81.6 89.728 56.16 299.212-36.73 378.166-92.717 78.953-226.583 35.856-327.777-24.199-146.758-87.432 47.153 51.93 139.87-26.848z"/><path d="M889.202 622.269c91.481-77.717 146.758-417.024 227.288-328.533 80.36 88.316 41.68 299.742-49.8 377.46-91.482 77.717-223.582 37.622-322.127-23.492-139.694-86.726 53.158 52.282 144.639-25.435z"/><path d="M892.734 621.739c90.068-76.658 150.646-417.201 229.936-330.122 79.3 87.079 27.38 300.095-62.87 376.752-90.066 76.658-220.753 39.566-316.65-22.785-132.1-86.019 59.516 52.813 149.584-23.845z"/><path d="M896.266 621.033c88.832-75.598 154.354-417.378 232.414-331.536 78.06 85.843 12.89 300.449-75.94 375.87-88.834 75.598-217.755 41.508-311.002-22.079-124.683-84.959 65.696 53.343 154.528-22.255z"/><path d="M899.975 620.503c87.596-74.362 158.065-417.555 235.065-332.949 76.99 84.606-1.59 300.802-89.01 375.164-87.599 74.361-214.931 43.451-305.529-21.373-117.441-84.076 71.878 53.519 159.474-20.842z"/><path d="M903.507 619.796c86.183-73.302 161.773-417.731 237.713-334.361 75.76 83.369-15.9 301.154-102.08 374.456-86.184 73.302-212.103 45.394-299.875-20.666-110.378-83.016 78.059 53.872 164.242-19.429z"/><path d="M907.039 619.266c84.947-72.242 165.651-417.907 240.361-335.774 74.7 82.133-30.38 301.508-115.33 373.75-84.942 72.242-209.448 47.513-294.394-19.96-102.961-82.133 84.593 54.049 169.363-18.016z"/><path d="M910.748 618.56c83.534-71.006 169.362-418.084 242.832-337.364 73.47 80.72-44.86 301.861-128.39 372.867-83.536 71.005-206.806 49.633-288.75-19.253-96.073-80.72 90.598 54.932 174.308-16.25z"/><path d="M914.28 618.03c82.298-69.946 173.07-418.261 245.48-338.777 72.41 79.483-59.16 302.214-141.46 372.16-82.298 69.945-204.331 51.929-283.273-18.546-89.009-79.661 96.955 55.108 179.253-14.837z"/><path d="M917.812 617.323c80.885-68.886 176.958-418.437 248.128-340.19 71.17 78.247-73.64 302.568-154.53 371.454-80.882 68.886-202.033 54.225-277.62-17.84-82.297-78.424 103.137 55.462 184.022-13.424z"/><path d="M921.521 616.794c79.649-67.65 180.669-418.615 250.779-341.604 70.11 77.011-87.95 302.921-167.6 370.748-79.647 67.649-199.738 56.698-272.146-17.134-75.587-77.187 109.318 55.639 188.967-12.01z"/><path d="M925.053 616.087c78.407-66.59 184.377-418.791 253.247-343.016 68.88 75.774-102.43 303.274-180.663 369.864-78.236 66.589-197.62 59.171-266.672-16.427-68.876-75.774 115.852 56.169 194.088-10.421zM464.292 99.973c-135.985 78.424-144.638 394.239-225.876 262.649C157.178 231.033-90.951 172.921 45.211 94.497 181.372 16.073 374.93-19.428 515.508 51.4c278.151 140.244 84.946-30.027-51.216 48.573z"/><path d="M460.76 99.973c-134.572 77.541-148.524 393.886-228.702 263.709C151.703 233.505-80.532 171.685 52.981 93.084 186.494 14.307 378.463-17.31 516.391 53.696c270.557 139.361 78.942-31.44-55.631 46.277z"/><path d="M457.052 99.796c-133.16 76.835-152.233 393.356-231.528 264.769C146.052 235.978-70.112 170.272 60.752 91.671 191.616 12.718 381.995-15.19 517.274 55.992c262.963 138.302 72.937-32.853-60.222 43.804z"/><path d="M453.343 99.796c-131.57 75.951-155.942 392.826-234.354 265.652C140.577 238.274-59.692 168.859 68.346 90.082c128.391-79.13 317.181-103.153 449.811-31.794 255.369 137.242 66.756-34.266-64.814 41.508z"/><path d="M449.811 99.796c-130.157 75.068-159.65 392.473-237.356 266.712C134.926 240.747-49.273 167.622 76.116 88.668 201.86 9.361 389.06-10.773 519.216 60.584c247.599 136.182 60.576-35.856-69.405 39.212z"/><path d="M446.102 99.796C317.534 173.981 282.743 491.74 206.097 367.391 129.274 243.044-39.03 166.209 83.887 87.255 206.98 7.772 392.591-8.655 520.099 63.057c240.182 134.946 54.571-37.446-73.997 36.74z"/><path d="M442.393 99.796c-127.155 73.302-167.067 391.413-242.83 268.478C123.623 245.516-28.61 164.973 91.658 85.666c120.62-79.66 304.465-92.201 429.324-20.49 232.588 133.886 48.566-38.681-78.589 34.62z"/><path d="M438.861 99.796C313.296 172.215 268.085 490.68 193.028 369.334 118.148 247.813-18.19 163.56 99.428 84.253 217.4 4.239 399.655-4.592 522.042 67.473c224.817 132.649 42.385-40.095-83.181 32.323z"/><path d="M435.153 99.62C311 171.155 260.668 489.973 186.494 370.04 112.497 250.109-7.771 162.147 107.022 82.663 222.521 2.65 403.187-2.473 522.748 69.946c217.4 131.236 36.557-41.862-87.595 29.674z"/><path d="M431.444 99.62c-122.563 70.652-178.37 390-251.484 271.481C106.845 252.582 2.649 160.91 114.793 81.427c112.85-80.367 291.75-81.78 408.838-9.185 209.806 130 30.376-43.275-92.187 27.378z"/><path d="M427.912 99.62c-121.15 69.769-182.079 389.47-254.31 272.364-72.231-116.93-160.71-212.487-51.039-292.147C232.764-.707 410.252 1.59 524.691 74.538c202.212 128.587 24.195-44.687-96.779 25.082z"/><path d="M424.203 99.62c-119.561 68.885-185.787 388.94-257.135 273.424-71.349-115.517-143.756-214.96-36.734-294.62 107.728-80.897 283.45-74.715 395.24-1.59 194.618 127.174 18.19-46.1-101.371 22.786z"/><path d="M420.495 99.62c-117.972 68.002-189.497 388.41-259.962 274.307C90.068 259.823 33.731 156.848 137.928 77.011c105.079-81.073 279.211-71.182 388.529 2.12 187.201 125.76 12.186-47.69-105.962 20.489z"/><path d="M416.963 99.62C300.227 166.739 223.581 487.5 154.175 374.81 84.593 262.12 44.151 155.435 145.698 75.598 248.129-5.652 420.671 7.772 527.34 81.603c179.783 124.172 6.181-49.28-110.377 18.017z"/><path d="M413.254 99.62C298.108 165.856 216.34 486.97 147.641 375.87c-68.699-111.101-93.07-221.672 5.828-301.862 99.958-81.426 270.734-64.47 374.754 9.715 172.366 122.758.177-50.516-114.969 15.897z"/><path d="M409.545 99.443c-113.556 65.53-200.622 386.997-268.438 277.133C73.291 266.712 64.99 152.962 161.24 72.596c97.485-81.427 266.672-60.938 368.043 13.423 164.771 121.169-6.181-52.106-119.738 13.424z"/><path d="M406.013 99.443C293.869 164.09 201.505 486.087 134.572 377.636 67.639 269.362 75.41 151.549 168.834 71.182c95.013-81.78 262.434-57.758 361.332 17.31C687.52 207.717 517.98 34.796 406.013 99.443z"/><path d="M402.304 99.443C291.75 163.207 194.088 485.557 128.215 378.519c-66.05-106.861-42.385-228.206 48.389-308.75 92.364-81.957 258.372-54.402 354.445 21.02 149.937 117.458-18.19-55.11-128.745 8.654z"/><path d="M398.596 99.443C289.454 162.323 186.671 485.027 121.68 379.58 56.513 274.131 96.25 148.9 184.375 68.179c89.715-82.133 254.133-51.046 347.557 24.729 142.696 115.869-24.195-56.345-133.336 6.535z"/><path d="M395.064 99.443C287.512 161.44 179.43 484.497 115.323 380.462c-64.108-104.035-8.831-232.799 76.822-313.696C279.388-15.544 442.04 18.9 532.991 95.38c135.279 113.751-30.376-58.11-137.927 4.063z"/><path d="M391.355 99.443c-106.139 61.114-219.343 384.525-282.743 281.902-63.225-102.622 8.3-235.095 91.127-316.168C284.333-17.31 445.572 20.666 533.698 97.5c128.215 111.984-36.204-59.348-142.343 1.943z"/><path d="M387.646 99.266c-104.55 60.408-223.051 384.172-285.392 283.139C39.736 281.196 127.332 144.837 207.51 63.94c82.121-82.84 241.948-41.508 327.247 36.033 120.798 109.864-42.561-60.938-147.111-.707z"/><path d="M384.114 99.266C280.977 158.791 157.178 482.908 95.719 383.288 34.261 283.668 137.751 143.6 215.28 62.35c79.472-83.016 237.71-38.328 320.36 39.919 113.733 107.745-48.566-62.35-151.526-3.003z"/><path d="M380.405 99.266C278.858 157.909 149.76 482.379 89.185 384.171 28.61 285.965 147.994 142.188 223.051 60.938c76.823-83.193 233.824-35.15 313.472 43.627 106.669 105.625-54.57-63.94-156.118-5.299z"/><path d="M376.697 99.266C276.562 157.025 142.52 481.848 82.827 385.231c-59.692-96.617 75.41-244.633 147.995-325.707 73.997-83.546 229.938-32.146 306.761 47.514 99.605 103.329-60.752-65.53-160.886-7.772z"/><path d="M373.165 99.266c-98.722 56.875-238.063 382.052-296.872 286.848-58.81-95.38 92.364-246.752 162.299-328.002 71.525-83.9 226.054-29.321 299.874 51.222 92.717 101.033-66.756-66.943-165.301-10.068z"/><path d="M369.456 99.266c-97.132 55.992-241.771 381.699-299.697 287.731C11.832 293.03 179.077 137.948 246.186 56.522c68.876-84.076 222.345-26.318 292.987 54.932 86.006 98.913-72.585-68.18-169.717-12.188z"/><path d="M365.747 99.09c-95.543 55.285-245.48 381.345-302.523 288.79C6.181 295.326 189.32 136.535 253.957 55.109c66.403-84.253 218.636-23.492 286.275 58.818 79.119 96.263-78.765-69.946-174.485-14.837z"/><path d="M362.215 99.09c-94.13 54.225-249.188 380.638-305.348 289.674-56.16-90.965 143.049-253.642 204.86-335.245 63.754-84.252 215.104-20.666 279.388 62.704 72.584 93.967-84.946-71.359-178.9-17.133z"/><path d="M358.507 99.09c-92.541 53.342-252.898 380.285-308.175 290.734C-4.945 300.272 210.16 133.886 269.498 52.106 330.603-32.5 481.246 34.09 542.175 118.343c65.873 91.671-91.128-72.596-183.668-19.253z"/><path d="M354.798 99.09c-91.128 52.459-256.606 379.755-311 291.617-54.394-87.962 176.781-258.057 233.294-340.014 58.633-84.783 208.57-15.367 265.966 70.122 59.516 89.022-97.132-74.184-188.26-21.725z"/><path d="M351.266 99.09C261.551 150.666 90.774 478.315 37.263 391.766c-53.51-86.549 193.735-260.529 247.6-342.486 55.983-85.136 205.567-12.717 259.078 73.831 53.334 86.549-103.137-75.774-192.675-24.021z"/><path d="M970.793 248.166c22.429 191.82-140.047 596.128-313.296 461.359C-150.114 81.78-2.649 537.31 35.497 600.014c312.413 515.056 153.646-222.201 246.716-408.37 180.49-361.033 666.152-135.299 688.58 56.522z"/><path d="M968.321 252.228c22.252 189.701-139.518 585.883-311.53 455-790.127-601.78-648.314-170.801-612.64-113.573 307.291 491.035 155.942-223.968 251.661-404.307 183.845-346.902 650.433-126.644 672.509 62.88z"/><path d="M966.025 256.467c21.899 187.582-138.988 575.639-309.587 448.465C-116.559 128.764 19.426 535.543 52.805 587.12c302.876 466.3 158.237-225.381 256.606-400.422 187.2-332.242 634.538-117.812 656.614 69.769z"/><path d="M963.552 260.53c21.723 185.462-138.457 565.394-307.821 442.106C-99.605 152.255 30.376 534.837 61.458 580.584c299.344 441.046 160.357-226.793 261.728-396.358C513.035-133.709 941.83 75.068 963.552 260.53z"/><path d="M961.257 264.592c21.369 183.343-137.928 555.15-305.879 435.571C-82.121 175.217 41.325 533.777 70.288 574.049c296.519 414.728 162.3-228.206 266.496-392.473C529.283-121.698 939.711 81.25 961.257 264.592z"/><path d="M958.784 268.655c21.193 181.223-137.221 544.905-303.936 429.212C-64.637 198.179 52.275 532.717 78.942 567.514c295.106 386.82 164.065-229.443 271.441-388.587 194.971-288.438 587.209-91.495 608.401 89.728z"/><path d="M956.488 272.894c21.016 179.103-136.691 534.66-302.17 422.677C-46.8 220.965 63.224 531.658 87.596 561.155 383.054 918.125 253.25 330.652 363.98 176.631c196.914-274.13 571.491-82.84 592.507 96.263z"/><path d="M954.016 276.957c20.663 176.983-135.809 524.592-300.227 416.317C-28.787 243.573 73.997 530.245 96.249 554.62 394.357 878.736 263.493 323.234 377.58 173.981c198.68-259.47 555.773-74.008 576.436 102.976z"/><path d="M951.72 281.019c20.486 174.864-135.102 514.348-298.285 409.783C-10.42 266.005 80.532 534.13 104.903 548.084 332.899 897.636 273.56 315.815 391.178 171.508c199.916-244.81 540.056-65.353 560.542 109.511z"/><path d="M949.248 285.082c20.132 172.744-134.22 504.103-296.519 403.423C8.124 288.084 90.951 533.601 113.556 541.549c217.4 328.886 169.717-232.976 291.221-372.69 200.799-230.326 524.338-56.522 544.471 116.223z"/><path d="M946.775 289.321c19.956 170.625-133.336 493.859-294.576 396.888C27.02 309.987 101.194 533.248 122.21 535.19c206.98 308.044 170.776-233.858 296.342-368.804 200.976-216.019 508.443-47.867 528.223 122.935z"/><path d="M944.479 293.383c19.78 168.506-132.453 483.791-292.633 390.53C46.27 331.535 111.614 532.894 131.04 528.655 327.248 816.209 302.523 294.09 432.327 163.913c200.799-201.888 492.372-39.035 512.152 129.47z"/><path d="M942.007 297.446C961.433 463.832 810.613 770.992 651.14 681.44 65.873 352.731 122.033 532.541 139.694 522.12c185.788 266.888 172.012-235.095 306.232-360.856C646.195-26.494 922.58 131.06 942.007 297.446z"/><path d="M939.711 301.508c19.25 164.266-130.334 463.302-288.925 377.636C85.83 373.573 132.453 532.011 148.348 515.584 323.539 761.63 320.713 279.782 459.524 158.791 658.91-15.19 920.461 137.242 939.711 301.508z"/><path d="M937.239 305.747c18.896 162.147-129.098 453.057-287.159 371.101-544.117-282.609-507.207-145.19-493.079-167.799 164.595 225.38 172.366-236.685 316.122-352.908 198.15-160.203 445.219-12.717 464.116 149.606z"/><path d="M934.943 309.81c18.72 160.027-127.862 442.812-285.216 364.742C126.625 414.375 153.116 531.304 165.655 502.69 319.83 707.405 338.02 265.122 486.721 153.668 683.105 6.535 916.223 149.783 934.943 309.81z"/><path d="M932.47 313.872C951.014 471.78 805.845 746.44 649.197 672.079 147.465 433.981 163.536 530.775 174.308 496.155 317.888 680.204 329.72 228.383 500.32 151.196c167.244-166.563 413.783 4.769 432.15 162.676z"/><path d="M930.174 317.935c18.191 155.788-125.212 422.323-281.507 351.848-480.01-216.549-474.712-139.362-465.705-180.163 133.16 163.383 155.588-270.598 330.956-341.074C680.456-5.829 911.984 162.147 930.174 317.935z"/><path d="M927.702 322.174c18.013 153.668-123.8 411.902-279.565 345.312-457.934-195.529-463.939-137.418-456.521-184.225C314.002 625.978 347.204 209.837 527.517 146.25 693.171 3.71 909.865 168.329 927.702 322.174z"/><path d="M925.406 326.237c17.66 151.549-122.21 401.304-277.622 338.953-435.329-174.864-452.99-135.475-447.338-188.464 111.79 122.051 155.588-276.25 340.846-333.125 164.772-130.177 366.454 30.91 384.114 182.636z"/><path d="M922.933 330.299c17.484 149.429-120.444 390.706-275.855 332.418C234.53 507.812 205.037 529.185 208.923 470.013c101.371 101.386 155.765-279.076 345.791-329.062C718.779 22.961 905.45 180.87 922.933 330.299z"/><path d="M920.638 334.362C937.945 481.671 801.96 714.47 646.725 660.421 257.312 524.946 215.457 528.832 217.753 463.655c90.775 80.544 155.941-281.902 350.736-325.176C731.671 32.677 903.33 187.052 920.638 334.362z"/><path d="M918.165 338.601c16.954 145.366-116.912 369.157-271.97 319.524C280.271 541.372 225.877 528.478 226.407 457.12c80.178 59.877 165.124-251.169 355.68-321.291 175.898-64.47 319.124 57.405 336.078 202.772z"/><path d="M915.869 342.663c16.778 143.248-114.792 357.854-270.204 313.166-342.259-98.913-409.369-127.704-410.428-205.245 69.582 39.212 163.535-255.054 360.626-317.228 172.365-54.402 303.229 66.06 320.006 209.307z"/><path d="M913.397 346.725c16.424 141.128-112.85 346.373-268.262 306.631-318.417-81.427-398.596-125.761-401.421-209.307 59.162 18.546 161.946-259.47 365.57-313.343 169.364-44.51 287.689 74.892 304.113 216.019z"/><path d="M911.101 350.788C927.349 489.796 800.37 685.326 644.782 651.06c-294.399-64.823-387.823-123.818-392.238-213.37 48.566-2.119 160.357-264.769 370.516-309.28 166.007-35.326 271.793 83.547 288.041 222.378z"/><path d="M908.628 355.027c16.071 136.889-108.434 322.174-264.553 293.736-270.204-49.103-376.696-121.875-383.054-217.608 37.97-22.786 158.944-270.598 375.46-305.394C799.84 99.62 892.734 218.138 908.628 355.027z"/><path d="M906.333 359.089c15.717 134.77-106.14 308.927-262.611 287.378-246.186-34.089-365.924-119.932-373.694-221.671 27.373-43.451 157.707-277.31 380.405-301.508 160.533-17.487 240.182 101.032 255.9 235.801z"/><path d="M903.86 363.152c15.541 132.65-104.02 294.973-260.844 280.843-222.345-19.783-373.695-117.813-364.511-225.911 5.651-66.059 161.416-250.638 385.35-297.445 155.412-32.5 224.641 109.864 240.005 242.513z"/><path d="M901.564 367.215c15.188 130.529-101.9 279.605-258.901 274.483-199.033-6.535-353.915-115.339-355.328-229.973-1.06-85.135 157.708-268.831 390.295-293.559 155.765-16.604 208.57 118.695 223.934 249.049z"/><path d="M899.092 371.454c15.011 128.41-100.311 262.473-256.959 267.948-176.604 6.182-337.314-113.573-346.144-234.212-7.771-105.271 156.471-301.331 395.24-289.497 155.588 7.595 192.852 127.351 207.863 255.761z"/><path d="M896.796 375.516c14.835 126.291-99.428 243.397-255.193 261.59-155.588 18.193-322.303-112.16-336.961-238.274-14.835-126.468 156.825-310.517 400.185-285.789 154.882 15.721 177.134 136.183 191.969 262.473z"/><path d="M275.326 322.704C386.233 153.315 519.393 27.201 694.584 134.416 869.776 241.63 1104.13 746.97 1127.26 547.731c98.9-846.413-100.48-314.402-395.589 99.089-233.117 326.767-567.253-154.728-456.345-324.116z"/><path d="M279.564 320.584C389.236 153.138 523.102 30.027 696.35 136.005c173.249 105.978 400.36 599.66 421.2 410.666 90.25-815.856-104.55-299.565-393.826 98.206-229.232 313.872-553.831-156.671-444.16-324.293z"/><path d="M283.803 318.465c108.435-165.68 243.007-285.612 414.313-180.87 171.306 104.742 391.174 586.943 409.724 408.016 81.41-785.299-107.73-284.021-392.063 97.5C490.96 944.619 175.545 484.144 283.803 318.465z"/><path d="M288.218 316.521c107.199-163.736 242.301-280.842 411.841-177.16 169.54 103.682 382.171 574.226 398.241 405.19 72.41-754.741-111.259-268.831-390.294 96.617-220.755 289.144-526.987-160.91-419.788-324.647z"/><path d="M292.457 314.402c105.962-161.97 241.771-275.897 409.192-173.628C869.246 243.22 1074.64 702.106 1088.41 543.315c63.23-724.008-114.791-253.641-388.527 95.91-216.517 276.604-513.389-162.853-407.426-324.823z"/><path d="M296.695 312.459C401.421 152.432 537.76 41.331 703.415 142.541 869.069 243.75 1067.22 691.155 1078.7 542.432c53.69-693.451-118.503-238.451-386.765 95.027-212.455 264.063-499.966-164.973-395.24-325z"/><path d="M300.933 310.34C404.424 152.079 541.468 44.157 705.181 144.13 868.893 244.28 1059.8 680.027 1068.99 541.195c43.97-662.717-122.038-223.26-385.002 94.321C475.595 887.038 197.443 468.6 300.933 310.34z"/><path d="M305.172 308.22C407.426 151.902 545.177 46.807 706.77 145.72c161.593 98.913 345.44 523.356 352.33 394.415 34.08-631.983-125.57-208.07-383.059 93.438C471.886 872.731 202.918 464.538 305.172 308.22z"/><path d="M309.587 306.277C410.605 151.726 548.886 49.81 708.713 147.487c159.826 97.676 336.257 510.638 340.847 391.766 23.49-601.25-129.452-192.881-381.466 92.554-200.093 226.617-459.701-171.155-358.507-325.53z"/><path d="M313.826 304.157c99.781-152.608 238.768-251.698 396.653-155.081 157.884 96.617 327.071 498.098 329.371 389.117 12.36-570.163-132.988-177.69-379.704 91.848-196.03 214.076-446.102-173.275-346.32-325.884z"/><path d="M318.064 302.038c98.722-150.666 238.239-246.753 394.004-151.372 155.765 95.38 317.712 485.557 317.892 386.291.7-539.077-136.696-162.324-377.937 90.964C460.054 829.633 219.519 452.88 318.064 302.038z"/><path d="M322.303 300.095c97.485-148.9 237.532-241.984 391.531-147.84s308.526 473.193 306.406 383.642c-11.83-507.813-140.575-147.134-376.164 90.258-187.907 189.171-419.082-177.161-321.773-326.06z"/><path d="M326.718 297.976c96.249-146.957 237.003-237.038 389.059-144.131 152.056 92.908 299.163 461.005 294.933 380.992-25.435-476.02-144.29-131.943-374.405 89.375-184.022 176.807-405.837-179.28-309.587-326.236z"/><path d="M330.956 296.033c94.837-145.19 236.297-232.27 386.41-140.598 150.114 91.671 289.984 448.994 283.454 378.166-40.623-443.696-148.175-116.576-372.639 88.668-179.96 164.62-392.238-181.223-297.225-326.236z"/><path d="M335.195 293.913c93.777-143.247 235.766-227.324 383.937-136.712 148.171 90.611 292.108 434.334 271.971 375.516 21.367-413.845-151.88-101.209-370.869 87.785C444.16 772.581 241.418 437.16 335.195 293.913z"/><path d="M339.433 291.793C431.974 150.312 574.67 69.239 720.898 158.791 867.127 248.342 1004.7 580.407 981.39 531.657c15.717-382.934-155.942-86.019-369.103 87.079-172.189 139.538-365.394-185.462-272.854-326.943z"/><path d="M343.672 289.85c91.304-139.538 234.53-217.608 378.992-129.47 144.286 88.316 275.326 408.9 249.012 370.218 10.243-352.025-159.827-70.653-367.336 86.195C435.859 743.967 252.367 429.388 343.672 289.85z"/><path d="M348.087 287.731c90.068-137.595 234-212.84 376.343-125.761 142.343 87.079 267.026 396.182 237.533 367.391 4.768-321.114-163.889-55.462-365.571 85.489-164.595 114.987-338.373-189.524-248.305-327.119z"/><path d="M352.325 285.611C441.157 149.959 585.62 77.717 726.196 163.56c140.401 85.842 258.726 383.464 226.054 364.742-.883-290.204-168.127-40.096-363.805 84.606C427.382 715.53 263.493 421.44 352.325 285.611z"/><path d="M356.564 283.668C444.16 149.782 589.328 80.543 727.962 165.326c138.635 84.783 250.249 370.747 214.575 362.092-6.358-259.293-172.366-24.905-362.216 83.9-157.177 89.905-311.353-193.764-223.757-327.65z"/><path d="M360.802 281.549c86.36-132.12 232.235-198.18 368.75-114.634 136.692 83.547 241.948 358.03 203.095 359.267-12.009-228.383-176.781-9.715-360.449 83.016-153.646 77.717-297.755-195.53-211.396-327.649z"/><path d="M365.218 279.429c85.123-130.177 231.528-193.234 366.1-110.924 134.572 82.31 233.471 345.313 191.615 356.617-17.483-197.473-181.195 5.299-358.683 82.31-150.113 65.176-284.332-197.65-199.032-328.003z"/><path d="M369.456 277.486c83.887-128.41 230.998-188.464 363.805-107.391 132.806 81.25 225.17 332.595 180.136 353.967-22.959-166.562-185.964 20.313-356.917 81.427-147.112 52.636-271.088-199.769-187.024-328.003z"/><path d="M373.695 275.367C456.522 148.899 604.163 91.671 734.85 171.685c130.864 80.013 216.693 319.878 168.657 351.318-28.61-135.652-190.732 35.149-355.151 80.543C404.6 643.465 290.867 401.834 373.695 275.367z"/><path d="M377.933 273.424c81.591-124.525 229.762-178.75 358.683-99.973s208.393 307.16 157.178 348.492c-34.085-104.742-195.501 49.633-353.385 79.837-140.577 26.847-243.891-203.832-162.476-328.356z"/><path d="M382.171 271.304c80.355-122.758 229.233-173.98 356.211-96.264 126.979 77.541 200.093 294.443 145.699 345.843-39.736-73.832-200.446 63.94-351.619 78.954-137.575 13.777-230.469-205.775-150.291-328.533z"/><path d="M386.587 269.185c78.942-120.816 228.525-169.036 353.561-92.555 125.036 76.481 191.615 281.726 134.219 343.193-45.211-42.921-205.214 77.894-349.853 78.248-134.572.176-217.046-207.895-137.927-328.886z"/><path d="M390.825 267.241c77.883-119.048 227.996-164.266 351.089-88.845 123.093 75.421 183.315 269.008 122.74 340.367-50.862-12.011-209.982 91.671-348.087 77.364-131.217-13.424-203.624-210.013-125.742-328.886z"/><path d="M395.064 265.122C471.71 148.016 622.53 105.801 743.68 179.81c121.151 74.008 174.839 256.29 111.261 337.717-56.337 18.899-214.398 105.095-346.321 76.658-127.861-27.555-190.203-211.957-113.556-329.063z"/><path d="M399.302 263.003c75.41-115.34 226.76-154.552 346.144-81.604 119.208 72.949 177.841 253.112 99.782 335.068-54.748 57.405-218.636 118.343-344.555 75.775-124.153-41.685-176.781-213.9-101.371-329.239z"/><path d="M403.541 261.06c74.173-113.397 226.23-149.606 343.495-77.894 117.265 71.712 162.829 234.212 88.302 332.418-63.578 83.723-222.345 131.413-342.789 75.068-119.738-56.345-163.182-216.196-89.008-329.592z"/><path d="M616.878 625.625c136.551 0 247.246-106.996 247.246-238.981 0-131.986-110.695-238.981-247.246-238.981-136.55 0-247.245 106.995-247.245 238.981 0 131.985 110.695 238.981 247.245 238.981z"/></g></svg>