<svg width="16" height="136" viewBox="0 0 16 136" fill="none" xmlns="http://www.w3.org/2000/svg">
<g opacity="0.54">
<path d="M7.99992 125.333C6.55459 125.333 5.33325 126.555 5.33325 128C5.33325 129.445 6.55459 130.667 7.99992 130.667C9.44525 130.667 10.6666 129.445 10.6666 128C10.6666 126.555 9.44525 125.333 7.99992 125.333ZM7.99992 129.333C7.28992 129.333 6.66659 128.71 6.66659 128C6.66659 127.29 7.28992 126.667 7.99992 126.667C8.70992 126.667 9.33325 127.29 9.33325 128C9.33325 128.71 8.70992 129.333 7.99992 129.333Z" fill="#808EA1"/>
<path d="M13.3333 123.333H11.6093L9.80459 121.529C9.67992 121.403 9.51059 121.333 9.33325 121.333H6.66659C6.48925 121.333 6.31992 121.403 6.19525 121.529L4.39059 123.333H2.66659C1.93125 123.333 1.33325 123.931 1.33325 124.667V132C1.33325 132.735 1.93125 133.333 2.66659 133.333H13.3333C14.0686 133.333 14.6666 132.735 14.6666 132V124.667C14.6666 123.931 14.0686 123.333 13.3333 123.333ZM2.66659 132V124.667H4.66659C4.84392 124.667 5.01325 124.597 5.13792 124.471L6.94258 122.667H9.05725L10.8619 124.471C10.9866 124.597 11.1559 124.667 11.3333 124.667H13.3333L13.3346 132H2.66659Z" fill="#808EA1"/>
</g>
<g opacity="0.54">
<path d="M7.99992 95.3332C6.55459 95.3332 5.33325 96.5545 5.33325 97.9999C5.33325 99.4452 6.55459 100.667 7.99992 100.667C9.44525 100.667 10.6666 99.4452 10.6666 97.9999C10.6666 96.5545 9.44525 95.3332 7.99992 95.3332ZM7.99992 99.3332C7.28992 99.3332 6.66659 98.7099 6.66659 97.9999C6.66659 97.2899 7.28992 96.6665 7.99992 96.6665C8.70992 96.6665 9.33325 97.2899 9.33325 97.9999C9.33325 98.7099 8.70992 99.3332 7.99992 99.3332Z" fill="#808EA1"/>
<path d="M13.3333 93.3332H11.6093L9.80459 91.5285C9.67992 91.4032 9.51059 91.3332 9.33325 91.3332H6.66659C6.48925 91.3332 6.31992 91.4032 6.19525 91.5285L4.39059 93.3332H2.66659C1.93125 93.3332 1.33325 93.9312 1.33325 94.6665V102C1.33325 102.735 1.93125 103.333 2.66659 103.333H13.3333C14.0686 103.333 14.6666 102.735 14.6666 102V94.6665C14.6666 93.9312 14.0686 93.3332 13.3333 93.3332ZM2.66659 102V94.6665H4.66659C4.84392 94.6665 5.01325 94.5965 5.13792 94.4712L6.94258 92.6665H9.05725L10.8619 94.4712C10.9866 94.5965 11.1559 94.6665 11.3333 94.6665H13.3333L13.3346 102H2.66659Z" fill="#808EA1"/>
</g>
<g opacity="0.54">
<path d="M7.99992 65.3332C6.55459 65.3332 5.33325 66.5545 5.33325 67.9999C5.33325 69.4452 6.55459 70.6665 7.99992 70.6665C9.44525 70.6665 10.6666 69.4452 10.6666 67.9999C10.6666 66.5545 9.44525 65.3332 7.99992 65.3332ZM7.99992 69.3332C7.28992 69.3332 6.66659 68.7099 6.66659 67.9999C6.66659 67.2899 7.28992 66.6665 7.99992 66.6665C8.70992 66.6665 9.33325 67.2899 9.33325 67.9999C9.33325 68.7099 8.70992 69.3332 7.99992 69.3332Z" fill="#808EA1"/>
<path d="M13.3333 63.3332H11.6093L9.80459 61.5285C9.67992 61.4032 9.51059 61.3332 9.33325 61.3332H6.66659C6.48925 61.3332 6.31992 61.4032 6.19525 61.5285L4.39059 63.3332H2.66659C1.93125 63.3332 1.33325 63.9312 1.33325 64.6665V71.9999C1.33325 72.7352 1.93125 73.3332 2.66659 73.3332H13.3333C14.0686 73.3332 14.6666 72.7352 14.6666 71.9999V64.6665C14.6666 63.9312 14.0686 63.3332 13.3333 63.3332ZM2.66659 71.9999V64.6665H4.66659C4.84392 64.6665 5.01325 64.5965 5.13792 64.4712L6.94258 62.6665H9.05725L10.8619 64.4712C10.9866 64.5965 11.1559 64.6665 11.3333 64.6665H13.3333L13.3346 71.9999H2.66659Z" fill="#808EA1"/>
</g>
<g opacity="0.54">
<path d="M7.99992 35.3332C6.55459 35.3332 5.33325 36.5545 5.33325 37.9999C5.33325 39.4452 6.55459 40.6665 7.99992 40.6665C9.44525 40.6665 10.6666 39.4452 10.6666 37.9999C10.6666 36.5545 9.44525 35.3332 7.99992 35.3332ZM7.99992 39.3332C7.28992 39.3332 6.66659 38.7099 6.66659 37.9999C6.66659 37.2899 7.28992 36.6665 7.99992 36.6665C8.70992 36.6665 9.33325 37.2899 9.33325 37.9999C9.33325 38.7099 8.70992 39.3332 7.99992 39.3332Z" fill="#808EA1"/>
<path d="M13.3333 33.3332H11.6093L9.80459 31.5285C9.67992 31.4032 9.51059 31.3332 9.33325 31.3332H6.66659C6.48925 31.3332 6.31992 31.4032 6.19525 31.5285L4.39059 33.3332H2.66659C1.93125 33.3332 1.33325 33.9312 1.33325 34.6665V41.9999C1.33325 42.7352 1.93125 43.3332 2.66659 43.3332H13.3333C14.0686 43.3332 14.6666 42.7352 14.6666 41.9999V34.6665C14.6666 33.9312 14.0686 33.3332 13.3333 33.3332ZM2.66659 41.9999V34.6665H4.66659C4.84392 34.6665 5.01325 34.5965 5.13792 34.4712L6.94258 32.6665H9.05725L10.8619 34.4712C10.9866 34.5965 11.1559 34.6665 11.3333 34.6665H13.3333L13.3346 41.9999H2.66659Z" fill="#808EA1"/>
</g>
<g opacity="0.54">
<path d="M7.99992 5.33319C6.55459 5.33319 5.33325 6.55452 5.33325 7.99986C5.33325 9.44519 6.55459 10.6665 7.99992 10.6665C9.44525 10.6665 10.6666 9.44519 10.6666 7.99986C10.6666 6.55452 9.44525 5.33319 7.99992 5.33319ZM7.99992 9.33319C7.28992 9.33319 6.66659 8.70986 6.66659 7.99986C6.66659 7.28986 7.28992 6.66652 7.99992 6.66652C8.70992 6.66652 9.33325 7.28986 9.33325 7.99986C9.33325 8.70986 8.70992 9.33319 7.99992 9.33319Z" fill="#808EA1"/>
<path d="M13.3333 3.33325H11.6093L9.80459 1.52859C9.67992 1.40325 9.51059 1.33325 9.33325 1.33325H6.66659C6.48925 1.33325 6.31992 1.40325 6.19525 1.52859L4.39059 3.33325H2.66659C1.93125 3.33325 1.33325 3.93125 1.33325 4.66659V11.9999C1.33325 12.7353 1.93125 13.3333 2.66659 13.3333H13.3333C14.0686 13.3333 14.6666 12.7353 14.6666 11.9999V4.66659C14.6666 3.93125 14.0686 3.33325 13.3333 3.33325ZM2.66659 11.9999V4.66659H4.66659C4.84392 4.66659 5.01325 4.59659 5.13792 4.47125L6.94258 2.66659H9.05725L10.8619 4.47125C10.9866 4.59659 11.1559 4.66659 11.3333 4.66659H13.3333L13.3346 11.9999H2.66659Z" fill="#808EA1"/>
</g>
</svg>
