<svg width="252" height="311" viewBox="0 0 252 311" fill="none" xmlns="http://www.w3.org/2000/svg">
<mask id="mask0" mask-type="alpha" maskUnits="userSpaceOnUse" x="0" y="59" width="252" height="252">
<circle cx="126" cy="185" r="126" fill="#F8F8F8"/>
</mask>
<g mask="url(#mask0)">
<rect x="166" y="34" width="48" height="285" fill="#4580F1"/>
<rect x="38" y="34" width="48" height="285" fill="#4580F1"/>
<rect x="102" y="69" width="48" height="250" fill="#4580F1"/>
</g>
<path d="M38 8C38 3.58172 41.5817 0 46 0H78C82.4183 0 86 3.58172 86 8V97H38V8Z" fill="#E0E0E0"/>
<path d="M102 25C102 20.5817 105.582 17 110 17H142C146.418 17 150 20.5817 150 25V77H102V25Z" fill="#E0E0E0"/>
<path d="M166 57C166 52.5817 169.582 49 174 49H206C210.418 49 214 52.5817 214 57V105H166V57Z" fill="#E0E0E0"/>
</svg>
