<svg display="none" width="0" height="0" version="1.1" xmlns="http://www.w3.org/2000/svg" xmlns:xlink="http://www.w3.org/1999/xlink">


<!-- <symbol id="logo" viewBox="0 0 93 32">
	<path d="M10.0625 17.1484C10.026 17.9401 9.8125 18.6406 9.42188 19.25C9.03125 19.8542 8.48177 20.3229 7.77344 20.6562C7.07031 20.9896 6.26562 21.1562 5.35938 21.1562C3.86458 21.1562 2.6875 20.6693 1.82812 19.6953C0.96875 18.7214 0.539062 17.3464 0.539062 15.5703V15.0078C0.539062 13.8932 0.731771 12.9193 1.11719 12.0859C1.50781 11.2474 2.06771 10.6016 2.79688 10.1484C3.52604 9.6901 4.36979 9.46094 5.32812 9.46094C6.70833 9.46094 7.81771 9.82552 8.65625 10.5547C9.49479 11.2786 9.97135 12.2786 10.0859 13.5547H7.35156C7.33073 12.862 7.15625 12.3646 6.82812 12.0625C6.5 11.7604 6 11.6094 5.32812 11.6094C4.64583 11.6094 4.14583 11.8646 3.82812 12.375C3.51042 12.8854 3.34375 13.7005 3.32812 14.8203V15.625C3.32812 16.8385 3.47917 17.7057 3.78125 18.2266C4.08854 18.7474 4.61458 19.0078 5.35938 19.0078C5.98958 19.0078 6.47135 18.8594 6.80469 18.5625C7.13802 18.2656 7.3151 17.7943 7.33594 17.1484H10.0625ZM15.84 21C15.7463 20.8281 15.6629 20.5755 15.59 20.2422C15.1056 20.8516 14.4285 21.1562 13.5588 21.1562C12.7619 21.1562 12.0848 20.9167 11.5275 20.4375C10.9702 19.9531 10.6916 19.3464 10.6916 18.6172C10.6916 17.7005 11.0301 17.0078 11.7072 16.5391C12.3843 16.0703 13.3686 15.8359 14.6603 15.8359H15.4728V15.3906C15.4728 14.6146 15.1369 14.2266 14.465 14.2266C13.84 14.2266 13.5275 14.5339 13.5275 15.1484H10.8947C10.8947 14.3307 11.241 13.6667 11.9338 13.1562C12.6317 12.6458 13.5197 12.3906 14.5978 12.3906C15.6759 12.3906 16.5275 12.6536 17.1525 13.1797C17.7775 13.7057 18.0978 14.4271 18.1134 15.3438V19.0859C18.1239 19.862 18.2436 20.4557 18.4728 20.8672V21H15.84ZM14.1916 19.2812C14.5197 19.2812 14.7905 19.2109 15.0041 19.0703C15.2228 18.9297 15.3791 18.7708 15.4728 18.5938V17.2422H14.7072C13.7905 17.2422 13.3322 17.6536 13.3322 18.4766C13.3322 18.7161 13.4129 18.9115 13.5744 19.0625C13.7358 19.2083 13.9416 19.2812 14.1916 19.2812ZM21.9066 12.5469L21.9925 13.5391C22.5915 12.7734 23.3961 12.3906 24.4066 12.3906C25.4743 12.3906 26.1956 12.8151 26.5706 13.6641C27.1435 12.8151 27.9717 12.3906 29.055 12.3906C30.7685 12.3906 31.6488 13.4271 31.6956 15.5V21H29.055V15.6641C29.055 15.2318 28.9821 14.9167 28.8363 14.7188C28.6904 14.5208 28.4248 14.4219 28.0394 14.4219C27.5185 14.4219 27.1305 14.6536 26.8753 15.1172L26.8831 15.2266V21H24.2425V15.6797C24.2425 15.237 24.1722 14.9167 24.0316 14.7188C23.8909 14.5208 23.6227 14.4219 23.2269 14.4219C22.7217 14.4219 22.3363 14.6536 22.0706 15.1172V21H19.4378V12.5469H21.9066ZM37.3872 16.9844H35.9028V21H33.1606V9.625H37.6372C38.9861 9.625 40.0408 9.92448 40.8013 10.5234C41.5617 11.1224 41.9419 11.9688 41.9419 13.0625C41.9419 13.8542 41.7804 14.5104 41.4575 15.0312C41.1398 15.5521 40.6398 15.974 39.9575 16.2969L42.3325 20.8828V21H39.395L37.3872 16.9844ZM35.9028 14.8672H37.6372C38.158 14.8672 38.5486 14.7318 38.8091 14.4609C39.0747 14.1849 39.2075 13.8021 39.2075 13.3125C39.2075 12.8229 39.0747 12.4401 38.8091 12.1641C38.5434 11.8828 38.1528 11.7422 37.6372 11.7422H35.9028V14.8672ZM47.4069 21.1562C46.11 21.1562 45.0605 20.7708 44.2584 20C43.4564 19.224 43.0553 18.2161 43.0553 16.9766V16.7578C43.0553 15.8932 43.2142 15.1302 43.5319 14.4688C43.8548 13.8073 44.3235 13.2969 44.9381 12.9375C45.5527 12.5729 46.2819 12.3906 47.1256 12.3906C48.3131 12.3906 49.2506 12.7604 49.9381 13.5C50.6256 14.2344 50.9694 15.2604 50.9694 16.5781V17.6016H45.735C45.8288 18.0755 46.0345 18.4479 46.3522 18.7188C46.6699 18.9896 47.0814 19.125 47.5866 19.125C48.4199 19.125 49.0709 18.8333 49.5397 18.25L50.7428 19.6719C50.4147 20.125 49.9485 20.487 49.3444 20.7578C48.7454 21.0234 48.0996 21.1562 47.4069 21.1562ZM47.11 14.4219C46.3392 14.4219 45.8808 14.9323 45.735 15.9531H48.3913V15.75C48.4017 15.3281 48.2949 15.0026 48.0709 14.7734C47.847 14.5391 47.5267 14.4219 47.11 14.4219ZM59.7234 16.8359C59.7234 18.1484 59.4266 19.1979 58.8328 19.9844C58.2443 20.7656 57.4474 21.1562 56.4422 21.1562C55.6661 21.1562 55.0281 20.8724 54.5281 20.3047V24.25H51.8953V12.5469H54.3563L54.4344 13.3281C54.9396 12.7031 55.6036 12.3906 56.4266 12.3906C57.4682 12.3906 58.2781 12.776 58.8563 13.5469C59.4344 14.3125 59.7234 15.3672 59.7234 16.7109V16.8359ZM57.0906 16.6719C57.0906 15.1719 56.6531 14.4219 55.7781 14.4219C55.1531 14.4219 54.7365 14.6458 54.5281 15.0938V18.4219C54.7573 18.8906 55.1792 19.125 55.7938 19.125C56.6323 19.125 57.0646 18.401 57.0906 16.9531V16.6719ZM60.3994 16.6953C60.3994 15.8516 60.5634 15.1016 60.8916 14.4453C61.2197 13.7839 61.691 13.276 62.3056 12.9219C62.9202 12.5677 63.6416 12.3906 64.4697 12.3906C65.7353 12.3906 66.7327 12.7839 67.4619 13.5703C68.191 14.3516 68.5556 15.4167 68.5556 16.7656V16.8594C68.5556 18.1771 68.1884 19.224 67.4541 20C66.7249 20.7708 65.7353 21.1562 64.4853 21.1562C63.2822 21.1562 62.316 20.7969 61.5869 20.0781C60.8577 19.3542 60.4645 18.375 60.4072 17.1406L60.3994 16.6953ZM63.0322 16.8594C63.0322 17.6406 63.1546 18.2135 63.3994 18.5781C63.6442 18.9427 64.0061 19.125 64.4853 19.125C65.4228 19.125 65.902 18.4036 65.9228 16.9609V16.6953C65.9228 15.1797 65.4384 14.4219 64.4697 14.4219C63.5895 14.4219 63.1129 15.0755 63.04 16.3828L63.0322 16.8594ZM74.6691 14.9297L73.8019 14.8672C72.9737 14.8672 72.4425 15.1276 72.2081 15.6484V21H69.5753V12.5469H72.0441L72.13 13.6328C72.5727 12.8047 73.1899 12.3906 73.9816 12.3906C74.2628 12.3906 74.5076 12.4219 74.7159 12.4844L74.6691 14.9297ZM78.9153 10.4453V12.5469H80.3059V14.375H78.9153V18.2422C78.9153 18.5599 78.9726 18.7812 79.0872 18.9062C79.2018 19.0312 79.4283 19.0938 79.7669 19.0938C80.0273 19.0938 80.246 19.0781 80.4231 19.0469V20.9297C79.9492 21.0807 79.4544 21.1562 78.9388 21.1562C78.0325 21.1562 77.3632 20.9427 76.9309 20.5156C76.4986 20.0885 76.2825 19.4401 76.2825 18.5703V14.375H75.2044V12.5469H76.2825V10.4453H78.9153Z" fill="white"/>
	<circle cx="89" cy="4" r="4" fill="#E95254"/>
</symbol> -->

<symbol id="logo" viewBox="0 0 220 48">
	<path d="M23.7741 30.2922C23.6831 32.2662 23.15 34.013 22.1749 35.5324C21.1997 37.0389 19.828 38.2078 18.0598 39.0389C16.3045 39.8701 14.2957 40.2857 12.0333 40.2857C8.30176 40.2857 5.36332 39.0714 3.21799 36.6428C1.07266 34.2143 0 30.7857 0 26.3571V24.9545C0 22.1753 0.481073 19.7467 1.44322 17.6688C2.41837 15.5779 3.81608 13.9675 5.63636 12.8376C7.45664 11.6948 9.56296 11.1234 11.9553 11.1234C15.4008 11.1234 18.1703 12.0324 20.2636 13.8506C22.3569 15.6558 23.5466 18.1493 23.8326 21.3311H17.0066C16.9546 19.6039 16.519 18.3636 15.6999 17.6104C14.8808 16.8571 13.6326 16.4805 11.9553 16.4805C10.2521 16.4805 9.00387 17.1169 8.21075 18.3896C7.41763 19.6623 7.00157 21.6948 6.96256 24.487V26.4935C6.96256 29.5195 7.33962 31.6818 8.09373 32.9805C8.86085 34.2792 10.1741 34.9285 12.0333 34.9285C13.6066 34.9285 14.8093 34.5584 15.6414 33.8182C16.4735 33.0779 16.9156 31.9026 16.9676 30.2922H23.7741Z" fill="white"/>
	<path d="M38.197 39.8961C37.9629 39.4675 37.7549 38.8376 37.5729 38.0065C36.3637 39.526 34.6734 40.2857 32.5021 40.2857C30.5128 40.2857 28.8225 39.6883 27.4313 38.4935C26.0401 37.2857 25.3445 35.7727 25.3445 33.9545C25.3445 31.6688 26.1896 29.9415 27.8799 28.7727C29.5701 27.6039 32.0275 27.0195 35.252 27.0195H37.2803V25.9091C37.2803 23.974 36.4417 23.0065 34.7644 23.0065C33.2042 23.0065 32.4241 23.7727 32.4241 25.3052H25.8516C25.8516 23.2662 26.7162 21.6104 28.4455 20.3376C30.1877 19.0649 32.4046 18.4285 35.096 18.4285C37.7874 18.4285 39.9132 19.0844 41.4735 20.3961C43.0337 21.7078 43.8333 23.5065 43.8723 25.7922V35.1234C43.8983 37.0584 44.1974 38.5389 44.7695 39.5649V39.8961H38.197ZM34.0818 35.6104C34.901 35.6104 35.5771 35.435 36.1101 35.0844C36.6562 34.7337 37.0463 34.3376 37.2803 33.8961V30.526H35.369C33.0807 30.526 31.9365 31.5519 31.9365 33.6039C31.9365 34.2013 32.138 34.6883 32.5411 35.0649C32.9442 35.4285 33.4577 35.6104 34.0818 35.6104Z" fill="white"/>
	<path d="M53.3414 18.8182L53.5559 21.2922C55.0512 19.3831 57.06 18.4285 59.5824 18.4285C62.2478 18.4285 64.0485 19.487 64.9847 21.6039C66.4149 19.487 68.4822 18.4285 71.1866 18.4285C75.4643 18.4285 77.6616 21.013 77.7786 26.1818V39.8961H71.1866V26.5909C71.1866 25.513 71.0046 24.7272 70.6405 24.2337C70.2765 23.7402 69.6134 23.4935 68.6512 23.4935C67.351 23.4935 66.3824 24.0714 65.7453 25.2272L65.7648 25.5V39.8961H59.1728V26.6298C59.1728 25.526 58.9973 24.7272 58.6462 24.2337C58.2952 23.7402 57.6256 23.4935 56.6374 23.4935C55.3762 23.4935 54.4141 24.0714 53.751 25.2272V39.8961H47.1785V18.8182H53.3414Z" fill="white"/>
	<path d="M91.9869 29.8831H88.2814V39.8961H81.4358V11.5324H92.611C95.9785 11.5324 98.6114 12.2792 100.51 13.7727C102.408 15.2662 103.357 17.3766 103.357 20.1039C103.357 22.0779 102.954 23.7143 102.148 25.013C101.355 26.3117 100.107 27.3636 98.4034 28.1688L104.332 39.6039V39.8961H96.9992L91.9869 29.8831ZM88.2814 24.6039H92.611C93.9112 24.6039 94.8864 24.2662 95.5365 23.5909C96.1996 22.9026 96.5311 21.948 96.5311 20.7272C96.5311 19.5065 96.1996 18.5519 95.5365 17.8636C94.8734 17.1623 93.8982 16.8117 92.611 16.8117H88.2814V24.6039Z" fill="white"/>
	<path d="M117 40.2857C113.762 40.2857 111.142 39.3247 109.14 37.4026C107.138 35.4675 106.137 32.9545 106.137 29.8636V29.3182C106.137 27.1623 106.533 25.2597 107.326 23.6104C108.133 21.961 109.303 20.6883 110.837 19.7922C112.371 18.8831 114.191 18.4285 116.298 18.4285C119.262 18.4285 121.603 19.3506 123.319 21.1948C125.035 23.026 125.893 25.5844 125.893 28.8701V31.4221H112.826C113.06 32.6039 113.574 33.5324 114.367 34.2078C115.16 34.8831 116.187 35.2208 117.448 35.2208C119.529 35.2208 121.154 34.4935 122.324 33.0389L125.328 36.5844C124.509 37.7143 123.345 38.6169 121.837 39.2922C120.341 39.9545 118.729 40.2857 117 40.2857ZM116.259 23.4935C114.334 23.4935 113.19 24.7662 112.826 27.3117H119.457V26.8052C119.483 25.7532 119.217 24.9415 118.658 24.3701C118.099 23.7857 117.299 23.4935 116.259 23.4935Z" fill="white"/>
	<path d="M147.747 29.513C147.747 32.7857 147.006 35.4026 145.523 37.3636C144.054 39.3117 142.065 40.2857 139.555 40.2857C137.618 40.2857 136.025 39.5779 134.777 38.1623V48H128.205V18.8182H134.348L134.543 20.7662C135.804 19.2078 137.462 18.4285 139.516 18.4285C142.117 18.4285 144.139 19.3896 145.582 21.3117C147.025 23.2208 147.747 25.8506 147.747 29.2013V29.513ZM141.174 29.1039C141.174 25.3636 140.082 23.4935 137.898 23.4935C136.337 23.4935 135.297 24.0519 134.777 25.1688V33.4675C135.349 34.6363 136.402 35.2208 137.937 35.2208C140.03 35.2208 141.109 33.4156 141.174 29.8052V29.1039Z" fill="white"/>
	<path d="M149.434 29.1623C149.434 27.0584 149.844 25.1883 150.663 23.5519C151.482 21.9026 152.659 20.6363 154.193 19.7532C155.727 18.8701 157.528 18.4285 159.595 18.4285C162.755 18.4285 165.245 19.4091 167.065 21.3701C168.885 23.3182 169.795 25.974 169.795 29.3376V29.5714C169.795 32.8571 168.879 35.4675 167.045 37.4026C165.225 39.3247 162.755 40.2857 159.634 40.2857C156.631 40.2857 154.219 39.3896 152.399 37.5974C150.578 35.7922 149.597 33.3506 149.454 30.2727L149.434 29.1623ZM156.007 29.5714C156.007 31.5195 156.312 32.948 156.923 33.8571C157.534 34.7662 158.438 35.2208 159.634 35.2208C161.975 35.2208 163.171 33.4221 163.223 29.8247V29.1623C163.223 25.3831 162.014 23.4935 159.595 23.4935C157.398 23.4935 156.208 25.1234 156.026 28.3831L156.007 29.5714Z" fill="white"/>
	<path d="M185.057 24.7597L182.892 24.6039C180.825 24.6039 179.498 25.2532 178.913 26.5519V39.8961H172.341V18.8182H178.504L178.718 21.526C179.823 19.461 181.364 18.4285 183.34 18.4285C184.043 18.4285 184.654 18.5065 185.174 18.6623L185.057 24.7597Z" fill="white"/>
	<path d="M195.657 13.5779V18.8182H199.128V23.3766H195.657V33.0195C195.657 33.8117 195.8 34.3636 196.086 34.6753C196.372 34.987 196.938 35.1428 197.783 35.1428C198.433 35.1428 198.979 35.1039 199.421 35.026V39.7208C198.238 40.0974 197.003 40.2857 195.715 40.2857C193.453 40.2857 191.782 39.7532 190.703 38.6883C189.624 37.6234 189.084 36.0065 189.084 33.8376V23.3766H186.393V18.8182H189.084V13.5779H195.657Z" fill="white"/>
	<ellipse cx="213.343" cy="6.64935" rx="6.65701" ry="6.64935" fill="#EC6B60"/>
</symbol>

<symbol id="checkbox" viewBox="0 0 24 24">
	<path d="M19.0001 3H5.00012C3.89712 3 3.00012 3.897 3.00012 5V19C3.00012 20.103 3.89712 21 5.00012 21H19.0001C20.1031 21 21.0001 20.103 21.0001 19V5C21.0001 3.897 20.1031 3 19.0001 3ZM5.00012 19V5H19.0001L19.0021 19H5.00012Z" fill="#4580F1"/>
</symbol>

<symbol id="checked" viewBox="0 0 24 24">
	<path d="M10.9331 13.519L8.70709 11.293L7.29309 12.707L11.0671 16.481L16.7691 9.64101L15.2311 8.35901L10.9331 13.519Z" fill="#4580F1"/>
	<path d="M19.0001 3H5.00012C3.89712 3 3.00012 3.897 3.00012 5V19C3.00012 20.103 3.89712 21 5.00012 21H19.0001C20.1031 21 21.0001 20.103 21.0001 19V5C21.0001 3.897 20.1031 3 19.0001 3ZM5.00012 19V5H19.0001L19.0021 19H5.00012Z" fill="#4580F1"/>
</symbol>

<symbol id="analyse" viewBox="0 0 24 24">
	<path d="M2 12H4C4 10.914 4.211 9.864 4.627 8.878C5.028 7.924 5.605 7.069 6.337 6.337C7.072 5.602 7.928 5.026 8.879 4.627C10.815 3.811 13.06 3.8 15.009 4.586C15.055 5.931 16.144 7 17.5 7C18.886 7 20 5.886 20 4.5C20 3.114 18.886 2 17.5 2C16.811 2 16.188 2.276 15.737 2.725C13.306 1.752 10.514 1.767 8.102 2.784C6.913 3.284 5.842 4.004 4.922 4.923C4.005 5.839 3.285 6.909 2.782 8.102C2.264 9.334 2 10.646 2 12ZM19.373 15.122C18.972 16.074 18.396 16.93 17.663 17.663C16.93 18.396 16.074 18.972 15.121 19.373C13.185 20.189 10.94 20.2 8.991 19.414C8.945 18.069 7.856 17 6.5 17C5.114 17 4 18.114 4 19.5C4 20.886 5.114 22 6.5 22C7.189 22 7.812 21.724 8.263 21.275C9.449 21.752 10.704 22 12 22C13.354 22 14.665 21.736 15.897 21.217C17.089 20.714 18.16 19.994 19.077 19.077C19.994 18.16 20.714 17.09 21.217 15.898C21.736 14.665 22 13.354 22 12H20C20 13.085 19.789 14.135 19.373 15.122Z" fill="white"/>
	<path d="M12 7.46204C9.49804 7.46204 7.46204 9.49804 7.46204 12C7.46204 14.502 9.49804 16.538 12 16.538C14.502 16.538 16.538 14.502 16.538 12C16.538 9.49804 14.502 7.46204 12 7.46204ZM12 14.538C10.601 14.538 9.46204 13.399 9.46204 12C9.46204 10.601 10.601 9.46204 12 9.46204C13.399 9.46204 14.538 10.601 14.538 12C14.538 13.399 13.399 14.538 12 14.538Z" fill="white"/>
</symbol>

<symbol id="line-chart" viewBox="0 0 24 24">
	<path d="M3 3V20C3 20.553 3.447 21 4 21H21V19H5V3H3Z" fill="white"/>
	<path d="M15.293 14.707C15.684 15.098 16.316 15.098 16.707 14.707L21.707 9.70697L20.293 8.29297L16 12.586L13.707 10.293C13.316 9.90197 12.684 9.90197 12.293 10.293L7.29303 15.293L8.70703 16.707L13 12.414L15.293 14.707Z" fill="white"/>
</symbol>

<symbol id="server" viewBox="0 0 24 24">
	<path d="M20 3H4C2.897 3 2 3.897 2 5V9C2 10.103 2.897 11 4 11H20C21.103 11 22 10.103 22 9V5C22 3.897 21.103 3 20 3ZM4 9V5H20L20.002 9H4ZM20 13H4C2.897 13 2 13.897 2 15V19C2 20.103 2.897 21 4 21H20C21.103 21 22 20.103 22 19V15C22 13.897 21.103 13 20 13ZM4 19V15H20L20.002 19H4Z" fill="white"/>
	<path d="M17 6H19V8H17V6ZM14 6H16V8H14V6ZM17 16H19V18H17V16ZM14 16H16V18H14V16Z" fill="white"/>
</symbol>

<symbol id="star" viewBox="0 0 24 24">
	<path d="M6.51599 14.323L5.02599 20.775C4.93399 21.174 5.09399 21.589 5.43199 21.822C5.60299 21.94 5.80099 22 5.99999 22C6.19299 22 6.38699 21.944 6.55499 21.832L12 18.202L17.445 21.832C17.793 22.064 18.25 22.055 18.59 21.808C18.928 21.561 19.077 21.128 18.962 20.726L17.133 14.326L21.669 10.244C21.966 9.976 22.075 9.558 21.947 9.18C21.818 8.802 21.477 8.536 21.079 8.504L15.378 8.05L12.911 2.589C12.75 2.23 12.393 2 12 2C11.607 2 11.25 2.23 11.089 2.589L8.62199 8.05L2.92099 8.503C2.52899 8.534 2.19199 8.791 2.05999 9.16C1.92599 9.529 2.02199 9.942 2.30199 10.216L6.51599 14.323ZM9.36899 9.997C9.73199 9.968 10.052 9.744 10.201 9.411L12 5.43L13.799 9.411C13.948 9.744 14.268 9.968 14.631 9.997L18.603 10.312L15.332 13.256C15.048 13.512 14.935 13.906 15.039 14.274L16.292 18.659L12.556 16.168C12.22 15.943 11.783 15.943 11.447 16.168L7.54299 18.771L8.59299 14.225C8.67099 13.885 8.56699 13.528 8.31699 13.285L5.27899 10.323L9.36899 9.997Z" fill="white"/>
</symbol>

<symbol id="time-five" viewBox="0 0 24 24">
	<path d="M12 2C6.486 2 2 6.486 2 12C2 17.514 6.486 22 12 22C17.514 22 22 17.514 22 12C22 6.486 17.514 2 12 2ZM12 20C7.589 20 4 16.411 4 12C4 7.589 7.589 4 12 4C16.411 4 20 7.589 20 12C20 16.411 16.411 20 12 20Z" fill="white"/>
	<path d="M13 7H11V12.414L14.293 15.707L15.707 14.293L13 11.586V7Z" fill="white"/>
</symbol>

<symbol id="timer" viewBox="0 0 24 24">
	<path d="M15 6C11.141 6 8 9.14 8 13C8 16.86 11.141 20 15 20C18.859 20 22 16.86 22 13C22 9.14 18.859 6 15 6ZM15 18C12.243 18 10 15.757 10 13C10 10.243 12.243 8 15 8C17.757 8 20 10.243 20 13C20 15.757 17.757 18 15 18Z" fill="white"/>
	<path d="M14 10H16V14H14V10ZM13 2H17V4H13V2ZM3 8H7V10H3V8ZM3 16H7V18H3V16ZM2 12H5.99V14H2V12Z" fill="white"/>
	<path d="M19.4866 3.24146L21.8169 5.24165L20.5142 6.75926L18.1839 4.75907L19.4866 3.24146Z" fill="white"/>
</symbol>

<symbol id="task" viewBox="0 0 32 32">
	<path d="M6.66667 29.3333H25.3333C26.804 29.3333 28 28.1373 28 26.6667V6.66666C28 5.19599 26.804 3.99999 25.3333 3.99999H21.3333C21.3333 3.26266 20.7373 2.66666 20 2.66666H12C11.2627 2.66666 10.6667 3.26266 10.6667 3.99999H6.66667C5.196 3.99999 4 5.19599 4 6.66666V26.6667C4 28.1373 5.196 29.3333 6.66667 29.3333ZM6.66667 6.66666H10.6667V9.33332H21.3333V6.66666H25.3333V26.6667H6.66667V6.66666Z" fill="#4580F1"/>
	<path d="M14.6666 18.1147L12.276 15.724L10.3906 17.6093L14.6666 21.8853L21.6093 14.9427L19.724 13.0573L14.6666 18.1147Z" fill="#4580F1"/>
</symbol>

<symbol id="hive" viewBox="0 0 32 32">
	<path d="M27.86 10.0707L25.1934 4.73733C24.9667 4.28533 24.5054 4 24 4H17.3334C16.828 4 16.3667 4.28533 16.14 4.73733L13.8427 9.33333H8.00002C7.49469 9.33333 7.03336 9.61867 6.80669 10.0707L4.14002 15.404C3.95202 15.7787 3.95202 16.2213 4.14002 16.5973L6.80669 21.9307C7.03336 22.3813 7.49469 22.6667 8.00002 22.6667H13.8427L16.1414 27.2627C16.3667 27.7147 16.828 28 17.3334 28H24C24.5054 28 24.9667 27.7147 25.1934 27.2627L27.86 21.9293C28.048 21.5547 28.048 21.112 27.86 20.736L25.4907 16L27.8587 11.2627C28.0467 10.888 28.0467 10.4453 27.86 10.0707ZM18.1574 6.66667H23.176L25.176 10.6667L23.176 14.6667H18.1574L16.1574 10.6667L18.1574 6.66667ZM6.82402 16L8.82402 12H13.8427L15.8427 16L13.8427 20H8.82402L6.82402 16ZM23.176 25.3333H18.1574L16.1574 21.3333L18.1574 17.3333H23.176L25.176 21.3333L23.176 25.3333Z" fill="#4580F1"/>
</symbol>

<symbol id="package" viewBox="0 0 32 32">
	<path d="M29.324 10.6C29.32 10.504 29.3107 10.4067 29.2854 10.3147C29.276 10.2813 29.2574 10.2493 29.2454 10.216C29.2174 10.14 29.192 10.0653 29.152 9.99599C29.1307 9.95999 29.1014 9.93065 29.076 9.89599C29.0334 9.83599 28.992 9.77465 28.94 9.72265C28.9094 9.69332 28.8694 9.66932 28.836 9.64132C28.784 9.59865 28.736 9.55199 28.676 9.51599C28.6707 9.51199 28.664 9.51199 28.6574 9.50799C28.6534 9.50532 28.6507 9.50265 28.6467 9.49999L16.6747 2.84665C16.2734 2.62265 15.7854 2.62399 15.3814 2.84532L3.35335 9.49865C3.34935 9.50265 3.34535 9.50799 3.33869 9.51199C3.33469 9.51332 3.32935 9.51465 3.32535 9.51732C3.27869 9.54399 3.24402 9.58265 3.20002 9.61465C3.15202 9.65065 3.10135 9.68265 3.05869 9.72399C3.01869 9.76532 2.98802 9.81332 2.95335 9.85999C2.91735 9.90665 2.87735 9.94799 2.84802 9.99865C2.81335 10.056 2.79469 10.1213 2.76935 10.184C2.75069 10.228 2.72669 10.2693 2.71469 10.3173C2.68935 10.4067 2.68135 10.5027 2.67602 10.5973C2.67469 10.62 2.66669 10.64 2.66669 10.664V10.6653V10.6667V21.3333C2.66669 21.8173 2.92935 22.264 3.35335 22.4987L15.324 29.148L15.3254 29.1493C15.3267 29.1493 15.3267 29.1493 15.328 29.1507L15.3547 29.1653C15.412 29.1973 15.4747 29.2147 15.5347 29.2373C15.5774 29.2547 15.6187 29.2773 15.664 29.2893C15.772 29.3173 15.8867 29.3333 16 29.3333C16.1134 29.3333 16.228 29.3173 16.3387 29.2893C16.3827 29.2773 16.424 29.2547 16.468 29.2373C16.528 29.2147 16.5907 29.1987 16.648 29.1653L16.6747 29.1507C16.676 29.1493 16.676 29.1493 16.6774 29.1493L16.6787 29.148L28.6494 22.4987C29.0707 22.264 29.3334 21.8173 29.3334 21.3333V10.6667V10.6653V10.664C29.3334 10.6413 29.3254 10.6227 29.324 10.6ZM15.9627 15.8293L6.74402 10.6733L10.4267 8.63599L19.5387 13.8427L15.9627 15.8293ZM16.0267 5.53732L25.2547 10.6667L22.2627 12.3293L13.156 7.12532L16.0267 5.53732ZM5.33335 12.94L14.6667 18.1613V25.7347L5.33335 20.548V12.94ZM17.3334 25.7347L17.336 18.1627L21.3334 15.9253V20L24 18.6667V14.4333L26.6667 12.9413V20.548L17.3334 25.7347Z" fill="#4580F1"/>
</symbol>

<symbol id="basket" viewBox="0 0 32 32">
	<path d="M28 12H26.1067L21.1573 3.33868L18.8427 4.66135L23.036 12H8.96401L13.1587 4.66135L10.8427 3.33868L5.89334 12H4.00001C3.58401 12 3.19334 12.1947 2.94001 12.524C2.68801 12.8547 2.60401 13.284 2.71334 13.684L6.44534 27.3694C6.76134 28.5267 7.82001 29.3334 9.01868 29.3334H22.9827C24.18 29.3334 25.2387 28.5267 25.556 27.3667L29.288 13.6827C29.3973 13.2827 29.3147 12.8534 29.0613 12.5227C28.8067 12.1947 28.416 12 28 12ZM22.9813 26.6667V28V26.6667H9.01868L5.74668 14.6667H26.2533L22.9813 26.6667Z" fill="#4580F1"/>
	<path d="M12 17.3333H14.6667V24H12V17.3333ZM17.3333 17.3333H20V24H17.3333V17.3333Z" fill="#4580F1"/>
</symbol>

<symbol id="wrench" viewBox="0 0 32 32">
	<path d="M6.8293 28C7.3333 28.504 8.00264 28.7814 8.71464 28.7814C9.42664 28.7814 10.096 28.504 10.6 28L16.3813 22.2187C17.336 22.5134 18.3266 22.6627 19.3373 22.6627C22.008 22.6627 24.52 21.624 26.4066 19.736C29.268 16.8734 30.1226 12.604 28.5826 8.85869L27.8226 7.00802L22.164 12.6654L19.336 9.83602L24.9933 4.17869L23.1413 3.41735C21.928 2.91869 20.6466 2.66669 19.332 2.66669C16.6613 2.66669 14.1506 3.70669 12.264 5.59469C9.6173 8.24002 8.68797 12.0907 9.7813 15.6187L3.99997 21.4C2.95997 22.4387 2.95997 24.132 3.99997 25.1707L6.8293 28ZM12.8933 16.2787L12.5546 15.4574C11.424 12.7094 12.0506 9.57735 14.1493 7.48002C15.5333 6.09602 17.3733 5.33335 19.332 5.33335C19.568 5.33335 19.8013 5.34402 20.0333 5.36669L15.5626 9.83735L22.1613 16.4374L26.6346 11.964C26.8426 14.108 26.0973 16.272 24.5186 17.852C22.452 19.9187 19.2333 20.5547 16.54 19.4467L15.72 19.1067L8.71464 26.1147H8.71597L8.71464 27.448V26.1147L5.8853 23.2854L12.8933 16.2787Z" fill="#4580F1"/>
</symbol>

<symbol id="coffee" viewBox="0 0 32 32">
	<path d="M6.66667 2.66669H9.33333V6.66669H6.66667V2.66669ZM12 2.66669H14.6667V6.66669H12V2.66669ZM17.3333 2.66669H20V6.66669H17.3333V2.66669ZM25.3333 12H22.6667V10.6667V9.33335H21.3333H5.33333H4V10.6667V17.3334V24C4 26.2054 5.79467 28 8 28H18.6667C20.872 28 22.6667 26.2054 22.6667 24H25.3333C26.804 24 28 22.804 28 21.3334V14.6667C28 13.196 26.804 12 25.3333 12ZM20 24C20 24.736 19.4027 25.3334 18.6667 25.3334H8C7.264 25.3334 6.66667 24.736 6.66667 24V17.3334V12H20V13.3334V16V22.6667V24ZM22.6667 21.3334V16V14.6667H25.3333L25.336 21.3334H22.6667Z" fill="#4580F1"/>
</symbol>

<symbol id="xseven" viewBox="0 0 49 9">
	<path fill-rule="evenodd" clip-rule="evenodd" d="M12.8636 7.58896V5.50274L13.363 5.79487C14.1189 6.23714 14.8025 6.45557 15.6274 6.45557C16.0992 6.45557 16.381 6.37608 16.5377 6.26747C16.6692 6.17628 16.7478 6.04044 16.7478 5.7893C16.7478 5.719 16.7346 5.68077 16.7205 5.65527C16.7053 5.62789 16.6755 5.59115 16.6078 5.54428C16.4572 5.44005 16.2066 5.34124 15.7813 5.18828L14.9112 4.87628C14.3796 4.67759 13.9141 4.42484 13.5813 4.05721C13.2389 3.6789 13.0593 3.20378 13.0593 2.61256C13.0593 1.9111 13.3111 1.31272 13.8328 0.899137C14.3423 0.495143 15.0686 0.299763 15.9627 0.299763C16.7458 0.299763 17.5408 0.463335 18.1923 0.717681L18.4051 0.800753V2.83109L17.9311 2.60625C17.2773 2.29616 16.7253 2.12983 15.9906 2.12983C15.5877 2.12983 15.3328 2.19538 15.1874 2.28992C15.0686 2.36714 14.996 2.47958 14.996 2.69728C14.996 2.76423 15.0054 2.79992 15.0149 2.82159C15.0235 2.84147 15.04 2.86806 15.0832 2.90422C15.185 2.98932 15.3804 3.08569 15.769 3.22848L15.7721 3.22961L16.57 3.54083L16.5707 3.54109C17.2119 3.78762 17.7473 4.0326 18.1178 4.38236C18.5126 4.75502 18.6985 5.22323 18.6985 5.84577C18.6985 6.65176 18.3808 7.27992 17.8062 7.69377C17.2481 8.09571 16.4819 8.27152 15.6134 8.27152C14.7625 8.27152 13.8271 8.09448 13.043 7.68307L12.8636 7.58896ZM26.1731 7.30279L26.0167 7.40153C25.4268 7.7741 24.4852 8.28564 22.9343 8.28564C21.7042 8.28564 20.7198 7.86887 20.0448 7.13537C19.3732 6.40547 19.0389 5.39587 19.0389 4.26447C19.0389 3.19605 19.388 2.19984 20.0624 1.46758C20.7401 0.731753 21.7252 0.285645 22.9483 0.285645C24.0378 0.285645 24.9356 0.626751 25.5599 1.28375C26.1824 1.93884 26.4944 2.86739 26.4944 3.96797V3.97875C26.4944 4.11912 26.4945 4.50665 26.4788 4.66501L26.4488 4.96772H20.9815C21.0517 5.33411 21.2288 5.65898 21.4963 5.91009C21.8441 6.23651 22.3638 6.45557 23.0461 6.45557C23.735 6.45557 24.2244 6.34558 24.6155 6.191C24.9921 6.04214 25.2881 5.84872 25.609 5.63901C25.6259 5.62796 25.6429 5.61687 25.6599 5.60574L26.1731 5.27085V7.30279ZM20.6849 3.57264H24.9742C24.9742 3.45759 24.9648 3.34527 24.9466 3.23648C24.7988 2.35742 24.0657 1.70896 22.9343 1.70896C21.7939 1.70896 20.9794 2.29964 20.7431 3.23648C20.7159 3.34409 20.6964 3.45627 20.6849 3.57264ZM30.873 8.13034H29.3058L25.9976 0.469189H28.0937L28.1804 0.672238C29.3163 3.33414 29.8292 4.54997 30.1366 5.31481C30.4329 4.56619 30.9288 3.36882 32.0678 0.673339L32.1541 0.469189H34.1812L30.873 8.13034ZM40.8886 7.30279L40.7322 7.40153C40.1423 7.7741 39.2007 8.28564 37.6498 8.28564C36.4197 8.28564 35.4353 7.86887 34.7603 7.13537C34.0886 6.40547 33.7544 5.39587 33.7544 4.26447C33.7544 3.19605 34.1035 2.19984 34.7779 1.46758C35.4555 0.731753 36.4407 0.285645 37.6638 0.285645C38.7533 0.285645 39.6511 0.626751 40.2754 1.28375C40.8979 1.93884 41.2099 2.86739 41.2099 3.96797V3.97875C41.2099 4.11912 41.2099 4.50665 41.1943 4.66501L41.1643 4.96772H35.697C35.7672 5.33411 35.9443 5.65898 36.2118 5.91009C36.5596 6.23651 37.0793 6.45557 37.7616 6.45557C38.4505 6.45557 38.9399 6.34558 39.331 6.191C39.7076 6.04214 40.0036 5.84872 40.3245 5.63902C40.3414 5.62797 40.3584 5.61688 40.3754 5.60574L40.8886 5.27085V7.30279ZM35.4004 3.57264H39.6897C39.6897 3.45759 39.6803 3.34527 39.6621 3.23648C39.5143 2.35742 38.8147 1.74325 37.6833 1.74325C36.5428 1.74325 35.6949 2.29964 35.4586 3.23648C35.4314 3.34409 35.4119 3.45627 35.4004 3.57264ZM43.8452 8.13034H41.9364V0.469189H43.8172V1.13449C44.3969 0.638784 45.2147 0.313882 46.0833 0.313882C47.2156 0.313882 48.0909 0.73314 48.5558 1.6202C48.7019 1.89055 48.7821 2.22882 48.8278 2.54656C48.8745 2.87087 48.8889 3.20206 48.8889 3.47381V8.13034H46.9941V3.81266C46.9941 3.57682 46.9807 3.33857 46.9461 3.12589C46.9109 2.90892 46.8572 2.74177 46.7911 2.63204L46.789 2.62854L46.787 2.62499C46.6042 2.30412 46.2433 2.12983 45.6921 2.12983C45.141 2.12983 44.4474 2.42748 44.1003 2.97697L44.0975 2.9815L44.0944 2.98593C43.9553 3.1915 43.8452 3.4905 43.8452 3.93973V8.13034Z" fill="white"/>
	<path fill-rule="evenodd" clip-rule="evenodd" d="M2.25098 8.13039H0L3.00836 4.17985L0.181447 0.469238H2.50341L2.60325 0.602047C3.25637 1.47082 3.66398 1.99808 3.93791 2.35243L3.97499 2.40039C4.08309 2.54025 4.17074 2.65377 4.24515 2.75224C4.49982 2.41457 4.92577 1.85603 5.8897 0.599445L5.98959 0.469238H8.249L5.39971 4.12674L8.41685 8.13039H6.14393L6.04404 8.00102C4.97298 6.61394 4.49531 5.99008 4.192 5.5779C4.04623 5.77136 3.87126 6.00089 3.61661 6.33495C3.32471 6.71787 2.92813 7.23813 2.35084 7.9988L2.25098 8.13039Z" fill="white"/>
	<path fill-rule="evenodd" clip-rule="evenodd" d="M11.3254 7.08832C11.3254 7.72869 10.8241 8.27161 10.1824 8.27161C9.5333 8.27161 9.05334 7.72088 9.05334 7.08832C9.05334 6.45577 9.5333 5.90503 10.1824 5.90503C10.8241 5.90503 11.3254 6.44796 11.3254 7.08832Z" fill="#F85930"/>
</symbol>

<symbol id="close" viewBox="0 0 16 16">
	<path d="M4 4L12 12"  stroke-linecap="round" stroke-linejoin="round"/>
	<path d="M12 4L4 12" stroke-linecap="round" stroke-linejoin="round"/>
</symbol>

<symbol id="cameras" viewBox="0 0 16 136">
	<g opacity="0.54">
	<path d="M7.99992 125.333C6.55459 125.333 5.33325 126.555 5.33325 128C5.33325 129.445 6.55459 130.667 7.99992 130.667C9.44525 130.667 10.6666 129.445 10.6666 128C10.6666 126.555 9.44525 125.333 7.99992 125.333ZM7.99992 129.333C7.28992 129.333 6.66659 128.71 6.66659 128C6.66659 127.29 7.28992 126.667 7.99992 126.667C8.70992 126.667 9.33325 127.29 9.33325 128C9.33325 128.71 8.70992 129.333 7.99992 129.333Z" fill="#808EA1"/>
	<path d="M13.3333 123.333H11.6093L9.80459 121.529C9.67992 121.403 9.51059 121.333 9.33325 121.333H6.66659C6.48925 121.333 6.31992 121.403 6.19525 121.529L4.39059 123.333H2.66659C1.93125 123.333 1.33325 123.931 1.33325 124.667V132C1.33325 132.735 1.93125 133.333 2.66659 133.333H13.3333C14.0686 133.333 14.6666 132.735 14.6666 132V124.667C14.6666 123.931 14.0686 123.333 13.3333 123.333ZM2.66659 132V124.667H4.66659C4.84392 124.667 5.01325 124.597 5.13792 124.471L6.94258 122.667H9.05725L10.8619 124.471C10.9866 124.597 11.1559 124.667 11.3333 124.667H13.3333L13.3346 132H2.66659Z" fill="#808EA1"/>
	</g>
	<g opacity="0.54">
	<path d="M7.99992 95.3332C6.55459 95.3332 5.33325 96.5545 5.33325 97.9999C5.33325 99.4452 6.55459 100.667 7.99992 100.667C9.44525 100.667 10.6666 99.4452 10.6666 97.9999C10.6666 96.5545 9.44525 95.3332 7.99992 95.3332ZM7.99992 99.3332C7.28992 99.3332 6.66659 98.7099 6.66659 97.9999C6.66659 97.2899 7.28992 96.6665 7.99992 96.6665C8.70992 96.6665 9.33325 97.2899 9.33325 97.9999C9.33325 98.7099 8.70992 99.3332 7.99992 99.3332Z" fill="#808EA1"/>
	<path d="M13.3333 93.3332H11.6093L9.80459 91.5285C9.67992 91.4032 9.51059 91.3332 9.33325 91.3332H6.66659C6.48925 91.3332 6.31992 91.4032 6.19525 91.5285L4.39059 93.3332H2.66659C1.93125 93.3332 1.33325 93.9312 1.33325 94.6665V102C1.33325 102.735 1.93125 103.333 2.66659 103.333H13.3333C14.0686 103.333 14.6666 102.735 14.6666 102V94.6665C14.6666 93.9312 14.0686 93.3332 13.3333 93.3332ZM2.66659 102V94.6665H4.66659C4.84392 94.6665 5.01325 94.5965 5.13792 94.4712L6.94258 92.6665H9.05725L10.8619 94.4712C10.9866 94.5965 11.1559 94.6665 11.3333 94.6665H13.3333L13.3346 102H2.66659Z" fill="#808EA1"/>
	</g>
	<g opacity="0.54">
	<path d="M7.99992 65.3332C6.55459 65.3332 5.33325 66.5545 5.33325 67.9999C5.33325 69.4452 6.55459 70.6665 7.99992 70.6665C9.44525 70.6665 10.6666 69.4452 10.6666 67.9999C10.6666 66.5545 9.44525 65.3332 7.99992 65.3332ZM7.99992 69.3332C7.28992 69.3332 6.66659 68.7099 6.66659 67.9999C6.66659 67.2899 7.28992 66.6665 7.99992 66.6665C8.70992 66.6665 9.33325 67.2899 9.33325 67.9999C9.33325 68.7099 8.70992 69.3332 7.99992 69.3332Z" fill="#808EA1"/>
	<path d="M13.3333 63.3332H11.6093L9.80459 61.5285C9.67992 61.4032 9.51059 61.3332 9.33325 61.3332H6.66659C6.48925 61.3332 6.31992 61.4032 6.19525 61.5285L4.39059 63.3332H2.66659C1.93125 63.3332 1.33325 63.9312 1.33325 64.6665V71.9999C1.33325 72.7352 1.93125 73.3332 2.66659 73.3332H13.3333C14.0686 73.3332 14.6666 72.7352 14.6666 71.9999V64.6665C14.6666 63.9312 14.0686 63.3332 13.3333 63.3332ZM2.66659 71.9999V64.6665H4.66659C4.84392 64.6665 5.01325 64.5965 5.13792 64.4712L6.94258 62.6665H9.05725L10.8619 64.4712C10.9866 64.5965 11.1559 64.6665 11.3333 64.6665H13.3333L13.3346 71.9999H2.66659Z" fill="#808EA1"/>
	</g>
	<g opacity="0.54">
	<path d="M7.99992 35.3332C6.55459 35.3332 5.33325 36.5545 5.33325 37.9999C5.33325 39.4452 6.55459 40.6665 7.99992 40.6665C9.44525 40.6665 10.6666 39.4452 10.6666 37.9999C10.6666 36.5545 9.44525 35.3332 7.99992 35.3332ZM7.99992 39.3332C7.28992 39.3332 6.66659 38.7099 6.66659 37.9999C6.66659 37.2899 7.28992 36.6665 7.99992 36.6665C8.70992 36.6665 9.33325 37.2899 9.33325 37.9999C9.33325 38.7099 8.70992 39.3332 7.99992 39.3332Z" fill="#808EA1"/>
	<path d="M13.3333 33.3332H11.6093L9.80459 31.5285C9.67992 31.4032 9.51059 31.3332 9.33325 31.3332H6.66659C6.48925 31.3332 6.31992 31.4032 6.19525 31.5285L4.39059 33.3332H2.66659C1.93125 33.3332 1.33325 33.9312 1.33325 34.6665V41.9999C1.33325 42.7352 1.93125 43.3332 2.66659 43.3332H13.3333C14.0686 43.3332 14.6666 42.7352 14.6666 41.9999V34.6665C14.6666 33.9312 14.0686 33.3332 13.3333 33.3332ZM2.66659 41.9999V34.6665H4.66659C4.84392 34.6665 5.01325 34.5965 5.13792 34.4712L6.94258 32.6665H9.05725L10.8619 34.4712C10.9866 34.5965 11.1559 34.6665 11.3333 34.6665H13.3333L13.3346 41.9999H2.66659Z" fill="#808EA1"/>
	</g>
	<g opacity="0.54">
	<path d="M7.99992 5.33319C6.55459 5.33319 5.33325 6.55452 5.33325 7.99986C5.33325 9.44519 6.55459 10.6665 7.99992 10.6665C9.44525 10.6665 10.6666 9.44519 10.6666 7.99986C10.6666 6.55452 9.44525 5.33319 7.99992 5.33319ZM7.99992 9.33319C7.28992 9.33319 6.66659 8.70986 6.66659 7.99986C6.66659 7.28986 7.28992 6.66652 7.99992 6.66652C8.70992 6.66652 9.33325 7.28986 9.33325 7.99986C9.33325 8.70986 8.70992 9.33319 7.99992 9.33319Z" fill="#808EA1"/>
	<path d="M13.3333 3.33325H11.6093L9.80459 1.52859C9.67992 1.40325 9.51059 1.33325 9.33325 1.33325H6.66659C6.48925 1.33325 6.31992 1.40325 6.19525 1.52859L4.39059 3.33325H2.66659C1.93125 3.33325 1.33325 3.93125 1.33325 4.66659V11.9999C1.33325 12.7353 1.93125 13.3333 2.66659 13.3333H13.3333C14.0686 13.3333 14.6666 12.7353 14.6666 11.9999V4.66659C14.6666 3.93125 14.0686 3.33325 13.3333 3.33325ZM2.66659 11.9999V4.66659H4.66659C4.84392 4.66659 5.01325 4.59659 5.13792 4.47125L6.94258 2.66659H9.05725L10.8619 4.47125C10.9866 4.59659 11.1559 4.66659 11.3333 4.66659H13.3333L13.3346 11.9999H2.66659Z" fill="#808EA1"/>
	</g>
</symbol>

<symbol id="dashboard" viewBox="0 0 20 20">
	<path d="M15.3958 3.6565L15.2908 3.53484L15.2741 3.549C13.7875 2.32984 11.9466 1.6665 10.0083 1.6665C7.78664 1.6665 5.69331 2.5365 4.11498 4.11484C0.865809 7.36317 0.865809 12.6507 4.11498 15.8998C5.69414 17.479 7.78664 18.3482 10.0083 18.3482C12.23 18.3482 14.3225 17.479 15.9 15.9007C19.1491 12.6523 19.1491 7.36484 15.9 4.114C15.7383 3.95234 15.5683 3.80317 15.3958 3.6565ZM10.5466 7.6115C10.3766 7.55234 10.1966 7.514 10.0066 7.514C9.09081 7.514 8.34748 8.25817 8.34748 9.17234C8.34748 10.0898 9.09164 10.8332 10.0066 10.8332C10.9233 10.8332 11.6666 10.089 11.6666 9.17234C11.6666 9.06984 11.6541 8.97067 11.6366 8.87317L15.1916 5.8165C15.9908 6.804 16.46 7.96817 16.6108 9.1665H15V10.8332H16.6141C16.5441 11.4015 16.4066 11.9615 16.19 12.4998H3.82498C3.60831 11.9615 3.47081 11.4015 3.40081 10.8332H4.99998V9.1665H3.40331C3.54914 8.01067 3.99498 6.88817 4.74414 5.92317L5.87498 7.054L7.05331 5.87567L5.92164 4.744C6.86831 4.00567 7.98164 3.54234 9.16664 3.39234V4.99984H10.8333V3.38984C11.9775 3.5315 13.0541 3.96734 13.98 4.65984L10.5466 7.6115ZM10.0083 16.6815C8.23164 16.6815 6.55664 15.9857 5.29331 14.7215C5.11581 14.544 4.95248 14.3573 4.79998 14.1665H15.2158C15.0616 14.3582 14.8991 14.5448 14.7216 14.7223C13.4583 15.9857 11.785 16.6815 10.0083 16.6815Z"/>
</symbol>

<symbol id="cog" viewBox="0 0 20 20">
	<path d="M9.99996 13.3332C11.8383 13.3332 13.3333 11.8382 13.3333 9.99984C13.3333 8.1615 11.8383 6.6665 9.99996 6.6665C8.16163 6.6665 6.66663 8.1615 6.66663 9.99984C6.66663 11.8382 8.16163 13.3332 9.99996 13.3332ZM9.99996 8.33317C10.9033 8.33317 11.6666 9.0965 11.6666 9.99984C11.6666 10.9032 10.9033 11.6665 9.99996 11.6665C9.09663 11.6665 8.33329 10.9032 8.33329 9.99984C8.33329 9.0965 9.09663 8.33317 9.99996 8.33317Z"/>
	<path d="M2.37086 13.4465L3.20419 14.8882C3.64669 15.6523 4.71169 15.939 5.47919 15.4965L5.92003 15.2415C6.40503 15.6223 6.93753 15.9348 7.50003 16.1682V16.6665C7.50003 17.5857 8.24753 18.3332 9.16669 18.3332H10.8334C11.7525 18.3332 12.5 17.5857 12.5 16.6665V16.1682C13.0625 15.9348 13.595 15.6223 14.08 15.2423L14.5209 15.4973C15.29 15.939 16.3525 15.654 16.7967 14.8882L17.6292 13.4473C18.0892 12.6515 17.8159 11.6298 17.02 11.1707L16.5992 10.9273C16.6442 10.6182 16.6667 10.309 16.6667 9.99984C16.6667 9.69067 16.6442 9.38067 16.5992 9.074L17.02 8.83067C17.8159 8.37067 18.0892 7.34984 17.6292 6.554L16.7967 5.11317C16.3542 4.3465 15.29 4.059 14.5209 4.50317L14.08 4.75817C13.595 4.37734 13.0625 4.06484 12.5 3.8315V3.33317C12.5 2.414 11.7525 1.6665 10.8334 1.6665H9.16669C8.24753 1.6665 7.50003 2.414 7.50003 3.33317V3.8315C6.93753 4.06484 6.40503 4.37734 5.92003 4.75734L5.47919 4.50234C4.70919 4.05984 3.64586 4.3465 3.20336 5.11234L2.37086 6.55317C1.91086 7.349 2.18419 8.37067 2.98003 8.82984L3.40086 9.07317C3.35586 9.38067 3.33336 9.69067 3.33336 9.99984C3.33336 10.309 3.35586 10.6182 3.40086 10.9257L2.98003 11.169C2.18419 11.629 1.91086 12.6507 2.37086 13.4465ZM5.14253 11.1482C5.04836 10.7707 5.00003 10.384 5.00003 9.99984C5.00003 9.61484 5.04836 9.22817 5.14169 8.8515C5.23169 8.49067 5.07253 8.114 4.75003 7.92817L3.81419 7.3865L4.64586 5.94567L5.60003 6.49734C5.92003 6.6815 6.32253 6.63484 6.59003 6.379C7.15919 5.83984 7.84586 5.4365 8.57669 5.21317C8.92753 5.1065 9.16669 4.78234 9.16669 4.4165V3.33317H10.8334V4.4165C10.8334 4.78234 11.0725 5.1065 11.4234 5.21317C12.1542 5.43734 12.8409 5.83984 13.41 6.379C13.6775 6.63484 14.0817 6.68067 14.4 6.49734L15.3534 5.9465L16.1867 7.38734L15.25 7.92817C14.9275 8.11484 14.7684 8.4915 14.8584 8.8515C14.9517 9.22817 15 9.61484 15 9.99984C15 10.384 14.9517 10.7707 14.8575 11.1482C14.7684 11.509 14.9275 11.8857 15.25 12.0715L16.1859 12.6123L15.3542 14.0532L14.4 13.5023C14.0809 13.3182 13.6775 13.364 13.41 13.6207C12.8409 14.1598 12.1542 14.5632 11.4234 14.7865C11.0725 14.8932 10.8334 15.2173 10.8334 15.5832L10.835 16.6665H9.16669V15.5832C9.16669 15.2173 8.92753 14.8932 8.57669 14.7865C7.84586 14.5623 7.15919 14.1598 6.59003 13.6207C6.43169 13.469 6.22503 13.3915 6.01669 13.3915C5.87336 13.3915 5.73003 13.4282 5.60003 13.5032L4.64669 14.0548L3.81336 12.614L4.75003 12.0715C5.07253 11.8857 5.23169 11.509 5.14253 11.1482Z" />
</symbol>

<symbol id="box" viewBox="0 0 20 20">
	<path d="M16.6666 2.5H3.33329C2.41413 2.5 1.66663 3.2475 1.66663 4.16667V5.83333C1.66663 6.44667 2.00413 6.97917 2.49996 7.26833V15.8333C2.49996 16.7525 3.24746 17.5 4.16663 17.5H15.8333C16.7525 17.5 17.5 16.7525 17.5 15.8333V7.26833C17.9958 6.97917 18.3333 6.44667 18.3333 5.83333V4.16667C18.3333 3.2475 17.5858 2.5 16.6666 2.5ZM3.33329 4.16667H16.6666L16.6683 5.83333H16.6666H3.33329V4.16667ZM4.16663 15.8333V7.5H15.8333L15.835 15.8333H4.16663Z"/>
	<path d="M6.66663 9.1665H13.3333V10.8332H6.66663V9.1665Z" />
</symbol>

<symbol id="log-out" viewBox="0 0 12 12">
	<path d="M4 6.5V5.5H8.5V4L11 6L8.5 8V6.5H4Z" fill="#808EA1"/>
	<path d="M2 1.5H6.5C7.0515 1.5 7.5 1.9485 7.5 2.5V4.5H6.5V2.5H2V9.5H6.5V7.5H7.5V9.5C7.5 10.0515 7.0515 10.5 6.5 10.5H2C1.4485 10.5 1 10.0515 1 9.5V2.5C1 1.9485 1.4485 1.5 2 1.5Z" fill="#808EA1"/>
</symbol>

<symbol id="loupe" viewBox="0 0 17 17">
	<path d="M7.33329 13.9998C8.87163 13.9998 10.2858 13.4707 11.4141 12.5932L15.0775 16.2565L16.2558 15.0782L12.5925 11.4148C13.4708 10.2857 14 8.8715 14 7.33317C14 3.65734 11.0091 0.666504 7.33329 0.666504C3.65746 0.666504 0.666626 3.65734 0.666626 7.33317C0.666626 11.009 3.65746 13.9998 7.33329 13.9998ZM7.33329 2.33317C10.0908 2.33317 12.3333 4.57567 12.3333 7.33317C12.3333 10.0907 10.0908 12.3332 7.33329 12.3332C4.57579 12.3332 2.33329 10.0907 2.33329 7.33317C2.33329 4.57567 4.57579 2.33317 7.33329 2.33317Z" fill="#808EA1"/>
</symbol>

<symbol id="sort" viewBox="0 0 24 24">
	<path d="M19.707 14.707C19.993 14.421 20.079 13.991 19.924 13.617C19.77 13.244 19.404 13 19 13H12V15H16.586L12.293 19.293C12.007 19.579 11.921 20.009 12.076 20.383C12.23 20.756 12.596 21 13 21H20V19H15.414L19.707 14.707ZM7 3.99H5V15.99H2L6 19.99L10 15.99H7V3.99ZM17 3H15C14.583 3 14.21 3.259 14.063 3.649L11.313 10.982H13.45L14.193 9H17.806L18.549 10.981H20.686L17.936 3.648C17.79 3.259 17.417 3 17 3ZM14.943 7L15.693 5H16.306L17.056 7H14.943Z"/>
</symbol>

<symbol id="chevron-down" viewBox="0 0 16 16">
	<path d="M5.33333 5.33301L8.19533 8.19501L11.0573 5.33301L12 6.27567L8.19533 10.0803L4.39067 6.27567L5.33333 5.33301Z"/>
</symbol>

<symbol id="calendar" viewBox="0 0 20 20">
	<path d="M5.83337 9.16699H7.50004V10.8337H5.83337V9.16699ZM5.83337 12.5003H7.50004V14.167H5.83337V12.5003ZM9.16671 9.16699H10.8334V10.8337H9.16671V9.16699ZM9.16671 12.5003H10.8334V14.167H9.16671V12.5003ZM12.5 9.16699H14.1667V10.8337H12.5V9.16699ZM12.5 12.5003H14.1667V14.167H12.5V12.5003Z" fill="#808EA1"/>
	<path d="M4.16667 18.3337H15.8333C16.7525 18.3337 17.5 17.5862 17.5 16.667V6.66699V5.00033C17.5 4.08116 16.7525 3.33366 15.8333 3.33366H14.1667V1.66699H12.5V3.33366H7.5V1.66699H5.83333V3.33366H4.16667C3.2475 3.33366 2.5 4.08116 2.5 5.00033V6.66699V16.667C2.5 17.5862 3.2475 18.3337 4.16667 18.3337ZM15.8333 6.66699L15.8342 16.667H4.16667V6.66699H15.8333Z" fill="#808EA1"/>
</symbol>

<symbol id="spreadsheet" viewBox="0 0 24 24">
	<path d="M21 5C21 3.897 20.103 3 19 3H5C3.897 3 3 3.897 3 5V19C3 20.103 3.897 21 5 21H19C20.103 21 21 20.103 21 19V5ZM5 19V5H19L19.002 19H5Z" />
	<path d="M7 7H8.998V9H7V7ZM11 7H17V9H11V7ZM7 11H8.998V13H7V11ZM11 11H17V13H11V11ZM7 15H8.998V17H7V15ZM11 15H17V17H11V15Z" />
</symbol>

<symbol id="camera" viewBox="0 0 24 24">
	<path d="M12 8C9.832 8 8 9.832 8 12C8 14.168 9.832 16 12 16C14.168 16 16 14.168 16 12C16 9.832 14.168 8 12 8ZM12 14C10.935 14 10 13.065 10 12C10 10.935 10.935 10 12 10C13.065 10 14 10.935 14 12C14 13.065 13.065 14 12 14Z" />
	<path d="M20 5H17.414L14.707 2.293C14.52 2.105 14.266 2 14 2H10C9.734 2 9.48 2.105 9.293 2.293L6.586 5H4C2.897 5 2 5.897 2 7V18C2 19.103 2.897 20 4 20H20C21.103 20 22 19.103 22 18V7C22 5.897 21.103 5 20 5ZM4 18V7H7C7.266 7 7.52 6.895 7.707 6.707L10.414 4H13.586L16.293 6.707C16.48 6.895 16.734 7 17 7H20L20.002 18H4Z"/>
</symbol>

<symbol id="add" viewBox="0 0 32 32">
	<rect x="0.942871" y="0.942383" width="30.1699" height="30.1699" rx="15.0849" fill="#4580F1"/>
	<path d="M22.5653 15.0241L16.9086 15.0235L16.9086 9.36747L15.0233 9.36747L15.0233 15.0235L9.36728 15.0235L9.36728 16.9088L15.0233 16.9088L15.0239 22.5655L16.9093 22.5655L16.9093 16.9095L22.5653 16.9095L22.5653 15.0241Z" fill="#E5E7EA"/>
</symbol>

<symbol id="favourite" viewBox="0 0 16 16">
	<path d="M4.34399 9.54834L3.35066 13.8497C3.28932 14.1157 3.39599 14.3923 3.62132 14.5477C3.73532 14.6263 3.86732 14.6663 3.99999 14.6663C4.12866 14.6663 4.25799 14.629 4.36999 14.5543L7.99999 12.1343L11.63 14.5543C11.862 14.709 12.1667 14.703 12.3933 14.5383C12.6187 14.3737 12.718 14.085 12.6413 13.817L11.422 9.55034L14.446 6.82901C14.644 6.65034 14.7167 6.37167 14.6313 6.11967C14.5453 5.86767 14.318 5.69034 14.0527 5.66901L10.252 5.36634L8.60732 1.72567C8.49999 1.48634 8.26199 1.33301 7.99999 1.33301C7.73799 1.33301 7.49999 1.48634 7.39266 1.72567L5.74799 5.36634L1.94732 5.66834C1.68599 5.68901 1.46132 5.86034 1.37332 6.10634C1.28399 6.35234 1.34799 6.62767 1.53466 6.81034L4.34399 9.54834ZM6.24599 6.66434C6.48799 6.64501 6.70132 6.49567 6.80066 6.27367L7.99999 3.61967L9.19932 6.27367C9.29866 6.49567 9.51199 6.64501 9.75399 6.66434L12.402 6.87434L10.2213 8.83701C10.032 9.00767 9.95666 9.27034 10.026 9.51567L10.8613 12.439L8.37066 10.7783C8.14666 10.6283 7.85532 10.6283 7.63132 10.7783L5.02866 12.5137L5.72866 9.48301C5.78066 9.25634 5.71132 9.01834 5.54466 8.85634L3.51932 6.88167L6.24599 6.66434Z" />
</symbol>

<symbol id="play" viewBox="0 0 17 19">
	<path d="M12.6217 7.22825L0.60559 14.1285L0.6378 0.272171L12.6217 7.22825Z" fill="#4580F1"/>
</symbol>

<symbol id="line-footer" viewBox="0 0 70 44">
	<path opacity="0.54" d="M1 1C10 22.6667 36.3 59.7 69.5 34.5" stroke="#808EA1" fill="none"/>
</symbol>

<symbol id="edit" viewBox="0 0 24 24">
	<path d="M7 17.0134L11.413 16.9984L21.045 7.45839C21.423 7.08039 21.631 6.57839 21.631 6.04439C21.631 5.51039 21.423 5.00839 21.045 4.63039L19.459 3.04439C18.703 2.28839 17.384 2.29239 16.634 3.04139L7 12.5834V17.0134ZM18.045 4.45839L19.634 6.04139L18.037 7.62339L16.451 6.03839L18.045 4.45839ZM9 13.4174L15.03 7.44439L16.616 9.03039L10.587 15.0014L9 15.0064V13.4174Z" />
	<path d="M5 21H19C20.103 21 21 20.103 21 19V10.332L19 12.332V19H8.158C8.132 19 8.105 19.01 8.079 19.01C8.046 19.01 8.013 19.001 7.979 19H5V5H11.847L13.847 3H5C3.897 3 3 3.897 3 5V19C3 20.103 3.897 21 5 21Z" />
</symbol>

<symbol id="add-chel" viewBox="0 0 56 56">
	<rect width="56" height="56" rx="28" fill="#4580F1"/>
	<path d="M35 24H33V27H30V29H33V32H35V29H38V27H35V24ZM20 24C20 26.28 21.72 28 24 28C26.28 28 28 26.28 28 24C28 21.72 26.28 20 24 20C21.72 20 20 21.72 20 24ZM26 24C26 25.178 25.178 26 24 26C22.822 26 22 25.178 22 24C22 22.822 22.822 22 24 22C25.178 22 26 22.822 26 24ZM20 34C20 32.346 21.346 31 23 31H25C26.654 31 28 32.346 28 34V35H30V34C30 31.243 27.757 29 25 29H23C20.243 29 18 31.243 18 34V35H20V34Z" fill="white"/>
</symbol>

<symbol id="user-x" viewBox="0 0 24 24">
	<path d="M15.706 15.706L17.999 13.413L20.293 15.707L21.707 14.293L19.414 12L21.707 9.707L20.293 8.293L18 10.586L15.707 8.293L14.293 9.707L16.585 11.999L14.292 14.292L15.706 15.706ZM12 8C12 5.72 10.28 4 8 4C5.72 4 4 5.72 4 8C4 10.28 5.72 12 8 12C10.28 12 12 10.28 12 8ZM6 8C6 6.822 6.822 6 8 6C9.178 6 10 6.822 10 8C10 9.178 9.178 10 8 10C6.822 10 6 9.178 6 8ZM4 18C4 16.346 5.346 15 7 15H9C10.654 15 12 16.346 12 18V19H14V18C14 15.243 11.757 13 9 13H7C4.243 13 2 15.243 2 18V19H4V18Z" fill="#E95254"/>
</symbol>

<symbol id="check" viewBox="0 0 24 24">
	<path d="M9.99997 15.586L6.70697 12.293L5.29297 13.707L9.99997 18.414L19.707 8.70697L18.293 7.29297L9.99997 15.586Z" />
</symbol>

<symbol id="box-check" viewBox="0 0 40 40">
	<path d="M33.2749 14.2016C33.3133 13.9116 33.3333 13.6216 33.3333 13.3333C33.3333 9.36825 29.7616 6.18659 25.7983 6.72492C24.6433 4.66992 22.4433 3.33325 19.9999 3.33325C17.5566 3.33325 15.3566 4.66992 14.2016 6.72492C10.2299 6.18659 6.66659 9.36825 6.66659 13.3333C6.66659 13.6216 6.68659 13.9116 6.72492 14.2016C4.66992 15.3583 3.33325 17.5583 3.33325 19.9999C3.33325 22.4416 4.66992 24.6416 6.72492 25.7983C6.68659 26.0883 6.66659 26.3783 6.66659 26.6666C6.66659 30.6316 10.2299 33.8049 14.2016 33.2749C15.3566 35.3299 17.5566 36.6666 19.9999 36.6666C22.4433 36.6666 24.6433 35.3299 25.7983 33.2749C29.7616 33.8049 33.3333 30.6316 33.3333 26.6666C33.3333 26.3783 33.3133 26.0883 33.2749 25.7983C35.3299 24.6416 36.6666 22.4416 36.6666 19.9999C36.6666 17.5583 35.3299 15.3583 33.2749 14.2016ZM18.2583 27.3599L12.1466 21.1699L14.5199 18.8299L18.2816 22.6399L25.4933 15.4833L27.8399 17.8499L18.2583 27.3599Z" />
</symbol>

<symbol id="alert-success" viewBox="0 0 24 24">
	<path d="M12 2C6.486 2 2 6.486 2 12C2 17.514 6.486 22 12 22C17.514 22 22 17.514 22 12C22 6.486 17.514 2 12 2ZM10.001 16.413L6.288 12.708L7.7 11.292L9.999 13.587L15.293 8.293L16.707 9.707L10.001 16.413Z" fill="black"/>
</symbol>

<symbol id="alert-error" viewBox="0 0 24 24">
	<path d="M11.953 2C6.465 2 2 6.486 2 12C2 17.514 6.486 22 12 22C17.514 22 22 17.514 22 12C22 6.486 17.493 2 11.953 2ZM13 17H11V15H13V17ZM13 13H11V7H13V13Z" fill="black"/>
</symbol>

<symbol id="chevron-right" viewBox="0 0 32 32">
	<path d="M14.276 23.6093L21.8853 16L14.276 8.39062L12.3906 10.276L18.1146 16L12.3906 21.724L14.276 23.6093Z" fill="black"/>
</symbol>

<symbol id="download" viewBox="0 0 24 24">
	<path d="M12 16L16 11H13V4H11V11H8L12 16Z" fill="#808EA1"/>
	<path d="M20 18H4V11H2V18C2 19.103 2.897 20 4 20H20C21.103 20 22 19.103 22 18V11H20V18Z" fill="#808EA1"/>
</symbol>

<symbol id="error-circle" viewBox="0 0 16 16">
	<path d="M7.96865 1.33301C4.30998 1.33301 1.33331 4.32367 1.33331 7.99967C1.33331 11.6757 4.32398 14.6663 7.99998 14.6663C11.676 14.6663 14.6666 11.6757 14.6666 7.99967C14.6666 4.32367 11.662 1.33301 7.96865 1.33301ZM7.99998 13.333C5.05931 13.333 2.66665 10.9403 2.66665 7.99967C2.66665 5.05901 5.04465 2.66634 7.96865 2.66634C10.9273 2.66634 13.3333 5.05901 13.3333 7.99967C13.3333 10.9403 10.9406 13.333 7.99998 13.333Z" />
	<path d="M7.33331 4.66699H8.66665V9.33366H7.33331V4.66699ZM7.33331 10.0003H8.66665V11.3337H7.33331V10.0003Z" />
</symbol>

<symbol id="tel" viewBox="0 0 24 24">
	<path d="M20.487 17.1401L16.422 13.4441C16.023 13.0811 15.407 13.1001 15.031 13.4871L12.638 15.9481C12.062 15.8381 10.904 15.4771 9.71204 14.2881C8.52004 13.0951 8.15904 11.9341 8.05204 11.3621L10.511 8.96812C10.899 8.59212 10.917 7.97712 10.554 7.57712L6.85904 3.51312C6.49604 3.11212 5.87904 3.07412 5.46804 3.42612L3.29804 5.28712C3.12504 5.46112 3.02204 5.69112 3.00804 5.93612C2.99304 6.18612 2.70704 12.1081 7.29904 16.7021C11.305 20.7071 16.323 21.0001 17.705 21.0001C17.907 21.0001 18.031 20.9941 18.064 20.9921C18.309 20.9781 18.539 20.8751 18.712 20.7011L20.572 18.5301C20.926 18.1191 20.887 17.5031 20.487 17.1401Z" />
</symbol>

<symbol id="chat" viewBox="0 0 24 24">
	<path d="M16 2H8C4.691 2 2 4.691 2 8V20C2 20.552 2.447 21 3 21H16C19.309 21 22 18.309 22 15V8C22 4.691 19.309 2 16 2ZM9.5 13C8.672 13 8 12.329 8 11.5C8 10.671 8.672 10 9.5 10C10.328 10 11 10.671 11 11.5C11 12.329 10.328 13 9.5 13ZM14.5 13C13.672 13 13 12.329 13 11.5C13 10.671 13.672 10 14.5 10C15.328 10 16 10.671 16 11.5C16 12.329 15.328 13 14.5 13Z" />
</symbol>


<symbol id="close-x" viewBox="0 0 40 40">
	<path d="M26.9867 10.5732L19.915 17.6432L12.845 10.5732L10.4883 12.9299L17.5583 19.9999L10.4883 27.0699L12.845 29.4266L19.915 22.3566L26.9867 29.4266L29.3433 27.0699L22.2733 19.9999L29.3433 12.9299L26.9867 10.5732Z" />
</symbol>

<symbol id="viaolations-line" viewBox="0 0 96 77">
	<path d="M14.9453 4.55112C45.1248 2.89182 97.6623 24.5735 79.7235 76.5872" stroke="#808EA1"/>
</symbol>

<symbol id="clock-five-minutes" viewBox="0 0 20 20">
	<path d="M10.0001 1.66669C5.40505 1.66669 1.66672 5.40502 1.66672 10C1.66672 14.595 5.40505 18.3334 10.0001 18.3334C14.5951 18.3334 18.3334 14.595 18.3334 10C18.3334 5.40502 14.5951 1.66669 10.0001 1.66669ZM10.0001 16.6667C6.32422 16.6667 3.33338 13.6759 3.33338 10C3.33338 6.32419 6.32422 3.33335 10.0001 3.33335C13.6759 3.33335 16.6667 6.32419 16.6667 10C16.6667 13.6759 13.6759 16.6667 10.0001 16.6667Z" fill="#4580F1"/>
	<path d="M9 6H11V12L9 14V6Z" fill="#4580F1"/>
	<path d="M13.2422 7L14.6564 8.41421L8.96424 14.0358L8.97256 11.2696L13.2422 7Z" fill="#4580F1"/>
</symbol>

<symbol id="clock-15-minutes" viewBox="0 0 20 20">
	<path d="M10.0001 1.66669C5.40505 1.66669 1.66672 5.40502 1.66672 10C1.66672 14.595 5.40505 18.3334 10.0001 18.3334C14.5951 18.3334 18.3334 14.595 18.3334 10C18.3334 5.40502 14.5951 1.66669 10.0001 1.66669ZM10.0001 16.6667C6.32422 16.6667 3.33338 13.6759 3.33338 10C3.33338 6.32419 6.32422 3.33335 10.0001 3.33335C13.6759 3.33335 16.6667 6.32419 16.6667 10C16.6667 13.6759 13.6759 16.6667 10.0001 16.6667Z" fill="#4580F1"/>
	<path d="M9 5H11V11C11 11 10.3905 11 10 11C9.60948 11 9 11 9 11V10.0769V5Z" fill="#4580F1"/>
	<path d="M15 9L15 11L9 11L9 10L9 9L9.92308 9L15 9Z" fill="#4580F1"/>
</symbol>

<symbol id="clock-25-minutes" viewBox="0 0 20 20">
	<path d="M10.0001 1.66669C5.40505 1.66669 1.66672 5.40502 1.66672 10C1.66672 14.595 5.40505 18.3334 10.0001 18.3334C14.5951 18.3334 18.3334 14.595 18.3334 10C18.3334 5.40502 14.5951 1.66669 10.0001 1.66669ZM10.0001 16.6667C6.32422 16.6667 3.33338 13.6759 3.33338 10C3.33338 6.32419 6.32422 3.33335 10.0001 3.33335C13.6759 3.33335 16.6667 6.32419 16.6667 10C16.6667 13.6759 13.6759 16.6667 10.0001 16.6667Z" fill="#4580F1"/>
	<path d="M10.0001 1.66669C5.40505 1.66669 1.66672 5.40502 1.66672 10C1.66672 14.595 5.40505 18.3334 10.0001 18.3334C14.5951 18.3334 18.3334 14.595 18.3334 10C18.3334 5.40502 14.5951 1.66669 10.0001 1.66669ZM10.0001 16.6667C6.32422 16.6667 3.33338 13.6759 3.33338 10C3.33338 6.32419 6.32422 3.33335 10.0001 3.33335C13.6759 3.33335 16.6667 6.32419 16.6667 10C16.6667 13.6759 13.6759 16.6667 10.0001 16.6667Z" fill="#4580F1"/>
	<path d="M9 5H11V11.5H10L9 11V10.5V5Z" fill="#4580F1"/>
	<path d="M13.3742 14.3077L11.6421 15.3077L9.00014 10.9999L8.99701 8.4948L9.33245 8.23092L9.73242 8L13.3742 14.3077Z" fill="#4580F1"/>
</symbol>

<symbol id="icon-period" viewBox="0 0 20 20">
	<path d="M9.16666 10H14.1667V15H9.16666V10Z" fill="#4580F1"/>
	<path d="M15.8333 3.33335H14.1667V1.66669H12.5V3.33335H7.5V1.66669H5.83333V3.33335H4.16667C3.2475 3.33335 2.5 4.08085 2.5 5.00002V6.66669V16.6667C2.5 17.5859 3.2475 18.3334 4.16667 18.3334H15.8333C16.7525 18.3334 17.5 17.5859 17.5 16.6667V6.66669V5.00002C17.5 4.08085 16.7525 3.33335 15.8333 3.33335ZM15.8342 16.6667H4.16667V6.66669H15.8333L15.8342 16.6667Z" fill="#4580F1"/>
</symbol>

<symbol id="logo-conect-holding" viewBox="0 0 230 40">
	<path fill-rule="evenodd" clip-rule="evenodd" d="M59.2331 13.1983V15.8743C58.6935 15.3636 58.0643 14.9569 57.3772 14.6744C56.6939 14.3886 55.9597 14.2447 55.2192 14.2514C54.4968 14.2229 53.7768 14.3517 53.109 14.6289C52.4413 14.9061 51.8418 15.3252 51.352 15.857C50.3756 16.9554 49.854 18.3844 49.8932 19.8536C49.8423 21.3216 50.3763 22.7498 51.3779 23.8243C51.8705 24.3525 52.4705 24.7691 53.1376 25.046C53.8046 25.323 54.5232 25.4539 55.2451 25.4299C55.9494 25.4351 56.6478 25.3002 57.2995 25.0328C58.0184 24.7243 58.674 24.2853 59.2331 23.738V26.4571C58.6145 26.8473 57.9388 27.1385 57.2304 27.3203C56.552 27.4843 55.8567 27.5683 55.1588 27.5706C54.156 27.5814 53.1603 27.4027 52.2239 27.0441C51.3538 26.6897 50.5619 26.1676 49.8932 25.5076C49.1402 24.8197 48.5351 23.9855 48.115 23.0561C47.6651 22.0499 47.4468 20.9555 47.4763 19.8536C47.4662 18.7393 47.6744 17.6337 48.0891 16.5993C48.4718 15.6221 49.0607 14.7389 49.8155 14.0097C50.4733 13.3739 51.2509 12.8751 52.103 12.5423C53.1111 12.1889 54.178 12.0336 55.2451 12.0848C55.9732 12.0752 56.6993 12.1652 57.4031 12.3524C58.0525 12.5337 58.6657 12.8257 59.2158 13.2156L59.2331 13.1983ZM63.3333 12.3869H65.6035C66.3945 12.3725 67.1848 12.4449 67.96 12.6027C68.4265 12.7248 68.8718 12.9169 69.2807 13.1724C69.811 13.5454 70.2409 14.0435 70.5324 14.6226C70.8228 15.2159 70.9678 15.8698 70.9553 16.5303C70.9669 17.0573 70.8576 17.5799 70.636 18.0582C70.399 18.5274 70.0562 18.9353 69.6346 19.2494C70.3886 19.4879 71.0474 19.9593 71.5164 20.596C71.9943 21.2456 72.246 22.0339 72.2329 22.8403C72.2324 23.4818 72.1002 24.1164 71.8444 24.7048C71.6095 25.2935 71.2294 25.8132 70.7395 26.2154C70.3033 26.5757 69.7981 26.843 69.2548 27.0009C68.4423 27.2025 67.6055 27.2897 66.7688 27.2599H63.316L63.3333 12.3869ZM65.6035 14.5104V18.8264H66.2854C66.611 18.8582 66.9397 18.825 67.2524 18.7287C67.5651 18.6324 67.8555 18.4749 68.1068 18.2653C68.3128 18.0489 68.472 17.7923 68.5745 17.5116C68.6769 17.2309 68.7205 16.9321 68.7024 16.6339C68.7305 16.3537 68.6997 16.0707 68.612 15.8032C68.5243 15.5356 68.3816 15.2893 68.1931 15.0801C67.7132 14.6736 67.0943 14.4693 66.4667 14.5104H65.6035ZM65.6035 20.6478V25.1364H66.9846C67.7703 25.1978 68.5526 24.9808 69.1944 24.5235C69.4227 24.3156 69.605 24.0624 69.7298 23.78C69.8546 23.4975 69.919 23.1922 69.919 22.8834C69.919 22.5747 69.8546 22.2694 69.7298 21.9869C69.605 21.7045 69.4227 21.4513 69.1944 21.2434C68.563 20.7999 67.7972 20.5894 67.0278 20.6478H65.6035ZM74.6671 27.2599L79.0867 21.0535C78.6732 20.9968 78.2695 20.8835 77.8869 20.7168C77.4972 20.5582 77.138 20.3333 76.8251 20.0521C76.395 19.6985 76.0622 19.241 75.8583 18.7228C75.6441 18.1371 75.5416 17.5163 75.5562 16.8928C75.5444 16.3048 75.6409 15.7195 75.8411 15.1664C76.0436 14.6205 76.3577 14.1228 76.7635 13.7051C77.1693 13.2874 77.6577 12.959 78.1976 12.7408C79.0129 12.4597 79.8737 12.3338 80.7354 12.3697H84.4127V27.2599H82.1079V21.3124H81.5727L77.4984 27.2599H74.6671ZM82.082 14.5104H80.9598C80.4405 14.5104 79.9225 14.5653 79.4147 14.6744C79.0613 14.7506 78.7376 14.9275 78.4825 15.1837C78.2773 15.4129 78.1242 15.6838 78.0336 15.9778C77.7918 16.5997 77.7918 17.2896 78.0336 17.9114C78.1511 18.2139 78.3516 18.4772 78.6119 18.671C78.8811 18.8725 79.195 19.0058 79.5269 19.0595C79.9678 19.1442 80.416 19.1847 80.8649 19.1803H82.1165L82.082 14.5104ZM90.2738 15.7189L88.7718 14.2773C89.3217 13.5931 90.0063 13.029 90.7831 12.62C91.5592 12.2525 92.4106 12.0721 93.2691 12.0934C93.8809 12.0858 94.49 12.1761 95.0732 12.361C95.6101 12.5259 96.1089 12.7958 96.5406 13.1552C96.9329 13.4803 97.2459 13.8907 97.4556 14.355C97.6636 14.8559 97.7721 15.3924 97.775 15.9347C97.793 16.5932 97.6223 17.2432 97.283 17.8078C96.9508 18.3366 96.4906 18.773 95.945 19.0767C96.7745 19.2885 97.5022 19.7869 97.9994 20.4837C98.4797 21.1806 98.7275 22.0114 98.7073 22.8576C98.743 23.5897 98.5827 24.3182 98.2427 24.9677C97.9028 25.6172 97.3957 26.1641 96.7737 26.5521C96.27 26.8889 95.7124 27.1371 95.125 27.2858C94.5189 27.4472 93.8961 27.537 93.2691 27.5534C92.0688 27.5903 90.8848 27.2687 89.8681 26.6297C88.9043 25.9586 88.143 25.0361 87.6669 23.9625L89.6609 22.9266C89.933 23.7037 90.4552 24.3685 91.1456 24.817C91.8446 25.2327 92.6459 25.445 93.459 25.4299C93.8082 25.4288 94.1561 25.3853 94.4948 25.3004C94.8001 25.2265 95.0916 25.1041 95.358 24.9379C95.6917 24.7418 95.9648 24.4577 96.1475 24.1166C96.3303 23.7755 96.4155 23.3906 96.3939 23.0043C96.4116 22.6419 96.3425 22.2805 96.1923 21.9502C96.0422 21.6199 95.8154 21.3302 95.5307 21.1053C94.7576 20.6212 93.851 20.3946 92.9411 20.4579H91.6031V18.3344H92.9411C93.633 18.3819 94.3183 18.1729 94.866 17.7474C95.1081 17.5505 95.3006 17.2995 95.4281 17.0147C95.5555 16.7298 95.6143 16.419 95.5997 16.1073C95.6034 15.868 95.5594 15.6303 95.4703 15.4081C95.3833 15.1869 95.2544 14.9846 95.0905 14.8125C94.8651 14.6156 94.6044 14.4633 94.3222 14.3637C94.0014 14.2616 93.6662 14.212 93.3295 14.2169C92.7311 14.2046 92.1386 14.3379 91.6031 14.6053C91.1124 14.8846 90.6859 15.264 90.3515 15.7189H90.2738ZM103.282 27.2599V12.3869H105.578V18.3775H107.236C107.95 18.3683 108.661 18.4732 109.342 18.6883C109.935 18.8709 110.489 19.1638 110.973 19.5515C111.409 19.9496 111.75 20.4389 111.975 20.9844C112.224 21.5569 112.359 22.1728 112.372 22.7971C112.375 23.5225 112.206 24.2384 111.88 24.8861C111.576 25.5139 111.107 26.0478 110.524 26.4312C110.109 26.7182 109.643 26.9259 109.152 27.0441C108.535 27.1877 107.903 27.2544 107.27 27.2426L103.282 27.2599ZM105.578 20.501V25.1364H107.149C107.932 25.206 108.714 24.9982 109.359 24.5494C109.603 24.3362 109.795 24.0695 109.919 23.7701C110.044 23.4706 110.097 23.1465 110.076 22.823C110.085 22.4978 110.022 22.1746 109.892 21.8762C109.763 21.5779 109.569 21.3117 109.325 21.0966C108.714 20.6335 107.957 20.4067 107.193 20.4579L105.578 20.501ZM115.583 22.0116V19.7587H120.935V22.0116H115.583ZM125.078 27.2599L129.757 19.4911L125.656 12.3697H128.246L131.138 17.4021L134.099 12.3697H136.688L132.372 19.4911L136.852 27.2599H134.263L131.034 21.58L127.659 27.2771L125.078 27.2599ZM146.425 12.0848C147.446 12.0602 148.461 12.246 149.407 12.6306C150.353 13.0152 151.21 13.5905 151.924 14.3205C152.648 15.0428 153.218 15.9053 153.598 16.8551C153.978 17.805 154.16 18.8223 154.133 19.845C154.157 20.8634 153.973 21.876 153.593 22.8212C153.213 23.7664 152.645 24.6246 151.924 25.3436C150.844 26.4411 149.461 27.191 147.952 27.4972C146.443 27.8033 144.878 27.6516 143.456 27.0617C142.034 26.4717 140.82 25.4704 139.971 24.1861C139.122 22.9018 138.676 21.3931 138.691 19.8536C138.665 18.8263 138.848 17.8044 139.229 16.85C139.61 15.8957 140.181 15.0288 140.908 14.3022C141.635 13.5755 142.502 13.0042 143.456 12.623C144.41 12.2418 145.432 12.0587 146.46 12.0848H146.425ZM146.425 25.4213C147.139 25.4448 147.85 25.3179 148.512 25.0487C149.174 24.7796 149.771 24.3741 150.266 23.8589C150.772 23.3253 151.166 22.6962 151.425 22.0085C151.685 21.3207 151.804 20.5881 151.777 19.8536C151.805 19.1125 151.686 18.3732 151.426 17.6784C151.167 16.9836 150.773 16.3469 150.266 15.8052C149.241 14.7931 147.857 14.2256 146.416 14.2256C144.975 14.2256 143.592 14.7931 142.567 15.8052C142.064 16.3489 141.673 16.9862 141.417 17.6808C141.161 18.3755 141.044 19.1138 141.073 19.8536C141.043 20.5897 141.159 21.3244 141.415 22.015C141.672 22.7056 142.063 23.3383 142.567 23.8761C143.064 24.3927 143.665 24.7989 144.329 25.068C144.994 25.3372 145.708 25.4635 146.425 25.4385V25.4213ZM159.822 12.3783H169.317V27.2599H167.03V14.5104H162.118V21.9253C162.163 22.9204 162.037 23.9159 161.747 24.8688C161.515 25.5 161.122 26.0595 160.607 26.4916C160.261 26.7892 159.859 27.0151 159.425 27.1563C158.966 27.3117 158.485 27.3876 158.001 27.3807C157.814 27.3989 157.626 27.3989 157.439 27.3807L156.913 27.303V25.1364L157.319 25.2314H157.655C157.926 25.2303 158.194 25.1836 158.449 25.0932C158.681 25.0236 158.896 24.906 159.08 24.748C159.379 24.4277 159.574 24.0246 159.641 23.5913C159.783 22.8084 159.843 22.0129 159.822 21.2175V12.3783ZM175.239 12.3783H184.544V25.1364H186.201V30.6091H184.078V27.2599H174.479V30.6091H172.356V25.1364C172.871 25.1323 173.365 24.9316 173.737 24.5753C174.17 24.171 174.504 23.6717 174.712 23.1165C174.91 22.5992 175.046 22.0603 175.118 21.511C175.205 20.7459 175.246 19.9762 175.239 19.2062V12.3783ZM177.535 14.5018V19.2235C177.54 20.0023 177.496 20.7806 177.405 21.5541C177.339 22.1681 177.206 22.7731 177.008 23.3582C176.879 23.708 176.714 24.0436 176.516 24.3595C176.327 24.6471 176.097 24.9059 175.834 25.1278H182.248V14.5104L177.535 14.5018ZM200.487 27.2512V17.264L190.457 27.89V12.3524H192.753V22.4432L202.783 11.774V27.3117L200.487 27.2512ZM209.508 12.3783V18.1963H215.801V12.3869H218.097V27.2599H215.801V20.3543H209.473V27.2599H207.177V12.3869L209.508 12.3783ZM230 12.3783V14.5018H224.864V27.2599H222.568V12.3869L230 12.3783Z"/>
	<path d="M38.3346 31.9384L40.061 30.048H27.4928C24.837 29.9708 22.3159 28.8615 20.4647 26.9557C18.6135 25.0499 17.578 22.4976 17.578 19.8407C17.578 17.1838 18.6135 14.6315 20.4647 12.7257C22.3159 10.8199 24.837 9.71057 27.4928 9.63333H40.0869L38.3605 7.74292H27.4928C24.2774 7.74292 21.1937 9.02023 18.9201 11.2939C16.6465 13.5675 15.3691 16.6512 15.3691 19.8666C15.3691 23.082 16.6465 26.1657 18.9201 28.4393C21.1937 30.7129 24.2774 31.9902 27.4928 31.9902L38.3346 31.9384Z"/>
	<path d="M34.8561 35.6415L36.6429 33.7338H23.5568C19.907 33.6432 16.4373 32.1296 13.888 29.5162C11.3387 26.9028 9.91177 23.3965 9.91177 19.7457C9.91177 16.0948 11.3387 12.5885 13.888 9.97512C16.4373 7.36171 19.907 5.84816 23.5568 5.75749H36.5566L34.7697 3.84119H23.5481C19.3311 3.84119 15.2869 5.51638 12.305 8.49824C9.32314 11.4801 7.64795 15.5244 7.64795 19.7414C7.64795 23.9583 9.32314 28.0026 12.305 30.9845C15.2869 33.9663 19.3311 35.6415 23.5481 35.6415H34.8561Z"/>
	<path d="M33.0606 37.5752H19.7414C15.0807 37.4726 10.6454 35.5491 7.38543 32.2166C4.12546 28.8841 2.3 24.4076 2.3 19.7457C2.3 15.0839 4.12546 10.6073 7.38543 7.27485C10.6454 3.94236 15.0807 2.01886 19.7414 1.91631H32.9743L31.1961 0H19.7414C14.5057 0 9.48436 2.07989 5.78213 5.78213C2.07989 9.48436 0 14.5057 0 19.7414C0 24.9772 2.07989 29.9985 5.78213 33.7007C9.48436 37.4029 14.5057 39.4828 19.7414 39.4828H31.2824L33.0606 37.5752Z"/>
</symbol>

<symbol id="chevron" viewBox="0 0 24 24">
	<path d="M6.293 10.707L12 16.414L17.707 10.707L16.293 9.293L12 13.586L7.707 9.293L6.293 10.707Z" />
</symbol>


<symbol id="" viewBox="">
</symbol>

</svg>
