<svg display="none" width="0" height="0" version="1.1" xmlns="http://www.w3.org/2000/svg" xmlns:xlink="http://www.w3.org/1999/xlink">

<symbol id="login" viewBox="0 0 16 16">
	<path d="M10 2H12.6667C13.0203 2 13.3594 2.14048 13.6095 2.39052C13.8595 2.64057 14 2.97971 14 3.33333V12.6667C14 13.0203 13.8595 13.3594 13.6095 13.6095C13.3594 13.8595 13.0203 14 12.6667 14H10" stroke-linecap="round" stroke-linejoin="round"/>
	<path d="M6.66663 11.3337L9.99996 8.00033L6.66663 4.66699"  stroke-linecap="round" stroke-linejoin="round"/>
	<path d="M10 8H2" stroke-linecap="round" stroke-linejoin="round"/>
</symbol>

<symbol id="logout" viewBox="0 0 16 16">
	<path d="M6 14H3.33333C2.97971 14 2.64057 13.8595 2.39052 13.6095C2.14048 13.3594 2 13.0203 2 12.6667V3.33333C2 2.97971 2.14048 2.64057 2.39052 2.39052C2.64057 2.14048 2.97971 2 3.33333 2H6"  stroke-linecap="round" stroke-linejoin="round"/>
	<path d="M10.6665 11.3337L13.9998 8.00033L10.6665 4.66699"  stroke-linecap="round" stroke-linejoin="round"/>
	<path d="M14 8H6"  stroke-linecap="round" stroke-linejoin="round"/>
</symbol>




<symbol id="arrow--small" viewBox="0 0 33 29">
	<path d="M21.5 16L21.6061 16.1061L21.6061 16.1061L21.5 16ZM0.90582 20.8833C0.841335 20.9353 0.831217 21.0298 0.883223 21.0943L1.73069 22.1451C1.7827 22.2096 1.87713 22.2197 1.94162 22.1677C2.0061 22.1157 2.01622 22.0213 1.96422 21.9568L1.21091 21.0227L2.145 20.2694C2.20948 20.2174 2.2196 20.1229 2.1676 20.0585C2.11559 19.994 2.02116 19.9839 1.95667 20.0359L0.90582 20.8833ZM27 1.00009C26.851 1.01766 26.851 1.01763 26.851 1.01763C26.851 1.01768 26.851 1.01771 26.851 1.0178C26.8511 1.01798 26.8511 1.01828 26.8511 1.01872C26.8512 1.01958 26.8514 1.02096 26.8516 1.02285C26.852 1.02663 26.8527 1.03243 26.8535 1.04023C26.8551 1.05582 26.8574 1.07938 26.8603 1.11058C26.8659 1.17298 26.8734 1.26595 26.8806 1.38692C26.8951 1.62888 26.9088 1.98279 26.905 2.4282C26.8974 3.31918 26.8201 4.57541 26.5409 6.03359C25.9827 8.9501 24.6182 12.6697 21.3939 15.8939L21.6061 16.1061C24.8839 12.8283 26.2694 9.04792 26.8356 6.08999C27.1187 4.61094 27.1972 3.33633 27.205 2.43076C27.2088 1.9779 27.195 1.61712 27.1801 1.36895C27.1726 1.24486 27.1649 1.14891 27.159 1.08365C27.1561 1.05102 27.1536 1.02607 27.1519 1.00911C27.151 1.00063 27.1503 0.994148 27.1498 0.989703C27.1495 0.987482 27.1493 0.98577 27.1492 0.984571C27.1491 0.983973 27.1491 0.983502 27.149 0.983161C27.149 0.982991 27.149 0.982832 27.149 0.982747C27.149 0.982621 27.149 0.982527 27 1.00009ZM21.3939 15.8939C18.1822 19.1057 13.1019 20.3516 8.79733 20.7883C6.64908 21.0063 4.70263 21.0219 3.29318 20.983C2.58859 20.9635 2.01853 20.9304 1.62495 20.9022C1.42817 20.8881 1.27553 20.8753 1.17228 20.866C1.12065 20.8613 1.08138 20.8575 1.05511 20.8549C1.04197 20.8536 1.03209 20.8526 1.02554 20.8519C1.02226 20.8516 1.01982 20.8514 1.01822 20.8512C1.01742 20.8511 1.01683 20.851 1.01645 20.851C1.01626 20.851 1.01614 20.851 1.01605 20.851C1.01598 20.8509 1.01596 20.8509 0.999983 21.0001C0.984003 21.1492 0.984095 21.1492 0.984238 21.1493C0.984358 21.1493 0.984553 21.1493 0.984793 21.1493C0.985269 21.1494 0.985956 21.1494 0.986856 21.1495C0.988653 21.1497 0.991297 21.15 0.994777 21.1504C1.00173 21.1511 1.01203 21.1521 1.02558 21.1535C1.05268 21.1561 1.09281 21.16 1.14531 21.1647C1.25031 21.1742 1.4048 21.1872 1.60353 21.2015C2.00097 21.2299 2.57543 21.2632 3.2849 21.2828C4.70357 21.322 6.66337 21.3064 8.82761 21.0868C13.148 20.6485 18.3178 19.3943 21.6061 16.1061L21.3939 15.8939Z" />
</symbol>


<symbol id="copy" viewBox="0 0 24 24">
	<path d="M20 9H11C9.89543 9 9 9.89543 9 11V20C9 21.1046 9.89543 22 11 22H20C21.1046 22 22 21.1046 22 20V11C22 9.89543 21.1046 9 20 9Z" stroke-linecap="round" stroke-linejoin="round"/>
	<path d="M5 15H4C3.46957 15 2.96086 14.7893 2.58579 14.4142C2.21071 14.0391 2 13.5304 2 13V4C2 3.46957 2.21071 2.96086 2.58579 2.58579C2.96086 2.21071 3.46957 2 4 2H13C13.5304 2 14.0391 2.21071 14.4142 2.58579C14.7893 2.96086 15 3.46957 15 4V5" stroke-linecap="round" stroke-linejoin="round"/>
</symbol>

<symbol id="loader" viewBox="0 0 24 24">
	<path d="M12 2V6"  stroke-linecap="round" stroke-linejoin="round"/>
	<path d="M12 18V22"  stroke-linecap="round" stroke-linejoin="round"/>
	<path d="M4.93005 4.92993L7.76005 7.75993"  stroke-linecap="round" stroke-linejoin="round"/>
	<path d="M16.24 16.24L19.07 19.07"  stroke-linecap="round" stroke-linejoin="round"/>
	<path d="M2 12H6"  stroke-linecap="round" stroke-linejoin="round"/>
	<path d="M18 12H22"  stroke-linecap="round" stroke-linejoin="round"/>
	<path d="M4.93005 19.07L7.76005 16.24"  stroke-linecap="round" stroke-linejoin="round"/>
	<path d="M16.24 7.75993L19.07 4.92993"  stroke-linecap="round" stroke-linejoin="round"/>
</symbol>



<symbol id="app-store--dark" viewBox="0 0 103 32">
	<path d="M99.7812 32H3.21875C1.44844 32 0 30.56 0 28.8V3.2C0 1.44 1.44844 0 3.21875 0H99.7812C101.552 0 103 1.44 103 3.2V28.8C103 30.56 101.552 32 99.7812 32Z" fill="#000"/>
	<path d="M21.7265 15.8402C21.7265 13.3602 23.8187 12.1602 23.8992 12.0802C22.6921 10.4002 20.9218 10.1602 20.2781 10.0802C18.7492 9.92021 17.2203 10.9602 16.4961 10.9602C15.6914 10.9602 14.4843 10.0802 13.1968 10.0802C11.507 10.0802 9.97808 11.0402 9.09293 12.5602C7.32261 15.6002 8.61012 20.0802 10.3 22.5602C11.1851 23.7602 12.1507 25.1202 13.4382 25.0402C14.7257 24.9602 15.2086 24.2402 16.7375 24.2402C18.2664 24.2402 18.6687 25.0402 20.0367 25.0402C21.4046 25.0402 22.2898 23.8402 23.0945 22.6402C24.0601 21.2802 24.4625 19.9202 24.4625 19.8402C24.382 19.7602 21.7265 18.8002 21.7265 15.8402Z" fill="#fff"/>
	<path d="M19.232 8.48027C19.8758 7.60027 20.3586 6.48027 20.2781 5.28027C19.3125 5.36027 18.025 5.92027 17.3812 6.80027C16.7375 7.52027 16.1742 8.72027 16.3352 9.84027C17.3812 9.92027 18.5078 9.28027 19.232 8.48027Z" fill="#fff"/>
	<path d="M40.0734 24.8796H38.3031L37.3375 21.8396H33.9578L33.0727 24.8796H31.3828L34.7625 14.5596H36.8547L40.0734 24.8796ZM37.0156 20.5596L36.1305 17.8396C36.05 17.5996 35.8891 16.8796 35.5672 15.9196C35.4867 16.3196 35.3258 17.0396 35.0844 17.8396L34.1992 20.5596H37.0156Z" fill="#fff"/>
	<path d="M48.6836 21.1204C48.6836 22.4004 48.3617 23.3604 47.6375 24.1604C46.9938 24.8004 46.2695 25.1204 45.3039 25.1204C44.3383 25.1204 43.6141 24.8003 43.2117 24.0803V28.0004H41.5219V20.0004C41.5219 19.2004 41.5219 18.4004 41.4414 17.5204H42.8898L42.9703 18.7204C43.5336 17.8404 44.3383 17.3604 45.4648 17.3604C46.35 17.3604 47.0742 17.6804 47.6375 18.4004C48.3617 19.0404 48.6836 19.9204 48.6836 21.1204ZM46.9938 21.1204C46.9938 20.4004 46.8328 19.7604 46.5109 19.3604C46.1891 18.8804 45.7063 18.6404 45.0625 18.6404C44.6602 18.6404 44.2578 18.8004 43.9359 19.0404C43.6141 19.2804 43.3727 19.6803 43.2922 20.0803C43.2117 20.3203 43.2117 20.4804 43.2117 20.5604V21.8404C43.2117 22.4004 43.3727 22.8004 43.6945 23.2004C44.0164 23.6004 44.4992 23.7604 44.982 23.7604C45.6258 23.7604 46.1086 23.5204 46.4305 23.0404C46.8328 22.5604 46.9938 21.9204 46.9938 21.1204Z" fill="#fff"/>
	<path d="M57.2937 21.1204C57.2937 22.4004 56.9718 23.3604 56.2476 24.1604C55.6039 24.8004 54.8796 25.1204 53.914 25.1204C52.9484 25.1204 52.2242 24.8003 51.8218 24.0803V28.0004H50.132V20.0004C50.132 19.2004 50.132 18.4004 50.0515 17.5204H51.4999L51.5804 18.7204C52.1437 17.8404 52.9484 17.3604 54.075 17.3604C54.9601 17.3604 55.6843 17.6804 56.2476 18.4004C56.9718 19.0404 57.2937 19.9204 57.2937 21.1204ZM55.6039 21.1204C55.6039 20.4004 55.4429 19.7604 55.121 19.3604C54.7992 18.8804 54.3164 18.6404 53.6726 18.6404C53.2703 18.6404 52.8679 18.8004 52.546 19.0404C52.2242 19.2804 51.9828 19.6803 51.9023 20.0803C51.8218 20.3203 51.8218 20.4804 51.8218 20.5604V21.8404C51.8218 22.4004 51.9828 22.8004 52.3046 23.2004C52.6265 23.6004 53.1093 23.7604 53.5921 23.7604C54.2359 23.7604 54.7187 23.5204 55.0406 23.0404C55.4429 22.5604 55.6039 21.9204 55.6039 21.1204Z" fill="#fff"/>
	<path d="M66.95 22.0005C66.95 22.8805 66.6282 23.6005 66.0649 24.1605C65.4211 24.8005 64.4555 25.0405 63.2485 25.0405C62.1219 25.0405 61.2368 24.8005 60.593 24.4005L60.9954 23.0405C61.7196 23.4405 62.5243 23.6805 63.4094 23.6805C64.0532 23.6805 64.536 23.5205 64.8579 23.2805C65.1797 22.9605 65.3407 22.6405 65.3407 22.1605C65.3407 21.7605 65.1797 21.3605 64.9383 21.1205C64.6165 20.8005 64.1336 20.5605 63.4899 20.3205C61.6391 19.6805 60.754 18.6405 60.754 17.3605C60.754 16.4805 61.0758 15.8405 61.7196 15.2805C62.3633 14.7205 63.168 14.4805 64.2946 14.4805C65.2602 14.4805 65.9844 14.6405 66.6282 14.9605L66.2258 16.3205C65.6625 16.0005 65.0188 15.8405 64.2141 15.8405C63.6508 15.8405 63.168 16.0005 62.8461 16.2405C62.6047 16.4805 62.4438 16.8005 62.4438 17.2005C62.4438 17.6005 62.6047 17.9205 62.9266 18.2405C63.168 18.4805 63.7313 18.7205 64.4555 19.0405C65.3407 19.3605 65.9844 19.8405 66.4672 20.3205C66.7086 20.7205 66.95 21.2805 66.95 22.0005Z" fill="#fff"/>
	<path d="M72.4219 18.7196H70.5711V22.3196C70.5711 23.1996 70.893 23.6796 71.5368 23.6796C71.8586 23.6796 72.1 23.6796 72.261 23.5996L72.3415 24.8796C72.0196 25.0396 71.6172 25.0396 71.054 25.0396C70.4102 25.0396 69.8469 24.8796 69.5251 24.4796C69.1227 24.0796 68.9618 23.4396 68.9618 22.4796V18.7196H67.8352V17.4396H68.9618V16.0796L70.5711 15.5996V17.4396H72.4219V18.7196Z" fill="#fff"/>
	<path d="M80.7101 21.1203C80.7101 22.2403 80.3882 23.2003 79.7445 23.9203C79.0203 24.6403 78.1351 25.0403 77.0085 25.0403C75.882 25.0403 74.9968 24.6403 74.3531 23.9203C73.7093 23.2003 73.3875 22.3203 73.3875 21.2003C73.3875 20.0803 73.7093 19.1203 74.4335 18.4003C75.0773 17.6803 76.0429 17.2803 77.1695 17.2803C78.2961 17.2803 79.1812 17.6803 79.825 18.4003C80.3882 19.1203 80.7101 20.0003 80.7101 21.1203ZM78.9398 21.2003C78.9398 20.4803 78.7789 19.9203 78.457 19.4403C78.1351 18.8803 77.5718 18.5603 76.9281 18.5603C76.2843 18.5603 75.721 18.8803 75.3992 19.4403C75.0773 19.9203 74.9164 20.5603 74.9164 21.2003C74.9164 21.9203 75.0773 22.4803 75.3992 22.9603C75.721 23.5203 76.2843 23.8403 76.9281 23.8403C77.5718 23.8403 78.0546 23.5203 78.457 22.9603C78.7789 22.4803 78.9398 21.8403 78.9398 21.2003Z" fill="#fff"/>
	<path d="M86.1016 18.8802C85.9406 18.8802 85.7797 18.8002 85.5383 18.8002C84.975 18.8002 84.4922 19.0402 84.1703 19.4402C83.9289 19.8402 83.768 20.3202 83.768 20.8802V24.8002H82.0781V19.6802C82.0781 18.8002 82.0781 18.0802 81.9977 17.3602H83.4461L83.5266 18.8002H83.6071C83.768 18.3202 84.0899 17.9202 84.4117 17.6002C84.8141 17.3602 85.2164 17.2002 85.6188 17.2002C85.7797 17.2002 85.9407 17.2002 86.0211 17.2002V18.8802H86.1016Z" fill="#fff"/>
	<path d="M93.5047 20.8003C93.5047 21.1203 93.5047 21.3603 93.4242 21.5203H88.4352C88.4352 22.2403 88.6766 22.8003 89.1594 23.2003C89.5617 23.5203 90.125 23.7603 90.7688 23.7603C91.493 23.7603 92.2172 23.6803 92.7805 23.4403L93.0219 24.5603C92.2977 24.8803 91.493 25.0403 90.5274 25.0403C89.4008 25.0403 88.4352 24.7203 87.7914 24.0003C87.1477 23.3603 86.8258 22.4003 86.8258 21.2803C86.8258 20.1603 87.1477 19.2003 87.711 18.4803C88.3547 17.6803 89.2399 17.2803 90.3664 17.2803C91.4125 17.2803 92.2977 17.6803 92.7805 18.4803C93.3438 19.1203 93.5047 19.9203 93.5047 20.8003ZM91.9758 20.4003C91.9758 19.9203 91.8953 19.5203 91.6539 19.1203C91.3321 18.6403 90.9297 18.4003 90.3664 18.4003C89.8031 18.4003 89.4008 18.6403 89.0789 19.0403C88.8375 19.3603 88.6766 19.8403 88.5961 20.3203H91.9758V20.4003Z" fill="#fff"/>
	<path d="M36.5328 8.23984C36.5328 9.11984 36.2914 9.83984 35.7281 10.3198C35.2453 10.7198 34.521 10.9598 33.5554 10.9598C33.0726 10.9598 32.6703 10.9598 32.3484 10.8798V5.91984C32.7507 5.83984 33.2335 5.83984 33.7968 5.83984C34.682 5.83984 35.3257 5.99984 35.8085 6.39984C36.2109 6.79984 36.5328 7.43984 36.5328 8.23984ZM35.6476 8.23984C35.6476 7.67984 35.4867 7.19984 35.1648 6.87984C34.8429 6.55984 34.3601 6.39984 33.7968 6.39984C33.5554 6.39984 33.314 6.39984 33.1531 6.47984V10.2398C33.2335 10.2398 33.4749 10.2398 33.7164 10.2398C34.3601 10.2398 34.8429 10.0798 35.1648 9.75985C35.4867 9.43985 35.6476 8.87984 35.6476 8.23984Z" fill="#fff"/>
	<path d="M41.0391 9.04012C41.0391 9.60012 40.8781 10.0801 40.5563 10.4001C40.2344 10.8001 39.7516 10.9601 39.1883 10.9601C38.625 10.9601 38.2227 10.8001 37.9008 10.4001C37.5789 10.0801 37.418 9.60012 37.418 9.04012C37.418 8.48012 37.5789 8.00012 37.9008 7.68012C38.2227 7.28012 38.7055 7.12012 39.2688 7.12012C39.832 7.12012 40.2344 7.28012 40.5563 7.68012C40.8781 8.00012 41.0391 8.48012 41.0391 9.04012ZM40.2344 9.04012C40.2344 8.72012 40.1539 8.40012 39.993 8.16012C39.832 7.84012 39.5906 7.76012 39.2688 7.76012C38.9469 7.76012 38.7055 7.92012 38.5445 8.16012C38.3836 8.40012 38.3031 8.72012 38.3031 9.04012C38.3031 9.36012 38.3836 9.68012 38.5445 9.92012C38.7055 10.2401 38.9469 10.3201 39.2688 10.3201C39.5906 10.3201 39.832 10.1601 39.993 9.84012C40.1539 9.68012 40.2344 9.36012 40.2344 9.04012Z" fill="#fff"/>
	<path d="M47.2352 7.2002L46.1086 10.8802H45.3844L44.9016 9.2802C44.7406 8.8802 44.6602 8.4802 44.5797 8.0802C44.4992 8.4802 44.4188 8.8802 44.2578 9.2802L43.775 10.8802H43.0508L41.8438 7.2002H42.6484L43.0508 8.9602C43.1313 9.3602 43.2117 9.7602 43.2922 10.1602C43.3727 9.8402 43.4531 9.4402 43.6141 8.9602L44.0969 7.2002H44.7406L45.2234 8.8802C45.3844 9.2802 45.4648 9.6802 45.5453 10.0802C45.6258 9.6802 45.7063 9.2802 45.7867 8.8802L46.2695 7.2002H47.2352Z" fill="#fff"/>
	<path d="M51.4195 10.88H50.6148V8.80004C50.6148 8.16004 50.3734 7.84004 49.8906 7.84004C49.6492 7.84004 49.4883 7.92004 49.3273 8.08004C49.1664 8.24004 49.0859 8.48004 49.0859 8.72004V10.88H48.2812V8.24004C48.2812 7.92004 48.2812 7.60004 48.2812 7.20004H49.0055V7.76004C49.0859 7.60004 49.2469 7.44004 49.4078 7.28004C49.6492 7.12004 49.8906 7.04004 50.132 7.04004C50.4539 7.04004 50.7758 7.12004 51.0172 7.36004C51.3391 7.60004 51.4195 8.00004 51.4195 8.56004V10.88Z" fill="#fff"/>
	<path d="M53.6726 10.8795H52.8679V5.51953H53.6726V10.8795Z" fill="#fff"/>
	<path d="M58.5007 9.04012C58.5007 9.60012 58.3398 10.0801 58.0179 10.4001C57.696 10.8001 57.2132 10.9601 56.6499 10.9601C56.0867 10.9601 55.6843 10.8001 55.3624 10.4001C55.0406 10.0801 54.8796 9.60012 54.8796 9.04012C54.8796 8.48012 55.0406 8.00012 55.3624 7.68012C55.6843 7.36012 56.1671 7.12012 56.7304 7.12012C57.2937 7.12012 57.696 7.28012 58.0179 7.68012C58.3398 8.00012 58.5007 8.48012 58.5007 9.04012ZM57.696 9.04012C57.696 8.72012 57.6156 8.40012 57.4546 8.16012C57.2937 7.84012 57.0523 7.76012 56.7304 7.76012C56.4085 7.76012 56.1671 7.92012 56.0062 8.16012C55.8453 8.40012 55.7648 8.72012 55.7648 9.04012C55.7648 9.36012 55.8453 9.68012 56.0062 9.92012C56.1671 10.2401 56.4085 10.3201 56.7304 10.3201C57.0523 10.3201 57.2937 10.1601 57.4546 9.84012C57.6156 9.68012 57.696 9.36012 57.696 9.04012Z" fill="#fff"/>
	<path d="M62.4438 10.8801H61.7196L61.6391 10.4801C61.3977 10.8001 60.9953 10.9601 60.593 10.9601C60.2711 10.9601 59.9492 10.8801 59.7883 10.6401C59.6274 10.4001 59.4664 10.1601 59.4664 9.92012C59.4664 9.44012 59.6274 9.12012 60.0297 8.88012C60.4321 8.64012 60.9149 8.56012 61.6391 8.56012V8.48012C61.6391 8.00012 61.3977 7.76012 60.9149 7.76012C60.5125 7.76012 60.2711 7.84012 59.9492 8.00012L59.7883 7.44012C60.1102 7.20012 60.5125 7.12012 61.0758 7.12012C62.0414 7.12012 62.5242 7.60012 62.5242 8.64012V10.0001C62.4438 10.4001 62.4438 10.6401 62.4438 10.8801ZM61.6391 9.60012V9.04012C60.7539 9.04012 60.2711 9.28012 60.2711 9.76012C60.2711 9.92012 60.3516 10.0801 60.4321 10.1601C60.5125 10.2401 60.6735 10.3201 60.8344 10.3201C60.9953 10.3201 61.1563 10.2401 61.3172 10.1601C61.4782 10.0801 61.5586 9.92012 61.6391 9.76012C61.6391 9.76012 61.6391 9.68012 61.6391 9.60012Z" fill="#fff"/>
	<path d="M67.1109 10.8796H66.3867V10.3196C66.1453 10.7996 65.7429 10.9596 65.1797 10.9596C64.6968 10.9596 64.375 10.7996 64.0531 10.4796C63.7312 10.1596 63.6508 9.67961 63.6508 9.11961C63.6508 8.55961 63.8117 8.07961 64.1336 7.67961C64.4554 7.35961 64.8578 7.19961 65.2601 7.19961C65.7429 7.19961 66.0648 7.35961 66.3062 7.67961V5.59961H67.1109V9.91961C67.1109 10.2396 67.1109 10.5596 67.1109 10.8796ZM66.3062 9.35961V8.71961C66.3062 8.63961 66.3062 8.55961 66.3062 8.47961C66.2258 8.31961 66.1453 8.15961 65.9843 7.99961C65.8234 7.83961 65.6625 7.83961 65.4211 7.83961C65.0992 7.83961 64.8578 7.99961 64.6968 8.23961C64.5359 8.47961 64.4554 8.79961 64.4554 9.19961C64.4554 9.59961 64.5359 9.83961 64.6968 10.0796C64.8578 10.3196 65.0992 10.4796 65.4211 10.4796C65.6625 10.4796 65.9039 10.3996 66.0648 10.1596C66.2258 9.83961 66.3062 9.59961 66.3062 9.35961Z" fill="#fff"/>
	<path d="M74.1117 9.04012C74.1117 9.60012 73.9508 10.0801 73.6289 10.4001C73.307 10.8001 72.8242 10.9601 72.2609 10.9601C71.6976 10.9601 71.2953 10.8001 70.9734 10.4001C70.6515 10.0801 70.4906 9.60012 70.4906 9.04012C70.4906 8.48012 70.6515 8.00012 70.9734 7.68012C71.2953 7.28012 71.7781 7.12012 72.3414 7.12012C72.9047 7.12012 73.307 7.28012 73.6289 7.68012C73.9508 8.00012 74.1117 8.48012 74.1117 9.04012ZM73.2265 9.04012C73.2265 8.72012 73.1461 8.40012 72.9851 8.16012C72.8242 7.84012 72.5828 7.76012 72.2609 7.76012C71.939 7.76012 71.6976 7.92012 71.5367 8.16012C71.3758 8.40012 71.2953 8.72012 71.2953 9.04012C71.2953 9.36012 71.3758 9.68012 71.5367 9.92012C71.6976 10.2401 71.939 10.3201 72.2609 10.3201C72.5828 10.3201 72.8242 10.1601 72.9851 9.84012C73.1461 9.68012 73.2265 9.36012 73.2265 9.04012Z" fill="#fff"/>
	<path d="M78.5375 10.88H77.7328V8.80004C77.7328 8.16004 77.4914 7.84004 77.0085 7.84004C76.7671 7.84004 76.6062 7.92004 76.4453 8.08004C76.2843 8.24004 76.2039 8.48004 76.2039 8.72004V10.88H75.3992V8.24004C75.3992 7.92004 75.3992 7.60004 75.3992 7.20004H76.1234V7.76004C76.2039 7.60004 76.3648 7.44004 76.5257 7.28004C76.7671 7.12004 77.0085 7.04004 77.25 7.04004C77.5718 7.04004 77.8937 7.12004 78.1351 7.36004C78.457 7.60004 78.5375 8.00004 78.5375 8.56004V10.88Z" fill="#fff"/>
	<path d="M84.0093 7.84031H83.1242V9.60031C83.1242 10.0803 83.2851 10.2403 83.607 10.2403C83.7679 10.2403 83.8484 10.2403 84.0093 10.2403V10.8803C83.8484 10.9603 83.607 10.9603 83.3656 10.9603C83.0437 10.9603 82.8023 10.8803 82.6414 10.6403C82.4804 10.4803 82.4 10.0803 82.4 9.68031V7.84031H81.8367V7.20031H82.4V6.56031L83.2046 6.32031V7.20031H84.0898V7.84031H84.0093Z" fill="#fff"/>
	<path d="M88.3547 10.8795H87.55V8.79953C87.55 8.15953 87.3086 7.83953 86.8258 7.83953C86.4235 7.83953 86.1821 7.99953 86.0211 8.39953C86.0211 8.47953 86.0211 8.55953 86.0211 8.71953V10.8795H85.2164V5.51953H86.0211V7.75953C86.2625 7.35953 86.6649 7.11953 87.1477 7.11953C87.4696 7.11953 87.7914 7.19953 87.9524 7.43953C88.1938 7.67953 88.3547 8.15953 88.3547 8.63953V10.8795Z" fill="#fff"/>
	<path d="M92.7805 8.8802C92.7805 9.0402 92.7805 9.1202 92.7805 9.2802H90.3665C90.3665 9.6802 90.5274 9.9202 90.6883 10.0802C90.9297 10.2402 91.1711 10.3202 91.493 10.3202C91.8954 10.3202 92.2172 10.2402 92.4586 10.1602L92.6196 10.7202C92.2977 10.8802 91.8954 10.9602 91.4126 10.9602C90.8493 10.9602 90.3665 10.8002 90.0446 10.4802C89.7227 10.1602 89.5618 9.6802 89.5618 9.1202C89.5618 8.5602 89.7227 8.0802 90.0446 7.7602C90.3665 7.3602 90.7688 7.2002 91.3321 7.2002C91.8954 7.2002 92.2977 7.3602 92.5391 7.7602C92.7 8.0002 92.7805 8.4002 92.7805 8.8802ZM92.0563 8.64019C92.0563 8.40019 91.9758 8.1602 91.8954 8.0002C91.7344 7.7602 91.5735 7.6802 91.2516 7.6802C91.0102 7.6802 90.7688 7.7602 90.6079 8.0002C90.4469 8.1602 90.3665 8.40019 90.3665 8.64019H92.0563Z" fill="#fff"/>
</symbol>

<symbol id="google-play--dark" viewBox="0 0 103 32">
	<path d="M99.7812 32H3.21875C1.44844 32 0 30.56 0 28.8V3.2C0 1.44 1.44844 0 3.21875 0H99.7812C101.552 0 103 1.44 103 3.2V28.8C103 30.56 101.552 32 99.7812 32Z" fill="#000"/>
	<path fill-rule="evenodd" clip-rule="evenodd" d="M7.88599 15.6804V7.28039C7.88599 6.80039 8.28833 6.40039 8.69067 6.40039C9.09302 6.40039 9.25396 6.48039 9.49536 6.64039L25.0258 15.1204C25.3477 15.2804 25.5086 15.5204 25.5086 15.7604C25.5086 16.0004 25.3477 16.2404 25.0258 16.4004L9.49536 24.8804C9.33442 24.9604 9.09302 25.1204 8.69067 25.1204C8.28833 25.1204 7.88599 24.7204 7.88599 24.2404V15.6804Z" fill="#fff"/>
	<path fill-rule="evenodd" clip-rule="evenodd" d="M17.9445 15.7604L8.52966 6.40039C8.61013 6.40039 8.61013 6.40039 8.6906 6.40039C9.09294 6.40039 9.25388 6.48039 9.49529 6.64039L20.9218 12.8804L17.9445 15.7604Z" fill="url(#paint1_linear)"/>
	<path fill-rule="evenodd" clip-rule="evenodd" d="M20.8414 18.5597L17.9446 15.6797L20.9219 12.7197L25.0258 14.9597C25.3477 15.1197 25.5086 15.3597 25.5086 15.5997C25.5086 15.8397 25.3477 16.0797 25.0258 16.2397L20.8414 18.5597Z" fill="#fff"/>
	<path fill-rule="evenodd" clip-rule="evenodd" d="M8.61011 24.9597L17.9445 15.6797L20.8414 18.5597L9.49527 24.7197C9.25386 24.8797 9.09292 24.9597 8.61011 24.9597C8.69058 24.9597 8.69058 24.9597 8.61011 24.9597Z" fill="#fff"/>
	<path fill-rule="evenodd" clip-rule="evenodd" d="M57.2133 27.1204C56.8109 26.8004 56.489 26.2404 56.3281 25.9204L57.6156 25.3604C57.6961 25.5204 57.857 25.7604 58.0179 26.0004C58.3398 26.3204 58.8226 26.6404 59.3055 26.6404C59.7883 26.6404 60.3515 26.4004 60.6734 26.0004C60.9148 25.6004 61.0757 25.2004 61.0757 24.6404V24.1604C60.1101 25.3604 58.0984 25.2004 56.9718 23.9204C55.7648 22.6404 55.7648 20.4804 56.9718 19.2004C58.1789 18.0004 59.9492 17.8404 60.9953 18.9604V18.4004H62.3633V24.4004C62.3633 25.9204 61.8 26.8004 61.0757 27.3604C60.5929 27.7604 59.8687 27.9204 59.225 27.9204C58.5008 27.8404 57.7765 27.6004 57.2133 27.1204ZM90.9297 27.4404L92.2976 24.2404L89.8836 18.7204H91.2515L92.9414 22.6404L94.6312 18.7204H95.9992L92.2976 27.4404H90.9297ZM84.4117 24.4004C84.0093 24.0004 83.8484 23.4404 83.8484 22.8804C83.8484 22.4004 84.0093 21.9204 84.3312 21.6004C84.8945 21.0404 85.6992 20.8004 86.5843 20.8004C87.1476 20.8004 87.6304 20.8804 88.0328 21.1204C88.0328 20.1604 87.2281 19.7604 86.5843 19.7604C86.0211 19.7604 85.4578 20.0804 85.2164 20.6404L84.0093 20.1604C84.2507 19.6004 84.8945 18.5604 86.5039 18.5604C87.3086 18.5604 88.1133 18.8004 88.5961 19.3604C89.0789 19.9204 89.2398 20.5604 89.2398 21.4404V24.8004H87.8719V24.2404C87.7109 24.4804 87.389 24.6404 87.1476 24.8004C86.8257 24.9604 86.4234 25.0404 86.0211 25.0404C85.5382 24.9604 84.814 24.8004 84.4117 24.4004ZM41.5218 21.5204C41.5218 19.9204 42.7289 18.1604 44.9015 18.1604C46.9937 18.1604 48.2812 19.9204 48.2812 21.5204C48.2812 23.1204 47.0742 24.8804 44.9015 24.8804C42.7289 24.8804 41.5218 23.1204 41.5218 21.5204ZM48.764 21.5204C48.764 19.9204 49.9711 18.1604 52.1437 18.1604C54.2359 18.1604 55.5234 19.9204 55.5234 21.5204C55.5234 23.1204 54.3164 24.8804 52.1437 24.8804C50.0515 24.8804 48.764 23.1204 48.764 21.5204ZM32.4289 23.2804C30.4172 21.2804 30.4976 18.0004 32.5093 15.9204C33.5554 14.8804 34.8429 14.4004 36.2109 14.4004C37.4984 14.4004 38.7859 14.8804 39.7515 15.8404L38.7859 16.8804C37.3375 15.4404 35.0039 15.5204 33.6359 16.9604C32.1875 18.4804 32.1875 20.8004 33.6359 22.3204C35.0843 23.8404 37.4984 23.9204 38.9468 22.4004C39.4297 21.9204 39.5906 21.2804 39.6711 20.6404H36.2914V19.2004H41.039C41.1195 19.5204 41.1195 19.9204 41.1195 20.3204C41.1195 21.5204 40.6367 22.7204 39.832 23.5204C38.9468 24.4004 37.6593 24.8804 36.3718 24.8804C34.9234 24.8004 33.475 24.3204 32.4289 23.2804ZM66.4672 23.8404C65.2601 22.5604 65.2601 20.4004 66.4672 19.0404C67.6742 17.7604 69.6859 17.7604 70.8125 19.0404C71.2148 19.4404 71.4562 20.0004 71.6976 20.5604L67.2719 22.4004C67.5133 22.9604 68.0765 23.4404 68.8812 23.4404C69.6054 23.4404 70.0883 23.2004 70.5711 22.4804L71.7781 23.2804C71.6172 23.4404 71.4562 23.6004 71.3758 23.7604C70.0078 25.1204 67.6742 25.1204 66.4672 23.8404ZM74.8359 24.8004V15.9204H77.7328C79.4226 15.9204 80.7906 17.1204 80.7906 18.5604C80.7906 20.0004 79.5836 21.2004 78.0547 21.2004H76.2843V24.7204H74.8359V24.8004ZM81.5953 24.8004V15.9204H82.9633V24.8004H81.5953ZM63.4093 24.6404V14.7204H64.8578V24.6404H63.4093ZM87.9523 22.1604C87.6304 21.9204 87.1476 21.8404 86.6648 21.8404C85.6992 21.8404 85.1359 22.3204 85.1359 22.8804C85.1359 23.4404 85.6992 23.7604 86.2625 23.7604C87.0672 23.7604 87.9523 23.1204 87.9523 22.1604ZM46.7523 21.5204C46.7523 20.5604 46.1086 19.5204 44.9015 19.5204C43.6945 19.5204 43.0508 20.5604 43.0508 21.5204C43.0508 22.4804 43.6945 23.5204 44.9015 23.5204C46.0281 23.5204 46.7523 22.4804 46.7523 21.5204ZM53.9945 21.5204C53.9945 20.5604 53.3508 19.5204 52.1437 19.5204C50.9367 19.5204 50.2929 20.5604 50.2929 21.5204C50.2929 22.4804 50.9367 23.5204 52.1437 23.5204C53.3508 23.5204 53.9945 22.4804 53.9945 21.5204ZM61.1562 22.0804C61.1562 22.0004 61.1562 21.9204 61.2367 21.8404C61.2367 21.7604 61.2367 21.6004 61.2367 21.5204C61.2367 21.4404 61.2367 21.2804 61.2367 21.2004V21.1204C61.2367 21.0404 61.1562 20.8804 61.1562 20.8004C60.9148 20.0004 60.1906 19.4404 59.4664 19.4404C58.5007 19.4404 57.6961 20.4004 57.6961 21.4404C57.6961 22.5604 58.5008 23.4404 59.5468 23.4404C60.1906 23.5204 60.8343 22.9604 61.1562 22.0804ZM67.0304 21.3604L70.0078 20.0804C69.6859 19.5204 69.2031 19.3604 68.8008 19.3604C67.5937 19.4404 66.8695 20.7204 67.0304 21.3604ZM79.3422 18.6404C79.3422 17.8404 78.6984 17.2804 77.8133 17.2804H76.2039V20.0804H77.8937C78.6984 20.0804 79.3422 19.4404 79.3422 18.6404Z" fill="#fff"/>
	<path fill-rule="evenodd" clip-rule="evenodd" d="M91.9757 25.8398H91.8953V25.7598H91.9757H91.8953V25.8398H91.9757Z" fill="#fff"/>
	<path fill-rule="evenodd" clip-rule="evenodd" d="M92.1368 25.8398C92.1368 25.7598 92.1368 25.7598 92.1368 25.8398C92.0563 25.7598 92.0563 25.7598 92.1368 25.8398C92.0563 25.8398 92.0563 25.8398 92.1368 25.8398ZM92.1368 25.7598C92.1368 25.8398 92.1368 25.8398 92.1368 25.7598C92.1368 25.8398 92.0563 25.8398 92.1368 25.7598C92.0563 25.7598 92.1368 25.7598 92.1368 25.7598Z" fill="#fff"/>
	<path fill-rule="evenodd" clip-rule="evenodd" d="M92.2172 25.7598H92.1367H92.2172V25.8398V25.7598Z" fill="#fff"/>
	<path d="M31.3024 8.07977C31.3024 6.63977 32.3485 5.75977 33.636 5.75977C34.5211 5.75977 35.0844 6.15976 35.4868 6.71976L34.843 7.11976C34.6016 6.79976 34.1992 6.55977 33.636 6.55977C32.7508 6.55977 32.1071 7.19977 32.1071 8.15977C32.1071 9.11977 32.7508 9.75977 33.636 9.75977C34.1188 9.75977 34.5211 9.51977 34.6821 9.35977V8.63976H33.3946V7.91976H35.5672V9.59977C35.1649 10.0798 34.5211 10.3998 33.7164 10.3998C32.3485 10.3998 31.3024 9.43977 31.3024 8.07977Z" fill="#fff"/>
	<path d="M36.5328 10.3198V5.83984H39.5907V6.55985H37.2571V7.67984H39.5102V8.39984H37.2571V9.67985H39.5907V10.3998L36.5328 10.3198Z" fill="#fff"/>
	<path d="M41.8438 10.3198V6.55984H40.4758V5.83984H44.0164V6.55984H42.6485V10.3198H41.8438Z" fill="#fff"/>
	<path d="M46.7523 10.3198V5.83984H47.557V10.3198H46.7523Z" fill="#fff"/>
	<path d="M49.7297 10.3198V6.55984H48.3617V5.83984H51.9023V6.55984H50.5343V10.3198H49.7297Z" fill="#fff"/>
	<path d="M54.4773 8.07977C54.4773 6.71977 55.4429 5.75977 56.8109 5.75977C58.1789 5.75977 59.1445 6.71977 59.1445 8.07977C59.1445 9.43977 58.1789 10.3998 56.8109 10.3998C55.4429 10.3998 54.4773 9.35977 54.4773 8.07977ZM58.2593 8.07977C58.2593 7.11977 57.696 6.47977 56.7304 6.47977C55.8453 6.47977 55.2015 7.19977 55.2015 8.07977C55.2015 9.03977 55.7648 9.67977 56.7304 9.67977C57.696 9.67977 58.2593 8.95977 58.2593 8.07977Z" fill="#fff"/>
	<path d="M63.1679 10.3198L60.8344 7.11984V10.3198H60.0297V5.83984H60.8344L63.1679 8.95984V5.83984H63.9726V10.3198H63.1679Z" fill="#fff"/>
</symbol>





<symbol id="app-store" viewBox="0 0 103 32">
	<path d="M99.7812 32H3.21875C1.44844 32 0 30.56 0 28.8V3.2C0 1.44 1.44844 0 3.21875 0H99.7812C101.552 0 103 1.44 103 3.2V28.8C103 30.56 101.552 32 99.7812 32Z" fill="#fff"/>
	<path d="M21.7265 15.8402C21.7265 13.3602 23.8187 12.1602 23.8992 12.0802C22.6921 10.4002 20.9218 10.1602 20.2781 10.0802C18.7492 9.92021 17.2203 10.9602 16.4961 10.9602C15.6914 10.9602 14.4843 10.0802 13.1968 10.0802C11.507 10.0802 9.97808 11.0402 9.09293 12.5602C7.32261 15.6002 8.61012 20.0802 10.3 22.5602C11.1851 23.7602 12.1507 25.1202 13.4382 25.0402C14.7257 24.9602 15.2086 24.2402 16.7375 24.2402C18.2664 24.2402 18.6687 25.0402 20.0367 25.0402C21.4046 25.0402 22.2898 23.8402 23.0945 22.6402C24.0601 21.2802 24.4625 19.9202 24.4625 19.8402C24.382 19.7602 21.7265 18.8002 21.7265 15.8402Z" fill="#0d0f21"/>
	<path d="M19.232 8.48027C19.8758 7.60027 20.3586 6.48027 20.2781 5.28027C19.3125 5.36027 18.025 5.92027 17.3812 6.80027C16.7375 7.52027 16.1742 8.72027 16.3352 9.84027C17.3812 9.92027 18.5078 9.28027 19.232 8.48027Z" fill="#0d0f21"/>
	<path d="M40.0734 24.8796H38.3031L37.3375 21.8396H33.9578L33.0727 24.8796H31.3828L34.7625 14.5596H36.8547L40.0734 24.8796ZM37.0156 20.5596L36.1305 17.8396C36.05 17.5996 35.8891 16.8796 35.5672 15.9196C35.4867 16.3196 35.3258 17.0396 35.0844 17.8396L34.1992 20.5596H37.0156Z" fill="#0d0f21"/>
	<path d="M48.6836 21.1204C48.6836 22.4004 48.3617 23.3604 47.6375 24.1604C46.9938 24.8004 46.2695 25.1204 45.3039 25.1204C44.3383 25.1204 43.6141 24.8003 43.2117 24.0803V28.0004H41.5219V20.0004C41.5219 19.2004 41.5219 18.4004 41.4414 17.5204H42.8898L42.9703 18.7204C43.5336 17.8404 44.3383 17.3604 45.4648 17.3604C46.35 17.3604 47.0742 17.6804 47.6375 18.4004C48.3617 19.0404 48.6836 19.9204 48.6836 21.1204ZM46.9938 21.1204C46.9938 20.4004 46.8328 19.7604 46.5109 19.3604C46.1891 18.8804 45.7063 18.6404 45.0625 18.6404C44.6602 18.6404 44.2578 18.8004 43.9359 19.0404C43.6141 19.2804 43.3727 19.6803 43.2922 20.0803C43.2117 20.3203 43.2117 20.4804 43.2117 20.5604V21.8404C43.2117 22.4004 43.3727 22.8004 43.6945 23.2004C44.0164 23.6004 44.4992 23.7604 44.982 23.7604C45.6258 23.7604 46.1086 23.5204 46.4305 23.0404C46.8328 22.5604 46.9938 21.9204 46.9938 21.1204Z" fill="#0d0f21"/>
	<path d="M57.2937 21.1204C57.2937 22.4004 56.9718 23.3604 56.2476 24.1604C55.6039 24.8004 54.8796 25.1204 53.914 25.1204C52.9484 25.1204 52.2242 24.8003 51.8218 24.0803V28.0004H50.132V20.0004C50.132 19.2004 50.132 18.4004 50.0515 17.5204H51.4999L51.5804 18.7204C52.1437 17.8404 52.9484 17.3604 54.075 17.3604C54.9601 17.3604 55.6843 17.6804 56.2476 18.4004C56.9718 19.0404 57.2937 19.9204 57.2937 21.1204ZM55.6039 21.1204C55.6039 20.4004 55.4429 19.7604 55.121 19.3604C54.7992 18.8804 54.3164 18.6404 53.6726 18.6404C53.2703 18.6404 52.8679 18.8004 52.546 19.0404C52.2242 19.2804 51.9828 19.6803 51.9023 20.0803C51.8218 20.3203 51.8218 20.4804 51.8218 20.5604V21.8404C51.8218 22.4004 51.9828 22.8004 52.3046 23.2004C52.6265 23.6004 53.1093 23.7604 53.5921 23.7604C54.2359 23.7604 54.7187 23.5204 55.0406 23.0404C55.4429 22.5604 55.6039 21.9204 55.6039 21.1204Z" fill="#0d0f21"/>
	<path d="M66.95 22.0005C66.95 22.8805 66.6282 23.6005 66.0649 24.1605C65.4211 24.8005 64.4555 25.0405 63.2485 25.0405C62.1219 25.0405 61.2368 24.8005 60.593 24.4005L60.9954 23.0405C61.7196 23.4405 62.5243 23.6805 63.4094 23.6805C64.0532 23.6805 64.536 23.5205 64.8579 23.2805C65.1797 22.9605 65.3407 22.6405 65.3407 22.1605C65.3407 21.7605 65.1797 21.3605 64.9383 21.1205C64.6165 20.8005 64.1336 20.5605 63.4899 20.3205C61.6391 19.6805 60.754 18.6405 60.754 17.3605C60.754 16.4805 61.0758 15.8405 61.7196 15.2805C62.3633 14.7205 63.168 14.4805 64.2946 14.4805C65.2602 14.4805 65.9844 14.6405 66.6282 14.9605L66.2258 16.3205C65.6625 16.0005 65.0188 15.8405 64.2141 15.8405C63.6508 15.8405 63.168 16.0005 62.8461 16.2405C62.6047 16.4805 62.4438 16.8005 62.4438 17.2005C62.4438 17.6005 62.6047 17.9205 62.9266 18.2405C63.168 18.4805 63.7313 18.7205 64.4555 19.0405C65.3407 19.3605 65.9844 19.8405 66.4672 20.3205C66.7086 20.7205 66.95 21.2805 66.95 22.0005Z" fill="#0d0f21"/>
	<path d="M72.4219 18.7196H70.5711V22.3196C70.5711 23.1996 70.893 23.6796 71.5368 23.6796C71.8586 23.6796 72.1 23.6796 72.261 23.5996L72.3415 24.8796C72.0196 25.0396 71.6172 25.0396 71.054 25.0396C70.4102 25.0396 69.8469 24.8796 69.5251 24.4796C69.1227 24.0796 68.9618 23.4396 68.9618 22.4796V18.7196H67.8352V17.4396H68.9618V16.0796L70.5711 15.5996V17.4396H72.4219V18.7196Z" fill="#0d0f21"/>
	<path d="M80.7101 21.1203C80.7101 22.2403 80.3882 23.2003 79.7445 23.9203C79.0203 24.6403 78.1351 25.0403 77.0085 25.0403C75.882 25.0403 74.9968 24.6403 74.3531 23.9203C73.7093 23.2003 73.3875 22.3203 73.3875 21.2003C73.3875 20.0803 73.7093 19.1203 74.4335 18.4003C75.0773 17.6803 76.0429 17.2803 77.1695 17.2803C78.2961 17.2803 79.1812 17.6803 79.825 18.4003C80.3882 19.1203 80.7101 20.0003 80.7101 21.1203ZM78.9398 21.2003C78.9398 20.4803 78.7789 19.9203 78.457 19.4403C78.1351 18.8803 77.5718 18.5603 76.9281 18.5603C76.2843 18.5603 75.721 18.8803 75.3992 19.4403C75.0773 19.9203 74.9164 20.5603 74.9164 21.2003C74.9164 21.9203 75.0773 22.4803 75.3992 22.9603C75.721 23.5203 76.2843 23.8403 76.9281 23.8403C77.5718 23.8403 78.0546 23.5203 78.457 22.9603C78.7789 22.4803 78.9398 21.8403 78.9398 21.2003Z" fill="#0d0f21"/>
	<path d="M86.1016 18.8802C85.9406 18.8802 85.7797 18.8002 85.5383 18.8002C84.975 18.8002 84.4922 19.0402 84.1703 19.4402C83.9289 19.8402 83.768 20.3202 83.768 20.8802V24.8002H82.0781V19.6802C82.0781 18.8002 82.0781 18.0802 81.9977 17.3602H83.4461L83.5266 18.8002H83.6071C83.768 18.3202 84.0899 17.9202 84.4117 17.6002C84.8141 17.3602 85.2164 17.2002 85.6188 17.2002C85.7797 17.2002 85.9407 17.2002 86.0211 17.2002V18.8802H86.1016Z" fill="#0d0f21"/>
	<path d="M93.5047 20.8003C93.5047 21.1203 93.5047 21.3603 93.4242 21.5203H88.4352C88.4352 22.2403 88.6766 22.8003 89.1594 23.2003C89.5617 23.5203 90.125 23.7603 90.7688 23.7603C91.493 23.7603 92.2172 23.6803 92.7805 23.4403L93.0219 24.5603C92.2977 24.8803 91.493 25.0403 90.5274 25.0403C89.4008 25.0403 88.4352 24.7203 87.7914 24.0003C87.1477 23.3603 86.8258 22.4003 86.8258 21.2803C86.8258 20.1603 87.1477 19.2003 87.711 18.4803C88.3547 17.6803 89.2399 17.2803 90.3664 17.2803C91.4125 17.2803 92.2977 17.6803 92.7805 18.4803C93.3438 19.1203 93.5047 19.9203 93.5047 20.8003ZM91.9758 20.4003C91.9758 19.9203 91.8953 19.5203 91.6539 19.1203C91.3321 18.6403 90.9297 18.4003 90.3664 18.4003C89.8031 18.4003 89.4008 18.6403 89.0789 19.0403C88.8375 19.3603 88.6766 19.8403 88.5961 20.3203H91.9758V20.4003Z" fill="#0d0f21"/>
	<path d="M36.5328 8.23984C36.5328 9.11984 36.2914 9.83984 35.7281 10.3198C35.2453 10.7198 34.521 10.9598 33.5554 10.9598C33.0726 10.9598 32.6703 10.9598 32.3484 10.8798V5.91984C32.7507 5.83984 33.2335 5.83984 33.7968 5.83984C34.682 5.83984 35.3257 5.99984 35.8085 6.39984C36.2109 6.79984 36.5328 7.43984 36.5328 8.23984ZM35.6476 8.23984C35.6476 7.67984 35.4867 7.19984 35.1648 6.87984C34.8429 6.55984 34.3601 6.39984 33.7968 6.39984C33.5554 6.39984 33.314 6.39984 33.1531 6.47984V10.2398C33.2335 10.2398 33.4749 10.2398 33.7164 10.2398C34.3601 10.2398 34.8429 10.0798 35.1648 9.75985C35.4867 9.43985 35.6476 8.87984 35.6476 8.23984Z" fill="#0d0f21"/>
	<path d="M41.0391 9.04012C41.0391 9.60012 40.8781 10.0801 40.5563 10.4001C40.2344 10.8001 39.7516 10.9601 39.1883 10.9601C38.625 10.9601 38.2227 10.8001 37.9008 10.4001C37.5789 10.0801 37.418 9.60012 37.418 9.04012C37.418 8.48012 37.5789 8.00012 37.9008 7.68012C38.2227 7.28012 38.7055 7.12012 39.2688 7.12012C39.832 7.12012 40.2344 7.28012 40.5563 7.68012C40.8781 8.00012 41.0391 8.48012 41.0391 9.04012ZM40.2344 9.04012C40.2344 8.72012 40.1539 8.40012 39.993 8.16012C39.832 7.84012 39.5906 7.76012 39.2688 7.76012C38.9469 7.76012 38.7055 7.92012 38.5445 8.16012C38.3836 8.40012 38.3031 8.72012 38.3031 9.04012C38.3031 9.36012 38.3836 9.68012 38.5445 9.92012C38.7055 10.2401 38.9469 10.3201 39.2688 10.3201C39.5906 10.3201 39.832 10.1601 39.993 9.84012C40.1539 9.68012 40.2344 9.36012 40.2344 9.04012Z" fill="#0d0f21"/>
	<path d="M47.2352 7.2002L46.1086 10.8802H45.3844L44.9016 9.2802C44.7406 8.8802 44.6602 8.4802 44.5797 8.0802C44.4992 8.4802 44.4188 8.8802 44.2578 9.2802L43.775 10.8802H43.0508L41.8438 7.2002H42.6484L43.0508 8.9602C43.1313 9.3602 43.2117 9.7602 43.2922 10.1602C43.3727 9.8402 43.4531 9.4402 43.6141 8.9602L44.0969 7.2002H44.7406L45.2234 8.8802C45.3844 9.2802 45.4648 9.6802 45.5453 10.0802C45.6258 9.6802 45.7063 9.2802 45.7867 8.8802L46.2695 7.2002H47.2352Z" fill="#0d0f21"/>
	<path d="M51.4195 10.88H50.6148V8.80004C50.6148 8.16004 50.3734 7.84004 49.8906 7.84004C49.6492 7.84004 49.4883 7.92004 49.3273 8.08004C49.1664 8.24004 49.0859 8.48004 49.0859 8.72004V10.88H48.2812V8.24004C48.2812 7.92004 48.2812 7.60004 48.2812 7.20004H49.0055V7.76004C49.0859 7.60004 49.2469 7.44004 49.4078 7.28004C49.6492 7.12004 49.8906 7.04004 50.132 7.04004C50.4539 7.04004 50.7758 7.12004 51.0172 7.36004C51.3391 7.60004 51.4195 8.00004 51.4195 8.56004V10.88Z" fill="#0d0f21"/>
	<path d="M53.6726 10.8795H52.8679V5.51953H53.6726V10.8795Z" fill="#0d0f21"/>
	<path d="M58.5007 9.04012C58.5007 9.60012 58.3398 10.0801 58.0179 10.4001C57.696 10.8001 57.2132 10.9601 56.6499 10.9601C56.0867 10.9601 55.6843 10.8001 55.3624 10.4001C55.0406 10.0801 54.8796 9.60012 54.8796 9.04012C54.8796 8.48012 55.0406 8.00012 55.3624 7.68012C55.6843 7.36012 56.1671 7.12012 56.7304 7.12012C57.2937 7.12012 57.696 7.28012 58.0179 7.68012C58.3398 8.00012 58.5007 8.48012 58.5007 9.04012ZM57.696 9.04012C57.696 8.72012 57.6156 8.40012 57.4546 8.16012C57.2937 7.84012 57.0523 7.76012 56.7304 7.76012C56.4085 7.76012 56.1671 7.92012 56.0062 8.16012C55.8453 8.40012 55.7648 8.72012 55.7648 9.04012C55.7648 9.36012 55.8453 9.68012 56.0062 9.92012C56.1671 10.2401 56.4085 10.3201 56.7304 10.3201C57.0523 10.3201 57.2937 10.1601 57.4546 9.84012C57.6156 9.68012 57.696 9.36012 57.696 9.04012Z" fill="#0d0f21"/>
	<path d="M62.4438 10.8801H61.7196L61.6391 10.4801C61.3977 10.8001 60.9953 10.9601 60.593 10.9601C60.2711 10.9601 59.9492 10.8801 59.7883 10.6401C59.6274 10.4001 59.4664 10.1601 59.4664 9.92012C59.4664 9.44012 59.6274 9.12012 60.0297 8.88012C60.4321 8.64012 60.9149 8.56012 61.6391 8.56012V8.48012C61.6391 8.00012 61.3977 7.76012 60.9149 7.76012C60.5125 7.76012 60.2711 7.84012 59.9492 8.00012L59.7883 7.44012C60.1102 7.20012 60.5125 7.12012 61.0758 7.12012C62.0414 7.12012 62.5242 7.60012 62.5242 8.64012V10.0001C62.4438 10.4001 62.4438 10.6401 62.4438 10.8801ZM61.6391 9.60012V9.04012C60.7539 9.04012 60.2711 9.28012 60.2711 9.76012C60.2711 9.92012 60.3516 10.0801 60.4321 10.1601C60.5125 10.2401 60.6735 10.3201 60.8344 10.3201C60.9953 10.3201 61.1563 10.2401 61.3172 10.1601C61.4782 10.0801 61.5586 9.92012 61.6391 9.76012C61.6391 9.76012 61.6391 9.68012 61.6391 9.60012Z" fill="#0d0f21"/>
	<path d="M67.1109 10.8796H66.3867V10.3196C66.1453 10.7996 65.7429 10.9596 65.1797 10.9596C64.6968 10.9596 64.375 10.7996 64.0531 10.4796C63.7312 10.1596 63.6508 9.67961 63.6508 9.11961C63.6508 8.55961 63.8117 8.07961 64.1336 7.67961C64.4554 7.35961 64.8578 7.19961 65.2601 7.19961C65.7429 7.19961 66.0648 7.35961 66.3062 7.67961V5.59961H67.1109V9.91961C67.1109 10.2396 67.1109 10.5596 67.1109 10.8796ZM66.3062 9.35961V8.71961C66.3062 8.63961 66.3062 8.55961 66.3062 8.47961C66.2258 8.31961 66.1453 8.15961 65.9843 7.99961C65.8234 7.83961 65.6625 7.83961 65.4211 7.83961C65.0992 7.83961 64.8578 7.99961 64.6968 8.23961C64.5359 8.47961 64.4554 8.79961 64.4554 9.19961C64.4554 9.59961 64.5359 9.83961 64.6968 10.0796C64.8578 10.3196 65.0992 10.4796 65.4211 10.4796C65.6625 10.4796 65.9039 10.3996 66.0648 10.1596C66.2258 9.83961 66.3062 9.59961 66.3062 9.35961Z" fill="#0d0f21"/>
	<path d="M74.1117 9.04012C74.1117 9.60012 73.9508 10.0801 73.6289 10.4001C73.307 10.8001 72.8242 10.9601 72.2609 10.9601C71.6976 10.9601 71.2953 10.8001 70.9734 10.4001C70.6515 10.0801 70.4906 9.60012 70.4906 9.04012C70.4906 8.48012 70.6515 8.00012 70.9734 7.68012C71.2953 7.28012 71.7781 7.12012 72.3414 7.12012C72.9047 7.12012 73.307 7.28012 73.6289 7.68012C73.9508 8.00012 74.1117 8.48012 74.1117 9.04012ZM73.2265 9.04012C73.2265 8.72012 73.1461 8.40012 72.9851 8.16012C72.8242 7.84012 72.5828 7.76012 72.2609 7.76012C71.939 7.76012 71.6976 7.92012 71.5367 8.16012C71.3758 8.40012 71.2953 8.72012 71.2953 9.04012C71.2953 9.36012 71.3758 9.68012 71.5367 9.92012C71.6976 10.2401 71.939 10.3201 72.2609 10.3201C72.5828 10.3201 72.8242 10.1601 72.9851 9.84012C73.1461 9.68012 73.2265 9.36012 73.2265 9.04012Z" fill="#0d0f21"/>
	<path d="M78.5375 10.88H77.7328V8.80004C77.7328 8.16004 77.4914 7.84004 77.0085 7.84004C76.7671 7.84004 76.6062 7.92004 76.4453 8.08004C76.2843 8.24004 76.2039 8.48004 76.2039 8.72004V10.88H75.3992V8.24004C75.3992 7.92004 75.3992 7.60004 75.3992 7.20004H76.1234V7.76004C76.2039 7.60004 76.3648 7.44004 76.5257 7.28004C76.7671 7.12004 77.0085 7.04004 77.25 7.04004C77.5718 7.04004 77.8937 7.12004 78.1351 7.36004C78.457 7.60004 78.5375 8.00004 78.5375 8.56004V10.88Z" fill="#0d0f21"/>
	<path d="M84.0093 7.84031H83.1242V9.60031C83.1242 10.0803 83.2851 10.2403 83.607 10.2403C83.7679 10.2403 83.8484 10.2403 84.0093 10.2403V10.8803C83.8484 10.9603 83.607 10.9603 83.3656 10.9603C83.0437 10.9603 82.8023 10.8803 82.6414 10.6403C82.4804 10.4803 82.4 10.0803 82.4 9.68031V7.84031H81.8367V7.20031H82.4V6.56031L83.2046 6.32031V7.20031H84.0898V7.84031H84.0093Z" fill="#0d0f21"/>
	<path d="M88.3547 10.8795H87.55V8.79953C87.55 8.15953 87.3086 7.83953 86.8258 7.83953C86.4235 7.83953 86.1821 7.99953 86.0211 8.39953C86.0211 8.47953 86.0211 8.55953 86.0211 8.71953V10.8795H85.2164V5.51953H86.0211V7.75953C86.2625 7.35953 86.6649 7.11953 87.1477 7.11953C87.4696 7.11953 87.7914 7.19953 87.9524 7.43953C88.1938 7.67953 88.3547 8.15953 88.3547 8.63953V10.8795Z" fill="#0d0f21"/>
	<path d="M92.7805 8.8802C92.7805 9.0402 92.7805 9.1202 92.7805 9.2802H90.3665C90.3665 9.6802 90.5274 9.9202 90.6883 10.0802C90.9297 10.2402 91.1711 10.3202 91.493 10.3202C91.8954 10.3202 92.2172 10.2402 92.4586 10.1602L92.6196 10.7202C92.2977 10.8802 91.8954 10.9602 91.4126 10.9602C90.8493 10.9602 90.3665 10.8002 90.0446 10.4802C89.7227 10.1602 89.5618 9.6802 89.5618 9.1202C89.5618 8.5602 89.7227 8.0802 90.0446 7.7602C90.3665 7.3602 90.7688 7.2002 91.3321 7.2002C91.8954 7.2002 92.2977 7.3602 92.5391 7.7602C92.7 8.0002 92.7805 8.4002 92.7805 8.8802ZM92.0563 8.64019C92.0563 8.40019 91.9758 8.1602 91.8954 8.0002C91.7344 7.7602 91.5735 7.6802 91.2516 7.6802C91.0102 7.6802 90.7688 7.7602 90.6079 8.0002C90.4469 8.1602 90.3665 8.40019 90.3665 8.64019H92.0563Z" fill="#0d0f21"/>
</symbol>


<symbol id="google-play" viewBox="0 0 103 32">
	<path d="M99.7812 32H3.21875C1.44844 32 0 30.56 0 28.8V3.2C0 1.44 1.44844 0 3.21875 0H99.7812C101.552 0 103 1.44 103 3.2V28.8C103 30.56 101.552 32 99.7812 32Z" fill="#fff"/>
	<path fill-rule="evenodd" clip-rule="evenodd" d="M7.88599 15.6804V7.28039C7.88599 6.80039 8.28833 6.40039 8.69067 6.40039C9.09302 6.40039 9.25396 6.48039 9.49536 6.64039L25.0258 15.1204C25.3477 15.2804 25.5086 15.5204 25.5086 15.7604C25.5086 16.0004 25.3477 16.2404 25.0258 16.4004L9.49536 24.8804C9.33442 24.9604 9.09302 25.1204 8.69067 25.1204C8.28833 25.1204 7.88599 24.7204 7.88599 24.2404V15.6804Z" fill="#0d0f21"/>
	<path fill-rule="evenodd" clip-rule="evenodd" d="M17.9445 15.7604L8.52966 6.40039C8.61013 6.40039 8.61013 6.40039 8.6906 6.40039C9.09294 6.40039 9.25388 6.48039 9.49529 6.64039L20.9218 12.8804L17.9445 15.7604Z" fill="url(#paint1_linear)"/>
	<path fill-rule="evenodd" clip-rule="evenodd" d="M20.8414 18.5597L17.9446 15.6797L20.9219 12.7197L25.0258 14.9597C25.3477 15.1197 25.5086 15.3597 25.5086 15.5997C25.5086 15.8397 25.3477 16.0797 25.0258 16.2397L20.8414 18.5597Z" fill="#0d0f21"/>
	<path fill-rule="evenodd" clip-rule="evenodd" d="M8.61011 24.9597L17.9445 15.6797L20.8414 18.5597L9.49527 24.7197C9.25386 24.8797 9.09292 24.9597 8.61011 24.9597C8.69058 24.9597 8.69058 24.9597 8.61011 24.9597Z" fill="#0d0f21"/>
	<path fill-rule="evenodd" clip-rule="evenodd" d="M57.2133 27.1204C56.8109 26.8004 56.489 26.2404 56.3281 25.9204L57.6156 25.3604C57.6961 25.5204 57.857 25.7604 58.0179 26.0004C58.3398 26.3204 58.8226 26.6404 59.3055 26.6404C59.7883 26.6404 60.3515 26.4004 60.6734 26.0004C60.9148 25.6004 61.0757 25.2004 61.0757 24.6404V24.1604C60.1101 25.3604 58.0984 25.2004 56.9718 23.9204C55.7648 22.6404 55.7648 20.4804 56.9718 19.2004C58.1789 18.0004 59.9492 17.8404 60.9953 18.9604V18.4004H62.3633V24.4004C62.3633 25.9204 61.8 26.8004 61.0757 27.3604C60.5929 27.7604 59.8687 27.9204 59.225 27.9204C58.5008 27.8404 57.7765 27.6004 57.2133 27.1204ZM90.9297 27.4404L92.2976 24.2404L89.8836 18.7204H91.2515L92.9414 22.6404L94.6312 18.7204H95.9992L92.2976 27.4404H90.9297ZM84.4117 24.4004C84.0093 24.0004 83.8484 23.4404 83.8484 22.8804C83.8484 22.4004 84.0093 21.9204 84.3312 21.6004C84.8945 21.0404 85.6992 20.8004 86.5843 20.8004C87.1476 20.8004 87.6304 20.8804 88.0328 21.1204C88.0328 20.1604 87.2281 19.7604 86.5843 19.7604C86.0211 19.7604 85.4578 20.0804 85.2164 20.6404L84.0093 20.1604C84.2507 19.6004 84.8945 18.5604 86.5039 18.5604C87.3086 18.5604 88.1133 18.8004 88.5961 19.3604C89.0789 19.9204 89.2398 20.5604 89.2398 21.4404V24.8004H87.8719V24.2404C87.7109 24.4804 87.389 24.6404 87.1476 24.8004C86.8257 24.9604 86.4234 25.0404 86.0211 25.0404C85.5382 24.9604 84.814 24.8004 84.4117 24.4004ZM41.5218 21.5204C41.5218 19.9204 42.7289 18.1604 44.9015 18.1604C46.9937 18.1604 48.2812 19.9204 48.2812 21.5204C48.2812 23.1204 47.0742 24.8804 44.9015 24.8804C42.7289 24.8804 41.5218 23.1204 41.5218 21.5204ZM48.764 21.5204C48.764 19.9204 49.9711 18.1604 52.1437 18.1604C54.2359 18.1604 55.5234 19.9204 55.5234 21.5204C55.5234 23.1204 54.3164 24.8804 52.1437 24.8804C50.0515 24.8804 48.764 23.1204 48.764 21.5204ZM32.4289 23.2804C30.4172 21.2804 30.4976 18.0004 32.5093 15.9204C33.5554 14.8804 34.8429 14.4004 36.2109 14.4004C37.4984 14.4004 38.7859 14.8804 39.7515 15.8404L38.7859 16.8804C37.3375 15.4404 35.0039 15.5204 33.6359 16.9604C32.1875 18.4804 32.1875 20.8004 33.6359 22.3204C35.0843 23.8404 37.4984 23.9204 38.9468 22.4004C39.4297 21.9204 39.5906 21.2804 39.6711 20.6404H36.2914V19.2004H41.039C41.1195 19.5204 41.1195 19.9204 41.1195 20.3204C41.1195 21.5204 40.6367 22.7204 39.832 23.5204C38.9468 24.4004 37.6593 24.8804 36.3718 24.8804C34.9234 24.8004 33.475 24.3204 32.4289 23.2804ZM66.4672 23.8404C65.2601 22.5604 65.2601 20.4004 66.4672 19.0404C67.6742 17.7604 69.6859 17.7604 70.8125 19.0404C71.2148 19.4404 71.4562 20.0004 71.6976 20.5604L67.2719 22.4004C67.5133 22.9604 68.0765 23.4404 68.8812 23.4404C69.6054 23.4404 70.0883 23.2004 70.5711 22.4804L71.7781 23.2804C71.6172 23.4404 71.4562 23.6004 71.3758 23.7604C70.0078 25.1204 67.6742 25.1204 66.4672 23.8404ZM74.8359 24.8004V15.9204H77.7328C79.4226 15.9204 80.7906 17.1204 80.7906 18.5604C80.7906 20.0004 79.5836 21.2004 78.0547 21.2004H76.2843V24.7204H74.8359V24.8004ZM81.5953 24.8004V15.9204H82.9633V24.8004H81.5953ZM63.4093 24.6404V14.7204H64.8578V24.6404H63.4093ZM87.9523 22.1604C87.6304 21.9204 87.1476 21.8404 86.6648 21.8404C85.6992 21.8404 85.1359 22.3204 85.1359 22.8804C85.1359 23.4404 85.6992 23.7604 86.2625 23.7604C87.0672 23.7604 87.9523 23.1204 87.9523 22.1604ZM46.7523 21.5204C46.7523 20.5604 46.1086 19.5204 44.9015 19.5204C43.6945 19.5204 43.0508 20.5604 43.0508 21.5204C43.0508 22.4804 43.6945 23.5204 44.9015 23.5204C46.0281 23.5204 46.7523 22.4804 46.7523 21.5204ZM53.9945 21.5204C53.9945 20.5604 53.3508 19.5204 52.1437 19.5204C50.9367 19.5204 50.2929 20.5604 50.2929 21.5204C50.2929 22.4804 50.9367 23.5204 52.1437 23.5204C53.3508 23.5204 53.9945 22.4804 53.9945 21.5204ZM61.1562 22.0804C61.1562 22.0004 61.1562 21.9204 61.2367 21.8404C61.2367 21.7604 61.2367 21.6004 61.2367 21.5204C61.2367 21.4404 61.2367 21.2804 61.2367 21.2004V21.1204C61.2367 21.0404 61.1562 20.8804 61.1562 20.8004C60.9148 20.0004 60.1906 19.4404 59.4664 19.4404C58.5007 19.4404 57.6961 20.4004 57.6961 21.4404C57.6961 22.5604 58.5008 23.4404 59.5468 23.4404C60.1906 23.5204 60.8343 22.9604 61.1562 22.0804ZM67.0304 21.3604L70.0078 20.0804C69.6859 19.5204 69.2031 19.3604 68.8008 19.3604C67.5937 19.4404 66.8695 20.7204 67.0304 21.3604ZM79.3422 18.6404C79.3422 17.8404 78.6984 17.2804 77.8133 17.2804H76.2039V20.0804H77.8937C78.6984 20.0804 79.3422 19.4404 79.3422 18.6404Z" fill="#0d0f21"/>
	<path fill-rule="evenodd" clip-rule="evenodd" d="M91.9757 25.8398H91.8953V25.7598H91.9757H91.8953V25.8398H91.9757Z" fill="#0d0f21"/>
	<path fill-rule="evenodd" clip-rule="evenodd" d="M92.1368 25.8398C92.1368 25.7598 92.1368 25.7598 92.1368 25.8398C92.0563 25.7598 92.0563 25.7598 92.1368 25.8398C92.0563 25.8398 92.0563 25.8398 92.1368 25.8398ZM92.1368 25.7598C92.1368 25.8398 92.1368 25.8398 92.1368 25.7598C92.1368 25.8398 92.0563 25.8398 92.1368 25.7598C92.0563 25.7598 92.1368 25.7598 92.1368 25.7598Z" fill="#0d0f21"/>
	<path fill-rule="evenodd" clip-rule="evenodd" d="M92.2172 25.7598H92.1367H92.2172V25.8398V25.7598Z" fill="#0d0f21"/>
	<path d="M31.3024 8.07977C31.3024 6.63977 32.3485 5.75977 33.636 5.75977C34.5211 5.75977 35.0844 6.15976 35.4868 6.71976L34.843 7.11976C34.6016 6.79976 34.1992 6.55977 33.636 6.55977C32.7508 6.55977 32.1071 7.19977 32.1071 8.15977C32.1071 9.11977 32.7508 9.75977 33.636 9.75977C34.1188 9.75977 34.5211 9.51977 34.6821 9.35977V8.63976H33.3946V7.91976H35.5672V9.59977C35.1649 10.0798 34.5211 10.3998 33.7164 10.3998C32.3485 10.3998 31.3024 9.43977 31.3024 8.07977Z" fill="#0d0f21"/>
	<path d="M36.5328 10.3198V5.83984H39.5907V6.55985H37.2571V7.67984H39.5102V8.39984H37.2571V9.67985H39.5907V10.3998L36.5328 10.3198Z" fill="#0d0f21"/>
	<path d="M41.8438 10.3198V6.55984H40.4758V5.83984H44.0164V6.55984H42.6485V10.3198H41.8438Z" fill="#0d0f21"/>
	<path d="M46.7523 10.3198V5.83984H47.557V10.3198H46.7523Z" fill="#0d0f21"/>
	<path d="M49.7297 10.3198V6.55984H48.3617V5.83984H51.9023V6.55984H50.5343V10.3198H49.7297Z" fill="#0d0f21"/>
	<path d="M54.4773 8.07977C54.4773 6.71977 55.4429 5.75977 56.8109 5.75977C58.1789 5.75977 59.1445 6.71977 59.1445 8.07977C59.1445 9.43977 58.1789 10.3998 56.8109 10.3998C55.4429 10.3998 54.4773 9.35977 54.4773 8.07977ZM58.2593 8.07977C58.2593 7.11977 57.696 6.47977 56.7304 6.47977C55.8453 6.47977 55.2015 7.19977 55.2015 8.07977C55.2015 9.03977 55.7648 9.67977 56.7304 9.67977C57.696 9.67977 58.2593 8.95977 58.2593 8.07977Z" fill="#0d0f21"/>
	<path d="M63.1679 10.3198L60.8344 7.11984V10.3198H60.0297V5.83984H60.8344L63.1679 8.95984V5.83984H63.9726V10.3198H63.1679Z" fill="#0d0f21"/>
</symbol>



<symbol id="close" viewBox="0 0 12 12">
	<path d="M6 11C8.76142 11 11 8.76142 11 6C11 3.23858 8.76142 1 6 1C3.23858 1 1 3.23858 1 6C1 8.76142 3.23858 11 6 11Z"  stroke-linecap="round" stroke-linejoin="round"/>
	<path d="M7.5 4.5L4.5 7.5" stroke-linecap="round" stroke-linejoin="round"/>
	<path d="M4.5 4.5L7.5 7.5" stroke-linecap="round" stroke-linejoin="round"/>
</symbol>


<symbol id="succes" viewBox="0 0 16 16">
	<path d="M14.6667 7.38674V8.00007C14.6658 9.43769 14.2003 10.8365 13.3396 11.988C12.4788 13.1394 11.2689 13.9817 9.89023 14.3893C8.51162 14.797 7.03817 14.748 5.68964 14.2498C4.34112 13.7516 3.18976 12.8308 2.4073 11.6248C1.62484 10.4188 1.25319 8.99212 1.34778 7.55762C1.44237 6.12312 1.99813 4.75762 2.93218 3.66479C3.86623 2.57195 5.12852 1.81033 6.53079 1.4935C7.93306 1.17668 9.40017 1.32163 10.7133 1.90674" stroke-linecap="round" stroke-linejoin="round"/>
	<path d="M14.6667 2.6665L8 9.33984L6 7.33984" stroke-linecap="round" stroke-linejoin="round"/>
</symbol>


<symbol id="pending-round" viewBox="0 0 16 16">
	<path d="M8.00016 14.6663C11.6821 14.6663 14.6668 11.6816 14.6668 7.99967C14.6668 4.31778 11.6821 1.33301 8.00016 1.33301C4.31826 1.33301 1.3335 4.31778 1.3335 7.99967C1.3335 11.6816 4.31826 14.6663 8.00016 14.6663Z" stroke-linecap="round" stroke-linejoin="round"/>
	<path d="M4.6665 6V7.33333H5.99984" stroke-linecap="round" stroke-linejoin="round"/>
	<path d="M10.6668 10.0003V8.66699H9.3335" stroke-linecap="round" stroke-linejoin="round"/>
	<path d="M9.46774 6.62577C9.36016 6.31684 9.17732 6.04065 8.93628 5.82295C8.69524 5.60526 8.40385 5.45315 8.08931 5.38084C7.77478 5.30852 7.44734 5.31835 7.13755 5.4094C6.82776 5.50045 6.54572 5.66976 6.31774 5.90154L5.3335 6.84131M10.0002 9.15804L9.01592 10.0978C8.78794 10.3296 8.5059 10.4989 8.19611 10.59C7.88632 10.681 7.55888 10.6908 7.24434 10.6185C6.92981 10.5462 6.63842 10.3941 6.39738 10.1764C6.15634 9.9587 5.9735 9.6825 5.86592 9.37358" stroke-linecap="round" stroke-linejoin="round"/>
</symbol>


<symbol id="checked" viewBox="0 0 16 16">
	<path d="M13.3333 4L5.99996 11.3333L2.66663 8" stroke-linecap="round" stroke-linejoin="round"/>
</symbol>


<symbol id="mail" viewBox="0 0 24 24">
	<path d="M4 4H20C21.1 4 22 4.9 22 6V18C22 19.1 21.1 20 20 20H4C2.9 20 2 19.1 2 18V6C2 4.9 2.9 4 4 4Z" stroke-linecap="round" stroke-linejoin="round"/>
	<path d="M22 6L12 13L2 6" stroke-linecap="round" stroke-linejoin="round"/>
</symbol>

<symbol id="lock" viewBox="0 0 24 24">
	<path d="M19 11H5C3.89543 11 3 11.8954 3 13V20C3 21.1046 3.89543 22 5 22H19C20.1046 22 21 21.1046 21 20V13C21 11.8954 20.1046 11 19 11Z" stroke-linecap="round" stroke-linejoin="round"/>
	<path d="M7 11V7C7 5.67392 7.52678 4.40215 8.46447 3.46447C9.40215 2.52678 10.6739 2 12 2C13.3261 2 14.5979 2.52678 15.5355 3.46447C16.4732 4.40215 17 5.67392 17 7V11" stroke-linecap="round" stroke-linejoin="round"/>
</symbol>


<symbol id="profile" viewBox="0 0 24 24">
	<path d="M20 21V19C20 17.9391 19.5786 16.9217 18.8284 16.1716C18.0783 15.4214 17.0609 15 16 15H8C6.93913 15 5.92172 15.4214 5.17157 16.1716C4.42143 16.9217 4 17.9391 4 19V21" stroke-linecap="round" stroke-linejoin="round"/>
	<path d="M12 11C14.2091 11 16 9.20914 16 7C16 4.79086 14.2091 3 12 3C9.79086 3 8 4.79086 8 7C8 9.20914 9.79086 11 12 11Z" stroke-linecap="round" stroke-linejoin="round"/>
</symbol>



<symbol id="logo" viewBox="0 0 104 48">
	<path d="M41.8564 10.6383L31.2325 0L8.40727e-05 31.2747L10.624 41.913L41.8564 10.6383Z"/>
	<path d="M47.7745 36.0316L72.9513 10.5965L62.2789 0.00585938L47.6785 14.7542"/>
	<path d="M31.2296 27.2354V37.3614L41.8539 48.0001V16.5967"/>
	<path d="M78.8233 36.0316L104 10.5965L93.3357 0.00585938L78.7273 14.7542"/>
	<path d="M62.2791 27.2354V37.3614L72.9034 48.0001V16.5967"/>
</symbol>


<symbol id="logo-text" viewBox="0 0 236 36">
	<path d="M28.9871 7.9787L21.6296 0L-7.45459e-05 23.456L7.3574 31.4347L28.9871 7.9787Z"/>
	<path d="M33.0857 27.0232L50.5216 7.94688L43.1306 0.00390625L33.0192 11.0652"/>
	<path d="M21.6279 20.4263V28.0208L28.9857 35.9998V12.4473"/>
	<path d="M54.5882 27.0232L72.0241 7.94688L64.6387 0.00390625L54.5217 11.0652"/>
	<path d="M43.1306 20.4263V28.0208L50.4884 35.9998V12.4473"/>
	<path d="M88 25.1814C88.0145 25.0141 88.0399 24.8249 88.0761 24.6139C88.1123 24.4393 88.1594 24.2319 88.2174 23.9918C88.2826 23.7444 88.3768 23.4789 88.5 23.1951C88.8913 23.3261 89.2898 23.4425 89.6956 23.5443C90.0434 23.6317 90.4238 23.7117 90.8369 23.7844C91.2499 23.8572 91.6448 23.8936 92.0216 23.8936C92.5941 23.8936 93.0723 23.8499 93.4563 23.7626C93.8476 23.6753 94.1592 23.548 94.3911 23.3806C94.6302 23.206 94.8005 22.9914 94.902 22.7367C95.0034 22.4748 95.0541 22.1728 95.0541 21.8308C95.0541 21.4452 94.9998 21.1178 94.8911 20.8486C94.7896 20.5794 94.6302 20.3465 94.4128 20.1501C94.2027 19.9536 93.931 19.7863 93.5976 19.648C93.2643 19.5098 92.8694 19.3752 92.4129 19.2442C91.6158 19.0259 90.9419 18.7894 90.3912 18.5348C89.8405 18.2729 89.3913 17.9745 89.0434 17.6398C88.7029 17.3051 88.4565 16.9268 88.3043 16.5048C88.1522 16.0755 88.0761 15.588 88.0761 15.0423C88.0761 14.2565 88.1956 13.5834 88.4348 13.0232C88.6811 12.4629 89.0253 12.0045 89.4673 11.648C89.9166 11.2915 90.4564 11.0296 91.0869 10.8622C91.7245 10.6949 92.4346 10.6112 93.2172 10.6112C93.8187 10.6112 94.344 10.6585 94.7933 10.7531C95.2498 10.8477 95.6338 10.9495 95.9454 11.0587C96.3077 11.1896 96.6229 11.3388 96.891 11.5061C96.8693 11.6735 96.8258 11.8554 96.7606 12.0518C96.7026 12.2192 96.6229 12.4156 96.5215 12.6412C96.42 12.8668 96.2787 13.1105 96.0976 13.3724C95.8802 13.2269 95.6266 13.096 95.3367 12.9795C95.0831 12.8777 94.7751 12.7867 94.4128 12.7067C94.0578 12.6194 93.6447 12.5757 93.1737 12.5757C92.6593 12.5757 92.2245 12.6157 91.8694 12.6958C91.5216 12.7758 91.2354 12.9031 91.0108 13.0778C90.7861 13.2451 90.6231 13.4598 90.5217 13.7217C90.4275 13.9764 90.3804 14.2819 90.3804 14.6385C90.3804 15.0387 90.4311 15.3734 90.5325 15.6426C90.634 15.9045 90.797 16.1301 91.0216 16.3192C91.2463 16.5011 91.5361 16.6612 91.8912 16.7995C92.2535 16.9377 92.6883 17.0796 93.1955 17.2251C93.9563 17.4361 94.6049 17.6617 95.1411 17.9018C95.6773 18.1419 96.1121 18.422 96.4454 18.7422C96.786 19.0623 97.0323 19.4443 97.1845 19.8881C97.3439 20.3247 97.4236 20.8522 97.4236 21.4707C97.4236 22.2347 97.3258 22.9004 97.1301 23.4679C96.9345 24.0282 96.6229 24.4975 96.1954 24.8759C95.7679 25.2542 95.2172 25.5343 94.5433 25.7162C93.8694 25.9054 93.0578 26 92.1086 26C91.5434 26 91.0108 25.9563 90.5108 25.869C90.0108 25.789 89.576 25.698 89.2065 25.5962C88.7645 25.4725 88.3623 25.3342 88 25.1814Z"/>
	<path d="M100.504 15.6753V14.442H102.504L103.439 15.3915L103.732 15.2169C103.768 15.1805 103.873 15.1114 104.047 15.0095C104.228 14.9004 104.453 14.7913 104.721 14.6821C104.989 14.5657 105.29 14.4638 105.623 14.3765C105.964 14.2892 106.308 14.2456 106.656 14.2456C107.301 14.2456 107.83 14.3402 108.243 14.5293C108.663 14.7185 109.029 14.9914 109.341 15.3479C109.457 15.2533 109.627 15.1442 109.851 15.0205C110.076 14.8895 110.333 14.7658 110.623 14.6494C110.92 14.533 111.239 14.4384 111.58 14.3656C111.92 14.2856 112.264 14.2456 112.612 14.2456C113.221 14.2456 113.775 14.3365 114.275 14.5184C114.782 14.7003 115.214 14.9623 115.569 15.3042C115.931 15.6389 116.21 16.0427 116.406 16.5157C116.609 16.9886 116.71 17.5198 116.71 18.1091V25.7162H114.373V18.3383C114.373 17.5525 114.163 16.9704 113.743 16.5921C113.322 16.2137 112.75 16.0246 112.025 16.0246C111.598 16.0246 111.196 16.0609 110.819 16.1337C110.449 16.1992 110.174 16.2719 109.993 16.352C110.094 16.5848 110.174 16.8322 110.232 17.0941C110.29 17.3561 110.319 17.6216 110.319 17.8909V25.7162H107.982V18.1201C107.982 17.4143 107.837 16.8904 107.547 16.5484C107.257 16.1992 106.761 16.0246 106.058 16.0246C105.725 16.0246 105.413 16.0573 105.123 16.1228C104.834 16.181 104.584 16.2501 104.373 16.3302C104.127 16.4175 103.899 16.5157 103.689 16.6248V25.7162H101.363V16.5593L100.504 15.6753Z"/>
	<path d="M120.084 22.5293C120.084 21.9254 120.171 21.4125 120.345 20.9905C120.519 20.5684 120.772 20.2228 121.105 19.9536C121.446 19.6844 121.855 19.4843 122.334 19.3533C122.819 19.2151 123.374 19.1278 123.997 19.0914L126.421 18.9604V18.0873C126.421 17.6944 126.384 17.3706 126.312 17.116C126.247 16.8613 126.134 16.6576 125.975 16.5048C125.815 16.352 125.602 16.2465 125.334 16.1883C125.073 16.1228 124.747 16.09 124.355 16.09C123.964 16.09 123.591 16.1337 123.236 16.221C122.888 16.3083 122.584 16.4029 122.323 16.5048C122.011 16.6285 121.725 16.7667 121.464 16.9195C121.305 16.694 121.178 16.4793 121.084 16.2756C120.99 16.0646 120.917 15.8754 120.866 15.708C120.801 15.5189 120.758 15.337 120.736 15.1623C121.084 14.9877 121.457 14.8349 121.855 14.704C122.203 14.5875 122.602 14.482 123.051 14.3874C123.508 14.2929 123.986 14.2456 124.486 14.2456C125.312 14.2456 125.997 14.3183 126.54 14.4638C127.084 14.6094 127.515 14.8313 127.834 15.1296C128.16 15.4206 128.384 15.7917 128.507 16.2428C128.638 16.6867 128.703 17.2142 128.703 17.8254V23.9154L129.616 25.0286V25.7162H127.605L126.768 24.7449H126.377C126.341 24.7813 126.243 24.8649 126.084 24.9959C125.931 25.1196 125.732 25.2542 125.486 25.3997C125.247 25.538 124.971 25.6617 124.66 25.7708C124.355 25.8799 124.029 25.9345 123.681 25.9345C123.138 25.9345 122.645 25.8545 122.203 25.6944C121.761 25.5271 121.381 25.2942 121.062 24.9959C120.75 24.6903 120.508 24.3302 120.334 23.9154C120.167 23.4934 120.084 23.0314 120.084 22.5293ZM122.453 22.3329C122.453 22.6676 122.5 22.9477 122.595 23.1733C122.689 23.3915 122.819 23.5662 122.986 23.6971C123.16 23.8281 123.366 23.9191 123.605 23.97C123.852 24.0209 124.123 24.0464 124.421 24.0464C124.696 24.0464 124.953 24.0136 125.192 23.9482C125.439 23.8754 125.652 23.7954 125.834 23.708C126.044 23.6135 126.239 23.5007 126.421 23.3697V20.4338L124.236 20.5757C123.895 20.5975 123.609 20.6558 123.377 20.7503C123.152 20.8449 122.971 20.9686 122.834 21.1214C122.696 21.2742 122.598 21.4561 122.54 21.6671C122.482 21.8709 122.453 22.0928 122.453 22.3329Z"/>
	<path d="M134.153 14.442L135.272 15.6207C135.352 15.4388 135.454 15.2678 135.577 15.1078C135.707 14.9404 135.856 14.7949 136.022 14.6712C136.196 14.5475 136.388 14.4493 136.598 14.3765C136.816 14.3038 137.051 14.2674 137.305 14.2674C137.515 14.2674 137.718 14.2856 137.914 14.322C138.109 14.3511 138.323 14.4056 138.555 14.4857C138.562 14.5002 138.569 14.5584 138.577 14.6603C138.591 14.7622 138.598 14.8895 138.598 15.0423C138.598 15.1587 138.591 15.297 138.577 15.457C138.562 15.6098 138.537 15.7699 138.501 15.9372C138.472 16.0973 138.424 16.2574 138.359 16.4175C138.301 16.5775 138.225 16.7158 138.131 16.8322L137.924 16.8868C137.78 16.814 137.617 16.7522 137.435 16.7012C137.261 16.6503 137.08 16.6248 136.892 16.6248C136.602 16.6248 136.359 16.6467 136.164 16.6903C135.968 16.7267 135.809 16.7667 135.685 16.8104C135.541 16.8613 135.425 16.9195 135.338 16.985V25.7162H133.012V16.5593L132.153 15.6753V14.442H134.153Z"/>
	<path d="M142.005 16.2538H140.581C140.574 16.1737 140.566 16.0864 140.559 15.9918C140.552 15.9118 140.545 15.8172 140.537 15.708C140.537 15.5989 140.537 15.4789 140.537 15.3479C140.537 15.2169 140.541 15.0969 140.548 14.9877C140.556 14.8713 140.566 14.7294 140.581 14.5621H142.005V12.8267L143.255 11.4079H144.222V14.5621H147.298C147.313 14.6348 147.323 14.7221 147.331 14.824C147.345 14.9259 147.352 15.0241 147.352 15.1187C147.352 15.286 147.334 15.4388 147.298 15.5771C147.269 15.7153 147.237 15.8354 147.2 15.9372C147.157 16.0537 147.106 16.1592 147.048 16.2538H144.222V22.5839C144.222 23.1151 144.309 23.5007 144.483 23.7408C144.664 23.9809 144.95 24.101 145.342 24.101C145.508 24.101 145.682 24.0828 145.863 24.0464C146.052 24.0027 146.229 23.9518 146.396 23.8936C146.584 23.8281 146.776 23.7553 146.972 23.6753C147.117 23.8645 147.229 24.05 147.309 24.2319C147.396 24.4138 147.458 24.5775 147.494 24.7231C147.537 24.8904 147.563 25.0468 147.57 25.1924C147.367 25.3306 147.139 25.4543 146.885 25.5634C146.66 25.658 146.392 25.7417 146.081 25.8145C145.769 25.8945 145.41 25.9345 145.005 25.9345C144.439 25.9345 143.965 25.8618 143.581 25.7162C143.204 25.578 142.896 25.3706 142.657 25.0941C142.425 24.8104 142.258 24.4611 142.157 24.0464C142.056 23.6244 142.005 23.1405 142.005 22.5948V16.2538Z"/>
	<path d="M158.296 10.895H163.73C164.303 10.895 164.839 10.975 165.339 11.1351C165.839 11.2879 166.27 11.5243 166.632 11.8445C166.995 12.1573 167.281 12.5503 167.491 13.0232C167.701 13.4889 167.806 14.0309 167.806 14.6494C167.806 14.9768 167.748 15.3006 167.632 15.6207C167.524 15.9409 167.368 16.2428 167.165 16.5266C166.969 16.8031 166.737 17.0505 166.469 17.2688C166.201 17.4798 165.911 17.6398 165.6 17.749C165.926 17.8072 166.252 17.9309 166.578 18.1201C166.904 18.3092 167.197 18.5603 167.458 18.8731C167.719 19.186 167.929 19.5534 168.089 19.9754C168.255 20.3902 168.339 20.8486 168.339 21.3506C168.339 22.0418 168.234 22.6567 168.024 23.1951C167.821 23.7335 167.513 24.1919 167.1 24.5703C166.687 24.9413 166.176 25.2251 165.567 25.4216C164.958 25.618 164.252 25.7162 163.448 25.7162H158.296V10.895ZM163.187 23.8608C163.585 23.8608 163.944 23.8172 164.263 23.7299C164.589 23.6426 164.868 23.5007 165.1 23.3042C165.332 23.1078 165.509 22.8531 165.632 22.5402C165.763 22.2274 165.828 21.8454 165.828 21.3943C165.828 20.9359 165.763 20.5539 165.632 20.2483C165.509 19.9354 165.335 19.6844 165.111 19.4952C164.893 19.2988 164.632 19.1605 164.328 19.0805C164.031 19.0005 163.708 18.9604 163.361 18.9604H160.763V23.8608H163.187ZM163.828 17.3124C164.335 17.1596 164.705 16.8686 164.937 16.4393C165.176 16.0027 165.295 15.4206 165.295 14.693C165.295 14.0746 165.114 13.5944 164.752 13.2524C164.39 12.9031 163.89 12.7285 163.252 12.7285H160.763V17.3124H163.828Z"/>
	<path d="M173.256 14.442L174.375 15.6207C174.455 15.4388 174.557 15.2678 174.68 15.1078C174.81 14.9404 174.959 14.7949 175.125 14.6712C175.299 14.5475 175.491 14.4493 175.702 14.3765C175.919 14.3038 176.154 14.2674 176.408 14.2674C176.618 14.2674 176.821 14.2856 177.017 14.322C177.212 14.3511 177.426 14.4056 177.658 14.4857C177.665 14.5002 177.672 14.5584 177.68 14.6603C177.694 14.7622 177.701 14.8895 177.701 15.0423C177.701 15.1587 177.694 15.297 177.68 15.457C177.665 15.6098 177.64 15.7699 177.604 15.9372C177.575 16.0973 177.528 16.2574 177.462 16.4175C177.404 16.5775 177.328 16.7158 177.234 16.8322L177.028 16.8868C176.883 16.814 176.72 16.7522 176.538 16.7012C176.365 16.6503 176.183 16.6248 175.995 16.6248C175.705 16.6248 175.462 16.6467 175.267 16.6903C175.071 16.7267 174.912 16.7667 174.789 16.8104C174.644 16.8613 174.528 16.9195 174.441 16.985V25.7162H172.115V16.5593L171.256 15.6753V14.442H173.256Z"/>
	<path d="M179.956 20.1392C179.956 19.1787 180.083 18.3311 180.336 17.5962C180.597 16.8613 180.959 16.2465 181.423 15.7517C181.894 15.2569 182.452 14.8822 183.097 14.6276C183.749 14.3729 184.466 14.2456 185.249 14.2456C186.053 14.2456 186.778 14.3656 187.423 14.6057C188.068 14.8386 188.615 15.1951 189.064 15.6753C189.513 16.1555 189.858 16.7558 190.097 17.4761C190.336 18.1892 190.455 19.0259 190.455 19.9864C190.455 20.9468 190.332 21.7981 190.086 22.5402C189.847 23.2824 189.499 23.9045 189.042 24.4065C188.593 24.9086 188.046 25.2906 187.401 25.5525C186.764 25.8072 186.046 25.9345 185.249 25.9345C184.423 25.9345 183.68 25.8145 183.021 25.5744C182.369 25.327 181.814 24.9632 181.358 24.4829C180.909 23.9955 180.561 23.3915 180.314 22.6712C180.075 21.9436 179.956 21.0996 179.956 20.1392ZM185.249 24.1337C185.727 24.1337 186.14 24.0318 186.488 23.8281C186.843 23.6171 187.133 23.3297 187.358 22.9659C187.582 22.5948 187.749 22.1583 187.858 21.6562C187.966 21.1469 188.021 20.5903 188.021 19.9864C188.021 18.6839 187.8 17.6908 187.358 17.0068C186.916 16.3229 186.213 15.9809 185.249 15.9809C184.764 15.9809 184.34 16.0864 183.977 16.2974C183.622 16.5011 183.325 16.7885 183.086 17.1596C182.854 17.5307 182.68 17.9709 182.564 18.4802C182.448 18.9895 182.39 19.5425 182.39 20.1392C182.39 21.4561 182.622 22.4529 183.086 23.1296C183.557 23.799 184.278 24.1337 185.249 24.1337Z"/>
	<path d="M193.873 10H196.09V18.3056L195.981 19.8881L196.557 19.2005L200.046 14.5621H202.677L199.144 19.0587L198.242 19.9209L198.949 20.5648L202.872 25.7162H200.231L196.492 20.6739L195.981 20.0191L196.09 22.0055V25.7162H193.873V10Z"/>
	<path d="M205.061 20.2483C205.061 19.2005 205.188 18.2983 205.442 17.5416C205.696 16.7849 206.051 16.1628 206.507 15.6753C206.964 15.1878 207.507 14.8313 208.137 14.6057C208.775 14.3729 209.474 14.2565 210.235 14.2565C210.938 14.2565 211.565 14.3765 212.116 14.6166C212.674 14.8495 213.145 15.1805 213.529 15.6098C213.913 16.0391 214.206 16.5521 214.409 17.1487C214.612 17.7453 214.713 18.4038 214.713 19.1241C214.713 19.3715 214.702 19.6007 214.681 19.8117C214.659 20.0227 214.634 20.2046 214.605 20.3574C214.576 20.5393 214.543 20.703 214.507 20.8486L207.377 20.8158C207.384 21.4634 207.453 22.0018 207.583 22.4311C207.714 22.8531 207.906 23.1878 208.159 23.4352C208.42 23.6826 208.746 23.8572 209.137 23.9591C209.529 24.0537 209.992 24.101 210.529 24.101C210.985 24.101 211.395 24.0719 211.757 24.0136C212.119 23.9554 212.427 23.8863 212.681 23.8063C212.971 23.719 213.231 23.6171 213.463 23.5007C213.572 23.7553 213.655 23.9918 213.713 24.2101C213.779 24.4284 213.826 24.6176 213.855 24.7776C213.884 24.9668 213.905 25.1342 213.92 25.2797C213.681 25.4034 213.391 25.5125 213.05 25.6071C212.76 25.6871 212.405 25.7599 211.985 25.8254C211.565 25.8981 211.079 25.9345 210.529 25.9345C209.659 25.9345 208.884 25.8363 208.203 25.6398C207.529 25.4434 206.956 25.1232 206.485 24.6794C206.022 24.2283 205.667 23.6426 205.42 22.9222C205.181 22.1946 205.061 21.3033 205.061 20.2483ZM212.387 19.2224V18.8513C212.387 18.3929 212.329 17.9891 212.213 17.6398C212.105 17.2833 211.953 16.985 211.757 16.7449C211.561 16.5048 211.329 16.3229 211.061 16.1992C210.793 16.0755 210.503 16.0136 210.192 16.0136C209.735 16.0136 209.333 16.0755 208.985 16.1992C208.637 16.3156 208.344 16.5048 208.105 16.7667C207.873 17.0214 207.699 17.3524 207.583 17.7599C207.467 18.1673 207.409 18.6548 207.409 19.2224H212.387Z"/>
	<path d="M219.554 14.442L220.674 15.6207C220.754 15.4388 220.855 15.2678 220.978 15.1078C221.109 14.9404 221.257 14.7949 221.424 14.6712C221.598 14.5475 221.79 14.4493 222 14.3765C222.217 14.3038 222.453 14.2674 222.707 14.2674C222.917 14.2674 223.12 14.2856 223.315 14.322C223.511 14.3511 223.725 14.4056 223.957 14.4857C223.964 14.5002 223.971 14.5584 223.978 14.6603C223.993 14.7622 224 14.8895 224 15.0423C224 15.1587 223.993 15.297 223.978 15.457C223.964 15.6098 223.938 15.7699 223.902 15.9372C223.873 16.0973 223.826 16.2574 223.761 16.4175C223.703 16.5775 223.627 16.7158 223.533 16.8322L223.326 16.8868C223.181 16.814 223.018 16.7522 222.837 16.7012C222.663 16.6503 222.482 16.6248 222.294 16.6248C222.004 16.6248 221.761 16.6467 221.565 16.6903C221.37 16.7267 221.21 16.7667 221.087 16.8104C220.942 16.8613 220.826 16.9195 220.739 16.985V25.7162H218.413V16.5593L217.555 15.6753V14.442H219.554Z"/>
	<path d="M231.001 12.04C230.441 12.04 229.915 11.94 229.421 11.74C228.928 11.5267 228.495 11.24 228.121 10.88C227.761 10.5067 227.475 10.0667 227.261 9.56C227.061 9.05333 226.961 8.50667 226.961 7.92C226.961 7.33333 227.061 6.78667 227.261 6.28C227.475 5.77333 227.761 5.34 228.121 4.98C228.495 4.60667 228.928 4.32 229.421 4.12C229.915 3.90667 230.441 3.8 231.001 3.8C231.561 3.8 232.088 3.90667 232.581 4.12C233.075 4.32 233.501 4.60667 233.861 4.98C234.235 5.34 234.521 5.77333 234.721 6.28C234.935 6.78667 235.041 7.33333 235.041 7.92C235.041 8.50667 234.935 9.05333 234.721 9.56C234.521 10.0667 234.235 10.5067 233.861 10.88C233.501 11.24 233.075 11.5267 232.581 11.74C232.088 11.94 231.561 12.04 231.001 12.04ZM231.001 11.1C231.401 11.1 231.781 11.04 232.141 10.92C232.501 10.7867 232.815 10.6 233.081 10.36C233.348 10.1067 233.561 9.80667 233.721 9.46C233.881 9.1 233.961 8.69333 233.961 8.24V7.6C233.961 7.14667 233.881 6.74667 233.721 6.4C233.561 6.04 233.348 5.74 233.081 5.5C232.815 5.24667 232.501 5.06 232.141 4.94C231.781 4.80667 231.401 4.74 231.001 4.74C230.601 4.74 230.221 4.80667 229.861 4.94C229.501 5.06 229.188 5.24667 228.921 5.5C228.655 5.74 228.441 6.04 228.281 6.4C228.121 6.74667 228.041 7.14667 228.041 7.6V8.24C228.041 8.69333 228.121 9.1 228.281 9.46C228.441 9.80667 228.655 10.1067 228.921 10.36C229.188 10.6 229.501 10.7867 229.861 10.92C230.221 11.04 230.601 11.1 231.001 11.1ZM230.541 10H229.261V5.82H231.301C231.861 5.82 232.268 5.95333 232.521 6.22C232.775 6.48667 232.901 6.82 232.901 7.22C232.901 7.55333 232.835 7.83333 232.701 8.06C232.568 8.27333 232.388 8.43333 232.161 8.54L233.021 10H231.641L231.001 8.78H230.541V10ZM231.041 7.84C231.415 7.84 231.601 7.68667 231.601 7.38V7.24C231.601 6.93333 231.415 6.78 231.041 6.78H230.541V7.84H231.041Z"/>
</symbol>




<symbol id="download" viewBox="0 0 24 24">
	<path d="M21 15V19C21 19.5304 20.7893 20.0391 20.4142 20.4142C20.0391 20.7893 19.5304 21 19 21H5C4.46957 21 3.96086 20.7893 3.58579 20.4142C3.21071 20.0391 3 19.5304 3 19V15"  stroke-linecap="round" stroke-linejoin="round"/>
	<path d="M7 10L12 15L17 10"  stroke-linecap="round" stroke-linejoin="round"/>
	<path d="M12 15V3"  stroke-linecap="round" stroke-linejoin="round"/>
</symbol>


<symbol id="settings" viewBox="0 0 24 24">
	<path d="M12 15C13.6569 15 15 13.6569 15 12C15 10.3431 13.6569 9 12 9C10.3431 9 9 10.3431 9 12C9 13.6569 10.3431 15 12 15Z"  stroke-linecap="round" stroke-linejoin="round"/>
	<path d="M19.4 15C19.2669 15.3016 19.2272 15.6362 19.286 15.9606C19.3448 16.285 19.4995 16.5843 19.73 16.82L19.79 16.88C19.976 17.0657 20.1235 17.2863 20.2241 17.5291C20.3248 17.7719 20.3766 18.0322 20.3766 18.295C20.3766 18.5578 20.3248 18.8181 20.2241 19.0609C20.1235 19.3037 19.976 19.5243 19.79 19.71C19.6043 19.896 19.3837 20.0435 19.1409 20.1441C18.8981 20.2448 18.6378 20.2966 18.375 20.2966C18.1122 20.2966 17.8519 20.2448 17.6091 20.1441C17.3663 20.0435 17.1457 19.896 16.96 19.71L16.9 19.65C16.6643 19.4195 16.365 19.2648 16.0406 19.206C15.7162 19.1472 15.3816 19.1869 15.08 19.32C14.7842 19.4468 14.532 19.6572 14.3543 19.9255C14.1766 20.1938 14.0813 20.5082 14.08 20.83V21C14.08 21.5304 13.8693 22.0391 13.4942 22.4142C13.1191 22.7893 12.6104 23 12.08 23C11.5496 23 11.0409 22.7893 10.6658 22.4142C10.2907 22.0391 10.08 21.5304 10.08 21V20.91C10.0723 20.579 9.96512 20.258 9.77251 19.9887C9.5799 19.7194 9.31074 19.5143 9 19.4C8.69838 19.2669 8.36381 19.2272 8.03941 19.286C7.71502 19.3448 7.41568 19.4995 7.18 19.73L7.12 19.79C6.93425 19.976 6.71368 20.1235 6.47088 20.2241C6.22808 20.3248 5.96783 20.3766 5.705 20.3766C5.44217 20.3766 5.18192 20.3248 4.93912 20.2241C4.69632 20.1235 4.47575 19.976 4.29 19.79C4.10405 19.6043 3.95653 19.3837 3.85588 19.1409C3.75523 18.8981 3.70343 18.6378 3.70343 18.375C3.70343 18.1122 3.75523 17.8519 3.85588 17.6091C3.95653 17.3663 4.10405 17.1457 4.29 16.96L4.35 16.9C4.58054 16.6643 4.73519 16.365 4.794 16.0406C4.85282 15.7162 4.81312 15.3816 4.68 15.08C4.55324 14.7842 4.34276 14.532 4.07447 14.3543C3.80618 14.1766 3.49179 14.0813 3.17 14.08H3C2.46957 14.08 1.96086 13.8693 1.58579 13.4942C1.21071 13.1191 1 12.6104 1 12.08C1 11.5496 1.21071 11.0409 1.58579 10.6658C1.96086 10.2907 2.46957 10.08 3 10.08H3.09C3.42099 10.0723 3.742 9.96512 4.0113 9.77251C4.28059 9.5799 4.48572 9.31074 4.6 9C4.73312 8.69838 4.77282 8.36381 4.714 8.03941C4.65519 7.71502 4.50054 7.41568 4.27 7.18L4.21 7.12C4.02405 6.93425 3.87653 6.71368 3.77588 6.47088C3.67523 6.22808 3.62343 5.96783 3.62343 5.705C3.62343 5.44217 3.67523 5.18192 3.77588 4.93912C3.87653 4.69632 4.02405 4.47575 4.21 4.29C4.39575 4.10405 4.61632 3.95653 4.85912 3.85588C5.10192 3.75523 5.36217 3.70343 5.625 3.70343C5.88783 3.70343 6.14808 3.75523 6.39088 3.85588C6.63368 3.95653 6.85425 4.10405 7.04 4.29L7.1 4.35C7.33568 4.58054 7.63502 4.73519 7.95941 4.794C8.28381 4.85282 8.61838 4.81312 8.92 4.68H9C9.29577 4.55324 9.54802 4.34276 9.72569 4.07447C9.90337 3.80618 9.99872 3.49179 10 3.17V3C10 2.46957 10.2107 1.96086 10.5858 1.58579C10.9609 1.21071 11.4696 1 12 1C12.5304 1 13.0391 1.21071 13.4142 1.58579C13.7893 1.96086 14 2.46957 14 3V3.09C14.0013 3.41179 14.0966 3.72618 14.2743 3.99447C14.452 4.26276 14.7042 4.47324 15 4.6C15.3016 4.73312 15.6362 4.77282 15.9606 4.714C16.285 4.65519 16.5843 4.50054 16.82 4.27L16.88 4.21C17.0657 4.02405 17.2863 3.87653 17.5291 3.77588C17.7719 3.67523 18.0322 3.62343 18.295 3.62343C18.5578 3.62343 18.8181 3.67523 19.0609 3.77588C19.3037 3.87653 19.5243 4.02405 19.71 4.21C19.896 4.39575 20.0435 4.61632 20.1441 4.85912C20.2448 5.10192 20.2966 5.36217 20.2966 5.625C20.2966 5.88783 20.2448 6.14808 20.1441 6.39088C20.0435 6.63368 19.896 6.85425 19.71 7.04L19.65 7.1C19.4195 7.33568 19.2648 7.63502 19.206 7.95941C19.1472 8.28381 19.1869 8.61838 19.32 8.92V9C19.4468 9.29577 19.6572 9.54802 19.9255 9.72569C20.1938 9.90337 20.5082 9.99872 20.83 10H21C21.5304 10 22.0391 10.2107 22.4142 10.5858C22.7893 10.9609 23 11.4696 23 12C23 12.5304 22.7893 13.0391 22.4142 13.4142C22.0391 13.7893 21.5304 14 21 14H20.91C20.5882 14.0013 20.2738 14.0966 20.0055 14.2743C19.7372 14.452 19.5268 14.7042 19.4 15V15Z"  stroke-linecap="round" stroke-linejoin="round"/>
</symbol>



<symbol id="cashout" viewBox="0 0 32 32">
	<path d="M28.8 22.3999C28.8 26.8182 23.0693 30.3999 16 30.3999C8.93077 30.3999 3.20001 26.8182 3.20001 22.3999"  stroke-linecap="round"/>
	<path d="M16 22.3999V3.1999M16 3.1999L20.8 7.31419M16 3.1999L11.2 7.31419"  stroke-linecap="round" stroke-linejoin="round"/>
</symbol>



<symbol id="arrow" viewBox="0 0 24 24">
	<path d="M8 8L4 12L8 16" stroke-linecap="round" stroke-linejoin="round"/>
	<path d="M20 12H4"  stroke-linecap="round" stroke-linejoin="round"/>
</symbol>


<symbol id="phone" viewBox="0 0 24 24">
	<path d="M17 2H7C5.89543 2 5 2.89543 5 4V20C5 21.1046 5.89543 22 7 22H17C18.1046 22 19 21.1046 19 20V4C19 2.89543 18.1046 2 17 2Z" stroke-linecap="round" stroke-linejoin="round"/>
	<path d="M12.7143 18H11.2857C11.1279 18 11 18.0448 11 18.1V18.9C11 18.9552 11.1279 19 11.2857 19H12.7143C12.8721 19 13 18.9552 13 18.9V18.1C13 18.0448 12.8721 18 12.7143 18Z" stroke-linecap="round" stroke-linejoin="round"/>
</symbol>



<symbol id="x" viewBox="0 0 16 16">
	<path d="M12 4L4 12" stroke-linecap="round" stroke-linejoin="round"/>
<path d="M4 4L12 12" stroke-linecap="round" stroke-linejoin="round"/>
</symbol>


<symbol id="menu" viewBox="0 0 24 24">
	<path d="M3 12H15" stroke-linecap="round" stroke-linejoin="round"/>
	<path d="M3 6H21" stroke-linecap="round" stroke-linejoin="round"/>
	<path d="M3 18H21" stroke-linecap="round" stroke-linejoin="round"/>
</symbol>

<symbol id="deposit" viewBox="0 0 32 32">
	<path d="M28.8 22.3999C28.8 26.8182 23.0693 30.3999 16 30.3999C8.93077 30.3999 3.20001 26.8182 3.20001 22.3999" stroke-linecap="round"/>
	<path d="M16.0004 3.2002V22.4002M16.0004 22.4002L20.0004 18.2859M16.0004 22.4002L12.0004 18.2859" stroke-linecap="round" stroke-linejoin="round"/>
</symbol>



<symbol id="plus" viewBox="0 0 32 32">
	<path d="M16 6.6665V25.3332"  stroke-linecap="round" stroke-linejoin="round"/>
	<path d="M6.66669 16H25.3334" stroke-linecap="round" stroke-linejoin="round"/>
</symbol>



<symbol id="deposits-icon1" viewBox="0 0 24 24">
	<path d="M22 12H18L15 21L9 3L6 12H2" stroke-linecap="round" stroke-linejoin="round"/>
</symbol>


<symbol id="deposits-icon2" viewBox="0 0 24 24">
	<path d="M12 8C13.6569 8 15 6.65685 15 5C15 3.34315 13.6569 2 12 2C10.3431 2 9 3.34315 9 5C9 6.65685 10.3431 8 12 8Z" stroke-linecap="round" stroke-linejoin="round"/>
	<path d="M12 22V8" stroke-linecap="round" stroke-linejoin="round"/>
	<path d="M5 12H2C2 14.6522 3.05357 17.1957 4.92893 19.0711C6.8043 20.9464 9.34784 22 12 22C14.6522 22 17.1957 20.9464 19.0711 19.0711C20.9464 17.1957 22 14.6522 22 12H19" stroke-linecap="round" stroke-linejoin="round"/>
</symbol>

<symbol id="deposits-icon3" viewBox="0 0 24 24">
	<path d="M12 15C15.866 15 19 11.866 19 8C19 4.13401 15.866 1 12 1C8.13401 1 5 4.13401 5 8C5 11.866 8.13401 15 12 15Z" stroke-linecap="round" stroke-linejoin="round"/>
	<path d="M8.21 13.89L7 23L12 20L17 23L15.79 13.88" stroke-linecap="round" stroke-linejoin="round"/>
</symbol>

<symbol id="deposits-icon4" viewBox="0 0 24 24">
	<path d="M21 16V8.00002C20.9996 7.6493 20.9071 7.30483 20.7315 7.00119C20.556 6.69754 20.3037 6.44539 20 6.27002L13 2.27002C12.696 2.09449 12.3511 2.00208 12 2.00208C11.6489 2.00208 11.304 2.09449 11 2.27002L4 6.27002C3.69626 6.44539 3.44398 6.69754 3.26846 7.00119C3.09294 7.30483 3.00036 7.6493 3 8.00002V16C3.00036 16.3508 3.09294 16.6952 3.26846 16.9989C3.44398 17.3025 3.69626 17.5547 4 17.73L11 21.73C11.304 21.9056 11.6489 21.998 12 21.998C12.3511 21.998 12.696 21.9056 13 21.73L20 17.73C20.3037 17.5547 20.556 17.3025 20.7315 16.9989C20.9071 16.6952 20.9996 16.3508 21 16Z" stroke-linecap="round" stroke-linejoin="round"/>
	<path d="M3.27002 6.95996L12 12.01L20.73 6.95996" stroke-linecap="round" stroke-linejoin="round"/>
	<path d="M12 22.08V12" stroke-linecap="round" stroke-linejoin="round"/>
</symbol>

<symbol id="deposits-icon5" viewBox="0 0 24 24">
	<path d="M12 22C17.5228 22 22 17.5228 22 12C22 6.47715 17.5228 2 12 2C6.47715 2 2 6.47715 2 12C2 17.5228 6.47715 22 12 22Z" stroke-linecap="round" stroke-linejoin="round"/>
</symbol>

<symbol id="deposits-icon6" viewBox="0 0 24 24">
	<path d="M12 22C17.5228 22 22 17.5228 22 12C22 6.47715 17.5228 2 12 2C6.47715 2 2 6.47715 2 12C2 17.5228 6.47715 22 12 22Z" stroke-linecap="round" stroke-linejoin="round"/>
	<path d="M16.24 7.76001L14.12 14.12L7.76001 16.24L9.88001 9.88001L16.24 7.76001Z" stroke-linecap="round" stroke-linejoin="round"/>
</symbol>

<symbol id="deposits-icon7" viewBox="0 0 24 24">
	<path d="M12 22C17.5228 22 22 17.5228 22 12C22 6.47715 17.5228 2 12 2C6.47715 2 2 6.47715 2 12C2 17.5228 6.47715 22 12 22Z" stroke-linecap="round" stroke-linejoin="round"/>
	<path d="M22 12H18" stroke-linecap="round" stroke-linejoin="round"/>
	<path d="M6 12H2" stroke-linecap="round" stroke-linejoin="round"/>
	<path d="M12 6V2" stroke-linecap="round" stroke-linejoin="round"/>
	<path d="M12 22V18" stroke-linecap="round" stroke-linejoin="round"/>
</symbol>

<symbol id="deposits-icon8" viewBox="0 0 24 24">
	<path d="M11.9999 2.68994L17.6599 8.34994C18.7792 9.46855 19.5417 10.894 19.8508 12.446C20.1599 13.998 20.0018 15.6068 19.3964 17.0689C18.7911 18.531 17.7657 19.7808 16.45 20.66C15.1343 21.5393 13.5874 22.0086 12.0049 22.0086C10.4224 22.0086 8.87549 21.5393 7.55978 20.66C6.24407 19.7808 5.2187 18.531 4.61335 17.0689C4.008 15.6068 3.84988 13.998 4.15899 12.446C4.46809 10.894 5.23054 9.46855 6.34989 8.34994L11.9999 2.68994Z" stroke-linecap="round" stroke-linejoin="round"/>
</symbol>

<symbol id="deposits-icon9" viewBox="0 0 24 24">
	<path d="M4 15C4 15 5 14 8 14C11 14 13 16 16 16C19 16 20 15 20 15V3C20 3 19 4 16 4C13 4 11 2 8 2C5 2 4 3 4 3V15Z" stroke-linecap="round" stroke-linejoin="round"/>
	<path d="M4 22V15" stroke-linecap="round" stroke-linejoin="round"/>
</symbol>

<symbol id="deposits-icon10" viewBox="0 0 24 24">
	<path d="M4 9H20" stroke-linecap="round" stroke-linejoin="round"/>
	<path d="M4 15H20" stroke-linecap="round" stroke-linejoin="round"/>
	<path d="M10 3L8 21" stroke-linecap="round" stroke-linejoin="round"/>
	<path d="M16 3L14 21" stroke-linecap="round" stroke-linejoin="round"/>
</symbol>

<symbol id="deposits-icon11" viewBox="0 0 24 24">
	<path d="M20.8401 4.60999C20.3294 4.099 19.7229 3.69364 19.0555 3.41708C18.388 3.14052 17.6726 2.99817 16.9501 2.99817C16.2276 2.99817 15.5122 3.14052 14.8448 3.41708C14.1773 3.69364 13.5709 4.099 13.0601 4.60999L12.0001 5.66999L10.9401 4.60999C9.90843 3.5783 8.50915 2.9987 7.05012 2.9987C5.59109 2.9987 4.19181 3.5783 3.16012 4.60999C2.12843 5.64169 1.54883 7.04096 1.54883 8.49999C1.54883 9.95903 2.12843 11.3583 3.16012 12.39L4.22012 13.45L12.0001 21.23L19.7801 13.45L20.8401 12.39C21.3511 11.8792 21.7565 11.2728 22.033 10.6053C22.3096 9.93789 22.4519 9.22248 22.4519 8.49999C22.4519 7.77751 22.3096 7.0621 22.033 6.39464C21.7565 5.72718 21.3511 5.12075 20.8401 4.60999V4.60999Z" stroke-linecap="round" stroke-linejoin="round"/>
</symbol>

<symbol id="deposits-icon12" viewBox="0 0 24 24">
	<path d="M21 16V8.00002C20.9996 7.6493 20.9071 7.30483 20.7315 7.00119C20.556 6.69754 20.3037 6.44539 20 6.27002L13 2.27002C12.696 2.09449 12.3511 2.00208 12 2.00208C11.6489 2.00208 11.304 2.09449 11 2.27002L4 6.27002C3.69626 6.44539 3.44398 6.69754 3.26846 7.00119C3.09294 7.30483 3.00036 7.6493 3 8.00002V16C3.00036 16.3508 3.09294 16.6952 3.26846 16.9989C3.44398 17.3025 3.69626 17.5547 4 17.73L11 21.73C11.304 21.9056 11.6489 21.998 12 21.998C12.3511 21.998 12.696 21.9056 13 21.73L20 17.73C20.3037 17.5547 20.556 17.3025 20.7315 16.9989C20.9071 16.6952 20.9996 16.3508 21 16Z" stroke-linecap="round" stroke-linejoin="round"/>
</symbol>

<symbol id="deposits-icon13" viewBox="0 0 24 24">
	<path d="M15.5 7.5L19 4M21 2L19 4L21 2ZM11.39 11.61C11.9064 12.1195 12.3168 12.726 12.5978 13.3948C12.8787 14.0635 13.0246 14.7813 13.0271 15.5066C13.0295 16.232 12.8884 16.9507 12.6119 17.6213C12.3355 18.2919 11.9291 18.9012 11.4162 19.4141C10.9033 19.9271 10.294 20.3334 9.62333 20.6099C8.95271 20.8864 8.23403 21.0275 7.50866 21.025C6.7833 21.0226 6.06557 20.8767 5.39682 20.5958C4.72807 20.3148 4.1215 19.9043 3.61203 19.388C2.61016 18.3507 2.05579 16.9614 2.06832 15.5193C2.08085 14.0772 2.65928 12.6977 3.67903 11.678C4.69877 10.6583 6.07824 10.0798 7.52032 10.0673C8.96241 10.0548 10.3517 10.6091 11.389 11.611L11.39 11.61ZM11.39 11.61L15.5 7.5L11.39 11.61ZM15.5 7.5L18.5 10.5L22 7L19 4L15.5 7.5Z" stroke-linecap="round" stroke-linejoin="round"/>
</symbol>

<symbol id="deposits-icon14" viewBox="0 0 24 24">
	<path d="M12 22C17.5228 22 22 17.5228 22 12C22 6.47715 17.5228 2 12 2C6.47715 2 2 6.47715 2 12C2 17.5228 6.47715 22 12 22Z" stroke-linecap="round" stroke-linejoin="round"/>
	<path d="M8 15H16" stroke-linecap="round" stroke-linejoin="round"/>
	<path d="M9 9H9.01" stroke-linecap="round" stroke-linejoin="round"/>
	<path d="M15 9H15.01" stroke-linecap="round" stroke-linejoin="round"/>
</symbol>

<symbol id="deposits-icon15" viewBox="0 0 24 24">
	<path d="M20.9999 12.79C20.8426 14.4922 20.2038 16.1144 19.1581 17.4668C18.1125 18.8192 16.7034 19.8458 15.0956 20.4265C13.4878 21.0073 11.7479 21.1181 10.0794 20.7461C8.41092 20.3741 6.8829 19.5345 5.67413 18.3258C4.46536 17.117 3.62584 15.589 3.25381 13.9205C2.88178 12.252 2.99262 10.5121 3.57336 8.9043C4.15411 7.29651 5.18073 5.88737 6.53311 4.84175C7.8855 3.79614 9.5077 3.15731 11.2099 3C10.2133 4.34827 9.73375 6.00945 9.85843 7.68141C9.98312 9.35338 10.7038 10.9251 11.8893 12.1106C13.0748 13.2961 14.6465 14.0168 16.3185 14.1415C17.9905 14.2662 19.6516 13.7866 20.9999 12.79V12.79Z" stroke-linecap="round" stroke-linejoin="round"/>
</symbol>

<symbol id="deposits-icon16" viewBox="0 0 24 24">
	<path d="M7.86 2H16.14L22 7.86V16.14L16.14 22H7.86L2 16.14V7.86L7.86 2Z" stroke-linecap="round" stroke-linejoin="round"/>
</symbol>

<symbol id="deposits-icon17" viewBox="0 0 24 24">
	<path d="M19 5L5 19" stroke-linecap="round" stroke-linejoin="round"/>
	<path d="M6.5 9C7.88071 9 9 7.88071 9 6.5C9 5.11929 7.88071 4 6.5 4C5.11929 4 4 5.11929 4 6.5C4 7.88071 5.11929 9 6.5 9Z" stroke-linecap="round" stroke-linejoin="round"/>
	<path d="M17.5 20C18.8807 20 20 18.8807 20 17.5C20 16.1193 18.8807 15 17.5 15C16.1193 15 15 16.1193 15 17.5C15 18.8807 16.1193 20 17.5 20Z" stroke-linecap="round" stroke-linejoin="round"/>
</symbol>

<symbol id="deposits-icon18" viewBox="0 0 24 24">
	<path d="M12 22C17.5228 22 22 17.5228 22 12C22 6.47715 17.5228 2 12 2C6.47715 2 2 6.47715 2 12C2 17.5228 6.47715 22 12 22Z" stroke-linecap="round" stroke-linejoin="round"/>
	<path d="M8 14C8 14 9.5 16 12 16C14.5 16 16 14 16 14" stroke-linecap="round" stroke-linejoin="round"/>
	<path d="M9 9H9.01" stroke-linecap="round" stroke-linejoin="round"/>
	<path d="M15 9H15.01" stroke-linecap="round" stroke-linejoin="round"/>
</symbol>

<symbol id="deposits-icon19" viewBox="0 0 24 24">
	<path d="M19 3H5C3.89543 3 3 3.89543 3 5V19C3 20.1046 3.89543 21 5 21H19C20.1046 21 21 20.1046 21 19V5C21 3.89543 20.1046 3 19 3Z" stroke-linecap="round" stroke-linejoin="round"/>
</symbol>

<symbol id="deposits-icon20" viewBox="0 0 24 24">
	<path d="M12 2L15.09 8.26L22 9.27L17 14.14L18.18 21.02L12 17.77L5.82 21.02L7 14.14L2 9.27L8.91 8.26L12 2Z" stroke-linecap="round" stroke-linejoin="round"/>
</symbol>

<symbol id="deposits-icon21" viewBox="0 0 24 24">
	<path d="M12 17C14.7614 17 17 14.7614 17 12C17 9.23858 14.7614 7 12 7C9.23858 7 7 9.23858 7 12C7 14.7614 9.23858 17 12 17Z" stroke-linecap="round" stroke-linejoin="round"/>
	<path d="M12 1V3" stroke-linecap="round" stroke-linejoin="round"/>
	<path d="M12 21V23" stroke-linecap="round" stroke-linejoin="round"/>
	<path d="M4.21997 4.21997L5.63997 5.63997" stroke-linecap="round" stroke-linejoin="round"/>
	<path d="M18.3601 18.36L19.7801 19.78" stroke-linecap="round" stroke-linejoin="round"/>
	<path d="M1 12H3" stroke-linecap="round" stroke-linejoin="round"/>
	<path d="M21 12H23" stroke-linecap="round" stroke-linejoin="round"/>
	<path d="M4.21997 19.78L5.63997 18.36" stroke-linecap="round" stroke-linejoin="round"/>
	<path d="M18.3601 5.63997L19.7801 4.21997" stroke-linecap="round" stroke-linejoin="round"/>
</symbol>

<symbol id="deposits-icon22" viewBox="0 0 24 24">
	<path d="M7 22H4C3.46957 22 2.96086 21.7893 2.58579 21.4142C2.21071 21.0391 2 20.5304 2 20V13C2 12.4696 2.21071 11.9609 2.58579 11.5858C2.96086 11.2107 3.46957 11 4 11H7M14 9V5C14 4.20435 13.6839 3.44129 13.1213 2.87868C12.5587 2.31607 11.7956 2 11 2L7 11V22H18.28C18.7623 22.0055 19.2304 21.8364 19.5979 21.524C19.9654 21.2116 20.2077 20.7769 20.28 20.3L21.66 11.3C21.7035 11.0134 21.6842 10.7207 21.6033 10.4423C21.5225 10.1638 21.3821 9.90629 21.1919 9.68751C21.0016 9.46873 20.7661 9.29393 20.5016 9.17522C20.2371 9.0565 19.9499 8.99672 19.66 9H14Z" stroke-linecap="round" stroke-linejoin="round"/>
</symbol>

<symbol id="deposits-icon23" viewBox="0 0 24 24">
	<path d="M13 2L3 14H12L11 22L21 10H12L13 2Z" stroke-linecap="round" stroke-linejoin="round"/>
</symbol>

<symbol id="clock" viewBox="0 0 12 12">
	<path d="M6 11C8.76142 11 11 8.76142 11 6C11 3.23858 8.76142 1 6 1C3.23858 1 1 3.23858 1 6C1 8.76142 3.23858 11 6 11Z" stroke-linecap="round" stroke-linejoin="round"/>
	<path d="M6 3V6L8 7" stroke-linecap="round" stroke-linejoin="round"/>
</symbol>


<symbol id="file" viewBox="0 0 24 24">
	<path d="M14 2H6C5.46957 2 4.96086 2.21071 4.58579 2.58579C4.21071 2.96086 4 3.46957 4 4V20C4 20.5304 4.21071 21.0391 4.58579 21.4142C4.96086 21.7893 5.46957 22 6 22H18C18.5304 22 19.0391 21.7893 19.4142 21.4142C19.7893 21.0391 20 20.5304 20 20V8L14 2Z" stroke-linecap="round" stroke-linejoin="round"/>
	<path d="M14 2V8H20" stroke-linecap="round" stroke-linejoin="round"/>
	<path d="M16 13H8" stroke-linecap="round" stroke-linejoin="round"/>
	<path d="M16 17H8" stroke-linecap="round" stroke-linejoin="round"/>
	<path d="M10 9H9H8" stroke-linecap="round" stroke-linejoin="round"/>
</symbol>

<symbol id="trade-up" viewBox="0 0 24 24">
	<path d="M23 6L13.5 15.5L8.5 10.5L1 18" stroke-linecap="round" stroke-linejoin="round"/>
	<path d="M17 6H23V12" stroke-linecap="round" stroke-linejoin="round"/>
</symbol>



<symbol id="wallet" viewBox="0 0 24 24">
	<path d="M20 8V6C20 4.89543 19.2267 4 18.2727 4H2.72727C1.77333 4 1 4.89543 1 6V10.5" stroke-linecap="round" stroke-linejoin="round"/>
	<path d="M20.0909 9H2.90909C1.85473 9 1 9.50368 1 10.125V18.875C1 19.4963 1.85473 20 2.90909 20H20.0909C21.1453 20 22 19.4963 22 18.875V12.125C22 9.50368 21.1453 9 20.0909 9Z" stroke-linecap="round" stroke-linejoin="round"/>
	<path d="M17 15V14" stroke-linecap="round" stroke-linejoin="round"/>
</symbol>

<symbol id="info" viewBox="0 0 24 24">
	<path d="M12 22C17.5228 22 22 17.5228 22 12C22 6.47715 17.5228 2 12 2C6.47715 2 2 6.47715 2 12C2 17.5228 6.47715 22 12 22Z" stroke-linecap="round" stroke-linejoin="round"/>
	<path d="M12 16V12" stroke-linecap="round" stroke-linejoin="round"/>
	<path d="M12 9V8" stroke-linecap="round" stroke-linejoin="round"/>
</symbol>

<symbol id="chat" viewBox="0 0 24 24">
	<path d="M18 9.02779C18.0032 10.2743 17.712 11.504 17.15 12.6167C16.4836 13.95 15.4592 15.0714 14.1915 15.8554C12.9237 16.6394 11.4628 17.055 9.97221 17.0556C8.72567 17.0588 7.49599 16.7676 6.38332 16.2056L1 18L2.79444 12.6167C2.23243 11.504 1.94119 10.2743 1.94444 9.02779C1.94502 7.53723 2.36058 6.07627 3.14456 4.80854C3.92855 3.54081 5.05001 2.51639 6.38332 1.85003C7.49599 1.28802 8.72567 0.996777 9.97221 1.00003H10.4444C12.413 1.10863 14.2723 1.93952 15.6664 3.33361C17.0605 4.7277 17.8914 6.58702 18 8.55557V9.02779Z" stroke-linecap="round" stroke-linejoin="round"/>
	<path d="M12 21.2472C13.0571 21.888 14.2754 22.2276 15.5183 22.2281C16.5578 22.2307 17.5832 21.9927 18.511 21.5333L23 23L21.5037 18.6C21.9723 17.6906 22.2152 16.6855 22.2125 15.6667C22.212 14.4484 22.1574 13.0362 21.5037 12" stroke-linecap="round" stroke-linejoin="round"/>
</symbol>

<symbol id="x-circle" viewBox="0 0 32 32">
	<path d="M16 29.3332C23.3638 29.3332 29.3334 23.3636 29.3334 15.9998C29.3334 8.63604 23.3638 2.6665 16 2.6665C8.63622 2.6665 2.66669 8.63604 2.66669 15.9998C2.66669 23.3636 8.63622 29.3332 16 29.3332Z" stroke-linecap="round" stroke-linejoin="round"/>
	<path d="M20 12L12 20" stroke-linecap="round" stroke-linejoin="round"/>
	<path d="M12 12L20 20" stroke-linecap="round" stroke-linejoin="round"/>
</symbol>




<symbol id="succes-round" viewBox="0 0 24 24">
	<path d="M22 11.0799V11.9999C21.9988 14.1563 21.3005 16.2545 20.0093 17.9817C18.7182 19.7088 16.9033 20.9723 14.8354 21.5838C12.7674 22.1952 10.5573 22.1218 8.53447 21.3744C6.51168 20.6271 4.78465 19.246 3.61096 17.4369C2.43727 15.6279 1.87979 13.4879 2.02168 11.3362C2.16356 9.18443 2.99721 7.13619 4.39828 5.49694C5.79935 3.85768 7.69279 2.71525 9.79619 2.24001C11.8996 1.76477 14.1003 1.9822 16.07 2.85986"  stroke-linecap="round" stroke-linejoin="round"/>
	<path d="M22 4L12 14.01L9 11.01" stroke-linecap="round" stroke-linejoin="round"/>
</symbol>




<symbol id="progress-arrow" viewBox="0 0 48 48">
	<path d="M11 11.5002L47.5 27C36.7108 33.786 32.4765 38.2166 23.4998 47.5002L11 11.5002Z" />
</symbol>



<symbol id="info-mock__figure" viewBox="0 0 260 138">
	<path d="M224 106C224 54.0852 181.915 12 130 12C78.0852 12 36 54.0852 36 106" stroke="#E9EBEF" stroke-width="24"/>
	<rect x="98" y="62" width="64" height="12" rx="3" fill="#E9EBEF"/>
	<rect x="86" y="78" width="88" height="8" rx="3" fill="#ACAEBD"/>
	<rect x="196" y="112" width="56" height="12" rx="3" fill="#E9EBEF"/>
	<rect x="8" y="112" width="56" height="12" rx="3" fill="#E9EBEF"/>
	<rect y="130" width="72" height="8" rx="3" fill="#ACAEBD"/>
	<rect x="188" y="130" width="72" height="8" rx="3" fill="#ACAEBD"/>
</symbol>


<symbol id="dropdown-arrow" viewBox="0 0 12 12">
	<path d="M3 7.5L6 4.5L9 7.5"   stroke-linecap="round" stroke-linejoin="round"/>
</symbol>



<symbol id="search" viewBox="0 0 24 24">
	<path d="M11 19C15.4183 19 19 15.4183 19 11C19 6.58172 15.4183 3 11 3C6.58172 3 3 6.58172 3 11C3 15.4183 6.58172 19 11 19Z" stroke-linecap="round" stroke-linejoin="round"/>
	<path d="M21 21L16.65 16.65"  stroke-linecap="round" stroke-linejoin="round"/>
</symbol>


</svg>