<svg xmlns="http://www.w3.org/2000/svg" viewBox="-249 420.9 96 96" enable-background="new -249 420.9 96 96">
	<path d="M-186.9 456.7c.5 0 1-.2 1.4-.6l2.8-2.8c.8-.8.8-2 0-2.8-.8-.8-2-.8-2.8 0l-2.8 2.8c-.8.8-.8 2 0 2.8.4.5.9.6 1.4.6zm-32.1 12.2c0-1.1-.9-2-2-2h-4c-1.1 0-2 .9-2 2s.9 2 2 2h4c1.1 0 2-.9 2-2zm2.4 12.7l-2.8 2.8c-.8.8-.8 2 0 2.8.4.4.9.6 1.4.6.5 0 1-.2 1.4-.6l2.8-2.8c.8-.8.8-2 0-2.8-.7-.8-2-.8-2.8 0zm0-25.4c.4.4.9.6 1.4.6s1-.2 1.4-.6c.8-.8.8-2 0-2.8l-2.8-2.8c-.8-.8-2-.8-2.8 0-.8.8-.8 2 0 2.8l2.8 2.8zm15.6-5.3c1.1 0 2-.9 2-2v-4c0-1.1-.9-2-2-2s-2 .9-2 2v4c0 1.1.9 2 2 2zm24 16h-4c-1.1 0-2 .9-2 2s.9 2 2 2h4c1.1 0 2-.9 2-2s-.9-2-2-2zm-8.4 14.7c-.8-.8-2-.8-2.8 0-.8.8-.8 2 0 2.8l2.8 2.8c.4.4.9.6 1.4.6.5 0 1-.2 1.4-.6.8-.8.8-2 0-2.8l-2.8-2.8zm-15.6 5.3c-1.1 0-2 .9-2 2v4c0 1.1.9 2 2 2s2-.9 2-2v-4c0-1.1-.9-2-2-2zm0-32c-7.7 0-14 6.3-14 14s6.3 14 14 14 14-6.3 14-14-6.3-14-14-14zm0 24c-5.5 0-10-4.5-10-10s4.5-10 10-10 10 4.5 10 10-4.5 10-10 10z"/>
</svg>