<svg xmlns="http://www.w3.org/2000/svg" viewBox="-249 445.9 66 46" enable-background="new -249 445.9 66 46">
	<path d="M-199 461.9c2.2 0 4 1.8 4 4s-1.8 4-4 4h-21c-1.1 0-2 .9-2 2s.9 2 2 2h21c4.4 0 8-3.6 8-8s-3.6-8-8-8c-1.1 0-2 .9-2 2s.9 2 2 2zM-202 475.9h-36c-3.9 0-7-3.1-7-7s3.1-7 7-7c.3 0 .7.1 1.2.2v1.8c0 1.1.9 2 2 2s2-.9 2-2v-3.2c1.1-6.3 6.4-10.8 12.8-10.8 7.2 0 13 5.8 13 13v1c0 1.1.9 2 2 2s2-.9 2-2v-1c0-9.4-7.6-17-17-17-7.7 0-14.2 5-16.3 12.2-.6-.1-1.2-.2-1.7-.2-6.1 0-11 4.9-11 11s4.9 11 11 11h36c3.9 0 7 3.1 7 7 0 1.1.9 2 2 2s2-.9 2-2c0-6.1-4.9-11-11-11zM-202 481.9h-36c-1.1 0-2 .9-2 2s.9 2 2 2h36c.6 0 1 .4 1 1s-.4 1-1 1c-1.1 0-2 .9-2 2s.9 2 2 2c2.8 0 5-2.2 5-5s-2.2-5-5-5zM-188 467.9c-1.1 0-2 .9-2 2s.9 2 2 2c.6 0 1 .4 1 1s-.4 1-1 1h-4c-1.1 0-2 .9-2 2s.9 2 2 2h4c2.8 0 5-2.2 5-5s-2.2-5-5-5z"/>
</svg>