<svg xmlns="http://www.w3.org/2000/svg" viewBox="-249 444.9 58 48" enable-background="new -249 444.9 58 48">
	<path d="M-202 456.9c-.5 0-1.1.1-1.7.2-2.1-7.2-8.6-12.2-16.3-12.2s-14.2 5-16.3 12.2c-.6-.1-1.2-.2-1.7-.2-6.1 0-11 4.9-11 11s4.9 11 11 11c1.1 0 2-.9 2-2s-.9-2-2-2c-3.9 0-7-3.1-7-7s3.1-7 7-7c.3 0 .7.1 1.2.2v1.8c0 1.1.9 2 2 2s2-.9 2-2v-3.2c1.1-6.3 6.4-10.8 12.8-10.8s11.7 4.5 12.8 10.8v3.2c0 1.1.9 2 2 2s2-.9 2-2v-1.8c.5-.1.9-.2 1.2-.2 3.9 0 7 3.1 7 7s-3.1 7-7 7c-1.1 0-2 .9-2 2s.9 2 2 2c6.1 0 11-4.9 11-11s-4.9-11-11-11zM-222.3 479.4c-.6-1-1.8-1.3-2.7-.7-1 .6-1.3 1.8-.7 2.7l1 1.7c.4.6 1 1 1.7 1 .3 0 .7-.1 1-.3 1-.6 1.3-1.8.7-2.7l-1-1.7zM-227.3 470.7c-.6-1-1.8-1.3-2.7-.7-1 .6-1.3 1.8-.7 2.7l1 1.7c.4.6 1 1 1.7 1 .3 0 .7-.1 1-.3 1-.6 1.3-1.8.7-2.7l-1-1.7zM-225 475.2c.3.2.7.3 1 .3.7 0 1.4-.4 1.7-1l1-1.7c.6-1 .2-2.2-.7-2.7-1-.6-2.2-.2-2.7.7l-1 1.7c-.6.9-.3 2.1.7 2.7zM-227 478.6c-1-.6-2.2-.2-2.7.7l-1 1.7c-.6 1-.2 2.2.7 2.7.3.2.7.3 1 .3.7 0 1.4-.4 1.7-1l1-1.7c.6-.9.3-2.1-.7-2.7zM-228 476.9c0-1.1-.9-2-2-2h-2c-1.1 0-2 .9-2 2s.9 2 2 2h2c1.1 0 2-.9 2-2zM-218 476.9c0-1.1-.9-2-2-2h-2c-1.1 0-2 .9-2 2s.9 2 2 2h2c1.1 0 2-.9 2-2zM-207.3 488.2c-.6-1-1.8-1.3-2.7-.7-1 .6-1.3 1.8-.7 2.7l1 1.7c.4.6 1 1 1.7 1 .3 0 .7-.1 1-.3 1-.6 1.3-1.8.7-2.7l-1-1.7zM-212.3 479.5c-.6-1-1.8-1.3-2.7-.7-1 .6-1.3 1.8-.7 2.7l1 1.7c.4.6 1 1 1.7 1 .3 0 .7-.1 1-.3 1-.6 1.3-1.8.7-2.7l-1-1.7zM-210 484c.3.2.7.3 1 .3.7 0 1.4-.4 1.7-1l1-1.7c.6-1 .2-2.2-.7-2.7s-2.2-.2-2.7.7l-1 1.7c-.6.9-.3 2.1.7 2.7zM-212 487.4c-1-.6-2.2-.2-2.7.7l-1 1.7c-.6 1-.2 2.2.7 2.7.3.2.7.3 1 .3.7 0 1.4-.4 1.7-1l1-1.7c.6-.9.3-2.1-.7-2.7zM-213 485.7c0-1.1-.9-2-2-2h-2c-1.1 0-2 .9-2 2s.9 2 2 2h2c1.1 0 2-.9 2-2zM-205 483.7h-2c-1.1 0-2 .9-2 2s.9 2 2 2h2c1.1 0 2-.9 2-2s-.9-2-2-2z"/>
</svg>