<svg xmlns="http://www.w3.org/2000/svg" viewBox="-249 451.9 64 34" enable-background="new -249 451.9 64 34">
	<path d="M-226 455.9h12c1.1 0 2-.9 2-2s-.9-2-2-2h-12c-1.1 0-2 .9-2 2s.9 2 2 2zM-238 461.9h24c1.1 0 2-.9 2-2s-.9-2-2-2h-24c-1.1 0-2 .9-2 2s.9 2 2 2zM-244 467.9h24c1.1 0 2-.9 2-2s-.9-2-2-2h-24c-1.1 0-2 .9-2 2s.9 2 2 2zM-185 471.9c0-1.1-.9-2-2-2h-60c-1.1 0-2 .9-2 2s.9 2 2 2h60c1.1 0 2-.9 2-2zM-187 475.9h-57c-1.1 0-2 .9-2 2s.9 2 2 2h57c1.1 0 2-.9 2-2s-.9-2-2-2zM-226 481.9h-12c-1.1 0-2 .9-2 2s.9 2 2 2h12c1.1 0 2-.9 2-2s-.9-2-2-2zM-207 461.9h8c1.1 0 2-.9 2-2s-.9-2-2-2h-8c-1.1 0-2 .9-2 2s.9 2 2 2zM-216 465.9c0 1.1.9 2 2 2h21c1.1 0 2-.9 2-2s-.9-2-2-2h-21c-1.1 0-2 .9-2 2zM-193 481.9h-27c-1.1 0-2 .9-2 2s.9 2 2 2h27c1.1 0 2-.9 2-2s-.9-2-2-2z"/>
</svg>