<svg xmlns="http://www.w3.org/2000/svg" viewBox="-249 442.9 22 52" enable-background="new -249 442.9 22 52">

	<path d="M-236 479.3v-11.4c0-1.1-.9-2-2-2s-2 .9-2 2v11.4c-1.8.8-3 2.5-3 4.6 0 2.8 2.2 5 5 5s5-2.2 5-5c0-2.1-1.2-3.8-3-4.6zm-2 5.6c-.6 0-1-.4-1-1s.4-1 1-1 1 .4 1 1-.4 1-1 1zM-230 476.3v-25.5c0-4.4-3.6-8-8-8s-8 3.6-8 8v25.5c-1.9 2-3 4.7-3 7.5 0 6.1 4.9 11 11 11s11-4.9 11-11c0-2.7-1.1-5.4-3-7.5zm-8 14.6c-3.9 0-7-3.1-7-7 0-2 .8-3.9 2.3-5.2.4-.4.7-.9.7-1.5v-26.3c0-2.2 1.8-4 4-4s4 1.8 4 4v26.3c0 .6.2 1.1.7 1.5 1.5 1.3 2.3 3.2 2.3 5.2 0 3.8-3.1 7-7 7z"/>
</svg>