<svg xmlns="http://www.w3.org/2000/svg" viewBox="-249 442.9 67 52" enable-background="new -249 442.9 67 52"><style type="text/css">.st0{display:none;}</style><g id="Dibujo"><path d="M-195.4 475.1c.9-1.9 1.4-4 1.4-6.2 0-7.7-6.3-14-14-14-4.6 0-8.9 2.3-11.5 6h-.5c-7.7 0-14.2 5-16.3 12.2-.6-.1-1.2-.2-1.7-.2-6.1 0-11 4.9-11 11s4.9 11 11 11h36c6.1 0 11-4.9 11-11 0-3.6-1.8-6.8-4.4-8.8zm-12.6-16.2c5.5 0 10 4.5 10 10 0 1.5-.4 3-1 4.4-.9-.3-1.9-.4-3-.4-.5 0-1.1.1-1.7.2-1.6-5.5-5.9-9.7-11.2-11.4 1.8-1.8 4.3-2.8 6.9-2.8zm6 32h-36c-3.9 0-7-3.1-7-7s3.1-7 7-7c.3 0 .7.1 1.2.2v1.8c0 1.1.9 2 2 2s2-.9 2-2v-3.2c1.1-6.3 6.4-10.8 12.8-10.8s11.7 4.5 12.8 10.8v3.2c0 1.1.9 2 2 2s2-.9 2-2v-1.8c.5-.1.9-.2 1.2-.2 3.9 0 7 3.1 7 7s-3.1 7-7 7zM-208 450.9c1.1 0 2-.9 2-2v-4c0-1.1-.9-2-2-2s-2 .9-2 2v4c0 1.1.9 2 2 2zM-184 466.9h-4c-1.1 0-2 .9-2 2s.9 2 2 2h4c1.1 0 2-.9 2-2s-.9-2-2-2zM-193.9 456.7c.5 0 1-.2 1.4-.6l2.8-2.8c.8-.8.8-2 0-2.8-.8-.8-2-.8-2.8 0l-2.8 2.8c-.8.8-.8 2 0 2.8.4.5.9.6 1.4.6zM-223.6 456.2c.4.4.9.6 1.4.6s1-.2 1.4-.6c.8-.8.8-2 0-2.8l-2.8-2.8c-.8-.8-2-.8-2.8 0-.8.8-.8 2 0 2.8l2.8 2.8z"/></g></svg>