<svg xmlns="http://www.w3.org/2000/svg" viewBox="-249 442.9 58 52" enable-background="new -249 442.9 58 52"><style type="text/css">.st0{display:none;}</style><path d="M-202 454.9c-.5 0-1.1.1-1.7.2-2.1-7.2-8.6-12.2-16.3-12.2-7.7 0-14.2 5-16.3 12.2-.6-.1-1.2-.2-1.7-.2-6.1 0-11 4.9-11 11s4.9 11 11 11h11.3l-3.9 5.9c-.4.6-.4 1.4-.1 2.1.3.6 1 1.1 1.8 1.1h2.3l-3.9 5.9c-.6.9-.4 2.2.6 2.8.3.2.7.3 1.1.3.6 0 1.3-.3 1.7-.9l6-9c.4-.6.4-1.4.1-2.1-.3-.6-1-1.1-1.8-1.1h-2.3l3.3-5h5.2l-1.9 2.9c-.4.6-.4 1.4-.1 2.1.3.6 1 1.1 1.8 1.1h2.3l-1.9 2.9c-.6.9-.4 2.2.6 2.8.3.2.7.3 1.1.3.6 0 1.3-.3 1.7-.9l4-6c.4-.6.4-1.4.1-2.1-.3-.6-1-1.1-1.8-1.1h-2.3l1.3-2h9.9c6.1 0 11-4.9 11-11s-5.1-11-11.2-11zm0 18h-36c-3.9 0-7-3.1-7-7s3.1-7 7-7c.3 0 .7.1 1.2.2v1.8c0 1.1.9 2 2 2s2-.9 2-2v-3.2c1.1-6.3 6.4-10.8 12.8-10.8s11.7 4.5 12.8 10.8v3.2c0 1.1.9 2 2 2s2-.9 2-2v-1.8c.5-.1.9-.2 1.2-.2 3.9 0 7 3.1 7 7s-3.1 7-7 7z" id="Dibujo"/></svg>